<svg xmlns="http://www.w3.org/2000/svg" xmlns:xlink="http://www.w3.org/1999/xlink" viewBox="0 0 374.13 529.32"><defs><style>.cls-1{fill:#3799e2;opacity:0.8;}.cls-2{fill:url(#Dégradé_sans_nom_68);}</style><linearGradient id="Dégradé_sans_nom_68" x1="7.97" y1="86.27" x2="363.16" y2="441.47" gradientUnits="userSpaceOnUse"><stop offset="0" stop-color="#4d4d4d"/><stop offset="1" stop-color="#333"/></linearGradient></defs><title>cadran-gauche</title><g id="Calque_2" data-name="Calque 2"><g id="Cockpit"><g id="Start"><g id="Cadran"><g id="cadran-gauche"><path id="cadran-gauche-2" data-name="cadran-gauche" class="cls-1" d="M278.92,497.48,127.31,525.31c-61.7,11.32-118.56-36-118.56-98.78V140.44a100.43,100.43,0,0,1,82.3-98.78L242.66,13.83c61.7-11.32,118.56,36.06,118.56,98.78V398.7A100.42,100.42,0,0,1,278.92,497.48Z"/><path id="cadran-gauche-3" data-name="cadran-gauche" class="cls-2" d="M279.15,498.71q-46.53,8.16-92.93,17-23.21,4.42-46.36,9.06l-11.58,2.33c-1.94.38-3.94.7-5.92,1s-4,.48-6,.72a100.41,100.41,0,0,1-24.12-.67A104.23,104.23,0,0,1,3.18,426L2.5,378.8.44,189.86,0,142.62c0-1.89,0-4.08,0-6.22,0-1.07.1-2.14.15-3.21s.1-2.14.22-3.2c.22-2.13.4-4.26.76-6.38s.69-4.23,1.11-6.33a110,110,0,0,1,8.15-24.37,110,110,0,0,1,78.8-61.08l46.38-9L182,13.72l46.34-9.17L239.9,2.26c.46-.1,1-.19,1.54-.28l1.63-.28,3.25-.54c2.17-.31,4.37-.5,6.56-.75a110.88,110.88,0,0,1,26.43.89,112.42,112.42,0,0,1,82.88,60.39,110.89,110.89,0,0,1,9.08,25,113.87,113.87,0,0,1,2.86,26.37l-.41,47.23q-.57,47.24-2.1,94.47c-1,31.49-2.38,63-3.71,94.47l-2,47.24c-.06,1.93-.19,4-.31,6.07,0,1-.19,2.05-.28,3.07s-.19,2-.35,3.06c-.31,2-.57,4.06-1,6.07s-.83,4-1.31,6A100.65,100.65,0,0,1,359,432.46a105.37,105.37,0,0,1-36.15,47.59,107.22,107.22,0,0,1-10.07,6.56,111.68,111.68,0,0,1-10.75,5.31A103.21,103.21,0,0,1,279.15,498.71Zm-.45-2.46a100.18,100.18,0,0,0,22.12-7.11,94.91,94.91,0,0,0,10.25-5.46,104.21,104.21,0,0,0,9.48-6.67,95.77,95.77,0,0,0,27.95-36.09,89.42,89.42,0,0,0,4-10.7,94.19,94.19,0,0,0,2.67-11.06,93,93,0,0,0,1.32-11.25c.08-.94.07-1.89.1-2.83s.09-1.88.05-2.82c0-1.89-.05-3.73-.15-5.74l-2-47.24c-1.33-31.49-2.71-63-3.71-94.47s-1.72-63-2.1-94.47l-.4-47.23-.18-5.23c-.11-1.71-.3-3.42-.43-5.13L347,97.66l-1-5a89.11,89.11,0,0,0-70.68-66.91,86.42,86.42,0,0,0-20.64-1.28c-1.73.16-3.47.26-5.19.45l-2.59.36-1.29.18c-.42.06-.86.11-1.36.21l-11.65,2L186,35.5,139.4,43.44,92.85,51.5a90.86,90.86,0,0,0-65.91,49.36,88.43,88.43,0,0,0-4.17,9.89,89.46,89.46,0,0,0-3,10.31c-.37,1.75-.76,3.5-1,5.28s-.51,3.55-.73,5.33c-.12.89-.15,1.79-.23,2.68s-.17,1.79-.18,2.69c-.05,1.8-.13,3.54-.13,5.58l-.42,47.24L15,378.8,14.32,426a98.78,98.78,0,0,0,2.06,22.25,94.41,94.41,0,0,0,7.22,21.2A97.19,97.19,0,0,0,93.12,523a95.8,95.8,0,0,0,22.95,1.5c1.91-.16,3.84-.27,5.76-.48s3.81-.49,5.74-.79l11.66-1.93q23.29-3.92,46.55-8Q232.31,505.17,278.7,496.25Z"/></g></g></g></g></g></svg>