<svg xmlns="http://www.w3.org/2000/svg" viewBox="0 0 4125 592"><defs><style>.cls-1{isolation:isolate;}.cls-2{fill:#0071bc;stroke:#000;stroke-miterlimit:10;}.cls-3{opacity:0.36;mix-blend-mode:multiply;}</style></defs><title>tuyau-droit</title><g class="cls-1"><g id="Calque_2" data-name="Calque 2"><g id="sprite-eau"><g id="tuyau-droit"><g id="tuyau-droit-1"><ellipse class="cls-2" cx="3827.75" cy="66.91" rx="11.34" ry="11.34"/><ellipse class="cls-2" cx="3900.92" cy="34.81" rx="11.34" ry="11.34"/><ellipse class="cls-2" cx="3981.1" cy="37.82" rx="11.34" ry="11.34"/><ellipse class="cls-2" cx="4050.26" cy="72.92" rx="11.34" ry="11.34"/><ellipse class="cls-2" cx="4089.35" cy="127.08" rx="11.34" ry="11.34"/><ellipse class="cls-2" cx="4098.37" cy="193.27" rx="11.34" ry="11.34"/><ellipse class="cls-2" cx="4094.36" cy="281.52" rx="11.34" ry="11.34"/><ellipse class="cls-2" cx="4089.35" cy="367.77" rx="11.34" ry="11.34"/><ellipse class="cls-2" cx="4083.34" cy="449" rx="11.34" ry="11.34"/><ellipse class="cls-2" cx="4079.33" cy="526.22" rx="11.34" ry="11.34"/><polygon points="4039.02 25.14 4007.43 79.36 4004.5 76.01 4031.79 23.43 4039.02 25.14"/><polygon points="3933.47 0 3935.27 63.52 3937.46 63.52 3939.66 0 3933.47 0"/><polygon points="3880.13 66.16 3845.14 15.26 3841.27 17.95 3875.14 68.75 3880.13 66.16"/><polygon points="3768.83 79.49 3827.9 101.59 3825.95 106.47 3767.34 84.94 3768.83 79.49"/><polygon class="cls-3" points="4010.39 74.29 4013.93 76.44 4041.92 35.22 4035.46 31.25 4010.39 74.29"/><polygon class="cls-3" points="3937.58 57.04 3941.53 57.04 3944.09 7.21 3939.55 7.21 3937.58 57.04"/><polygon class="cls-3" points="3872.63 64.99 3844.57 22.91 3839.12 25.63 3870.52 65.86 3872.63 64.99"/><polygon class="cls-3" points="3821.94 105 3774.06 87.41 3770.42 93.9 3820.13 107.64 3821.94 105"/><path d="M3946.49,7.21h-32.25c-89.74,0-162.74,73.07-162.74,162.84v47.59a24.9,24.9,0,1,0,49.8,0V170.05A113.11,113.11,0,0,1,3914.24,57h32.25c70,0,126.89,56.79,127.21,126.69l-20.47,405.18c0,.53,0,1.06,0,1.59H4103l20.45-404.89,0-1.26C4123.5,86.67,4044.09,7.21,3946.49,7.21ZM3828,77.89a11.34,11.34,0,1,1,11.34-11.34A11.33,11.33,0,0,1,3828,77.89Zm72.56-31.76a11.35,11.35,0,1,1,11.34-11.34A11.34,11.34,0,0,1,3900.55,46.13Zm80.12,3A11.35,11.35,0,1,1,3992,37.81,11.35,11.35,0,0,1,3980.67,49.16Zm69.53,34.78a11.34,11.34,0,1,1,11.34-11.34A11.33,11.33,0,0,1,4050.2,83.94Zm39.31,31.77a11.34,11.34,0,1,1-11.34,11.34A11.34,11.34,0,0,1,4089.51,115.71Zm-10.59,422a11.35,11.35,0,1,1,11.34-11.35A11.34,11.34,0,0,1,4078.92,537.7Zm4.54-77.14a11.35,11.35,0,1,1,11.34-11.35A11.35,11.35,0,0,1,4083.46,460.56Zm6.05-81.68a11.34,11.34,0,1,1,11.33-11.34A11.34,11.34,0,0,1,4089.51,378.88Zm4.53-86.21a11.35,11.35,0,1,1,11.34-11.34A11.34,11.34,0,0,1,4094,292.67Zm4.53-87.73a11.34,11.34,0,1,1,11.34-11.34A11.33,11.33,0,0,1,4098.57,204.94Z"/><path d="M4104.45,592H4051.7v-1.5c0-.56,0-1.11,0-1.67l20.47-405.17c-.32-69-56.71-125.12-125.71-125.12h-32.25A111.6,111.6,0,0,0,3802.8,170.05v47.59a26.4,26.4,0,1,1-52.8,0V170.05c0-90.62,73.68-164.34,164.24-164.34h32.25c98.43,0,178.51,80.14,178.51,178.64l0,1.29Zm-49.72-3h46.86L4122,185.53l0-1.22c0-96.8-78.73-175.59-175.5-175.59h-32.25c-88.9,0-161.23,72.37-161.23,161.33v47.59a23.39,23.39,0,1,0,46.78,0V170.05A114.62,114.62,0,0,1,3914.24,55.53h32.25c70.65,0,128.39,57.51,128.72,128.2L4054.73,589Zm24.19-49.79a12.85,12.85,0,1,1,12.84-12.85A12.86,12.86,0,0,1,4078.92,539.2Zm0-22.69a9.84,9.84,0,1,0,9.84,9.84A9.85,9.85,0,0,0,4078.92,516.51Zm4.54-54.45a12.85,12.85,0,1,1,12.84-12.85A12.86,12.86,0,0,1,4083.46,462.06Zm0-22.68a9.84,9.84,0,1,0,9.83,9.83A9.85,9.85,0,0,0,4083.46,439.38Zm6.05-59a12.85,12.85,0,1,1,12.84-12.85A12.87,12.87,0,0,1,4089.51,380.39Zm0-22.69a9.84,9.84,0,1,0,9.83,9.84A9.85,9.85,0,0,0,4089.51,357.7Zm4.53-63.53a12.85,12.85,0,1,1,12.84-12.84A12.85,12.85,0,0,1,4094,294.17Zm0-22.68a9.84,9.84,0,1,0,9.83,9.84A9.84,9.84,0,0,0,4094,271.49Zm4.53-65a12.85,12.85,0,1,1,12.85-12.85A12.86,12.86,0,0,1,4098.57,206.45Zm0-22.69a9.84,9.84,0,1,0,9.84,9.84A9.85,9.85,0,0,0,4098.57,183.76Zm-9.06-43.86a12.85,12.85,0,1,1,12.84-12.85A12.86,12.86,0,0,1,4089.51,139.9Zm0-22.69a9.84,9.84,0,1,0,9.83,9.84A9.85,9.85,0,0,0,4089.51,117.21ZM4050.2,85.45A12.85,12.85,0,1,1,4063,72.6,12.86,12.86,0,0,1,4050.2,85.45Zm0-22.69A9.84,9.84,0,1,0,4060,72.6,9.84,9.84,0,0,0,4050.2,62.76ZM3828,79.4a12.85,12.85,0,1,1,12.84-12.85A12.86,12.86,0,0,1,3828,79.4Zm0-22.69a9.84,9.84,0,1,0,9.84,9.84A9.85,9.85,0,0,0,3828,56.71Zm152.68-6.05a12.85,12.85,0,1,1,12.84-12.85A12.86,12.86,0,0,1,3980.67,50.66Zm0-22.69a9.84,9.84,0,1,0,9.83,9.84A9.85,9.85,0,0,0,3980.67,28Zm-80.12,19.67a12.85,12.85,0,1,1,12.84-12.85A12.86,12.86,0,0,1,3900.55,47.64Zm0-22.69a9.84,9.84,0,1,0,9.83,9.84A9.84,9.84,0,0,0,3900.55,25Z"/></g><g id="tuyau-droit-2"><ellipse class="cls-2" cx="3452.75" cy="66.91" rx="11.34" ry="11.34"/><ellipse class="cls-2" cx="3525.92" cy="34.81" rx="11.34" ry="11.34"/><ellipse class="cls-2" cx="3606.1" cy="37.82" rx="11.34" ry="11.34"/><ellipse class="cls-2" cx="3675.26" cy="72.92" rx="11.34" ry="11.34"/><ellipse class="cls-2" cx="3714.35" cy="127.08" rx="11.34" ry="11.34"/><ellipse class="cls-2" cx="3723.37" cy="193.27" rx="11.34" ry="11.34"/><ellipse class="cls-2" cx="3719.36" cy="281.52" rx="11.34" ry="11.34"/><ellipse class="cls-2" cx="3714.35" cy="367.77" rx="11.34" ry="11.34"/><ellipse class="cls-2" cx="3708.34" cy="449" rx="11.34" ry="11.34"/><polygon points="3664.02 25.14 3632.43 79.36 3629.5 76.01 3656.79 23.43 3664.02 25.14"/><polygon points="3558.47 0 3560.27 63.52 3562.46 63.52 3564.66 0 3558.47 0"/><polygon points="3505.13 66.16 3470.14 15.26 3466.27 17.95 3500.14 68.75 3505.13 66.16"/><polygon points="3393.83 79.49 3452.9 101.59 3450.95 106.47 3392.34 84.94 3393.83 79.49"/><polygon class="cls-3" points="3635.39 74.29 3638.93 76.44 3666.92 35.22 3660.46 31.25 3635.39 74.29"/><polygon class="cls-3" points="3562.58 57.04 3566.53 57.04 3569.09 7.21 3564.55 7.21 3562.58 57.04"/><polygon class="cls-3" points="3497.63 64.99 3469.57 22.91 3464.12 25.63 3495.52 65.86 3497.63 64.99"/><polygon class="cls-3" points="3446.94 105 3399.06 87.41 3395.42 93.9 3445.13 107.64 3446.94 105"/><path d="M3571.49,7.21h-32.25c-89.74,0-162.74,73.07-162.74,162.84v47.59a24.9,24.9,0,1,0,49.8,0V170.05A113.11,113.11,0,0,1,3539.24,57h32.25c70,0,126.89,56.79,127.21,126.69l-20.47,405.18c0,.53,0,1.06,0,1.59H3728l20.45-404.89,0-1.26C3748.5,86.67,3669.09,7.21,3571.49,7.21ZM3453,77.89a11.34,11.34,0,1,1,11.34-11.34A11.33,11.33,0,0,1,3453,77.89Zm72.56-31.76a11.35,11.35,0,1,1,11.34-11.34A11.34,11.34,0,0,1,3525.55,46.13Zm80.12,3A11.35,11.35,0,1,1,3617,37.81,11.35,11.35,0,0,1,3605.67,49.16Zm69.53,34.78a11.34,11.34,0,1,1,11.34-11.34A11.33,11.33,0,0,1,3675.2,83.94Zm39.31,31.77a11.34,11.34,0,1,1-11.34,11.34A11.34,11.34,0,0,1,3714.51,115.71Zm-10.59,422a11.35,11.35,0,1,1,11.34-11.35A11.34,11.34,0,0,1,3703.92,537.7Zm4.54-77.14a11.35,11.35,0,1,1,11.34-11.35A11.35,11.35,0,0,1,3708.46,460.56Zm6.05-81.68a11.34,11.34,0,1,1,11.33-11.34A11.34,11.34,0,0,1,3714.51,378.88Zm4.53-86.21a11.35,11.35,0,1,1,11.34-11.34A11.34,11.34,0,0,1,3719,292.67Zm4.53-87.73a11.34,11.34,0,1,1,11.34-11.34A11.33,11.33,0,0,1,3723.57,204.94Z"/><path d="M3729.45,592H3676.7v-1.5c0-.56,0-1.11,0-1.67l20.47-405.17c-.32-69-56.71-125.12-125.71-125.12h-32.25A111.6,111.6,0,0,0,3427.8,170.05v47.59a26.4,26.4,0,1,1-52.8,0V170.05c0-90.62,73.68-164.34,164.24-164.34h32.25c98.43,0,178.51,80.14,178.51,178.64l0,1.29Zm-49.72-3h46.86L3747,185.53l0-1.22c0-96.8-78.73-175.59-175.5-175.59h-32.25c-88.9,0-161.23,72.37-161.23,161.33v47.59a23.39,23.39,0,1,0,46.78,0V170.05A114.62,114.62,0,0,1,3539.24,55.53h32.25c70.65,0,128.39,57.51,128.72,128.2L3679.73,589Zm24.19-49.79a12.85,12.85,0,1,1,12.84-12.85A12.86,12.86,0,0,1,3703.92,539.2Zm0-22.69a9.84,9.84,0,1,0,9.84,9.84A9.85,9.85,0,0,0,3703.92,516.51Zm4.54-54.45a12.85,12.85,0,1,1,12.84-12.85A12.86,12.86,0,0,1,3708.46,462.06Zm0-22.68a9.84,9.84,0,1,0,9.83,9.83A9.85,9.85,0,0,0,3708.46,439.38Zm6.05-59a12.85,12.85,0,1,1,12.84-12.85A12.87,12.87,0,0,1,3714.51,380.39Zm0-22.69a9.84,9.84,0,1,0,9.83,9.84A9.85,9.85,0,0,0,3714.51,357.7Zm4.53-63.53a12.85,12.85,0,1,1,12.84-12.84A12.85,12.85,0,0,1,3719,294.17Zm0-22.68a9.84,9.84,0,1,0,9.83,9.84A9.84,9.84,0,0,0,3719,271.49Zm4.53-65a12.85,12.85,0,1,1,12.85-12.85A12.86,12.86,0,0,1,3723.57,206.45Zm0-22.69a9.84,9.84,0,1,0,9.84,9.84A9.85,9.85,0,0,0,3723.57,183.76Zm-9.06-43.86a12.85,12.85,0,1,1,12.84-12.85A12.86,12.86,0,0,1,3714.51,139.9Zm0-22.69a9.84,9.84,0,1,0,9.83,9.84A9.85,9.85,0,0,0,3714.51,117.21ZM3675.2,85.45A12.85,12.85,0,1,1,3688,72.6,12.86,12.86,0,0,1,3675.2,85.45Zm0-22.69A9.84,9.84,0,1,0,3685,72.6,9.84,9.84,0,0,0,3675.2,62.76ZM3453,79.4a12.85,12.85,0,1,1,12.84-12.85A12.86,12.86,0,0,1,3453,79.4Zm0-22.69a9.84,9.84,0,1,0,9.84,9.84A9.85,9.85,0,0,0,3453,56.71Zm152.68-6.05a12.85,12.85,0,1,1,12.84-12.85A12.86,12.86,0,0,1,3605.67,50.66Zm0-22.69a9.84,9.84,0,1,0,9.83,9.84A9.85,9.85,0,0,0,3605.67,28Zm-80.12,19.67a12.85,12.85,0,1,1,12.84-12.85A12.86,12.86,0,0,1,3525.55,47.64Zm0-22.69a9.84,9.84,0,1,0,9.83,9.84A9.84,9.84,0,0,0,3525.55,25Z"/></g><g id="tuyau-droit-3"><ellipse class="cls-2" cx="3077.75" cy="66.91" rx="11.34" ry="11.34"/><ellipse class="cls-2" cx="3150.92" cy="34.81" rx="11.34" ry="11.34"/><ellipse class="cls-2" cx="3231.1" cy="37.82" rx="11.34" ry="11.34"/><ellipse class="cls-2" cx="3300.26" cy="72.92" rx="11.34" ry="11.34"/><ellipse class="cls-2" cx="3339.35" cy="127.08" rx="11.34" ry="11.34"/><ellipse class="cls-2" cx="3348.37" cy="193.27" rx="11.34" ry="11.34"/><ellipse class="cls-2" cx="3344.36" cy="281.52" rx="11.34" ry="11.34"/><ellipse class="cls-2" cx="3339.35" cy="367.77" rx="11.34" ry="11.34"/><polygon points="3289.02 25.14 3257.43 79.36 3254.5 76.01 3281.79 23.43 3289.02 25.14"/><polygon points="3183.47 0 3185.27 63.52 3187.46 63.52 3189.66 0 3183.47 0"/><polygon points="3130.13 66.16 3095.14 15.26 3091.27 17.95 3125.14 68.75 3130.13 66.16"/><polygon points="3018.83 79.49 3077.9 101.59 3075.95 106.47 3017.34 84.94 3018.83 79.49"/><polygon class="cls-3" points="3260.39 74.29 3263.93 76.44 3291.92 35.22 3285.46 31.25 3260.39 74.29"/><polygon class="cls-3" points="3187.58 57.04 3191.53 57.04 3194.09 7.21 3189.55 7.21 3187.58 57.04"/><polygon class="cls-3" points="3122.63 64.99 3094.57 22.91 3089.12 25.63 3120.52 65.86 3122.63 64.99"/><polygon class="cls-3" points="3071.94 105 3024.06 87.41 3020.42 93.9 3070.13 107.64 3071.94 105"/><path d="M3196.49,7.21h-32.25c-89.74,0-162.74,73.07-162.74,162.84v47.59a24.9,24.9,0,1,0,49.8,0V170.05A113.11,113.11,0,0,1,3164.24,57h32.25c70,0,126.89,56.79,127.21,126.69l-20.47,405.18c0,.53,0,1.06,0,1.59H3353l20.45-404.89,0-1.26C3373.5,86.67,3294.09,7.21,3196.49,7.21ZM3078,77.89a11.34,11.34,0,1,1,11.34-11.34A11.33,11.33,0,0,1,3078,77.89Zm72.56-31.76a11.35,11.35,0,1,1,11.34-11.34A11.34,11.34,0,0,1,3150.55,46.13Zm80.12,3A11.35,11.35,0,1,1,3242,37.81,11.35,11.35,0,0,1,3230.67,49.16Zm69.53,34.78a11.34,11.34,0,1,1,11.34-11.34A11.33,11.33,0,0,1,3300.2,83.94Zm39.31,31.77a11.34,11.34,0,1,1-11.34,11.34A11.34,11.34,0,0,1,3339.51,115.71Zm-10.59,422a11.35,11.35,0,1,1,11.34-11.35A11.34,11.34,0,0,1,3328.92,537.7Zm4.54-77.14a11.35,11.35,0,1,1,11.34-11.35A11.35,11.35,0,0,1,3333.46,460.56Zm6.05-81.68a11.34,11.34,0,1,1,11.33-11.34A11.34,11.34,0,0,1,3339.51,378.88Zm4.53-86.21a11.35,11.35,0,1,1,11.34-11.34A11.34,11.34,0,0,1,3344,292.67Zm4.53-87.73a11.34,11.34,0,1,1,11.34-11.34A11.33,11.33,0,0,1,3348.57,204.94Z"/><path d="M3354.45,592H3301.7v-1.5c0-.56,0-1.11,0-1.67l20.47-405.17c-.32-69-56.71-125.12-125.71-125.12h-32.25A111.6,111.6,0,0,0,3052.8,170.05v47.59a26.4,26.4,0,1,1-52.8,0V170.05c0-90.62,73.68-164.34,164.24-164.34h32.25c98.43,0,178.51,80.14,178.51,178.64l0,1.29Zm-49.72-3h46.86L3372,185.53l0-1.22c0-96.8-78.73-175.59-175.5-175.59h-32.25c-88.9,0-161.23,72.37-161.23,161.33v47.59a23.39,23.39,0,1,0,46.78,0V170.05A114.62,114.62,0,0,1,3164.24,55.53h32.25c70.65,0,128.39,57.51,128.72,128.2L3304.73,589Zm24.19-49.79a12.85,12.85,0,1,1,12.84-12.85A12.86,12.86,0,0,1,3328.92,539.2Zm0-22.69a9.84,9.84,0,1,0,9.84,9.84A9.85,9.85,0,0,0,3328.92,516.51Zm4.54-54.45a12.85,12.85,0,1,1,12.84-12.85A12.86,12.86,0,0,1,3333.46,462.06Zm0-22.68a9.84,9.84,0,1,0,9.83,9.83A9.85,9.85,0,0,0,3333.46,439.38Zm6.05-59a12.85,12.85,0,1,1,12.84-12.85A12.87,12.87,0,0,1,3339.51,380.39Zm0-22.69a9.84,9.84,0,1,0,9.83,9.84A9.85,9.85,0,0,0,3339.51,357.7Zm4.53-63.53a12.85,12.85,0,1,1,12.84-12.84A12.85,12.85,0,0,1,3344,294.17Zm0-22.68a9.84,9.84,0,1,0,9.83,9.84A9.84,9.84,0,0,0,3344,271.49Zm4.53-65a12.85,12.85,0,1,1,12.85-12.85A12.86,12.86,0,0,1,3348.57,206.45Zm0-22.69a9.84,9.84,0,1,0,9.84,9.84A9.85,9.85,0,0,0,3348.57,183.76Zm-9.06-43.86a12.85,12.85,0,1,1,12.84-12.85A12.86,12.86,0,0,1,3339.51,139.9Zm0-22.69a9.84,9.84,0,1,0,9.83,9.84A9.85,9.85,0,0,0,3339.51,117.21ZM3300.2,85.45A12.85,12.85,0,1,1,3313,72.6,12.86,12.86,0,0,1,3300.2,85.45Zm0-22.69A9.84,9.84,0,1,0,3310,72.6,9.84,9.84,0,0,0,3300.2,62.76ZM3078,79.4a12.85,12.85,0,1,1,12.84-12.85A12.86,12.86,0,0,1,3078,79.4Zm0-22.69a9.84,9.84,0,1,0,9.84,9.84A9.85,9.85,0,0,0,3078,56.71Zm152.68-6.05a12.85,12.85,0,1,1,12.84-12.85A12.86,12.86,0,0,1,3230.67,50.66Zm0-22.69a9.84,9.84,0,1,0,9.83,9.84A9.85,9.85,0,0,0,3230.67,28Zm-80.12,19.67a12.85,12.85,0,1,1,12.84-12.85A12.86,12.86,0,0,1,3150.55,47.64Zm0-22.69a9.84,9.84,0,1,0,9.83,9.84A9.84,9.84,0,0,0,3150.55,25Z"/></g><g id="tuyau-droit-4"><ellipse class="cls-2" cx="2702.75" cy="66.91" rx="11.34" ry="11.34"/><ellipse class="cls-2" cx="2775.92" cy="34.81" rx="11.34" ry="11.34"/><ellipse class="cls-2" cx="2856.1" cy="37.82" rx="11.34" ry="11.34"/><ellipse class="cls-2" cx="2925.26" cy="72.92" rx="11.34" ry="11.34"/><ellipse class="cls-2" cx="2964.35" cy="127.08" rx="11.34" ry="11.34"/><ellipse class="cls-2" cx="2973.37" cy="193.27" rx="11.34" ry="11.34"/><ellipse class="cls-2" cx="2969.36" cy="281.52" rx="11.34" ry="11.34"/><polygon points="2914.02 25.14 2882.43 79.36 2879.5 76.01 2906.79 23.43 2914.02 25.14"/><polygon points="2808.47 0 2810.27 63.52 2812.46 63.52 2814.66 0 2808.47 0"/><polygon points="2755.13 66.16 2720.14 15.26 2716.27 17.95 2750.14 68.75 2755.13 66.16"/><polygon points="2643.83 79.49 2702.9 101.59 2700.95 106.47 2642.34 84.94 2643.83 79.49"/><polygon class="cls-3" points="2885.39 74.29 2888.93 76.44 2916.92 35.22 2910.46 31.25 2885.39 74.29"/><polygon class="cls-3" points="2812.58 57.04 2816.53 57.04 2819.09 7.21 2814.55 7.21 2812.58 57.04"/><polygon class="cls-3" points="2747.63 64.99 2719.57 22.91 2714.12 25.63 2745.52 65.86 2747.63 64.99"/><polygon class="cls-3" points="2696.94 105 2649.06 87.41 2645.42 93.9 2695.13 107.64 2696.94 105"/><path d="M2821.49,7.21h-32.25c-89.74,0-162.74,73.07-162.74,162.84v47.59a24.9,24.9,0,1,0,49.8,0V170.05A113.11,113.11,0,0,1,2789.24,57h32.25c70,0,126.89,56.79,127.21,126.69l-20.47,405.18c0,.53,0,1.06,0,1.59H2978l20.45-404.89,0-1.26C2998.5,86.67,2919.09,7.21,2821.49,7.21ZM2703,77.89a11.34,11.34,0,1,1,11.34-11.34A11.33,11.33,0,0,1,2703,77.89Zm72.56-31.76a11.35,11.35,0,1,1,11.34-11.34A11.34,11.34,0,0,1,2775.55,46.13Zm80.12,3A11.35,11.35,0,1,1,2867,37.81,11.35,11.35,0,0,1,2855.67,49.16Zm69.53,34.78a11.34,11.34,0,1,1,11.34-11.34A11.33,11.33,0,0,1,2925.2,83.94Zm39.31,31.77a11.34,11.34,0,1,1-11.34,11.34A11.34,11.34,0,0,1,2964.51,115.71Zm-10.59,422a11.35,11.35,0,1,1,11.34-11.35A11.34,11.34,0,0,1,2953.92,537.7Zm4.54-77.14a11.35,11.35,0,1,1,11.34-11.35A11.35,11.35,0,0,1,2958.46,460.56Zm6.05-81.68a11.34,11.34,0,1,1,11.33-11.34A11.34,11.34,0,0,1,2964.51,378.88Zm4.53-86.21a11.35,11.35,0,1,1,11.34-11.34A11.34,11.34,0,0,1,2969,292.67Zm4.53-87.73a11.34,11.34,0,1,1,11.34-11.34A11.33,11.33,0,0,1,2973.57,204.94Z"/><path d="M2979.45,592H2926.7v-1.5c0-.56,0-1.11,0-1.67l20.47-405.17c-.32-69-56.71-125.12-125.71-125.12h-32.25A111.6,111.6,0,0,0,2677.8,170.05v47.59a26.4,26.4,0,1,1-52.8,0V170.05c0-90.62,73.68-164.34,164.24-164.34h32.25c98.43,0,178.51,80.14,178.51,178.64l0,1.29Zm-49.72-3h46.86L2997,185.53l0-1.22c0-96.8-78.73-175.59-175.5-175.59h-32.25c-88.9,0-161.23,72.37-161.23,161.33v47.59a23.39,23.39,0,1,0,46.78,0V170.05A114.62,114.62,0,0,1,2789.24,55.53h32.25c70.65,0,128.39,57.51,128.72,128.2L2929.73,589Zm24.19-49.79a12.85,12.85,0,1,1,12.84-12.85A12.86,12.86,0,0,1,2953.92,539.2Zm0-22.69a9.84,9.84,0,1,0,9.84,9.84A9.85,9.85,0,0,0,2953.92,516.51Zm4.54-54.45a12.85,12.85,0,1,1,12.84-12.85A12.86,12.86,0,0,1,2958.46,462.06Zm0-22.68a9.84,9.84,0,1,0,9.83,9.83A9.85,9.85,0,0,0,2958.46,439.38Zm6.05-59a12.85,12.85,0,1,1,12.84-12.85A12.87,12.87,0,0,1,2964.51,380.39Zm0-22.69a9.84,9.84,0,1,0,9.83,9.84A9.85,9.85,0,0,0,2964.51,357.7Zm4.53-63.53a12.85,12.85,0,1,1,12.84-12.84A12.85,12.85,0,0,1,2969,294.17Zm0-22.68a9.84,9.84,0,1,0,9.83,9.84A9.84,9.84,0,0,0,2969,271.49Zm4.53-65a12.85,12.85,0,1,1,12.85-12.85A12.86,12.86,0,0,1,2973.57,206.45Zm0-22.69a9.84,9.84,0,1,0,9.84,9.84A9.85,9.85,0,0,0,2973.57,183.76Zm-9.06-43.86a12.85,12.85,0,1,1,12.84-12.85A12.86,12.86,0,0,1,2964.51,139.9Zm0-22.69a9.84,9.84,0,1,0,9.83,9.84A9.85,9.85,0,0,0,2964.51,117.21ZM2925.2,85.45A12.85,12.85,0,1,1,2938,72.6,12.86,12.86,0,0,1,2925.2,85.45Zm0-22.69A9.84,9.84,0,1,0,2935,72.6,9.84,9.84,0,0,0,2925.2,62.76ZM2703,79.4a12.85,12.85,0,1,1,12.84-12.85A12.86,12.86,0,0,1,2703,79.4Zm0-22.69a9.84,9.84,0,1,0,9.84,9.84A9.85,9.85,0,0,0,2703,56.71Zm152.68-6.05a12.85,12.85,0,1,1,12.84-12.85A12.86,12.86,0,0,1,2855.67,50.66Zm0-22.69a9.84,9.84,0,1,0,9.83,9.84A9.85,9.85,0,0,0,2855.67,28Zm-80.12,19.67a12.85,12.85,0,1,1,12.84-12.85A12.86,12.86,0,0,1,2775.55,47.64Zm0-22.69a9.84,9.84,0,1,0,9.83,9.84A9.84,9.84,0,0,0,2775.55,25Z"/></g><g id="tuyau-droit-5"><ellipse class="cls-2" cx="2327.75" cy="66.91" rx="11.34" ry="11.34"/><ellipse class="cls-2" cx="2400.92" cy="34.81" rx="11.34" ry="11.34"/><ellipse class="cls-2" cx="2481.1" cy="37.82" rx="11.34" ry="11.34"/><ellipse class="cls-2" cx="2550.26" cy="72.92" rx="11.34" ry="11.34"/><ellipse class="cls-2" cx="2589.35" cy="127.08" rx="11.34" ry="11.34"/><ellipse class="cls-2" cx="2598.37" cy="193.27" rx="11.34" ry="11.34"/><polygon points="2539.02 25.14 2507.43 79.36 2504.5 76.01 2531.79 23.43 2539.02 25.14"/><polygon points="2433.47 0 2435.27 63.52 2437.46 63.52 2439.66 0 2433.47 0"/><polygon points="2380.13 66.16 2345.14 15.26 2341.27 17.95 2375.14 68.75 2380.13 66.16"/><polygon points="2268.83 79.49 2327.9 101.59 2325.95 106.47 2267.34 84.94 2268.83 79.49"/><polygon class="cls-3" points="2510.39 74.29 2513.93 76.44 2541.92 35.22 2535.46 31.25 2510.39 74.29"/><polygon class="cls-3" points="2437.58 57.04 2441.53 57.04 2444.09 7.21 2439.55 7.21 2437.58 57.04"/><polygon class="cls-3" points="2372.63 64.99 2344.57 22.91 2339.12 25.63 2370.52 65.86 2372.63 64.99"/><polygon class="cls-3" points="2321.94 105 2274.06 87.41 2270.42 93.9 2320.13 107.64 2321.94 105"/><path d="M2446.49,7.21h-32.25c-89.74,0-162.74,73.07-162.74,162.84v47.59a24.9,24.9,0,1,0,49.8,0V170.05A113.11,113.11,0,0,1,2414.24,57h32.25c70,0,126.89,56.79,127.21,126.69l-20.47,405.18c0,.53,0,1.06,0,1.59H2603l20.45-404.89,0-1.26C2623.5,86.67,2544.09,7.21,2446.49,7.21ZM2328,77.89a11.34,11.34,0,1,1,11.34-11.34A11.33,11.33,0,0,1,2328,77.89Zm72.56-31.76a11.35,11.35,0,1,1,11.34-11.34A11.34,11.34,0,0,1,2400.55,46.13Zm80.12,3A11.35,11.35,0,1,1,2492,37.81,11.35,11.35,0,0,1,2480.67,49.16Zm69.53,34.78a11.34,11.34,0,1,1,11.34-11.34A11.33,11.33,0,0,1,2550.2,83.94Zm39.31,31.77a11.34,11.34,0,1,1-11.34,11.34A11.34,11.34,0,0,1,2589.51,115.71Zm-10.59,422a11.35,11.35,0,1,1,11.34-11.35A11.34,11.34,0,0,1,2578.92,537.7Zm4.54-77.14a11.35,11.35,0,1,1,11.34-11.35A11.35,11.35,0,0,1,2583.46,460.56Zm6.05-81.68a11.34,11.34,0,1,1,11.33-11.34A11.34,11.34,0,0,1,2589.51,378.88Zm4.53-86.21a11.35,11.35,0,1,1,11.34-11.34A11.34,11.34,0,0,1,2594,292.67Zm4.53-87.73a11.34,11.34,0,1,1,11.34-11.34A11.33,11.33,0,0,1,2598.57,204.94Z"/><path d="M2604.45,592H2551.7v-1.5c0-.56,0-1.11,0-1.67l20.47-405.17c-.32-69-56.71-125.12-125.71-125.12h-32.25A111.6,111.6,0,0,0,2302.8,170.05v47.59a26.4,26.4,0,1,1-52.8,0V170.05c0-90.62,73.68-164.34,164.24-164.34h32.25c98.43,0,178.51,80.14,178.51,178.64l0,1.29Zm-49.72-3h46.86L2622,185.53l0-1.22c0-96.8-78.73-175.59-175.5-175.59h-32.25c-88.9,0-161.23,72.37-161.23,161.33v47.59a23.39,23.39,0,1,0,46.78,0V170.05A114.62,114.62,0,0,1,2414.24,55.53h32.25c70.65,0,128.39,57.51,128.72,128.2L2554.73,589Zm24.19-49.79a12.85,12.85,0,1,1,12.84-12.85A12.86,12.86,0,0,1,2578.92,539.2Zm0-22.69a9.84,9.84,0,1,0,9.84,9.84A9.85,9.85,0,0,0,2578.92,516.51Zm4.54-54.45a12.85,12.85,0,1,1,12.84-12.85A12.86,12.86,0,0,1,2583.46,462.06Zm0-22.68a9.84,9.84,0,1,0,9.83,9.83A9.85,9.85,0,0,0,2583.46,439.38Zm6.05-59a12.85,12.85,0,1,1,12.84-12.85A12.87,12.87,0,0,1,2589.51,380.39Zm0-22.69a9.84,9.84,0,1,0,9.83,9.84A9.85,9.85,0,0,0,2589.51,357.7Zm4.53-63.53a12.85,12.85,0,1,1,12.84-12.84A12.85,12.85,0,0,1,2594,294.17Zm0-22.68a9.84,9.84,0,1,0,9.83,9.84A9.84,9.84,0,0,0,2594,271.49Zm4.53-65a12.85,12.85,0,1,1,12.85-12.85A12.86,12.86,0,0,1,2598.57,206.45Zm0-22.69a9.84,9.84,0,1,0,9.84,9.84A9.85,9.85,0,0,0,2598.57,183.76Zm-9.06-43.86a12.85,12.85,0,1,1,12.84-12.85A12.86,12.86,0,0,1,2589.51,139.9Zm0-22.69a9.84,9.84,0,1,0,9.83,9.84A9.85,9.85,0,0,0,2589.51,117.21ZM2550.2,85.45A12.85,12.85,0,1,1,2563,72.6,12.86,12.86,0,0,1,2550.2,85.45Zm0-22.69A9.84,9.84,0,1,0,2560,72.6,9.84,9.84,0,0,0,2550.2,62.76ZM2328,79.4a12.85,12.85,0,1,1,12.84-12.85A12.86,12.86,0,0,1,2328,79.4Zm0-22.69a9.84,9.84,0,1,0,9.84,9.84A9.85,9.85,0,0,0,2328,56.71Zm152.68-6.05a12.85,12.85,0,1,1,12.84-12.85A12.86,12.86,0,0,1,2480.67,50.66Zm0-22.69a9.84,9.84,0,1,0,9.83,9.84A9.85,9.85,0,0,0,2480.67,28Zm-80.12,19.67a12.85,12.85,0,1,1,12.84-12.85A12.86,12.86,0,0,1,2400.55,47.64Zm0-22.69a9.84,9.84,0,1,0,9.83,9.84A9.84,9.84,0,0,0,2400.55,25Z"/></g><g id="tuyau-droit-6"><ellipse class="cls-2" cx="1952.75" cy="66.91" rx="11.34" ry="11.34"/><ellipse class="cls-2" cx="2025.92" cy="34.81" rx="11.34" ry="11.34"/><ellipse class="cls-2" cx="2106.1" cy="37.82" rx="11.34" ry="11.34"/><ellipse class="cls-2" cx="2175.26" cy="72.92" rx="11.34" ry="11.34"/><ellipse class="cls-2" cx="2214.35" cy="127.08" rx="11.34" ry="11.34"/><polygon points="2164.02 25.14 2132.43 79.36 2129.5 76.01 2156.79 23.43 2164.02 25.14"/><polygon points="2058.47 0 2060.27 63.52 2062.46 63.52 2064.66 0 2058.47 0"/><polygon points="2005.13 66.16 1970.14 15.26 1966.27 17.95 2000.13 68.75 2005.13 66.16"/><polygon points="1893.83 79.49 1952.9 101.59 1950.95 106.47 1892.34 84.94 1893.83 79.49"/><polygon class="cls-3" points="2135.39 74.29 2138.93 76.44 2166.92 35.22 2160.46 31.25 2135.39 74.29"/><polygon class="cls-3" points="2062.58 57.04 2066.53 57.04 2069.09 7.21 2064.55 7.21 2062.58 57.04"/><polygon class="cls-3" points="1997.63 64.99 1969.57 22.91 1964.12 25.63 1995.52 65.86 1997.63 64.99"/><polygon class="cls-3" points="1946.94 105 1899.06 87.41 1895.42 93.9 1945.13 107.64 1946.94 105"/><path d="M2071.49,7.21h-32.25c-89.74,0-162.74,73.07-162.74,162.84v47.59a24.9,24.9,0,1,0,49.8,0V170.05A113.11,113.11,0,0,1,2039.24,57h32.25c70,0,126.89,56.79,127.21,126.69l-20.47,405.18c0,.53,0,1.06,0,1.59H2228l20.45-404.89,0-1.26C2248.5,86.67,2169.09,7.21,2071.49,7.21ZM1953,77.89a11.34,11.34,0,1,1,11.34-11.34A11.33,11.33,0,0,1,1953,77.89Zm72.56-31.76a11.35,11.35,0,1,1,11.34-11.34A11.34,11.34,0,0,1,2025.55,46.13Zm80.12,3A11.35,11.35,0,1,1,2117,37.81,11.35,11.35,0,0,1,2105.67,49.16Zm69.53,34.78a11.34,11.34,0,1,1,11.34-11.34A11.33,11.33,0,0,1,2175.2,83.94Zm39.31,31.77a11.34,11.34,0,1,1-11.34,11.34A11.34,11.34,0,0,1,2214.51,115.71Zm-10.59,422a11.35,11.35,0,1,1,11.34-11.35A11.34,11.34,0,0,1,2203.92,537.7Zm4.54-77.14a11.35,11.35,0,1,1,11.34-11.35A11.35,11.35,0,0,1,2208.46,460.56Zm6.05-81.68a11.34,11.34,0,1,1,11.33-11.34A11.34,11.34,0,0,1,2214.51,378.88Zm4.53-86.21a11.35,11.35,0,1,1,11.34-11.34A11.34,11.34,0,0,1,2219,292.67Zm4.53-87.73a11.34,11.34,0,1,1,11.34-11.34A11.33,11.33,0,0,1,2223.57,204.94Z"/><path d="M2229.45,592H2176.7v-1.5c0-.56,0-1.11,0-1.67l20.47-405.17c-.32-69-56.71-125.12-125.71-125.12h-32.25A111.6,111.6,0,0,0,1927.8,170.05v47.59a26.4,26.4,0,1,1-52.8,0V170.05c0-90.62,73.68-164.34,164.24-164.34h32.25c98.43,0,178.51,80.14,178.51,178.64l0,1.29Zm-49.72-3h46.86L2247,185.53l0-1.22c0-96.8-78.73-175.59-175.5-175.59h-32.25c-88.9,0-161.23,72.37-161.23,161.33v47.59a23.39,23.39,0,1,0,46.78,0V170.05A114.62,114.62,0,0,1,2039.24,55.53h32.25c70.65,0,128.39,57.51,128.72,128.2L2179.73,589Zm24.19-49.79a12.85,12.85,0,1,1,12.84-12.85A12.86,12.86,0,0,1,2203.92,539.2Zm0-22.69a9.84,9.84,0,1,0,9.84,9.84A9.85,9.85,0,0,0,2203.92,516.51Zm4.54-54.45a12.85,12.85,0,1,1,12.84-12.85A12.86,12.86,0,0,1,2208.46,462.06Zm0-22.68a9.84,9.84,0,1,0,9.83,9.83A9.85,9.85,0,0,0,2208.46,439.38Zm6.05-59a12.85,12.85,0,1,1,12.84-12.85A12.87,12.87,0,0,1,2214.51,380.39Zm0-22.69a9.84,9.84,0,1,0,9.83,9.84A9.85,9.85,0,0,0,2214.51,357.7Zm4.53-63.53a12.85,12.85,0,1,1,12.84-12.84A12.85,12.85,0,0,1,2219,294.17Zm0-22.68a9.84,9.84,0,1,0,9.83,9.84A9.84,9.84,0,0,0,2219,271.49Zm4.53-65a12.85,12.85,0,1,1,12.85-12.85A12.86,12.86,0,0,1,2223.57,206.45Zm0-22.69a9.84,9.84,0,1,0,9.84,9.84A9.85,9.85,0,0,0,2223.57,183.76Zm-9.06-43.86a12.85,12.85,0,1,1,12.84-12.85A12.86,12.86,0,0,1,2214.51,139.9Zm0-22.69a9.84,9.84,0,1,0,9.83,9.84A9.85,9.85,0,0,0,2214.51,117.21ZM2175.2,85.45A12.85,12.85,0,1,1,2188,72.6,12.86,12.86,0,0,1,2175.2,85.45Zm0-22.69A9.84,9.84,0,1,0,2185,72.6,9.84,9.84,0,0,0,2175.2,62.76ZM1953,79.4a12.85,12.85,0,1,1,12.84-12.85A12.86,12.86,0,0,1,1953,79.4Zm0-22.69a9.84,9.84,0,1,0,9.84,9.84A9.85,9.85,0,0,0,1953,56.71Zm152.68-6.05a12.85,12.85,0,1,1,12.84-12.85A12.86,12.86,0,0,1,2105.67,50.66Zm0-22.69a9.84,9.84,0,1,0,9.83,9.84A9.85,9.85,0,0,0,2105.67,28Zm-80.12,19.67a12.85,12.85,0,1,1,12.84-12.85A12.86,12.86,0,0,1,2025.55,47.64Zm0-22.69a9.84,9.84,0,1,0,9.83,9.84A9.84,9.84,0,0,0,2025.55,25Z"/></g><g id="tuyau-droit-7"><ellipse class="cls-2" cx="1577.75" cy="66.91" rx="11.34" ry="11.34"/><ellipse class="cls-2" cx="1650.92" cy="34.81" rx="11.34" ry="11.34"/><ellipse class="cls-2" cx="1731.1" cy="37.82" rx="11.34" ry="11.34"/><ellipse class="cls-2" cx="1800.26" cy="72.92" rx="11.34" ry="11.34"/><polygon points="1789.02 25.14 1757.43 79.36 1754.5 76.01 1781.79 23.43 1789.02 25.14"/><polygon points="1683.47 0 1685.27 63.52 1687.46 63.52 1689.66 0 1683.47 0"/><polygon points="1630.13 66.16 1595.14 15.26 1591.27 17.95 1625.13 68.75 1630.13 66.16"/><polygon points="1518.83 79.49 1577.9 101.59 1575.95 106.47 1517.34 84.94 1518.83 79.49"/><polygon class="cls-3" points="1760.39 74.29 1763.93 76.44 1791.92 35.22 1785.46 31.25 1760.39 74.29"/><polygon class="cls-3" points="1687.58 57.04 1691.53 57.04 1694.09 7.21 1689.55 7.21 1687.58 57.04"/><polygon class="cls-3" points="1622.63 64.99 1594.57 22.91 1589.12 25.63 1620.52 65.86 1622.63 64.99"/><polygon class="cls-3" points="1571.94 105 1524.06 87.41 1520.42 93.9 1570.13 107.64 1571.94 105"/><path d="M1696.49,7.21h-32.25c-89.74,0-162.74,73.07-162.74,162.84v47.59a24.9,24.9,0,1,0,49.8,0V170.05A113.11,113.11,0,0,1,1664.24,57h32.25c70,0,126.89,56.79,127.21,126.69l-20.47,405.18c0,.53,0,1.06,0,1.59H1853l20.45-404.89,0-1.26C1873.5,86.67,1794.09,7.21,1696.49,7.21ZM1578,77.89a11.34,11.34,0,1,1,11.34-11.34A11.33,11.33,0,0,1,1578,77.89Zm72.56-31.76a11.35,11.35,0,1,1,11.34-11.34A11.34,11.34,0,0,1,1650.55,46.13Zm80.12,3A11.35,11.35,0,1,1,1742,37.81,11.35,11.35,0,0,1,1730.67,49.16Zm69.53,34.78a11.34,11.34,0,1,1,11.34-11.34A11.33,11.33,0,0,1,1800.2,83.94Zm39.31,31.77a11.34,11.34,0,1,1-11.34,11.34A11.34,11.34,0,0,1,1839.51,115.71Zm-10.59,422a11.35,11.35,0,1,1,11.34-11.35A11.34,11.34,0,0,1,1828.92,537.7Zm4.54-77.14a11.35,11.35,0,1,1,11.34-11.35A11.35,11.35,0,0,1,1833.46,460.56Zm6-81.68a11.34,11.34,0,1,1,11.33-11.34A11.34,11.34,0,0,1,1839.51,378.88Zm4.53-86.21a11.35,11.35,0,1,1,11.34-11.34A11.34,11.34,0,0,1,1844,292.67Zm4.53-87.73a11.34,11.34,0,1,1,11.34-11.34A11.33,11.33,0,0,1,1848.57,204.94Z"/><path d="M1854.45,592H1801.7v-1.5c0-.56,0-1.11,0-1.67l20.47-405.17c-.32-69-56.71-125.12-125.71-125.12h-32.25A111.6,111.6,0,0,0,1552.8,170.05v47.59a26.4,26.4,0,1,1-52.8,0V170.05c0-90.62,73.68-164.34,164.24-164.34h32.25c98.43,0,178.51,80.14,178.51,178.64l0,1.29Zm-49.72-3h46.86L1872,185.53l0-1.22c0-96.8-78.73-175.59-175.5-175.59h-32.25c-88.9,0-161.23,72.37-161.23,161.33v47.59a23.39,23.39,0,1,0,46.78,0V170.05A114.62,114.62,0,0,1,1664.24,55.53h32.25c70.65,0,128.39,57.51,128.72,128.2L1804.73,589Zm24.19-49.79a12.85,12.85,0,1,1,12.84-12.85A12.86,12.86,0,0,1,1828.92,539.2Zm0-22.69a9.84,9.84,0,1,0,9.84,9.84A9.85,9.85,0,0,0,1828.92,516.51Zm4.54-54.45a12.85,12.85,0,1,1,12.84-12.85A12.86,12.86,0,0,1,1833.46,462.06Zm0-22.68a9.84,9.84,0,1,0,9.83,9.83A9.85,9.85,0,0,0,1833.46,439.38Zm6-59a12.85,12.85,0,1,1,12.84-12.85A12.87,12.87,0,0,1,1839.51,380.39Zm0-22.69a9.84,9.84,0,1,0,9.83,9.84A9.85,9.85,0,0,0,1839.51,357.7Zm4.53-63.53a12.85,12.85,0,1,1,12.84-12.84A12.85,12.85,0,0,1,1844,294.17Zm0-22.68a9.84,9.84,0,1,0,9.83,9.84A9.84,9.84,0,0,0,1844,271.49Zm4.53-65a12.85,12.85,0,1,1,12.85-12.85A12.86,12.86,0,0,1,1848.57,206.45Zm0-22.69a9.84,9.84,0,1,0,9.84,9.84A9.85,9.85,0,0,0,1848.57,183.76Zm-9.06-43.86a12.85,12.85,0,1,1,12.84-12.85A12.86,12.86,0,0,1,1839.51,139.9Zm0-22.69a9.84,9.84,0,1,0,9.83,9.84A9.85,9.85,0,0,0,1839.51,117.21ZM1800.2,85.45A12.85,12.85,0,1,1,1813,72.6,12.86,12.86,0,0,1,1800.2,85.45Zm0-22.69A9.84,9.84,0,1,0,1810,72.6,9.84,9.84,0,0,0,1800.2,62.76ZM1578,79.4a12.85,12.85,0,1,1,12.84-12.85A12.86,12.86,0,0,1,1578,79.4Zm0-22.69a9.84,9.84,0,1,0,9.84,9.84A9.85,9.85,0,0,0,1578,56.71Zm152.68-6.05a12.85,12.85,0,1,1,12.84-12.85A12.86,12.86,0,0,1,1730.67,50.66Zm0-22.69a9.84,9.84,0,1,0,9.83,9.84A9.85,9.85,0,0,0,1730.67,28Zm-80.12,19.67a12.85,12.85,0,1,1,12.84-12.85A12.86,12.86,0,0,1,1650.55,47.64Zm0-22.69a9.84,9.84,0,1,0,9.83,9.84A9.84,9.84,0,0,0,1650.55,25Z"/></g><g id="tuyau-droit-8"><ellipse class="cls-2" cx="1202.75" cy="66.91" rx="11.34" ry="11.34"/><ellipse class="cls-2" cx="1275.92" cy="34.81" rx="11.34" ry="11.34"/><ellipse class="cls-2" cx="1356.1" cy="37.82" rx="11.34" ry="11.34"/><polygon points="1414.02 25.14 1382.43 79.36 1379.5 76.01 1406.79 23.43 1414.02 25.14"/><polygon points="1308.47 0 1310.27 63.52 1312.46 63.52 1314.66 0 1308.47 0"/><polygon points="1255.13 66.16 1220.14 15.26 1216.27 17.95 1250.13 68.75 1255.13 66.16"/><polygon points="1143.83 79.49 1202.9 101.59 1200.95 106.47 1142.34 84.94 1143.83 79.49"/><polygon class="cls-3" points="1385.39 74.29 1388.93 76.44 1416.92 35.22 1410.46 31.25 1385.39 74.29"/><polygon class="cls-3" points="1312.58 57.04 1316.53 57.04 1319.09 7.21 1314.55 7.21 1312.58 57.04"/><polygon class="cls-3" points="1247.63 64.99 1219.57 22.91 1214.12 25.63 1245.52 65.86 1247.63 64.99"/><polygon class="cls-3" points="1196.94 105 1149.06 87.41 1145.42 93.9 1195.13 107.64 1196.94 105"/><path d="M1321.49,7.21h-32.25c-89.74,0-162.74,73.07-162.74,162.84v47.59a24.9,24.9,0,1,0,49.8,0V170.05A113.11,113.11,0,0,1,1289.24,57h32.25c70,0,126.89,56.79,127.21,126.69l-20.47,405.18c0,.53,0,1.06,0,1.59H1478l20.45-404.89,0-1.26C1498.5,86.67,1419.09,7.21,1321.49,7.21ZM1203,77.89a11.34,11.34,0,1,1,11.34-11.34A11.33,11.33,0,0,1,1203,77.89Zm72.56-31.76a11.35,11.35,0,1,1,11.34-11.34A11.34,11.34,0,0,1,1275.55,46.13Zm80.12,3A11.35,11.35,0,1,1,1367,37.81,11.35,11.35,0,0,1,1355.67,49.16Zm69.53,34.78a11.34,11.34,0,1,1,11.34-11.34A11.33,11.33,0,0,1,1425.2,83.94Zm39.31,31.77a11.34,11.34,0,1,1-11.34,11.34A11.34,11.34,0,0,1,1464.51,115.71Zm-10.59,422a11.35,11.35,0,1,1,11.34-11.35A11.34,11.34,0,0,1,1453.92,537.7Zm4.54-77.14a11.35,11.35,0,1,1,11.34-11.35A11.35,11.35,0,0,1,1458.46,460.56Zm6-81.68a11.34,11.34,0,1,1,11.33-11.34A11.34,11.34,0,0,1,1464.51,378.88Zm4.53-86.21a11.35,11.35,0,1,1,11.34-11.34A11.34,11.34,0,0,1,1469,292.67Zm4.53-87.73a11.34,11.34,0,1,1,11.34-11.34A11.33,11.33,0,0,1,1473.57,204.94Z"/><path d="M1479.45,592H1426.7v-1.5c0-.56,0-1.11,0-1.67l20.47-405.17c-.32-69-56.71-125.12-125.71-125.12h-32.25A111.6,111.6,0,0,0,1177.8,170.05v47.59a26.4,26.4,0,1,1-52.8,0V170.05c0-90.62,73.68-164.34,164.24-164.34h32.25c98.43,0,178.51,80.14,178.51,178.64l0,1.29Zm-49.72-3h46.86L1497,185.53l0-1.22c0-96.8-78.73-175.59-175.5-175.59h-32.25c-88.9,0-161.23,72.37-161.23,161.33v47.59a23.39,23.39,0,1,0,46.78,0V170.05A114.62,114.62,0,0,1,1289.24,55.53h32.25c70.65,0,128.39,57.51,128.72,128.2L1429.73,589Zm24.19-49.79a12.85,12.85,0,1,1,12.84-12.85A12.86,12.86,0,0,1,1453.92,539.2Zm0-22.69a9.84,9.84,0,1,0,9.84,9.84A9.85,9.85,0,0,0,1453.92,516.51Zm4.54-54.45a12.85,12.85,0,1,1,12.84-12.85A12.86,12.86,0,0,1,1458.46,462.06Zm0-22.68a9.84,9.84,0,1,0,9.83,9.83A9.85,9.85,0,0,0,1458.46,439.38Zm6-59a12.85,12.85,0,1,1,12.84-12.85A12.87,12.87,0,0,1,1464.51,380.39Zm0-22.69a9.84,9.84,0,1,0,9.83,9.84A9.85,9.85,0,0,0,1464.51,357.7Zm4.53-63.53a12.85,12.85,0,1,1,12.84-12.84A12.85,12.85,0,0,1,1469,294.17Zm0-22.68a9.84,9.84,0,1,0,9.83,9.84A9.84,9.84,0,0,0,1469,271.49Zm4.53-65a12.85,12.85,0,1,1,12.85-12.85A12.86,12.86,0,0,1,1473.57,206.45Zm0-22.69a9.84,9.84,0,1,0,9.84,9.84A9.85,9.85,0,0,0,1473.57,183.76Zm-9.06-43.86a12.85,12.85,0,1,1,12.84-12.85A12.86,12.86,0,0,1,1464.51,139.9Zm0-22.69a9.84,9.84,0,1,0,9.83,9.84A9.85,9.85,0,0,0,1464.51,117.21ZM1425.2,85.45A12.85,12.85,0,1,1,1438,72.6,12.86,12.86,0,0,1,1425.2,85.45Zm0-22.69A9.84,9.84,0,1,0,1435,72.6,9.84,9.84,0,0,0,1425.2,62.76ZM1203,79.4a12.85,12.85,0,1,1,12.84-12.85A12.86,12.86,0,0,1,1203,79.4Zm0-22.69a9.84,9.84,0,1,0,9.84,9.84A9.85,9.85,0,0,0,1203,56.71Zm152.68-6.05a12.85,12.85,0,1,1,12.84-12.85A12.86,12.86,0,0,1,1355.67,50.66Zm0-22.69a9.84,9.84,0,1,0,9.83,9.84A9.85,9.85,0,0,0,1355.67,28Zm-80.12,19.67a12.85,12.85,0,1,1,12.84-12.85A12.86,12.86,0,0,1,1275.55,47.64Zm0-22.69a9.84,9.84,0,1,0,9.83,9.84A9.84,9.84,0,0,0,1275.55,25Z"/></g><g id="tuyau-droit-9"><ellipse class="cls-2" cx="827.75" cy="66.91" rx="11.34" ry="11.34"/><ellipse class="cls-2" cx="900.92" cy="34.81" rx="11.34" ry="11.34"/><polygon points="1039.02 25.14 1007.43 79.36 1004.5 76.01 1031.79 23.43 1039.02 25.14"/><polygon points="933.47 0 935.27 63.52 937.46 63.52 939.66 0 933.47 0"/><polygon points="880.13 66.16 845.14 15.26 841.27 17.95 875.13 68.75 880.13 66.16"/><polygon points="768.83 79.49 827.9 101.59 825.95 106.47 767.34 84.94 768.83 79.49"/><polygon class="cls-3" points="1010.39 74.29 1013.93 76.44 1041.92 35.22 1035.46 31.25 1010.39 74.29"/><polygon class="cls-3" points="937.58 57.04 941.53 57.04 944.09 7.21 939.54 7.21 937.58 57.04"/><polygon class="cls-3" points="872.63 64.99 844.57 22.91 839.12 25.63 870.52 65.86 872.63 64.99"/><polygon class="cls-3" points="821.94 105 774.06 87.41 770.42 93.9 820.13 107.64 821.94 105"/><path d="M946.49,7.21H914.24C824.5,7.21,751.5,80.28,751.5,170.05v47.59a24.9,24.9,0,1,0,49.8,0V170.05A113.11,113.11,0,0,1,914.24,57h32.25c70,0,126.89,56.79,127.21,126.69l-20.47,405.18c0,.53,0,1.06,0,1.59H1103l20.45-404.89,0-1.26C1123.5,86.67,1044.09,7.21,946.49,7.21ZM828,77.89a11.34,11.34,0,1,1,11.34-11.34A11.33,11.33,0,0,1,828,77.89Zm72.56-31.76a11.35,11.35,0,1,1,11.34-11.34A11.34,11.34,0,0,1,900.55,46.13Zm80.12,3A11.35,11.35,0,1,1,992,37.81,11.35,11.35,0,0,1,980.67,49.16Zm69.53,34.78a11.34,11.34,0,1,1,11.34-11.34A11.33,11.33,0,0,1,1050.2,83.94Zm39.31,31.77a11.34,11.34,0,1,1-11.34,11.34A11.34,11.34,0,0,1,1089.51,115.71Zm-10.59,422a11.35,11.35,0,1,1,11.34-11.35A11.34,11.34,0,0,1,1078.92,537.7Zm4.54-77.14a11.35,11.35,0,1,1,11.34-11.35A11.35,11.35,0,0,1,1083.46,460.56Zm6-81.68a11.34,11.34,0,1,1,11.33-11.34A11.34,11.34,0,0,1,1089.51,378.88Zm4.53-86.21a11.35,11.35,0,1,1,11.34-11.34A11.34,11.34,0,0,1,1094,292.67Zm4.53-87.73a11.34,11.34,0,1,1,11.34-11.34A11.33,11.33,0,0,1,1098.57,204.94Z"/><path d="M1104.45,592H1051.7v-1.5c0-.56,0-1.11,0-1.67l20.47-405.17c-.32-69-56.71-125.12-125.71-125.12H914.24A111.6,111.6,0,0,0,802.8,170.05v47.59a26.4,26.4,0,1,1-52.8,0V170.05C750,79.43,823.68,5.71,914.24,5.71h32.25c98.43,0,178.51,80.14,178.51,178.64l0,1.29Zm-49.72-3h46.86L1122,185.53l0-1.22c0-96.8-78.73-175.59-175.5-175.59H914.24C825.34,8.72,753,81.09,753,170.05v47.59a23.39,23.39,0,1,0,46.78,0V170.05A114.62,114.62,0,0,1,914.24,55.53h32.25c70.65,0,128.39,57.51,128.72,128.2L1054.73,589Zm24.19-49.79a12.85,12.85,0,1,1,12.84-12.85A12.86,12.86,0,0,1,1078.92,539.2Zm0-22.69a9.84,9.84,0,1,0,9.84,9.84A9.85,9.85,0,0,0,1078.92,516.51Zm4.54-54.45a12.85,12.85,0,1,1,12.84-12.85A12.86,12.86,0,0,1,1083.46,462.06Zm0-22.68a9.84,9.84,0,1,0,9.83,9.83A9.85,9.85,0,0,0,1083.46,439.38Zm6-59a12.85,12.85,0,1,1,12.84-12.85A12.87,12.87,0,0,1,1089.51,380.39Zm0-22.69a9.84,9.84,0,1,0,9.83,9.84A9.85,9.85,0,0,0,1089.51,357.7Zm4.53-63.53a12.85,12.85,0,1,1,12.84-12.84A12.85,12.85,0,0,1,1094,294.17Zm0-22.68a9.84,9.84,0,1,0,9.83,9.84A9.84,9.84,0,0,0,1094,271.49Zm4.53-65a12.85,12.85,0,1,1,12.85-12.85A12.86,12.86,0,0,1,1098.57,206.45Zm0-22.69a9.84,9.84,0,1,0,9.84,9.84A9.85,9.85,0,0,0,1098.57,183.76Zm-9.06-43.86a12.85,12.85,0,1,1,12.84-12.85A12.86,12.86,0,0,1,1089.51,139.9Zm0-22.69a9.84,9.84,0,1,0,9.83,9.84A9.85,9.85,0,0,0,1089.51,117.21ZM1050.2,85.45A12.85,12.85,0,1,1,1063,72.6,12.86,12.86,0,0,1,1050.2,85.45Zm0-22.69A9.84,9.84,0,1,0,1060,72.6,9.84,9.84,0,0,0,1050.2,62.76ZM828,79.4a12.85,12.85,0,1,1,12.84-12.85A12.86,12.86,0,0,1,828,79.4Zm0-22.69a9.84,9.84,0,1,0,9.84,9.84A9.85,9.85,0,0,0,828,56.71Zm152.68-6.05a12.85,12.85,0,1,1,12.84-12.85A12.86,12.86,0,0,1,980.67,50.66Zm0-22.69a9.84,9.84,0,1,0,9.83,9.84A9.85,9.85,0,0,0,980.67,28ZM900.55,47.64a12.85,12.85,0,1,1,12.84-12.85A12.86,12.86,0,0,1,900.55,47.64Zm0-22.69a9.84,9.84,0,1,0,9.83,9.84A9.84,9.84,0,0,0,900.55,25Z"/></g><g id="tuyau-droit-10"><ellipse class="cls-2" cx="452.75" cy="66.91" rx="11.34" ry="11.34"/><polygon points="664.02 25.14 632.43 79.36 629.5 76.01 656.79 23.43 664.02 25.14"/><polygon points="558.47 0 560.27 63.52 562.46 63.52 564.66 0 558.47 0"/><polygon points="505.13 66.16 470.14 15.26 466.27 17.95 500.13 68.75 505.13 66.16"/><polygon points="393.83 79.49 452.9 101.59 450.95 106.47 392.34 84.94 393.83 79.49"/><polygon class="cls-3" points="635.39 74.29 638.93 76.44 666.92 35.22 660.46 31.25 635.39 74.29"/><polygon class="cls-3" points="562.58 57.04 566.53 57.04 569.09 7.21 564.54 7.21 562.58 57.04"/><polygon class="cls-3" points="497.63 64.99 469.57 22.91 464.12 25.63 495.52 65.86 497.63 64.99"/><polygon class="cls-3" points="446.94 105 399.06 87.41 395.42 93.9 445.13 107.64 446.94 105"/><path d="M571.49,7.21H539.24C449.5,7.21,376.5,80.28,376.5,170.05v47.59a24.9,24.9,0,1,0,49.8,0V170.05A113.11,113.11,0,0,1,539.24,57h32.25c70,0,126.89,56.79,127.21,126.69L678.23,588.91c0,.53,0,1.06,0,1.59H728l20.45-404.89,0-1.26C748.5,86.67,669.09,7.21,571.49,7.21ZM453,77.89a11.34,11.34,0,1,1,11.34-11.34A11.33,11.33,0,0,1,453,77.89Zm72.56-31.76a11.35,11.35,0,1,1,11.34-11.34A11.34,11.34,0,0,1,525.55,46.13Zm80.12,3A11.35,11.35,0,1,1,617,37.81,11.35,11.35,0,0,1,605.67,49.16ZM675.2,83.94A11.34,11.34,0,1,1,686.54,72.6,11.33,11.33,0,0,1,675.2,83.94Zm39.31,31.77a11.34,11.34,0,1,1-11.34,11.34A11.34,11.34,0,0,1,714.51,115.71Zm-10.59,422a11.35,11.35,0,1,1,11.34-11.35A11.34,11.34,0,0,1,703.92,537.7Zm4.54-77.14a11.35,11.35,0,1,1,11.34-11.35A11.35,11.35,0,0,1,708.46,460.56Zm6-81.68a11.34,11.34,0,1,1,11.33-11.34A11.34,11.34,0,0,1,714.51,378.88ZM719,292.67a11.35,11.35,0,1,1,11.34-11.34A11.34,11.34,0,0,1,719,292.67Zm4.53-87.73a11.34,11.34,0,1,1,11.34-11.34A11.33,11.33,0,0,1,723.57,204.94Z"/><path d="M729.45,592H676.7v-1.5c0-.56,0-1.11,0-1.67L697.2,183.66c-.32-69-56.71-125.12-125.71-125.12H539.24A111.6,111.6,0,0,0,427.8,170.05v47.59a26.4,26.4,0,1,1-52.8,0V170.05C375,79.43,448.68,5.71,539.24,5.71h32.25C669.92,5.71,750,85.85,750,184.35l0,1.29Zm-49.72-3h46.86L747,185.53l0-1.22c0-96.8-78.73-175.59-175.5-175.59H539.24C450.34,8.72,378,81.09,378,170.05v47.59a23.39,23.39,0,1,0,46.78,0V170.05A114.62,114.62,0,0,1,539.24,55.53h32.25c70.65,0,128.39,57.51,128.72,128.2L679.73,589Zm24.19-49.79a12.85,12.85,0,1,1,12.84-12.85A12.86,12.86,0,0,1,703.92,539.2Zm0-22.69a9.84,9.84,0,1,0,9.84,9.84A9.85,9.85,0,0,0,703.92,516.51Zm4.54-54.45a12.85,12.85,0,1,1,12.84-12.85A12.86,12.86,0,0,1,708.46,462.06Zm0-22.68a9.84,9.84,0,1,0,9.83,9.83A9.85,9.85,0,0,0,708.46,439.38Zm6-59a12.85,12.85,0,1,1,12.84-12.85A12.87,12.87,0,0,1,714.51,380.39Zm0-22.69a9.84,9.84,0,1,0,9.83,9.84A9.85,9.85,0,0,0,714.51,357.7ZM719,294.17a12.85,12.85,0,1,1,12.84-12.84A12.85,12.85,0,0,1,719,294.17Zm0-22.68a9.84,9.84,0,1,0,9.83,9.84A9.84,9.84,0,0,0,719,271.49Zm4.53-65a12.85,12.85,0,1,1,12.85-12.85A12.86,12.86,0,0,1,723.57,206.45Zm0-22.69a9.84,9.84,0,1,0,9.84,9.84A9.85,9.85,0,0,0,723.57,183.76Zm-9.06-43.86a12.85,12.85,0,1,1,12.84-12.85A12.86,12.86,0,0,1,714.51,139.9Zm0-22.69a9.84,9.84,0,1,0,9.83,9.84A9.85,9.85,0,0,0,714.51,117.21ZM675.2,85.45A12.85,12.85,0,1,1,688,72.6,12.86,12.86,0,0,1,675.2,85.45Zm0-22.69A9.84,9.84,0,1,0,685,72.6,9.84,9.84,0,0,0,675.2,62.76ZM453,79.4a12.85,12.85,0,1,1,12.84-12.85A12.86,12.86,0,0,1,453,79.4Zm0-22.69a9.84,9.84,0,1,0,9.84,9.84A9.85,9.85,0,0,0,453,56.71Zm152.68-6.05a12.85,12.85,0,1,1,12.84-12.85A12.86,12.86,0,0,1,605.67,50.66Zm0-22.69a9.84,9.84,0,1,0,9.83,9.84A9.85,9.85,0,0,0,605.67,28ZM525.55,47.64a12.85,12.85,0,1,1,12.84-12.85A12.86,12.86,0,0,1,525.55,47.64Zm0-22.69a9.84,9.84,0,1,0,9.83,9.84A9.84,9.84,0,0,0,525.55,25Z"/></g><g id="tuyau-droit-11"><polygon points="289.02 25.14 257.43 79.36 254.5 76.01 281.79 23.43 289.02 25.14"/><polygon points="183.47 0 185.27 63.52 187.46 63.52 189.66 0 183.47 0"/><polygon points="130.13 66.16 95.14 15.26 91.27 17.95 125.14 68.75 130.13 66.16"/><polygon points="18.83 79.49 77.9 101.59 75.95 106.47 17.34 84.94 18.83 79.49"/><polygon class="cls-3" points="260.39 74.29 263.93 76.44 291.92 35.22 285.46 31.25 260.39 74.29"/><polygon class="cls-3" points="187.58 57.04 191.53 57.04 194.09 7.21 189.54 7.21 187.58 57.04"/><polygon class="cls-3" points="122.63 64.99 94.57 22.91 89.12 25.63 120.52 65.86 122.63 64.99"/><polygon class="cls-3" points="71.94 105 24.06 87.41 20.42 93.9 70.13 107.64 71.94 105"/><path d="M196.49,7.21H164.24C74.5,7.21,1.5,80.28,1.5,170.05v47.59a24.9,24.9,0,1,0,49.8,0V170.05A113.11,113.11,0,0,1,164.24,57h32.25c69.95,0,126.89,56.79,127.21,126.69L303.23,588.91c0,.53,0,1.06,0,1.59H353l20.45-404.89,0-1.26C373.5,86.67,294.09,7.21,196.49,7.21ZM78,77.89A11.34,11.34,0,1,1,89.33,66.55,11.33,11.33,0,0,1,78,77.89Zm72.56-31.76a11.35,11.35,0,1,1,11.34-11.34A11.34,11.34,0,0,1,150.55,46.13Zm80.12,3A11.35,11.35,0,1,1,242,37.81,11.35,11.35,0,0,1,230.67,49.16ZM300.2,83.94A11.34,11.34,0,1,1,311.54,72.6,11.33,11.33,0,0,1,300.2,83.94Zm39.31,31.77a11.34,11.34,0,1,1-11.34,11.34A11.34,11.34,0,0,1,339.51,115.71Zm-10.59,422a11.35,11.35,0,1,1,11.34-11.35A11.34,11.34,0,0,1,328.92,537.7Zm4.54-77.14a11.35,11.35,0,1,1,11.34-11.35A11.35,11.35,0,0,1,333.46,460.56Zm6.05-81.68a11.34,11.34,0,1,1,11.33-11.34A11.34,11.34,0,0,1,339.51,378.88ZM344,292.67a11.35,11.35,0,1,1,11.34-11.34A11.34,11.34,0,0,1,344,292.67Zm4.53-87.73a11.34,11.34,0,1,1,11.34-11.34A11.33,11.33,0,0,1,348.57,204.94Z"/><path d="M354.45,592H301.7v-1.5c0-.56,0-1.11,0-1.67L322.2,183.66c-.32-69-56.71-125.12-125.71-125.12H164.24A111.6,111.6,0,0,0,52.8,170.05v47.59a26.4,26.4,0,1,1-52.8,0V170.05C0,79.43,73.68,5.71,164.24,5.71h32.25C294.92,5.71,375,85.85,375,184.35l0,1.29Zm-49.72-3h46.86L372,185.53l0-1.22c0-96.8-78.73-175.59-175.5-175.59H164.24C75.34,8.72,3,81.09,3,170.05v47.59a23.39,23.39,0,1,0,46.78,0V170.05A114.62,114.62,0,0,1,164.24,55.53h32.25c70.65,0,128.39,57.51,128.72,128.2L304.73,589Zm24.19-49.79a12.85,12.85,0,1,1,12.84-12.85A12.86,12.86,0,0,1,328.92,539.2Zm0-22.69a9.84,9.84,0,1,0,9.84,9.84A9.85,9.85,0,0,0,328.92,516.51Zm4.54-54.45a12.85,12.85,0,1,1,12.84-12.85A12.86,12.86,0,0,1,333.46,462.06Zm0-22.68a9.84,9.84,0,1,0,9.83,9.83A9.85,9.85,0,0,0,333.46,439.38Zm6.05-59a12.85,12.85,0,1,1,12.84-12.85A12.87,12.87,0,0,1,339.51,380.39Zm0-22.69a9.84,9.84,0,1,0,9.83,9.84A9.85,9.85,0,0,0,339.51,357.7ZM344,294.17a12.85,12.85,0,1,1,12.84-12.84A12.85,12.85,0,0,1,344,294.17Zm0-22.68a9.84,9.84,0,1,0,9.83,9.84A9.84,9.84,0,0,0,344,271.49Zm4.53-65a12.85,12.85,0,1,1,12.85-12.85A12.86,12.86,0,0,1,348.57,206.45Zm0-22.69a9.84,9.84,0,1,0,9.84,9.84A9.85,9.85,0,0,0,348.57,183.76Zm-9.06-43.86a12.85,12.85,0,1,1,12.84-12.85A12.86,12.86,0,0,1,339.51,139.9Zm0-22.69a9.84,9.84,0,1,0,9.83,9.84A9.85,9.85,0,0,0,339.51,117.21ZM300.2,85.45A12.85,12.85,0,1,1,313,72.6,12.86,12.86,0,0,1,300.2,85.45Zm0-22.69A9.84,9.84,0,1,0,310,72.6,9.84,9.84,0,0,0,300.2,62.76ZM78,79.4A12.85,12.85,0,1,1,90.83,66.55,12.86,12.86,0,0,1,78,79.4Zm0-22.69a9.84,9.84,0,1,0,9.84,9.84A9.85,9.85,0,0,0,78,56.71Zm152.68-6.05a12.85,12.85,0,1,1,12.84-12.85A12.86,12.86,0,0,1,230.67,50.66Zm0-22.69a9.84,9.84,0,1,0,9.83,9.84A9.85,9.85,0,0,0,230.67,28ZM150.55,47.64a12.85,12.85,0,1,1,12.84-12.85A12.86,12.86,0,0,1,150.55,47.64Zm0-22.69a9.84,9.84,0,1,0,9.83,9.84A9.84,9.84,0,0,0,150.55,25Z"/></g></g></g></g></g></svg>