<svg xmlns="http://www.w3.org/2000/svg" xmlns:xlink="http://www.w3.org/1999/xlink" viewBox="0 0 374.13 529.32"><defs><style>.cls-1{fill:#3799e2;opacity:0.8;}.cls-2{fill:url(#Dégradé_sans_nom_68);}</style><linearGradient id="Dégradé_sans_nom_68" x1="-4.8" y1="70.5" x2="381.94" y2="457.24" gradientUnits="userSpaceOnUse"><stop offset="0" stop-color="#4d4d4d"/><stop offset="1" stop-color="#333"/></linearGradient></defs><title>cadran-droite</title><g id="Calque_2" data-name="Calque 2"><g id="Cockpit"><g id="Start"><g id="Cadran"><g id="cadran-droite"><path id="cadran-droite-2" data-name="cadran-droite" class="cls-1" d="M95.21,497.48l151.61,27.83c61.7,11.32,118.56-36,118.56-98.78V140.44a100.43,100.43,0,0,0-82.3-98.78L131.47,13.83C69.77,2.51,12.91,49.89,12.91,112.61V398.7A100.42,100.42,0,0,0,95.21,497.48Z"/><path id="cadran-droite-3" data-name="cadran-droite" class="cls-2" d="M95.43,496.25q46.39,8.89,92.92,17.1,23.25,4.1,46.55,8l11.66,1.93c1.93.3,3.83.52,5.74.79s3.85.32,5.76.48A95.8,95.8,0,0,0,281,523a97.19,97.19,0,0,0,69.52-53.55,94.41,94.41,0,0,0,7.22-21.2A98.78,98.78,0,0,0,359.81,426l-.68-47.24-2.06-188.94-.42-47.24c0-2-.08-3.78-.13-5.58,0-.9-.12-1.79-.18-2.69s-.11-1.79-.23-2.68c-.22-1.78-.4-3.57-.73-5.33s-.65-3.53-1-5.28a89.46,89.46,0,0,0-3-10.31,88.43,88.43,0,0,0-4.17-9.89A90.86,90.86,0,0,0,281.28,51.5l-46.55-8.06L188.16,35.5l-46.57-7.89-11.65-2c-.5-.1-.94-.15-1.36-.21l-1.29-.18-2.59-.36c-1.72-.19-3.46-.29-5.19-.45a86.42,86.42,0,0,0-20.64,1.28A89.08,89.08,0,0,0,28.19,92.63l-1,5-.74,5.09c-.13,1.71-.32,3.42-.43,5.13l-.18,5.23-.4,47.23q-.57,47.24-2.1,94.47c-1,31.49-2.38,63-3.71,94.47l-2,47.24c-.1,2-.11,3.85-.15,5.74,0,.94,0,1.88.05,2.82s0,1.89.1,2.83A93,93,0,0,0,19,419.16a94.19,94.19,0,0,0,2.67,11.06,89.42,89.42,0,0,0,4,10.7,95.77,95.77,0,0,0,28,36.09,104.21,104.21,0,0,0,9.48,6.67,94.91,94.91,0,0,0,10.25,5.46A100.18,100.18,0,0,0,95.43,496.25ZM95,498.71a103.21,103.21,0,0,1-22.9-6.79,111.68,111.68,0,0,1-10.75-5.31,107.22,107.22,0,0,1-10.07-6.56,105.37,105.37,0,0,1-36.15-47.59,100.65,100.65,0,0,1-3.68-11.67c-.48-2-1-4-1.31-6s-.69-4-1-6.07c-.16-1-.23-2-.35-3.06s-.24-2.05-.28-3.07c-.12-2-.25-4.14-.31-6.07l-2-47.24c-1.33-31.49-2.72-63-3.71-94.47s-1.72-63-2.1-94.47L0,113.11A113.87,113.87,0,0,1,2.86,86.74a110.89,110.89,0,0,1,9.08-25A112.42,112.42,0,0,1,94.82,1.3,110.88,110.88,0,0,1,121.25.41c2.19.25,4.39.44,6.56.75l3.25.54,1.63.28c.54.09,1.08.18,1.54.28l11.59,2.29,46.34,9.17,46.35,9.11,46.38,9a110,110,0,0,1,78.8,61.08,110,110,0,0,1,8.15,24.37c.42,2.1.83,4.2,1.11,6.33s.54,4.25.76,6.38c.12,1.06.15,2.14.22,3.2s.15,2.14.15,3.21c0,2.14.07,4.33,0,6.22l-.43,47.24L371.63,378.8,371,426a104.27,104.27,0,0,1-89.08,102.18,100.41,100.41,0,0,1-24.12.67c-2-.24-4-.43-6-.72s-4-.67-5.92-1l-11.58-2.33q-23.16-4.6-46.36-9.06Q141.51,506.84,95,498.71Z"/></g></g></g></g></g></svg>