<svg xmlns="http://www.w3.org/2000/svg" xmlns:xlink="http://www.w3.org/1999/xlink" viewBox="0 0 1920 1080"><defs><style>.cls-1{isolation:isolate;}.cls-2{fill:url(#Dégradé_sans_nom_24);}.cls-3{fill:url(#Dégradé_sans_nom_123);}.cls-4{opacity:0.13;fill:url(#Dégradé_sans_nom_127);}.cls-5,.cls-6{opacity:0.25;}.cls-5{fill:url(#Dégradé_sans_nom_123-2);}.cls-6{fill:url(#Dégradé_sans_nom_123-3);}.cls-11,.cls-7{fill:#1a1a1a;}.cls-8{opacity:0.44;}.cls-9{fill:#fff;}.cls-10{opacity:0.52;}.cls-11{opacity:0.27;}.cls-12{fill:#170016;mix-blend-mode:soft-light;}.cls-13{fill:#282a2e;}.cls-14{fill:#6b4350;}.cls-15{opacity:0.8;}.cls-16{fill:#1d1d1b;}</style><linearGradient id="Dégradé_sans_nom_24" x1="-171.56" y1="1625.69" x2="1278.74" y2="231.5" gradientUnits="userSpaceOnUse"><stop offset="0" stop-color="#d66777"/><stop offset="1" stop-color="#1d153a"/></linearGradient><radialGradient id="Dégradé_sans_nom_123" cx="1119.29" cy="-12.19" r="1198.26" gradientTransform="translate(-48) scale(1.03 1.02)" gradientUnits="userSpaceOnUse"><stop offset="0" stop-color="#290027"/><stop offset="1" stop-color="#6a0044"/></radialGradient><radialGradient id="Dégradé_sans_nom_127" cx="1428.73" cy="663.86" fx="1139.82524757061" fy="870.343201028203" r="355.1" gradientTransform="translate(-48 6.4) scale(1.03 1.02)" gradientUnits="userSpaceOnUse"><stop offset="0" stop-color="#fff"/><stop offset="0.18" stop-color="#ffe9e1"/><stop offset="0.37" stop-color="#ffd6c6"/><stop offset="0.57" stop-color="#ffc8b3"/><stop offset="0.78" stop-color="#ffc0a8"/><stop offset="1" stop-color="#ffbda4"/></radialGradient><radialGradient id="Dégradé_sans_nom_123-2" cx="1586.93" cy="318.92" fx="1753.4123271425767" fy="278.3052093466182" r="198.55" xlink:href="#Dégradé_sans_nom_123"/><radialGradient id="Dégradé_sans_nom_123-3" cx="1155.29" cy="519.11" fx="1376.7775983407964" fy="465.07740566447717" r="264.15" gradientTransform="matrix(1.03, 0, 0, 1.02, -47.86, -0.31)" xlink:href="#Dégradé_sans_nom_123"/></defs><title>Fichier 2</title><g class="cls-1"><g id="Calque_2" data-name="Calque 2"><g id="Calque_1-2" data-name="Calque 1"><rect class="cls-2" width="1920" height="1075.81"/><path class="cls-3" d="M1691.5,1075.81A437.54,437.54,0,0,0,1920,863.47V483.08a437.22,437.22,0,0,0-393-244.17c-241.33,0-437,194.47-437,434.37,0,182.07,112.71,338,272.55,402.53Z"/><path class="cls-4" d="M1712.59,1064.66H1383.72c-159.85-64.42-272.56-219.91-272.56-401.54,0-161.38,89-302.14,220.95-376.7-143.48,71-242,218-242,387.85,0,181.63,112.71,337.12,272.55,401.54H1691.5a436.55,436.55,0,0,0,51.31-24.72Q1728,1058.41,1712.59,1064.66Z"/><path class="cls-5" d="M1662.08,392.6c-1.21,0-2.4,0-3.59.13A42.11,42.11,0,1,0,1606.56,448a55.52,55.52,0,1,0,55.52-55.36Z"/><path class="cls-6" d="M1301.56,642a55.58,55.58,0,0,0-107.66-19,79.67,79.67,0,1,0,96.6,52.07A54.78,54.78,0,0,0,1301.56,642Z"/><path class="cls-7" d="M1849.72,866.14a144,144,0,0,0,70.28-18V649.48a146.81,146.81,0,0,0-129.41-5.58,147.55,147.55,0,0,0-37.85-4.9c-53.65,0-99.83,28.39-120.52,69.18-29.4,21.51-48.15,54.1-48.15,90.57,0,1,0,2.11,0,3.16a142.29,142.29,0,0,0-38.65,12,142.87,142.87,0,0,0-78.06-22.67c-59.79,0-110.3,35.27-126.59,83.65a143.73,143.73,0,0,0-66.88,17.65c-24-29.6-63.11-48.88-107.32-48.88-47.29,0-88.76,22.06-112.11,55.21-2.72,1.52-5.39,3.12-8,4.8a147.12,147.12,0,0,0-43-6.35c-73,0-132.12,52.52-132.12,117.32a107.26,107.26,0,0,0,19.35,61.15h332.94a120,120,0,0,0,12.71-15.13,122,122,0,0,0,14.62,15.13h228.49q3.57-3.6,6.8-7.45a150.36,150.36,0,0,0,19,1.21c37,0,70.35-13.47,94.33-35.18q4.1.22,8.27.23a145.71,145.71,0,0,0,56.27-11.14,148,148,0,0,0,37.91,4.9c73,0,132.12-52.52,132.12-117.31a105.61,105.61,0,0,0-10-44.82c.54-.67,1.06-1.35,1.58-2A148.67,148.67,0,0,0,1849.72,866.14Z"/><g class="cls-8"><path class="cls-9" d="M1104.4,978.15l1.46-1.14,1.77.51-.65-1.7,1-1.51-1.84.1-1.1-1.44-.5,1.76c-.59.2-1.17.41-1.75.59.5.36,1,.67,1.53,1Z"/></g><path class="cls-11" d="M890,998.81c.16-14.81.19-29.64.18-44.45s0-29.64-.18-44.46c0-2,.52-18.18-.45-18.41l-24.1-5.83q.06-25.27-.21-50.55c-.09-7.79.24-15.73-.89-23.47a83.86,83.86,0,0,0-2.19-10.2c.26-5,.42-11-.78-11.93-.21-.16-.44-.3-.65-.46q0-11.24-.12-22.47c-.06-9.78.68-20.25-.46-30a15.59,15.59,0,0,0-1.26-5.51c-2.48-4.9-7.92-7.65-13.35-9.29,0-5.41-.05-10.82-.11-16.22-.07-6,.51-12.5-.45-18.42-1.7-10.44-18.42-8.58-25.9-8.86l-11-.41c.25-18.5.38-43.39-.92-43.53a1077,1077,0,0,0-168.06-4.83c-.08-5.33-.2-8.82-.35-8.82-7.26.09-14.51,0-21.77-.22.08-4.42,0-8.75-.72-9.06q-7.29-3.1-14.7-5.91-.12-8.79-.34-17.57c-.07-3,.66-6.85-.62-9.76s-2.86-2.52-6.82-2.4c-.78,0-1.56.06-2.34.11q0-10.38-.19-20.76V555c6.73-4.14,12.34-9.25,15.94-15.62,2-3.46.51-15,.54-17.4.19-14,.23-28,.22-42s0-28-.22-42c0-1.88.66-17.16-.54-17.39-1.82-.36-3.62-.76-5.42-1.14.38-4.91.78-11.66-.85-12.68a73.9,73.9,0,0,0-29.33-10.16c-.56-.47-1.12-.93-1.64-1.43-1.08-1-2.23-3.48-3.53-4.07-.75-1.51-1.18-1.11-1.27,1.21-.25.68-.5,1.36-.74,2s-.45,1.08-.68,1.61q-2.13-.06-4.26,0,.06-16.51,0-33c-.06-15.39,1.29-31.51-1-46.84-.36-2.44-.92-4.31-2.22-5.42q0-11.58,0-23.16c0-14,0-28-.18-42,0-1.88.52-17.16-.42-17.4-1.41-.35-2.81-.75-4.22-1.13.3-4.91.62-11.66-.66-12.68A49.7,49.7,0,0,0,528,204.1c-.44-.47-.88-.94-1.28-1.43-.84-1-1.73-3.48-2.74-4.07q-.88-2.26-1,1.2l-.57,2c-.17.54-.35,1.08-.53,1.61-1.1-.05-2.21-.06-3.32,0q.06-16.52,0-33c0-15.39,1-31.51-.75-46.84-.33-2.91-.88-5-2.38-6a4.82,4.82,0,0,0-.84-2.8A113.68,113.68,0,0,0,462.83,88c-.05,0-.43,18.75-.43,17.6-.15,13.93-.18,27.87-.17,41.8q0,17.45.12,34.88c-9.25,6.61-17,14.08-17.65,26.12-.27,4.87-.44,9.75-.58,14.64-.83.45-1.64.93-2.45,1.44s-.63,11.59-.5,15.86a113.53,113.53,0,0,0-37.05,22.4,4.82,4.82,0,0,0-.84,2.8c-1.5,1-2,3.08-2.39,6-1.75,15.33-.7,31.45-.74,46.84q0,16.51,0,33c-1.11,0-2.22,0-3.32,0-.18-.54-.37-1.07-.53-1.61s-.38-1.36-.58-2.05q-.11-3.46-1-1.2c-1,.59-1.9,3-2.74,4.07-.4.49-.85,1-1.28,1.43a49.7,49.7,0,0,0-22.82,10.16c-.81.65-1,3.59-.92,6.92q-33.87-3.57-67.81-6.36c-.22-1.44-.43-2.88-.68-4.3a45.36,45.36,0,0,0-8.26-20.08,43,43,0,0,0-5.8-6.32c-.11-3.35-.3-8.44-.39-12.21V315l-1.62.36c-.07-5.71-.25-11.4-.68-17.06-.57-7.48-5.62-11.77-11.87-14.28,0-4.81-.15-9.34-.5-9.38-5.85-.62-12.25-.82-17.79,1.47-6.14,2.55-7.42,7.11-7.87,12.88-1.53,11.2-14,6.65-20.28,13.37-.88.94-.94,7.38-.82,12.79a64.17,64.17,0,0,0-14.23,6.58c-1.19.73-.52,22.57-.49,20.46-.18,16.46-.22,32.93-.21,49.39,0,2.93.2,25.64.39,44.38a250.62,250.62,0,0,0-42.66,6c-.71.16-.52,23.43-.49,20.46,0,.22,0,.45,0,.67a87.84,87.84,0,0,1-35.79,8.09c-1.07,0-1,75.64-.55,115.61L79,593.49c-.58.07-.53,23.55-.49,20.46-.18,16.46-.22,32.93-.21,49.39s0,32.94.21,49.4c0,2.82-1.37,19.34.49,20.46,14.33,8.61,28.72,17.29,41.92,27.56.07,3.93.13,7.84.12,11.69-.06,20.65-.71,41.64-.38,62.47a48.32,48.32,0,0,0-8.12,6.4c-.53.51-.75,3.23-.82,6.53l-1.67.51c-.82.25-.53,23.29-.5,20.46-.18,16.46-.21,32.93-.2,49.39s0,32.94.2,49.4c0,1.49.38,11.65.5,17.07v3.39c2.65-.56,5.25-1.23,7.82-2a40.72,40.72,0,0,1,10.79-.82c.19,18.53.48,43.65.51,48.73v.93c19.91-1.38,41.71-3.64,57.28-17.34a575.77,575.77,0,0,0,188.21,17.31c.19,0,.34-1,.46-2.57,35.23,8,72.95,8.28,109.31,10.21l126.84,6.73c.15,0,.77-55,.77-59.4V983.4l1.62-.07c1.15-.05.6-55,.6-59.41,0-14,0-28-.17-42,0,1.77.6-16.75-.43-17.4-.62-.39-1.25-.74-1.88-1.08q0-10.22,0-20.43c3.39-.56,6.8-1.09,10.21-1.55.43-.06.7-2.8.87-7.09q8.78-5.1,17.1-11c.33-.24.51-2,.6-4.34q19.21.15,38.42-.3,3.29.72,6.54,1.5c-.18,18.39-.24,42.39.88,42.48l30.62,2.59c-.22,5.9,0,16,.05,14.38-.16,14.81-.19,29.64-.19,44.45s0,29.64.19,44.46c.07,6-.59,12.55.45,18.42,1.41,8,11,9.65,17.7,11.3,4.64,1.15,9.3,2.19,14,3.17,0,3.65.16,6.75.57,6.85l10,2.37v22.26l58.42-8.47c.42-.06.69-2.46.86-6.27l15.36.21c.08,7.47.15,12.72.19,12.72a147.86,147.86,0,0,0,55.06-13.88C890.52,1016.79,890.06,996.57,890,998.81Z"/><path class="cls-11" d="M543.48,949.63s25.52-1.69,37.43-8.46,15.31-16.91,32.33-22,30.62-27.06,52.74-28.75,27.23,5.08,40.84,1.69,22.12-6.76,37.43-6.76,37.43-20.3,45.94-28.75,20.41-6.77,27.22,5.07,25.52,11.84,39.13,37.21,30.63,22,39.13,15.22,15.32,0,23.82,10.15,23.82,5.07,39.14,25.37,25.52,30.44,37.43,25.36,22.12,0,34,5.08,44.23-13.53,44.23-13.53c20.42-5.08,18.72-23.68,37.43-23.68s15.32,18.6,35.73,22,40.84,67.65,40.84,67.65H528.17Z"/><path class="cls-12" d="M758.12,1047.52c-9.94-1.65-34.78-8.23-41.4-8.23s-23.19-11.53-34.78-16.46-18.21,9.87-23.18,4.93-5-6.58-14.91-3.29-24.83,1.65-36.43-9.87-23.18-4.94-38.08-11.53-29.81-21.4-29.81-32.92-6.62-13.17-14.9-18.1-16.56-21.4-28.16-24.69-46.36,4.93-51.33,0-18.22-14.82-31.46-14.82S378.9,892.79,369,886.2s-33.12-18.1-39.75-21.39-14.9-11.53-23.18-4.94-14.9,4.94-26.5-8.23-24.84-8.23-36.43-6.59-11.59-4.94-21.52-4.94-11.6-3.29-23.19-16.46-23.18-16.46-33.12-23-23.18-14.82-36.43-14.82-18.21,6.59-39.74,23.05S44.4,858.22,34.46,866.45c-8.29,6.87-22.34,6.86-34.46,7.63v173.5C145.34,1047.86,766.89,1049,758.12,1047.52Z"/><path class="cls-13" d="M768.84,979.4c-29.51,4.2-61.84,9.78-85.74-7-22.61-15.74-27.05-50.46-47.68-67.8-16.81,3.71-19.62,14.85-32.11-12.15-28,10.89-55.08,24.91-82.91,36.67-24.17,10.21-42.55,17.45-68.42,19.6a242.74,242.74,0,0,0-41,7.33c-42.35,11.34-80.64,37.36-123.49,47.2,3.4.52-1.73,8.08-2,16.39,24.85,13.34,51.67,15.16,79.6,15.05,46.61-.18,92.49,3.14,139,5.24a1727.78,1727.78,0,0,0,196.42-2.83q51.59-3.54,102.94-9.65c3.75-.44,7.52-.73,11.29-1C793.71,1016.47,775.13,1003.61,768.84,979.4Z"/><path class="cls-14" d="M931.89,1013.86c-38.79-19.66-88.56-24-128.78-42.83-20.36-9.55-36.2-6.48-58.13-9.67-39.27-5.7-61.44-60.58-103.26-57.65a43.12,43.12,0,0,0-6.3.91c20.63,17.34,25.07,52.06,47.68,67.8,23.9,16.76,56.23,11.18,85.74,7,6.29,24.21,24.87,37.07,45.92,47.12,18.81-1.09,37.87-.07,56.45-3.26C892.08,1019.67,910.27,1013.55,931.89,1013.86Z"/><path d="M1750.55,598.18c-.32-2.52-2.68-3.3-4.86-3.69l-.15,0a17.24,17.24,0,0,0-5.6-1l-6.69-1.12a2.12,2.12,0,0,0-1.77.47c-2.2.21-4.13.88-4.47,2.49a2,2,0,0,0-.42,1.88c.74,2.27,3.91,3.57,7.16,4.1l.06,2.38c-.22.82-.42,1.66-.61,2.5a1.14,1.14,0,0,0-.15.23,2.2,2.2,0,0,0-.66.9,15.35,15.35,0,0,0-.71,2.33,2,2,0,0,0-.68,1.44c-.37,6,1.09,10.89,2.93,16.49a2.06,2.06,0,0,0,1.17,1.26,29.52,29.52,0,0,1,1.26,2.88c.15.42.27.83.4,1.25a80.31,80.31,0,0,1,.34,12,2.18,2.18,0,0,0,.14.92,30,30,0,0,1-.84,3.22c-.82,2.58,3.25,3.68,4.07,1.12.38-1.19.67-2.39.93-3.59a1.67,1.67,0,0,0,.77-1.23c.82-5.17,1.66-10.38.78-15.61-.06-.33-.14-.67-.22-1a2.09,2.09,0,0,0,0-.93,74.23,74.23,0,0,0-2.7-8.3,51.39,51.39,0,0,1-.41-6.95,3,3,0,0,0,.19-.4,36.89,36.89,0,0,1,3.19-7.11c1.29-2.06,2.9-2.09,4.64-3.22A3.18,3.18,0,0,0,1750.55,598.18Z"/><path d="M1755,616.84c-.19-1.51-1.61-2-2.92-2.21l-.09,0a10.35,10.35,0,0,0-3.35-.57l-4-.67a1.3,1.3,0,0,0-1.06.28c-1.31.12-2.47.53-2.67,1.49a1.19,1.19,0,0,0-.25,1.13c.44,1.36,2.33,2.14,4.28,2.45l0,1.43c-.13.49-.26,1-.37,1.5l-.09.13a1.5,1.5,0,0,0-.4.54,10.94,10.94,0,0,0-.42,1.4,1.28,1.28,0,0,0-.41.87c-.22,3.58.66,6.52,1.76,9.88a1.27,1.27,0,0,0,.7.75,17.53,17.53,0,0,1,.75,1.72c.1.25.16.5.24.75a47.28,47.28,0,0,1,.21,7.18,1.33,1.33,0,0,0,.08.55,17.69,17.69,0,0,1-.5,1.93c-.49,1.54,1.94,2.2,2.44.67.22-.72.4-1.43.55-2.15a1,1,0,0,0,.47-.74c.49-3.1,1-6.22.46-9.35,0-.2-.08-.4-.13-.61a1.32,1.32,0,0,0,0-.56,43.58,43.58,0,0,0-1.62-5,31.83,31.83,0,0,1-.25-4.16,1.75,1.75,0,0,0,.11-.24,22,22,0,0,1,1.92-4.26c.77-1.23,1.74-1.25,2.78-1.93A1.91,1.91,0,0,0,1755,616.84Z"/><path d="M1732.48,628c-.19-1.5-1.61-2-2.92-2.2l-.09,0a10.31,10.31,0,0,0-3.35-.57l-4-.67a1.28,1.28,0,0,0-1.07.28c-1.31.12-2.47.52-2.67,1.49a1.18,1.18,0,0,0-.25,1.13c.44,1.36,2.33,2.13,4.28,2.45l0,1.43c-.13.49-.25,1-.37,1.5l-.09.13a1.37,1.37,0,0,0-.39.54,9.27,9.27,0,0,0-.43,1.4,1.28,1.28,0,0,0-.41.86c-.22,3.59.66,6.53,1.76,9.88a1.21,1.21,0,0,0,.7.75,18.82,18.82,0,0,1,.75,1.73,7.24,7.24,0,0,1,.24.75,47.28,47.28,0,0,1,.21,7.18,1.2,1.2,0,0,0,.09.55c-.14.64-.3,1.28-.51,1.93-.49,1.54,1.94,2.2,2.44.66.22-.71.4-1.43.55-2.15a1,1,0,0,0,.47-.73c.49-3.1,1-6.22.46-9.35,0-.2-.08-.41-.13-.61a1.18,1.18,0,0,0,0-.56,43.58,43.58,0,0,0-1.62-5,31.88,31.88,0,0,1-.25-4.17,1.63,1.63,0,0,0,.11-.23,22.13,22.13,0,0,1,1.92-4.27c.77-1.23,1.74-1.24,2.78-1.92A1.91,1.91,0,0,0,1732.48,628Z"/><path d="M1759.18,635c-.19-1.51-1.6-2-2.91-2.21h-.09a10.35,10.35,0,0,0-3.35-.58l-4-.67a1.27,1.27,0,0,0-1.06.29c-1.32.12-2.47.52-2.68,1.49a1.19,1.19,0,0,0-.25,1.12c.44,1.36,2.34,2.14,4.29,2.46l0,1.42q-.2.75-.36,1.5a.42.42,0,0,0-.09.14,1.39,1.39,0,0,0-.4.54,8.86,8.86,0,0,0-.42,1.4,1.18,1.18,0,0,0-.41.86c-.22,3.58.65,6.52,1.76,9.88a1.21,1.21,0,0,0,.7.75c.27.56.53,1.13.75,1.72.09.25.16.5.24.75a47.34,47.34,0,0,1,.2,7.18,1.3,1.3,0,0,0,.09.55c-.14.64-.3,1.29-.5,1.93-.5,1.55,1.94,2.21,2.43.67a20.6,20.6,0,0,0,.56-2.15,1,1,0,0,0,.46-.73,28.6,28.6,0,0,0,.47-9.36c0-.2-.08-.4-.13-.61a1.33,1.33,0,0,0,0-.56,42.8,42.8,0,0,0-1.62-5,31.89,31.89,0,0,1-.24-4.17,1.33,1.33,0,0,0,.11-.24,22.92,22.92,0,0,1,1.91-4.26c.78-1.23,1.74-1.25,2.78-1.93A1.9,1.9,0,0,0,1759.18,635Z"/><path d="M909.51,956.4c-.43-3.34-3.56-4.38-6.47-4.9l-.2,0a23.08,23.08,0,0,0-7.44-1.28l-8.89-1.48a2.86,2.86,0,0,0-2.36.63c-2.91.27-5.48,1.16-5.93,3.31a2.64,2.64,0,0,0-.56,2.49c1,3,5.19,4.74,9.52,5.45l.07,3.16q-.43,1.65-.81,3.33a1.57,1.57,0,0,0-.2.3,3,3,0,0,0-.88,1.2,20.46,20.46,0,0,0-.94,3.1,2.76,2.76,0,0,0-.91,1.92c-.49,7.94,1.46,14.47,3.9,21.91a2.72,2.72,0,0,0,1.56,1.67c.6,1.26,1.19,2.52,1.67,3.83.2.55.35,1.11.53,1.66a106.08,106.08,0,0,1,.45,15.93,2.72,2.72,0,0,0,.2,1.22c-.31,1.42-.66,2.85-1.12,4.28-1.1,3.42,4.31,4.89,5.4,1.48a45.15,45.15,0,0,0,1.23-4.77,2.23,2.23,0,0,0,1-1.63c1.09-6.88,2.2-13.8,1-20.75-.07-.44-.17-.89-.29-1.35a2.73,2.73,0,0,0,0-1.24,97.75,97.75,0,0,0-3.6-11,70.35,70.35,0,0,1-.54-9.24,3.26,3.26,0,0,0,.25-.53,49.46,49.46,0,0,1,4.24-9.45c1.73-2.73,3.86-2.77,6.17-4.27C908.11,960.87,909.86,959.2,909.51,956.4Z"/><path d="M915.37,981.2c-.25-2-2.13-2.62-3.87-2.93l-.12,0a13.79,13.79,0,0,0-4.46-.77l-5.32-.88a1.69,1.69,0,0,0-1.41.37c-1.75.16-3.29.7-3.56,2a1.59,1.59,0,0,0-.33,1.5c.58,1.8,3.1,2.84,5.7,3.26l0,1.9c-.17.65-.33,1.32-.49,2l-.12.18a1.79,1.79,0,0,0-.52.72,13.1,13.1,0,0,0-.57,1.86,1.63,1.63,0,0,0-.54,1.14c-.29,4.76.87,8.67,2.34,13.13a1.62,1.62,0,0,0,.93,1c.36.75.71,1.51,1,2.29.12.34.21.67.32,1a62.62,62.62,0,0,1,.27,9.54,1.72,1.72,0,0,0,.12.74c-.19.85-.4,1.7-.67,2.56-.66,2,2.58,2.93,3.23.88a26.54,26.54,0,0,0,.74-2.85,1.33,1.33,0,0,0,.62-1c.65-4.12,1.32-8.27.62-12.43q-.08-.4-.18-.81a1.68,1.68,0,0,0,0-.74,59.84,59.84,0,0,0-2.15-6.61,42.12,42.12,0,0,1-.33-5.53,1.87,1.87,0,0,0,.15-.32,29.42,29.42,0,0,1,2.54-5.67c1-1.63,2.31-1.65,3.7-2.55A2.54,2.54,0,0,0,915.37,981.2Z"/><g class="cls-8"><g class="cls-15"><path class="cls-16" d="M559.23,983.13l-.54-.21a3,3,0,0,1-.42-.18l.23.09Z"/><path class="cls-16" d="M547.67,978.05a2.52,2.52,0,0,1-.35-.14s0,0,.14,0A1,1,0,0,1,547.67,978.05Z"/><path class="cls-16" d="M549.48,979.13l-.35-.1c-.55-.22-1-.44-1.26-.56s0,0,.18,0c.46.19.89.36,1.27.53S549,979,549.48,979.13Z"/><path class="cls-16" d="M543.63,976.43l.2.09c-.06,0-.41-.17-.49-.19l.35.17c-.08,0-.22-.09-.33-.13.1.09-.26,0-.2,0l-.39-.18c-.16-.06-.11,0-.27-.06a8.93,8.93,0,0,0-1-.38c-.16-.08-.56-.26-.72-.35s-.38-.12-.62-.2h0a1.34,1.34,0,0,0-.39-.14,3.54,3.54,0,0,0-.45-.2c-.14,0,.19.16-.19.05s-.53-.19-.88-.32c0,0-.5-.27-.49-.3a5,5,0,0,1,.76.23,2.31,2.31,0,0,0-.37-.2c-.27-.1-.1,0-.36-.09a.8.8,0,0,1-.23-.23l-.25-.09c.38.11-.15-.21.08-.15.49.15,1.2.4,1.84.66a7.71,7.71,0,0,0,1,.42c.08,0-.13,0,.15.1s-.15-.12.47.14c.4.22,1.24.56,1.71.77s0,.06.62.33c0,0,.17.07.32.13S543.69,976.44,543.63,976.43Z"/><path class="cls-16" d="M543.43,977a4.06,4.06,0,0,1-.42-.14c-.37-.14-.36-.17-.37-.2a6.12,6.12,0,0,1,.61.22C543.62,977,543.48,977,543.43,977Z"/><path class="cls-16" d="M538.62,974.83a.79.79,0,0,1-.31-.08,7,7,0,0,1-.74-.31c0-.05-.2-.14.14,0A3.19,3.19,0,0,1,538.62,974.83Z"/><path class="cls-16" d="M548,979.17a6.2,6.2,0,0,1-.87-.28c-.32-.15-.68-.22-1-.37,0,0-.07,0,.13,0,.61.24.59.16,1.18.4A5.37,5.37,0,0,1,548,979.17Z"/><path class="cls-16" d="M543.92,977.45a4.42,4.42,0,0,1-.57-.2c-.23-.09-.2-.1-.17-.1a5.08,5.08,0,0,1,.58.2C544,977.44,543.89,977.42,543.92,977.45Z"/><path class="cls-16" d="M541.5,976.42l-.33-.12c-.21-.09-.09-.06-.1-.08l.35.12C541.57,976.41,541.53,976.41,541.5,976.42Z"/><path class="cls-16" d="M543,977.17l-.56-.19c-.08-.05-.27-.15,0-.05a4.35,4.35,0,0,1,.51.19C543.15,977.18,543.14,977.2,543,977.17Z"/><path class="cls-16" d="M540.63,976.15c-.14,0-.11,0-.08,0a6.16,6.16,0,0,0-.67-.2c0-.05-.51-.2-.79-.32s-.24-.2.33,0a6.77,6.77,0,0,1,1.05.42S540.47,976.08,540.63,976.15Z"/><path class="cls-16" d="M536.1,974.09h-.21c-.47-.15-1.09-.43-1.34-.51-.1-.07.21,0-.33-.24-.16-.1-.06-.12.24,0,.78.27.91.48,1.61.7C535.88,974,535.88,974,536.1,974.09Z"/><path class="cls-16" d="M542.43,977l-.5-.14-.45-.2a3.06,3.06,0,0,1,.6.17C542.33,976.92,542.52,977,542.43,977Z"/><path class="cls-16" d="M542.08,977a2.76,2.76,0,0,1-.56-.26,1.13,1.13,0,0,1,.25.06c.22.08.4.14.57.22S542.08,977,542.08,977Z"/><path class="cls-16" d="M545.07,978.36l-.51-.17c-.13-.05-.16-.08,0-.05C544.8,978.21,545.23,978.38,545.07,978.36Z"/><path class="cls-16" d="M538.81,976c-.11,0-.48-.16-.43-.17l.38.11S538.91,976.06,538.81,976Z"/><path class="cls-16" d="M562,984.22l-.08,0,0,0Z"/><path class="cls-16" d="M544.9,979c-.38-.1-1.26-.37-1-.26.53.2-.18,0,0,.12a1.55,1.55,0,0,0-.5-.12s.09.05.18.08c-.22-.06-.93-.28-1.28-.35L540.7,978c-.15,0,.11,0-.1,0,.09,0-.24-.15-.36-.22l-.16,0c-.32-.13-.1-.1,0-.1s-.29-.1-.34-.12a4.4,4.4,0,0,0,.66.15l-.37-.14a5.35,5.35,0,0,0,.68.21l.18,0c.45.16.86.22,1.34.39a5,5,0,0,0,.79.25l-.26,0a10.06,10.06,0,0,1,1,.34l-.15,0C544,978.8,544.55,978.93,544.9,979Z"/><path class="cls-16" d="M544.15,978.8h0l.32.09Z"/><path class="cls-16" d="M542.12,978.1l-.18-.05Z"/><path class="cls-16" d="M529.69,972.15c-.33-.13,0,0,0,0S529.91,972.23,529.69,972.15Z"/><path class="cls-16" d="M541.27,977.87h0v0Z"/><path class="cls-16" d="M544.15,979s-.21-.07-.08,0S544.15,979,544.15,979Z"/><path class="cls-16" d="M544.42,979.19l-.1,0h.1Z"/><path class="cls-16" d="M542.33,978.58h0l0,0Z"/><path class="cls-16" d="M541.3,978.46c.43.14-.1,0,.16.13a2.66,2.66,0,0,0-.49-.13c-.07,0,.29.09.07,0a4.44,4.44,0,0,0-.58-.2l0,0c-.22-.1-.56-.24-.19-.18s.51.15.87.23C540.87,978.33,541.42,978.48,541.3,978.46Z"/><path class="cls-16" d="M536,976.56a1.48,1.48,0,0,1-.35-.09C535.56,976.41,535.91,976.5,536,976.56Z"/><path class="cls-16" d="M543.12,979.12a1,1,0,0,1-.27,0c-.15-.06,0,0,.14,0Z"/><path class="cls-16" d="M538.17,978.34c.45.12.41.18,1.08.35a2.84,2.84,0,0,1-.51-.15c.23.09-.57-.08-.4,0l-1.35-.31a3.28,3.28,0,0,0-.56-.19h-.07c-.05-.06.08,0-.41-.19l-.09,0c.17,0,.21,0,.46.1-.1,0,.14,0-.07-.05.29,0,.7.13.82.12S538.34,978.32,538.17,978.34Z"/><path class="cls-16" d="M536.19,977.74c-.12,0-.27-.07-.18-.06a1.44,1.44,0,0,1,.33.08Z"/><polygon class="cls-16" points="538.45 978.6 538.49 978.6 538.59 978.63 538.45 978.6"/><polygon class="cls-16" points="536.3 978.08 536.32 978.08 536.35 978.09 536.3 978.08"/><path class="cls-16" d="M537.05,978.44a3.48,3.48,0,0,1-.41-.1Z"/><path class="cls-16" d="M535.59,978.05l.38.08c-.28,0,.36.13.56.19-.27,0,.08.13,0,.18l.12,0a2.82,2.82,0,0,0-.73-.06,1.44,1.44,0,0,0-.46-.08c.27.07.25.11.24.13l-.17-.08c-.24,0-.44-.12-.67-.15.06,0,.07,0,0,0l-.09,0a1.69,1.69,0,0,0-.56-.07,11.51,11.51,0,0,0-1.29-.38l-.17,0c.22,0,0,0,0,0-.6-.15-.11-.14-.62-.27.47.07.26,0,.41,0h0c.27,0,1.26.2,1.72.24.26.1.73.18,1,.29l.41.08C535.76,978.06,535.34,978,535.59,978.05Z"/><path class="cls-16" d="M536.87,978.55l.11,0Z"/><path class="cls-16" d="M537.08,978.65l.22.07Z"/><polygon class="cls-16" points="522.41 973.71 522.43 973.72 522.23 973.7 522.21 973.69 522.41 973.71"/><path class="cls-16" d="M524.14,974.41a.85.85,0,0,1-.24-.08A.66.66,0,0,1,524.14,974.41Z"/><path class="cls-16" d="M537.11,978.86l.08,0Z"/><path class="cls-16" d="M535.85,978.62c-.15,0,.07,0-.06-.07S536,978.64,535.85,978.62Z"/><polygon class="cls-16" points="535.13 978.41 535.12 978.4 535.19 978.42 535.13 978.41"/><path class="cls-16" d="M537.47,979.13c-.2,0-.24,0-.2-.06S537.56,979.13,537.47,979.13Z"/><polygon class="cls-16" points="536.06 978.75 535.99 978.71 536.04 978.73 536.06 978.75"/><path class="cls-16" d="M531.36,978s-.23,0-.47,0a4.6,4.6,0,0,0-.55-.12s-.17-.13.29-.06S531.4,977.93,531.36,978Z"/><path class="cls-16" d="M532.51,978.4c.32,0,.14.07.43.1s0,.08.49.22c-.32-.07-.38,0-.11,0-.54-.08-.73-.08-1.25-.17a3.81,3.81,0,0,0-.79-.19s0-.09-.33-.14a4.87,4.87,0,0,1,.77,0,4.52,4.52,0,0,0,.82.14S532.45,978.38,532.51,978.4Z"/><path class="cls-16" d="M518.47,974.09l-.56-.06c-.36-.08-.26-.11-.61-.19,0-.08,0-.13.39-.07a5.16,5.16,0,0,1,.5.13C518.58,974,518.34,974,518.47,974.09Z"/><polygon class="cls-16" points="533.32 978.82 533.24 978.78 533.36 978.82 533.32 978.82"/><path class="cls-16" d="M523.09,976l-.31,0c-.34-.08-.65-.15-.66-.23s0,0,.28,0a3.7,3.7,0,0,1,.52.12C523,975.93,523.24,976,523.09,976Z"/><path class="cls-16" d="M525.49,976.89a1.61,1.61,0,0,1,.45.18,3,3,0,0,1-.55,0c-.61-.08-.4-.16-.84-.27.3,0,.69.07,1,.12Z"/><path class="cls-16" d="M538.48,980.43l-.12,0h.14S538.51,980.43,538.48,980.43Z"/><path class="cls-16" d="M518.21,974.73a1.7,1.7,0,0,1-.68-.1c-.24-.07-.18-.1-.22-.14a2.42,2.42,0,0,1,.72.11C518.14,974.65,518.36,974.73,518.21,974.73Z"/><path class="cls-16" d="M533.18,979.4l-.2,0Z"/><path class="cls-16" d="M530.54,978.81c-.13,0-.45-.1-.3-.11a3.14,3.14,0,0,1,.56.09C530.7,978.79,530.86,978.86,530.54,978.81Z"/><path class="cls-16" d="M536.66,975.69c.2.08.3.14.63.26-.11,0-.37-.12-.29-.07a2.51,2.51,0,0,0,.77.4c-.21-.08-.38-.16-.68-.25-.12,0-.18,0-.11,0a2.33,2.33,0,0,0-.39-.11c-.29,0,.21.18,0,.17s0-.1-.43-.26a4.4,4.4,0,0,0-.74-.15c-.05,0,0,0,0,0a6.3,6.3,0,0,0-1-.29,21.14,21.14,0,0,1-2-.84c0-.05.22-.06.31-.1l-.26-.09a3.34,3.34,0,0,0,1.05.18c.29.07.16.08.49.18s.4.1.6.16l1.72.62C535.83,975.35,536.92,975.75,536.66,975.69Z"/><path class="cls-16" d="M538,980.61h-.09l.86.18-.19,0,.5.19c-.14,0-1,0-1.27,0-.44,0-.07,0-.3-.08s-.52-.08-.35,0l-.73-.14h-.17a4.65,4.65,0,0,0-.65-.15c-.15,0,.12.05-.1,0,.24,0-.35-.14-.15-.18l-.31,0s.52,0,.25,0l-.17,0c.25,0,.73,0,1,0A15.11,15.11,0,0,1,538,980.61Z"/><path class="cls-16" d="M528.21,978.27a1,1,0,0,1-.28,0c-.22,0-.21-.07-.08-.07S528.22,978.25,528.21,978.27Z"/><path class="cls-16" d="M529.41,978.61a.59.59,0,0,1-.17,0c-.1,0,0,0,.15,0S529.42,978.61,529.41,978.61Z"/><path class="cls-9" d="M533,979.73l.1,0Z"/><path class="cls-16" d="M533.39,979.89c-.23,0-.22,0-.14,0S533.43,979.89,533.39,979.89Z"/><polygon class="cls-9" points="537.84 980.92 537.87 980.93 537.71 980.92 537.69 980.92 537.84 980.92"/><polygon class="cls-16" points="534.56 980.28 534.97 980.31 534.73 980.3 534.56 980.28"/><path class="cls-16" d="M538.18,981.05a.85.85,0,0,1-.22,0Z"/><path class="cls-16" d="M537.27,980.93l0,0Z"/><path class="cls-16" d="M536.3,980.79c-.22,0,0,0,0,0-.38-.07.14,0-.11-.08C536.25,980.76,536.41,980.79,536.3,980.79Z"/><path class="cls-16" d="M542.2,982.51c-.34,0,.18.1-.13.1l-.15,0c.16.06-.8,0-.61,0l-.18,0a1.21,1.21,0,0,0-.35,0s.08,0,0,0c-.34,0-.68-.06-.94-.09h.09a3.13,3.13,0,0,1-.61-.1h-.2c.5,0-.27-.14.49-.11-.22,0,.3,0,.45,0a4.62,4.62,0,0,1,.68,0C541.35,982.37,542,982.44,542.2,982.51Z"/><path class="cls-16" d="M525.91,978.36a1.81,1.81,0,0,1-.42-.05c-.14,0,0,0,.18,0A.52.52,0,0,1,525.91,978.36Z"/><path class="cls-16" d="M538.9,981.43l.11,0Z"/><path class="cls-16" d="M530.19,979.61h-.05v0C530.23,979.6,530.18,979.6,530.19,979.61Z"/><path class="cls-16" d="M529.92,979.64H530S529.94,979.64,529.92,979.64Z"/><path class="cls-16" d="M528.87,979.46l-.11,0c-.29-.09-.43-.09-.78-.18.15,0,0-.06.33,0a4.41,4.41,0,0,1,.58.1S529.35,979.54,528.87,979.46Z"/><polygon class="cls-16" points="542.71 982.71 542.65 982.7 542.71 982.71 542.71 982.71"/><polygon class="cls-16" points="529.02 979.49 529.04 979.49 529.12 979.51 529.02 979.49"/><polygon class="cls-16" points="557.81 983.89 557.69 983.88 557.8 983.89 557.81 983.89"/><path class="cls-16" d="M527.73,979.24h0Z"/><path class="cls-16" d="M541.78,982.63l0,0Z"/><polygon class="cls-16" points="542.23 982.72 542.2 982.71 542.22 982.71 542.23 982.72"/><path class="cls-16" d="M542.4,982.77h0Z"/><path class="cls-16" d="M540.19,982.53c-.14,0,0,0,.07,0S540.2,982.52,540.19,982.53Z"/><path class="cls-16" d="M539.35,982.44c.1,0-.11,0,0,0S539.68,982.46,539.35,982.44Z"/><path class="cls-16" d="M541.3,982.68h0Z"/><polygon class="cls-16" points="540.27 982.55 540.09 982.53 540.15 982.53 540.32 982.55 540.27 982.55"/><path class="cls-16" d="M527.3,979.46c-.32,0-.36-.09-.12-.05S527.36,979.46,527.3,979.46Z"/><path class="cls-16" d="M527.72,979.59c-.24,0-.16-.06,0,0C527.78,979.57,527.84,979.59,527.72,979.59Z"/><path class="cls-16" d="M526.55,979.39c-.22,0-.06,0,0,0S526.71,979.4,526.55,979.39Z"/><path class="cls-16" d="M524,979c-.09,0-.57-.12-.36-.14S524,979,524,979Z"/><path class="cls-16" d="M523.53,979c.07,0-.22,0-.06,0Z"/><polygon class="cls-16" points="523.74 979.01 523.68 978.99 523.73 979.01 523.74 979.01"/><polygon class="cls-16" points="523.51 979 523.4 978.96 523.53 979 523.51 979"/><path class="cls-16" d="M523.78,979.27c-.14,0-.23,0-.09,0S523.75,979.26,523.78,979.27Z"/><path class="cls-16" d="M539,982.88h-.29c-.35,0-.23-.07-.09-.07C539,982.82,539,982.86,539,982.88Z"/><path class="cls-16" d="M531.18,981.9c-.12,0-.09,0-.07,0S531.52,981.92,531.18,981.9Z"/><polygon class="cls-16" points="533.74 982.44 533.87 982.42 533.86 982.45 533.74 982.44"/></g></g><path class="cls-7" d="M300.79,952.86c14.23-13.32,30.46-29.61,41.55-48,30.79,5.74,62.37,24.55,91,35.3,27.79,10.44,57.7,11.94,86.16,21,21.16,6.7,46.79,26.83,69.39,18.39-7.65,4.25,4.7,13.08,12.21,22.84-7.53-9.8-109,2.38-125.08,2.43-41.79.13-83.57-.36-125.34-1.18-43.49-.85-91.32,2.11-137.59-.36A215.27,215.27,0,0,1,246,958.45C255.81,948.67,288.14,962.64,300.79,952.86Z"/><path class="cls-13" d="M228.45,933.94c17.58-5.05,25.44,5.82,41.95,1,26.69-7.72,34.46-34.57,64.17-31.29,2.58.29,5.18.69,7.77,1.17-11.09,18.38-27.32,34.67-41.55,48-12.65,9.78-45-4.19-54.82,5.59a215.27,215.27,0,0,0-32.91,44.8c-33.49-1.8-66.15-6.43-95.74-17.43C151.3,967.44,190.53,944.83,228.45,933.94Z"/><rect x="118.07" y="1007.35" width="759" height="55.89"/><path class="cls-11" d="M650.34,352c-23.78,2.89-47.62,5-71.63,5,51.87-.12,102.32,2.76,154,7.33,22.61,2,40.46-2.64,62.63-6,37.31-5.58,79-3.36,116.67-1.51,50.75,2.49,101.63,13.76,151.86,11.31,24.73-1.21,60.4,1.94,83.48-5.5-31.8-10.25-64.9-8.46-94.58-20.33-31.75-12.7-63.29-35.29-98.68-32.22-17.9,1.55-30,10.61-47.56,15.44-20.79,5.7-43.16,3.47-64.86,3.5-23.25,0-44.75,6.57-67.3,11-17,3.34-33.44.08-50.74,2.2C699.19,345.23,674.8,349,650.34,352Z"/><polygon class="cls-7" points="1522.29 649.68 1539.21 645.49 1582.93 651.07 1656.27 651.07 1715.5 648.28 1762.04 651.07 1876.28 659.46 1920 660.15 1920 707.86 1729.61 701.37 1683.07 686 1643.08 692.45 1589.98 683.21 1557.55 683.21 1539.21 676.22 1513.83 659.46 1503.95 658.06 1503.95 651.07 1522.29 649.68"/><path d="M1918.59,660.56v47.3l-190.39-6.49L1681.66,686l-40,6.45-53.09-9.24h-32.44l-18.33-7-25.39-16.76-8.91-1.26v1.41c-.3,5.72-.77,13.07,0,13.25q26.55,6.27,53.52,10.59c0,3.13,0,6.26,0,9.39,0,1.49-.33,19.91.21,19.95l19.38,1.39c-.12,8.78-.23,17.25-.23,18.62,0,9.4,0,18.8.12,28.2,0,1.26-.34,11.54.3,11.69q19.29,4.34,39,6.78c0,8,0,16,.12,24,0,1.25-.31,11.55.3,11.68,29.51,6.22,59.45,9,89.51,10.65a338.64,338.64,0,0,1-21.08,27.81c-1,1.19-.3,11.74-.3,11.68,0,2.13,0,4.26,0,6.39l-13.36,5.47-46.51,2.29c-9,.45-18.93.21-27,4.52a15.75,15.75,0,0,0-7.26,7.5c-2.33,0-4.66,0-7-.09-.27,0-.43,11.55-.52,24.52-23.47,5.57-46.34,14.79-69.38,20.87a11.53,11.53,0,0,0-.29,3.24l-3.88-.21a25,25,0,0,0-5.7-.3c-.32,0-.51,6.42-.6,15.58-3.51.17-7,.36-10.52.49l-29.89,1.13c-.07-1.07-.12-2.15-.21-3.22-.07-.83.12-2.85-.4-3.56-1-1.42-1.69-1-3.89-.79a89.09,89.09,0,0,0-10.9,1.67,92.78,92.78,0,0,0-20.65,7.27c-.64.31-.31,13-.3,11.68,0,1.68,0,3.36,0,5-11.88-1.64-23.69-3.56-35.4-6-43.31-9.07-64.55-30.54-109-24.76-27.54,3.59-53.88,14.2-80.76,18-32.3,4.49-72.56-8.44-101.91,3.65-16.46,6.75-27.13,29.11-45.23,34.7-22,6.8-48.9-5.31-70.73-7.4-40.63-3.91-80.74,5.91-120.93,10.91l-75.52-2.24c-14.48-4.86-28.76-11.86-44.77-9.43-7.32,1.11-12.82,4.49-18.12,8.16H585.69c-22.13-6.08-43.66-14-66.15-23C477,960.13,487,972.53,462.47,985H376.82c-3.34-.48-6.72-.85-10.13-1-32.06-1.73-64.59.26-96.69,0-38.7-.3-73.82-2.57-111.45-4.17-14.86-.62-30.54-8.95-45.69-12.89l28.91-16.58s-8.9-16.19-20.27-36.29h0l-.64-1.1c-8.83-15.59-19-33.35-27.71-47.67l-5-8.61-2.11-2.9c-5.26-8.3-9.34-14.1-11.2-15.43-8.81-6.31,10.56-28.4,10.56-28.4L60.77,791,96,750l.32-.5,27.79-43.26h0l0-.08-.11-.14.11-.18L111,689.24l-11.22-8.76a40.43,40.43,0,0,0-7.47-5.24l-1-.65-1.23-.18a4.76,4.76,0,0,0-.94-.14l-.79-.12-.27,0-.3,0c-9.26-1.22-32.57-15.29-35.5-17.07l-.08-.05L52,656.9l-8.81-15.78L106.55,597l10.57-41-40.5-9.47L20.27,565.4l42.26-41S48.43,496,14.1,496L0,504.3V761.43H6.24L0,765.86v27.73l2.66,3.71-2.66,1V1080H1918.59v-46.73l.71.19V660.57Z"/><path d="M1581.53,651.07h73.33l31.61-1.49c-20.47,0-40.94.17-61.4.22l-52.18.12-.89-.06Z"/></g></g></g></svg>