<svg xmlns="http://www.w3.org/2000/svg" xmlns:xlink="http://www.w3.org/1999/xlink" viewBox="0 0 1919.03 1080"><defs><style>.cls-1{fill:url(#Dégradé_sans_nom_2);}.cls-2{fill:url(#Dégradé_sans_nom_4);}.cls-3{opacity:0.5;fill:url(#Dégradé_sans_nom_3);}.cls-10,.cls-11,.cls-12,.cls-3,.cls-9{isolation:isolate;}.cls-4{fill:url(#Dégradé_sans_nom_4-2);}.cls-5{fill:url(#Dégradé_sans_nom_5);}.cls-6{mask:url(#mask);}.cls-7{fill:#15161a;}.cls-8{opacity:0.8;}.cls-10,.cls-11,.cls-12,.cls-9{opacity:0.1;}.cls-9{fill:url(#Dégradé_sans_nom_9);}.cls-10{fill:url(#Dégradé_sans_nom_8);}.cls-11{fill:url(#Dégradé_sans_nom_8-2);}.cls-12{fill:url(#Dégradé_sans_nom_9-2);}.cls-13{fill:url(#Dégradé_sans_nom_11);}.cls-14{fill:url(#Dégradé_sans_nom_11-2);}.cls-15{fill:url(#Dégradé_sans_nom_13);}.cls-16{fill:url(#Dégradé_sans_nom_13-2);}.cls-17{fill:#0e0d0d;}</style><linearGradient id="Dégradé_sans_nom_2" x1="-432.32" y1="1125.79" x2="-645.07" y2="1769.62" gradientTransform="matrix(1, 0, 0, -1, 539, 2402.5)" gradientUnits="userSpaceOnUse"><stop offset="0.03"/><stop offset="0.21" stop-color="#030303"/><stop offset="0.35" stop-color="#0d0d0d"/><stop offset="0.47" stop-color="#1e1e1e"/><stop offset="0.59" stop-color="#353535"/><stop offset="0.7" stop-color="#545454"/><stop offset="0.81" stop-color="#797979"/><stop offset="0.92" stop-color="#a4a4a4"/><stop offset="1" stop-color="#ccc"/></linearGradient><linearGradient id="Dégradé_sans_nom_4" x1="754.87" y1="-460.04" x2="1071.11" y2="1085.38" gradientUnits="userSpaceOnUse"><stop offset="0" stop-color="#f7b488"/><stop offset="1" stop-color="#21323d"/></linearGradient><linearGradient id="Dégradé_sans_nom_3" x1="875.71" y1="529.65" x2="1918.98" y2="529.65" gradientUnits="userSpaceOnUse"><stop offset="0" stop-color="#21323d"/><stop offset="1" stop-color="#f7b488"/></linearGradient><linearGradient id="Dégradé_sans_nom_4-2" x1="1160.99" y1="1468.83" x2="577.49" y2="2266.42" gradientTransform="matrix(1, 0, 0, -1, 539, 2402.5)" xlink:href="#Dégradé_sans_nom_4"/><linearGradient id="Dégradé_sans_nom_5" x1="959.51" y1="701.95" x2="959.51" y2="1329.3" gradientUnits="userSpaceOnUse"><stop offset="0.13" stop-color="#1b2236"/><stop offset="0.4" stop-color="#255053"/><stop offset="0.66" stop-color="#2d786b"/><stop offset="0.87" stop-color="#32907a"/><stop offset="1" stop-color="#349980"/></linearGradient><mask id="mask" x="-605" y="641.04" width="1206.37" height="614.05" maskUnits="userSpaceOnUse"><g id="f"><path class="cls-1" d="M-605,641H601.17v614H-605Z"/></g></mask><linearGradient id="Dégradé_sans_nom_9" x1="-538.48" y1="2261.94" x2="1328.65" y2="2261.94" gradientTransform="matrix(1, 0, 0, -1, 539.29, 2402.77)" gradientUnits="userSpaceOnUse"><stop offset="0.4" stop-color="#94a58b"/><stop offset="0.49" stop-color="#86967e"/><stop offset="0.64" stop-color="#788570"/><stop offset="0.8" stop-color="#6f7b68"/><stop offset="1" stop-color="#6c7865"/></linearGradient><linearGradient id="Dégradé_sans_nom_8" x1="0.04" y1="399.59" x2="1918.98" y2="399.59" gradientUnits="userSpaceOnUse"><stop offset="0" stop-color="#6c7865"/><stop offset="0.2" stop-color="#6f7b68"/><stop offset="0.36" stop-color="#788570"/><stop offset="0.51" stop-color="#86967e"/><stop offset="0.6" stop-color="#94a58b"/></linearGradient><linearGradient id="Dégradé_sans_nom_8-2" x1="-538.42" y1="2337.32" x2="1380.54" y2="2337.32" gradientTransform="matrix(1, 0, 0, -1, 539.29, 2402.77)" xlink:href="#Dégradé_sans_nom_8"/><linearGradient id="Dégradé_sans_nom_9-2" x1="237.22" y1="555.81" x2="1918.98" y2="555.81" gradientTransform="matrix(1, 0, 0, 1, 0, 0)" xlink:href="#Dégradé_sans_nom_9"/><linearGradient id="Dégradé_sans_nom_11" x1="891.72" y1="1816.72" x2="901.18" y2="1816.72" gradientTransform="matrix(1, 0, 0, -1, 539, 2402.5)" gradientUnits="userSpaceOnUse"><stop offset="0" stop-color="#41444a"/><stop offset="1" stop-color="#41444a"/></linearGradient><linearGradient id="Dégradé_sans_nom_11-2" x1="-307.39" y1="1758.32" x2="891.7" y2="1758.32" xlink:href="#Dégradé_sans_nom_11"/><linearGradient id="Dégradé_sans_nom_13" x1="-538.96" y1="1803.63" x2="83.28" y2="1803.63" gradientTransform="matrix(1, 0, 0, -1, 539, 2402.5)" gradientUnits="userSpaceOnUse"><stop offset="0" stop-color="#25343f"/><stop offset="1" stop-color="#21323d"/></linearGradient><linearGradient id="Dégradé_sans_nom_13-2" x1="405.18" y1="1772.58" x2="1092.95" y2="1772.58" xlink:href="#Dégradé_sans_nom_13"/></defs><title>bg-cote-ocean</title><g id="Calque_2" data-name="Calque 2"><g id="Calque_1-2" data-name="Calque 1"><polygon class="cls-2" points="1918.98 0 1918.98 1080 0.04 1080 0.04 0.25 1918.98 0"/><path class="cls-3" d="M1919,463V596.22q-.92,7.19-2.05,14.32-1.43,9.11-3.19,18.12a514.15,514.15,0,0,1-60.57,160.67q-1.19,2-2.38,4A524.44,524.44,0,0,1,1399.48,1049c-211.32,0-393.42-124.11-476.23-302.86q-9-19.35-16.36-39.54c-.56-1.54-1.12-3.08-1.66-4.63q-4.52-12.69-8.34-25.6a512.39,512.39,0,0,1-13.95-60.16q-3.56-21.09-5.36-42.46-.75-8.82-1.19-17.71-.68-13.11-.68-26.37,0-18,1.23-35.79.65-9.16,1.59-18.25A514.29,514.29,0,0,1,928.9,301.37h0a522.87,522.87,0,0,1,184.74-207h0a524.89,524.89,0,0,1,255.68-83.2q14.92-.84,30.06-.85t30.07.85a526,526,0,0,1,291,108.2A519.93,519.93,0,0,1,1772.24,165q2.61,2.61,5.16,5.26,6.29,6.51,12.38,13.26c1.3,1.44,2.6,2.89,3.88,4.36a517.88,517.88,0,0,1,92.7,150.35q3.75,9.33,7.13,18.82,5.63,15.88,10.26,32.24c.37,1.29.73,2.57,1.08,3.86q6.54,23.67,10.78,47.85,1.58,8.93,2.82,17.92C1918.61,460.25,1918.8,461.63,1919,463Z"/><ellipse class="cls-4" cx="1408.78" cy="535.62" rx="505.02" ry="500.81"/><rect class="cls-5" x="0.04" y="701.95" width="1918.94" height="378.05"/><g class="cls-6"><path class="cls-7" d="M597.84,696c-91.33,66.84-334.72,180.92-448.12,232.65q-31.78,23.1-66.12,48.59c-38.34,28.47-63,45-82.15,55.8V741l87.42-14c17.14-2.79,3.52,18.29-9.45,34.19l263.18-38.8c151-30.27,219.17-39.13,249.74-41.43a8.28,8.28,0,0,1,5.5,15Z"/></g><g class="cls-8"><path class="cls-9" d="M1867.16,169,0,193.48,0,88.56Z"/><path class="cls-10" d="M1919,339.61V441.08h-1.2l-2.18-.12-7.67-.4-3.2.09c-60.89,1.53-141.33,4-234.93,7L1659,448l-7.54.24-15.38.51-13.73.45-2.19.07-3.89.13-5.34.17-5.67.18-.8,0-23.5,1.07h-.83s-436.59,15-672.66,23.69l-1.89.07-27,1-2.12.08c-239,8.85-470.54,17.67-643.87,24.33l-29.23,1.13L98,505.22l-4.5.18-48.34,1.87-4.76.18-21.24.82-1.8.14-11.07.86-2.06.16H3.91L0,509V462.15l10.4-.73,2.72-.19,1.4-.11L42.7,459l816.78-60.29-858,15V289.76s548.24-.27,918.56,11.32l8.89.29h0l23.84.76,9,.28c369.2,11.88,733.84,27.35,911,35.18l7.8.34,5.79.26,6.66.3Z"/><path class="cls-11" d="M1919,3l0,124.52L0,48.51V3Z"/><path class="cls-12" d="M1919,486.4V610.15l-2.05.39-3.78.73-5.08.06-2.92,0c-77.09.93-190.88,2.69-280.83,5.72-49.44,1.66-91.67,3.7-116.68,6.2-11.5,1.17-36.76,1.76-72.49,1.92l-8,0h-9.16c-13.17,0-27.47,0-42.79-.13h0c-25.73-.15-54.3-.43-85.13-.83h0c-46.46-.61-98-1.47-152.71-2.51-70.62-1.36-146.36-3-222.85-4.82l-4.06-.1-23.83-.56-3.59-.08c-117.87-2.82-236-5.92-338.47-8.71h0c-38.53-1.06-74.82-2.07-108-3-101.51-2.86-174.24-5-193.85-5.63l-3.94-.12h-1.41l1.33-.09,4.19-.28,156.2-10.43h0l51.56-3.45L876.39,556l1.2-.08,26.51-1.78,1.5-.1,625.54-41.78,1.47-.1,3.1-.21,6.14-.41,16.88-1.12,4.3-.29,9.8-.65h0l.46,0,.67,0,48.86-3.26,288.59-19.25,2-.14Z"/></g><path class="cls-13" d="M1430.72,588.75a31.61,31.61,0,0,0,4.87-2.66C1443.66,580.54,1440.52,582.41,1430.72,588.75Z"/><path class="cls-14" d="M930.92,674.3c-23.92-.91-68.09,6.32-116.18,16.31-.23-.13-.44-.27-.69-.38-136.86-61.3-551.49-148-551.49-148l-31,87.68s67.29,90.86,327.26,87.68c66.77-.82,117.46-2.32,156-4.09-29.3,7.21-55.57,14-74.44,19a4.53,4.53,0,0,0,1.06,8.9c84.27,2.15,310.91,7.48,315.22,3.11l157-3.92,162.31-50S1395.7,611.37,1430.7,588.7c-50.82,23-298.53,26.59-351.12,41.42C1025,645.56,1001.84,677,930.92,674.3Z"/><path class="cls-15" d="M622.28,713.26l-63.6,4h-.14L293,734.1l-98.1,6.21L0,731.3V457.43c17.09,6.7,31,11.51,42.3,14.93,85.69,25.7,33-28.18,189.78,41.14q9.07,4,19.12,8.61,38.93,17.76,74.93,33.69c35.52,15.78,68.7,30.29,99,43.72q23,10.17,43.74,19.53c74.2,33.59,125.93,60,145.89,83a42,42,0,0,1,7.43,11.22Z"/><path class="cls-16" d="M1608.81,498.25c-28.62,6.74-72.23,27-105,29.76s-84.57,35.17-111.84,57.87S1303.31,622.68,1261,629.7s-105,37.67-126.86,51.14-90,23-124.13,29.76c-26.81,5.32-54.49,34.07-65.07,46a3.19,3.19,0,0,0,.34,4.52,3.25,3.25,0,0,0,2.12.78h402.23s191-47.35,206-55.45,73.65-89.28,75-104.15,6.82-110.85-21.82-104.08Z"/><path class="cls-17" d="M1919,385.85V791.09l-65.82-1.76-2.43-.06-6.31-.17-1.83,0-597.79-15.93s-4.22-5-4.72-11.19c-.6-7.34,4-16.44,26.59-21.31,23.49-5.07,59-20.35,90.1-38.21l.81-.46a323.44,323.44,0,0,0,38.31-25.46l10.06-33.5,5.9,18.93c.78-.84,1.51-1.68,2.2-2.52.58-.68,1.13-1.39,1.67-2.09l1.87-17.59,1.54-14.5.88-8.3,2.3,8.3,4,14.49.33,1.2c.23-.41.47-.8.68-1.2,2.72-4.8,5.28-9.67,7.81-14.51l2.91-5.55,6.35-45.53,7,23a68.23,68.23,0,0,1,16.3-16.4l4.75-27.09,4.23,22.07a56.89,56.89,0,0,1,7.28-2.63l7.28-22.23,14.08,13.3c1.86-1,3.73-2.12,5.63-3.26V538.75l9.74,15.6q3.44-2.4,7-5l3.12-23.61.39-2.91,1.41-10.67.74-5.62,2.36,5.41,3.72,8.55,2,4.53,4.31,9.87c4.17-3.58,8.36-7.27,12.42-11q2.48-2.28,4.9-4.56V477.16l10.23,32.19,0,.12.15.47.52-.52.5-.49c.62-.6,1.24-1.21,1.86-1.84l4-42.84.22-2.3.63,2.27,8.33,29.59c5.75-6,11.09-11.55,15.72-16.45V436.54l5.67,13,6.13,14.07,1.82,4.19,1.75-.88.33-3.4,1.39-14.35,2.58-26.57,11.15,26.12,4.24,9.94c3-1.1,6.06-2.23,9.3-3.36l1.84-7.09,2.54-9.81,5,9.57,1.84,3.53c2.81-.93,5.74-1.86,8.78-2.79l.18-1.09,3-17.54,9,14.87c3.54-1.08,7.18-2.16,10.86-3.24l4.51-24.65,7.51,21.19c7.38-2.11,15-4.19,22.67-6.29l4.52-29.78s5.92,15.11,10.1,25.87c56.29-14.87,116.27-28.66,150.72-36.34l1.79-.4q5.07-1.15,9.31-2.08L1905,389C1911.51,387.5,1916.29,386.43,1919,385.85Z"/><path class="cls-17" d="M972.38,1080H0V520.51c1.15.89,2.28,1.84,3.42,2.79l.34.28a2.08,2.08,0,0,1,0-.29c2.69-15.45,6.91-37.72,8.82-47.64.62-3.2,1-5.13,1-5.13l.49,5,4.7,47.16L20.32,538q6.72,6.34,13.11,13l.87.31,5.76-29.43,2.69-13.77,2.07,13.58,4.51,29.61h15l8.45-26,9.38,37.16,11-42.52,3-11.73,1.41,11.55,7,54.87,6.58-43,12.21,43,13.62-38.68,8,50.74,14.08,10.23L165.74,556l12.2,47.37,12.21,3.78,9.39-28.85,6.56,46.45,13.15-60.38L223.94,642l13.14-34.83.72,5.57v.49l3.46,27.39,2.34,18.47,9.39,9.29,5.32-14.59L265.19,635,268,660.06,272.85,703l2.23,18.93a148.32,148.32,0,0,1,18.21,12.86c16.08,12.83,33.8,30.53,16.5,31.42,0,0,361,40.31,474.08,149.44C887,1015.3,960.35,1071,972.38,1080Z"/></g></g></svg>