<svg xmlns="http://www.w3.org/2000/svg" xmlns:xlink="http://www.w3.org/1999/xlink" viewBox="0 0 1920 1010.53"><defs><style>.cls-1{fill:url(#Dégradé_sans_nom_28);}.cls-2{fill:url(#Dégradé_sans_nom_27);}.cls-3{fill:url(#Dégradé_sans_nom_57);}.cls-4{fill:url(#Dégradé_sans_nom_56);}.cls-5{fill:url(#Dégradé_sans_nom_45);}.cls-6{fill:url(#Dégradé_sans_nom_67);}</style><linearGradient id="Dégradé_sans_nom_28" y1="858.03" x2="960" y2="858.03" gradientUnits="userSpaceOnUse"><stop offset="0" stop-color="#3799e2" stop-opacity="0.8"/><stop offset="1" stop-color="#1fefeb"/></linearGradient><linearGradient id="Dégradé_sans_nom_27" x1="960" y1="858.03" x2="1920" y2="858.03" gradientUnits="userSpaceOnUse"><stop offset="0" stop-color="#1fefeb"/><stop offset="1" stop-color="#3799e2" stop-opacity="0.8"/></linearGradient><linearGradient id="Dégradé_sans_nom_57" y1="866.53" x2="960" y2="866.53" gradientUnits="userSpaceOnUse"><stop offset="0" stop-color="#4d4d4d"/><stop offset="1" stop-color="#333"/></linearGradient><linearGradient id="Dégradé_sans_nom_56" x1="960" y1="866.53" x2="1920" y2="866.53" gradientUnits="userSpaceOnUse"><stop offset="0" stop-color="#333"/><stop offset="1" stop-color="#4d4d4d"/></linearGradient><linearGradient id="Dégradé_sans_nom_45" y1="230.69" x2="1920" y2="230.69" gradientUnits="userSpaceOnUse"><stop offset="0" stop-color="#3799e2" stop-opacity="0.8"/><stop offset="0.5" stop-color="#1fefeb"/><stop offset="1" stop-color="#3799e2" stop-opacity="0.8"/></linearGradient><linearGradient id="Dégradé_sans_nom_67" y1="223.69" x2="1920" y2="223.69" gradientUnits="userSpaceOnUse"><stop offset="0" stop-color="#4d4d4d"/><stop offset="0.12" stop-color="#404040"/><stop offset="0.29" stop-color="#363636"/><stop offset="0.5" stop-color="#333"/><stop offset="0.62" stop-color="#404040"/><stop offset="0.79" stop-color="#4a4a4a"/><stop offset="1" stop-color="#4d4d4d"/></linearGradient></defs><title>cadran-base</title><g id="Calque_2" data-name="Calque 2"><g id="Cockpit"><g id="Start"><g id="Cadran"><g id="cadran-base"><g id="Gauche_tableau_de_bord" data-name="Gauche tableau de bord"><path class="cls-1" d="M960,1002.53H0V902.36c128-16.42,256,19.71,384,3.29,71.41-9.06,152.93-28.77,241-67.33a996.89,996.89,0,0,0,103-52.54,595.8,595.8,0,0,1,113-49.26,525,525,0,0,1,119-23"/></g><path id="Droite_tableau_de_bord" data-name="Droite tableau de bord" class="cls-2" d="M960,1002.53h960V902.36c-128-16.42-256,19.71-384,3.29-71.41-9.06-152.93-28.77-241-67.33a996.89,996.89,0,0,1-103-52.54,595.8,595.8,0,0,0-113-49.26,525,525,0,0,0-119-23"/><g id="Gauche_tableau_de_bord-2" data-name="Gauche tableau de bord"><path class="cls-3" d="M960,1010.53H0V910.71c128-16.36,256,19.64,384,3.27,71.41-9,152.93-28.67,241-67.09a996.35,996.35,0,0,0,103-52.36,596.47,596.47,0,0,1,113-49.09,526.68,526.68,0,0,1,119-22.91"/></g><path id="Droite_tableau_de_bord-2" data-name="Droite tableau de bord" class="cls-4" d="M960,1010.53h960V910.71c-128-16.36-256,19.64-384,3.27-71.41-9-152.93-28.67-241-67.09a996.35,996.35,0,0,1-103-52.36,596.47,596.47,0,0,0-113-49.09,526.68,526.68,0,0,0-119-22.91"/><path class="cls-5" d="M1920,386.35c-91.55-82.41-197.8-156.42-308.63-214.86-93.75-49.44-191.59-88.34-290.8-115.64A1361,1361,0,0,0,959.66,7H955A1361.94,1361.94,0,0,0,593.76,57.22a1449.31,1449.31,0,0,0-287.41,115.1C196.48,230.44,91,304,0,385.86v68L17,438C139.66,324,476.56,58.68,955.12,57h4.55c481.16,0,819.81,266.63,943.3,381.54l17,15.84Z"/><path class="cls-6" d="M1920,379.35c-91.55-82.41-197.8-156.42-308.63-214.86-93.75-49.44-191.59-88.34-290.8-115.64A1361,1361,0,0,0,959.66,0H955A1361.94,1361.94,0,0,0,593.76,50.22a1449.31,1449.31,0,0,0-287.41,115.1C196.48,223.44,91,297,0,378.86v68L17,431C139.66,317,476.56,51.68,955.12,50h4.55c481.16,0,819.81,266.63,943.3,381.54l17,15.84Z"/></g></g></g></g></g></svg>