<svg xmlns="http://www.w3.org/2000/svg" viewBox="0 0 1106.02 275.95"><defs><style>.cls-1{fill:#7be237;}</style></defs><title>detected</title><g id="Calque_2" data-name="Calque 2"><g id="Calque_1-2" data-name="Calque 1"><path class="cls-1" d="M3.71,88.9V0h71l8.76,9V53.47l-8.76,8.89H21.49V88.9ZM65.82,44.58V17.78H21.49v26.8Z"/><path class="cls-1" d="M112.81,0V71.12h57.65V88.9H95V0Z"/><path class="cls-1" d="M178.21,88.9V26.8L204.75,0H258V88.9H240.31V62.36H196V88.9Zm62.1-44.32V17.78H213.64L196,35.69v8.89Z"/><path class="cls-1" d="M332.89,88.9,288.57,29.59V88.9H270.79V0h17.78l44.32,59.18V0h17.66V88.9Z"/><path class="cls-1" d="M363.37,88.9V0h75.44V17.78H381.15V35.69h53.22V53.47H381.15V71.12h57.66V88.9Z"/><path class="cls-1" d="M477.67,88.9V17.78H446.56V0h79.75V17.78H495.45V88.9Z"/><path class="cls-1" d="M535.33,88.9V0h75.44V17.78H553.11V35.69h53.21V53.47H553.11V71.12h57.66V88.9Z"/><path class="cls-1" d="M700.55,88.9V17.78H669.44V0h79.75V17.78H718.33V88.9Z"/><path class="cls-1" d="M758.21,88.9V0h75.44V17.78H776V35.69h53.22V53.47H776V71.12h57.66V88.9Z"/><path class="cls-1" d="M907.31,88.9V80.14l-8.89-9-8.89-8.76H863V88.9H845.21V0h71L925,9V53.47l-8.76,8.89L925,71.12V88.9Zm0-44.32V17.78H863v26.8Z"/><path class="cls-1" d="M999.89,88.9V80.14l-8.89-9-8.89-8.76H955.57V88.9H937.79V0h71l8.76,9V53.47l-8.76,8.89,8.76,8.76V88.9Zm0-44.32V17.78H955.57v26.8Z"/><path class="cls-1" d="M1030.37,88.9V0h75.44V17.78h-57.66V35.69h53.22V53.47h-53.22V71.12h57.66V88.9Z"/><path class="cls-1" d="M124.34,262.29,110.68,276H0V137.35H83l41.38,41.58Zm-27.52-69.5L69.1,165.07H27.72v83.16h69.1Z"/><path class="cls-1" d="M146.91,276V137.35H264.52v27.72H174.63V193h83v27.72h-83v27.52h89.89V276Z"/><path class="cls-1" d="M329.67,276V165.07H281.16V137.35H405.5v27.72H357.38V276Z"/><path class="cls-1" d="M424.11,276V137.35H541.72v27.72H451.83V193h83v27.72h-83v27.52h89.89V276Z"/><path class="cls-1" d="M578,276l-13.67-13.66V151.41L578,137.35h97l13.67,14.06v27.52H661.11V165.07H592v83.16h69.1V234.57h27.53v27.72L675,276Z"/><path class="cls-1" d="M753.78,276V165.07H705.27V137.35H829.61v27.72H781.5V276Z"/><path class="cls-1" d="M848.22,276V137.35H965.83v27.72H875.94V193h83v27.72h-83v27.52h89.89V276Z"/><path class="cls-1" d="M988.4,276V137.35H1106v27.72h-89.89V193h83v27.72h-83v27.52H1106V276Z"/></g></g></svg>