<svg xmlns="http://www.w3.org/2000/svg" viewBox="0 0 1835 225"><defs><style>.cls-1{fill:none;}.cls-2{fill:#f2eee9;}.cls-3{fill:#fff;}</style></defs><title>elmus-sprite-swim_11</title><g id="Calque_2" data-name="Calque 2"><g id="Personnage_forme" data-name="Personnage forme"><path d="M116.46,220.79l2.14-11.58,1.46-7.92a4.8,4.8,0,0,1,1.62-2.8,4.65,4.65,0,0,1,3-1.1h.42a4.74,4.74,0,0,1,4.63,3.91l1.48,8A255.53,255.53,0,0,0,145.34,169c0-.6-.06-1.12-.09-1.56-.08-1-.15-1.56-.15-1.56L125,177.56l-20.24-11.71S101.3,191.61,116.46,220.79Z"/><path d="M104.4,164.75c0,9,9.15,16.28,20.44,16.28s20.44-7.29,20.44-16.28a14.11,14.11,0,0,0-3.84-9.49h.13c-22.27-20.44-10.11-39.64-5.84-45.06.77-1,1.29-1.51,1.29-1.51s-3.76-3-12.08-3.23h-.1c-.82,0-1.59,0-2.33,0-5.6.32-8.68,2.3-9.58,3h0l.25.28.56.64.23.27.11.13.1.11.09.11,0,.06c1.51,1.79,2.41,3,2.61,3.32l0,0v0c14.47,19.7-8.87,41.83-8.87,41.83h.13A14.12,14.12,0,0,0,104.4,164.75Z"/><path d="M82.87,85.73c0,.51,0,1,0,1.54,0,.12,0,.25,0,.37a1,1,0,0,0,.39.76,1,1,0,0,0,.38.16l.23.06c10.63,2.62,20.58,11.72,20.58,11.72l0,0,.23.19.35.29.32.27.54.47.11.1.29.25.56.5.9.83.14.13.53.5.12.12.46.44.19.18.39.39.25.26.31.31.52.53,0,0,.56.58.1.1.43.46.12.13.4.43.11.12.38.42,0,.06.11.13.3.34.11.13.53.61.09.11.1.11.09.11,0,.06a21.52,21.52,0,0,1,8.23-2.86h.13a20.79,20.79,0,0,1,2.16-.11h.1a20.72,20.72,0,0,1,3.36.29h0l.67.13a20.83,20.83,0,0,1,7.3,3.18l.32.22.32.23,0,0,.36.27,0,0a17.23,17.23,0,0,1,2.81,2.73l.7.85c.17.22.32.44.47.66l.06.08.06.08q.21.29.43.55l.27.3,0,0,.32.31a8,8,0,0,0,4.09,2h0a7.81,7.81,0,0,0,1.37.12,7.9,7.9,0,0,0,2.09-.28,8,8,0,0,0,2.61-1.24h0a8,8,0,0,0,1.58-1.49l.06-.07q.81-.81,1.57-1.67.52-.58,1-1.18l.49-.61c.33-.41.64-.82,1-1.24h0l.51-.69q.5-.7,1-1.42l.46-.73,0,0a41.81,41.81,0,0,0,2.24-4.09l.07-.15a42.86,42.86,0,0,0,2.49-6.6l.13-.47c.17-.62.33-1.25.47-1.88q.33-1.45.56-2.94a44.11,44.11,0,0,0,.48-5.19c0-.26,0-.52,0-.78s0-.38,0-.57a43,43,0,0,0-3.25-16.55A42.41,42.41,0,0,0,133,43.88a54.19,54.19,0,0,0-16.12,0l-.29,0A42.52,42.52,0,0,0,82.87,85.73Z"/><path d="M104.73,167.51s3.61,18.39,13.88,41.7q1.77,4,3.81,8.23a2.79,2.79,0,0,0,5,0c1.34-2.75,2.6-5.47,3.78-8.12a266,266,0,0,0,12.09-32.94c1-3.28,1.62-5.82,2-7.4v0c0-.56.08-1.11.11-1.66l-.21.12-6.1,3.55L125,179.21Z"/><path d="M83,82.4s-4.36,27.15,30.3,26.6l5.54-1Z"/><path d="M145,162.29s1.27,6.09-.75,10.68l-3.92-7.53Z"/><path d="M78.26,39.71H76.87a69.28,69.28,0,0,1,1.4-10.19s3.25-14,20-15.42c0,0,23-2.2,29,24.23,0,0,.81,5,4.64,6.77.11.05-17.64-.16-17.64-.16,4.06-2.48,3.92-5.34,4.33-7.43,3.52-17.9-16.24-19-16.24-19s-14.35-1.38-20,9.64A49,49,0,0,0,78.26,39.71Z"/><path d="M109.87,153.61A38.56,38.56,0,0,0,104.64,172a60.5,60.5,0,0,1-2.8,16.47l-.28.89-.08.27h-.21l-.48,0c0-.08,0-.16,0-.23C97.5,163.7,109.87,153.61,109.87,153.61Z"/><path d="M101.56,189.63s.31,1.58.07,1.66-.5-1.66-.5-1.66Z"/><path d="M100.76,189.63s-.31,1.58-.07,1.66.5-1.66.5-1.66Z"/><rect class="cls-1" x="333.61" y="0.23" width="166.8" height="224.64" transform="translate(834.01 225.11) rotate(-180)"/><path d="M431.3,214.4,435,203.24l2.56-7.63a4.78,4.78,0,0,1,2-2.54,4.64,4.64,0,0,1,3.13-.67l.42.06a4.75,4.75,0,0,1,4,4.53l.35,8.15a254.94,254.94,0,0,0,19.6-37.94c.06-.6.1-1.12.12-1.55.07-1,.07-1.56.07-1.56l-21.56,8.73-18.4-14.46S420.37,183.35,431.3,214.4Z"/><path d="M427.2,157.21c-1.26,8.9,6.79,17.42,18,19s21.26-4.31,22.51-13.22a14.14,14.14,0,0,0-2.47-9.94l.13,0c-19.18-23.4-4.46-40.68.52-45.44.9-.87,1.49-1.32,1.49-1.32s-3.3-3.5-11.51-4.92l-.1,0c-.81-.14-1.58-.23-2.31-.3-5.59-.47-8.92,1-9.9,1.59h0l.21.31.47.71.19.3.09.14.08.13.08.12,0,.06c1.24,2,2,3.34,2.12,3.65l0,0v0c11.57,21.56-14.63,40.15-14.63,40.15l.13,0A14.08,14.08,0,0,0,427.2,157.21Z"/><path d="M500.36,83.81c0,1-.14,2.09-.27,3.15-.09.72-.19,1.45-.32,2.17,0,.19-.06.38-.1.56l-.15.76q-.22,1.1-.51,2.17c-.24,1-.52,1.92-.83,2.86-.17.52-.36,1-.55,1.54-.08.22-.16.43-.25.64s-.16.42-.25.62c-.25.59-.51,1.19-.78,1.77l-.21.43a42.29,42.29,0,0,1-3.56,6.09,1.13,1.13,0,0,1-.1.13,44.43,44.43,0,0,1-2.89,3.65l0,0L489,111c-.39.42-.79.84-1.19,1.24-.21.2-.41.4-.62.59h0c-.38.35-.76.71-1.15,1.06l-.59.51c-.4.34-.8.66-1.21,1-.6.47-1.21.93-1.83,1.37l-.07.06a8.36,8.36,0,0,1-1.81,1.21,8.06,8.06,0,0,1-2.79.79,8.2,8.2,0,0,1-2.1-.08,8.44,8.44,0,0,1-1.34-.35h0a8,8,0,0,1-3.7-2.7l-.26-.36,0,0-.21-.34c-.12-.2-.23-.4-.34-.61l0-.09,0-.08c-.11-.25-.23-.49-.35-.73l-.55-1a17.46,17.46,0,0,0-2.31-3.17l0,0c-.09-.11-.2-.21-.3-.32a.08.08,0,0,0,0,0c-.09-.09-.18-.19-.28-.28l-.28-.27-.25-.23a20.63,20.63,0,0,0-6.41-4.15l-.63-.24h0a21.19,21.19,0,0,0-3.26-.86l-.11,0c-.71-.12-1.43-.2-2.15-.25h-.12a21.61,21.61,0,0,0-8.26,1.29,0,0,0,0,0,0,0l-.33.12,0-.07a.41.41,0,0,1,0-.09l0,0a.57.57,0,0,0-.08-.13.76.76,0,0,0-.07-.12c-.13-.23-.27-.45-.42-.69l-.09-.14-.24-.39-.09-.14a.21.21,0,0,0,0-.06l-.3-.48-.09-.14-.32-.49-.09-.14c-.12-.17-.24-.35-.35-.53a.81.81,0,0,1-.08-.12l-.46-.66s0,0,0,0l-.43-.6-.25-.36-.21-.3c-.11-.14-.21-.29-.32-.44l-.16-.21-.37-.51a1.13,1.13,0,0,1-.1-.13l-.44-.58-.12-.16q-.37-.47-.75-1l-.48-.58-.24-.3-.09-.11-.46-.55-.27-.32-.3-.34-.19-.23,0,0s-8.28-10.66-18.33-15.06l-.22-.09a1,1,0,0,1-.34-.22l0-.07a1,1,0,0,1-.21-.74c0-.13,0-.25,0-.37.06-.5.14-1,.23-1.52a42.42,42.42,0,0,1,38.77-35.46c.5,0,1-.06,1.5-.07h.29A53.83,53.83,0,0,1,470.18,41c1.12.29,2.24.62,3.34,1a42.34,42.34,0,0,1,24,24.36l.07.19c.31.81.59,1.61.84,2.44a1.89,1.89,0,0,1,.07.22c.31,1,.59,2,.82,3v.11a40.28,40.28,0,0,1,.8,4.79v.12q.16,1.52.21,3.08C500.42,81.51,500.42,82.66,500.36,83.81Z"/><path d="M427.14,160s1,18.72,7.9,43.26q1.19,4.24,2.63,8.69a2.8,2.8,0,0,0,5,.72c1.71-2.54,3.34-5,4.88-7.5a265.38,265.38,0,0,0,16.58-30.9c1.41-3.12,2.41-5.53,3-7v0l.34-1.63-.23.09-6.54,2.65-15.19,6.15Z"/><path d="M417.42,74.7s-6.83,26.63,27.72,29.31l5.61-.46Z"/><path d="M467.78,160.54s.41,6.21-2.24,10.47l-2.83-8Z"/><path d="M467.13,35.26a4,4,0,0,1-.07-.43,41.19,41.19,0,0,0-1.94-7.34,29.45,29.45,0,0,0-5.29-9.11l0,0h0c-11.23-10.3-29.74-2.68-29.74-2.68a33.08,33.08,0,0,0-11.47,7.74,29.07,29.07,0,0,0-4,5c.9-.25,2-.62,3.1-1s2.14-.8,3-1.15c1.3-.51,2.22-.89,2.22-.89,26.16-19.45,34.84-2.59,35.49-1.23l0,.06a16.56,16.56,0,0,1,0,9.33c-.51,2.07-.52,4.93-4.71,7.2,0,0,17.71,1.13,17.61,1.08C468.29,40.17,467.36,36.5,467.13,35.26Z"/><path d="M433.82,147.36c-4.05,6.91-7.86,17.44-8,22.14-.16,5.6-3.36,13.63-5,19l-.28.89-.08.27h-.21l-.48,0c0-.08,0-.16,0-.23C416.45,163.7,433.82,147.36,433.82,147.36Z"/><path d="M420.52,189.63s.31,1.58.07,1.66-.5-1.66-.5-1.66Z"/><path d="M419.72,189.63s-.31,1.58-.07,1.66.5-1.66.5-1.66Z"/><path d="M273.08,215.9l3-11.38,2.06-7.78a4.79,4.79,0,0,1,1.83-2.67,4.65,4.65,0,0,1,3.08-.87l.42,0a4.74,4.74,0,0,1,4.32,4.25l.87,8.11a255.23,255.23,0,0,0,17.12-39.14c0-.6,0-1.12,0-1.56,0-1,0-1.56,0-1.56l-21,10.12-19.29-13.23S260.18,185.63,273.08,215.9Z"/><path d="M265.31,159.09c-.68,9,7.89,16.94,19.14,17.81s20.93-5.69,21.62-14.66a14.13,14.13,0,0,0-3.1-9.76h.13c-20.65-22.1-7.07-40.31-2.4-45.38.85-.92,1.4-1.41,1.4-1.41s-3.52-3.28-11.8-4.15h-.1c-.82-.09-1.59-.13-2.32-.14-5.61-.11-8.83,1.63-9.77,2.23h0l.22.29.51.68.21.29.1.14.09.12.09.12,0,.06c1.37,1.9,2.17,3.21,2.35,3.51l0,0v0c12.93,20.76-12,41-12,41h.13A14.1,14.1,0,0,0,265.31,159.09Z"/><path d="M333.6,81.07c0,1,0,2.1-.07,3.16,0,.73-.1,1.46-.18,2.19,0,.19,0,.39-.06.57l-.1.77q-.15,1.11-.37,2.2c-.18,1-.39,2-.64,2.91-.14.53-.29,1.06-.45,1.57-.07.23-.13.44-.21.66s-.13.43-.21.64c-.21.61-.43,1.22-.66,1.82l-.18.45a42.34,42.34,0,0,1-3.16,6.31,1.13,1.13,0,0,1-.09.14,44.49,44.49,0,0,1-2.65,3.83l0,0L324,109c-.36.45-.73.89-1.11,1.31-.2.21-.38.43-.58.63h0c-.36.38-.71.76-1.08,1.13l-.56.55c-.38.37-.75.71-1.14,1.07-.57.51-1.15,1-1.74,1.49l-.07.06a8.37,8.37,0,0,1-1.73,1.32,8.06,8.06,0,0,1-2.73,1,8.2,8.2,0,0,1-2.1.06,8.44,8.44,0,0,1-1.36-.26h0a7.94,7.94,0,0,1-3.86-2.45l-.28-.34,0,0-.23-.33c-.13-.19-.26-.39-.38-.59l0-.09-.05-.08c-.13-.24-.26-.48-.4-.71l-.61-.92a17.43,17.43,0,0,0-2.51-3l0,0c-.1-.1-.21-.2-.32-.3l0,0-.3-.26-.3-.25-.26-.21a20.61,20.61,0,0,0-6.67-3.72l-.64-.2h0a21.17,21.17,0,0,0-3.3-.64h-.11c-.72-.07-1.44-.11-2.16-.11h-.12a21.62,21.62,0,0,0-8.16,1.82,0,0,0,0,0,0,0l-.32.14,0-.07a.41.41,0,0,1-.06-.09l0,0a.57.57,0,0,0-.09-.13.76.76,0,0,0-.08-.12c-.14-.22-.3-.43-.46-.67l-.1-.13-.26-.38-.1-.13,0-.06-.33-.46-.1-.13-.35-.47-.1-.13c-.13-.16-.26-.34-.38-.51l-.09-.12-.5-.63,0,0-.47-.57-.27-.35-.23-.29c-.12-.13-.23-.28-.35-.42l-.17-.2-.4-.49a1.13,1.13,0,0,1-.11-.12l-.48-.55-.13-.15-.81-.92-.52-.55-.26-.29-.1-.1-.49-.52-.29-.3-.32-.32-.2-.22,0,0s-8.95-10.1-19.26-13.83l-.23-.08a1,1,0,0,1-.35-.2L250,80.1a1,1,0,0,1-.26-.73c0-.13,0-.25,0-.37,0-.51.07-1,.13-1.53a42.48,42.48,0,0,1,36.41-37.92c.5-.06,1-.13,1.49-.17h.29a53.82,53.82,0,0,1,12.63,1c1.14.22,2.27.48,3.39.78a42.28,42.28,0,0,1,25.55,22.74l.08.19c.36.78.69,1.57,1,2.38a1.89,1.89,0,0,1,.08.22c.37,1,.72,2,1,3v0l0,.08A40.25,40.25,0,0,1,333,74.46v.12q.26,1.51.41,3.06C333.51,78.78,333.59,79.92,333.6,81.07Z"/><path d="M265.43,161.87s2.2,18.61,10.67,42.65q1.46,4.15,3.18,8.5a2.79,2.79,0,0,0,5,.39c1.55-2.64,3-5.25,4.39-7.81a265.69,265.69,0,0,0,14.55-31.91c1.2-3.2,2.05-5.68,2.57-7.23v0c.08-.55.16-1.1.24-1.64l-.22.11L299.48,168l-14.76,7.13Z"/><path d="M250.25,77.4s-5.11,27,29.55,27.44l5.57-.82Z"/><path d="M306,159.77s.81,6.17-1.56,10.59l-3.34-7.81Z"/><path d="M297.32,34.79a4,4,0,0,1-.1-.42,41.15,41.15,0,0,0-2.41-7.19A29.41,29.41,0,0,0,289,18.43l0,0h0c-11.87-9.55-29.85-.73-29.85-.73a33.12,33.12,0,0,0-11,8.48,29.11,29.11,0,0,0-3.71,5.3c.88-.3,2-.75,3-1.22s2.09-.93,3-1.35c1.26-.59,2.15-1,2.15-1,24.85-21.12,34.6-4.86,35.33-3.54l0,.06a16.56,16.56,0,0,1,.64,9.31c-.38,2.1-.2,5-4.23,7.49,0,0,17.75,0,17.64-.07C298.79,39.62,297.63,36,297.32,34.79Z"/><path d="M272.06,147.36c-4.05,6.91-7.86,17.44-8,22.14-.16,5.6-3.36,13.63-5,19l-.28.89-.08.27h-.21l-.48,0c0-.08,0-.16,0-.23C254.7,163.7,272.06,147.36,272.06,147.36Z"/><path d="M258.76,189.63s.31,1.58.07,1.66-.5-1.66-.5-1.66Z"/><path d="M258,189.63s-.31,1.58-.07,1.66.5-1.66.5-1.66Z"/><path d="M1009.19,127.17l11.49,2.16,7.86,1.48a4.76,4.76,0,0,1,3.88,4.67v.43a4.75,4.75,0,0,1-3.88,4.67l-8,1.5a250.94,250.94,0,0,0,40,14.21l1.54-.1c1-.08,1.54-.15,1.54-.15l-11.62-20.28,11.62-20.4S1038.15,111.89,1009.19,127.17Z"/><path d="M1123.65,135.61v.1c-.21,7.44-2.57,11.25-3.1,12-.21-.09-.41-.2-.62-.31s-.58-.5-1-.84-.83-.64-1.34-1c-6.73-4.83-24.53-13.94-43.38,6.9v-.13a14.42,14.42,0,0,1-7,3.63,13,13,0,0,1-2.44.23,13.17,13.17,0,0,1-1.68-.11,10.31,10.31,0,0,1-1.14-.21,13.1,13.1,0,0,1-3.8-1.49c-5.63-3.21-9.55-10.42-9.55-18.78,0-9.78,5.36-18,12.55-20.08h0a9.93,9.93,0,0,1,1.23-.29,12,12,0,0,1,2.34-.22,13.89,13.89,0,0,1,9.42,3.88v-.14s18.94,20.29,37.31,11.49c.33-.15.65-.32,1-.49s.79-.43,1.18-.68c.69-.41,1.37-.88,2-1.38h0l0,0c.28-.2,1.52-1.12,3.29-2.64l.06,0,.11-.1a.53.53,0,0,0,.11-.1l.13-.11.27-.23c.2-.18.42-.36.63-.56l.28-.24q.13.18.33.48a17.77,17.77,0,0,1,2.46,7.39c.08.56.13,1.16.17,1.78S1123.67,134.79,1123.65,135.61Z"/><path d="M1135.66,141.32a19.91,19.91,0,0,1-1.37,1.49c-2.56,2.58-8.3,7.37-13.73,4.92-.21-.09-.41-.2-.62-.31a10,10,0,0,1-2.34-1.84h0l.08-11.29,1.23-4.14,1.77-5.93a2.5,2.5,0,0,1,.32-.11C1122.93,123.48,1132.95,121.34,1135.66,141.32Z"/><path d="M1085,99.36c-.13.5-.24,1-.35,1.5l-.08.36a1,1,0,0,0,.19.83,1,1,0,0,0,.33.25l.21.11c9.66,5.18,17.08,16.47,17.08,16.47l0,0,.18.24.27.37.24.34.41.59.09.12.22.31.42.63.67,1,.11.16.39.62.09.14.34.54.14.22.29.47.18.31.23.38.37.64,0,0,.4.7.07.13.31.56.08.15.28.52.08.14.27.51,0,.07.08.15.21.41.08.15.36.72.06.13.07.13.06.13,0,.07a21.47,21.47,0,0,1,8.68-.73h.13a20.81,20.81,0,0,1,2.12.43l.1,0a20.76,20.76,0,0,1,3.18,1.11h0l.62.29a20.94,20.94,0,0,1,6.3,4.9l.25.29.25.3,0,0,.28.35,0,0a17.32,17.32,0,0,1,2.05,3.34l.47,1c.11.25.2.5.3.76l0,.09,0,.09q.13.33.28.64l.19.36,0,0,.23.38a8,8,0,0,0,3.47,3h0a7.93,7.93,0,0,0,3.39.71,8,8,0,0,0,2.83-.56h0a8,8,0,0,0,1.89-1.05l.07-.05q1-.59,1.93-1.23.65-.44,1.28-.89l.63-.46c.42-.31.82-.64,1.23-1h0l.66-.55q.65-.55,1.28-1.13l.63-.59,0,0a41.59,41.59,0,0,0,3.17-3.41l.11-.13a42.66,42.66,0,0,0,4-5.78l.24-.42c.32-.56.62-1.13.92-1.7q.67-1.33,1.26-2.71a44,44,0,0,0,1.73-4.91l.21-.75.15-.55a43.07,43.07,0,0,0,.89-16.85,42.63,42.63,0,0,0-23.37-32.22,54.26,54.26,0,0,0-15.61-4l-.29,0A42.32,42.32,0,0,0,1085,99.36Z"/><path d="M1062.06,115.35s-18.25,3.63-41.38,14q-4,1.78-8.16,3.84a2.83,2.83,0,0,0,0,5.08c2.73,1.35,5.43,2.62,8.06,3.81a261.39,261.39,0,0,0,32.69,12.18c3.26,1,5.78,1.63,7.35,2h0l1.64.11-.12-.21-3.52-6.15-8.19-14.28Z"/><path d="M1085.9,96.16s-10.85,25.23,22.87,33.29l5.61.43Z"/><path d="M1067.24,156s-6,1.28-10.6-.76l7.47-4Z"/><path d="M1009.55,144.11,1021,142l7.86-1.48a4.76,4.76,0,0,0,3.88-4.67v-.43a4.75,4.75,0,0,0-3.88-4.67l-8-1.5A250.94,250.94,0,0,1,1061,115l1.54.1c1,.08,1.54.15,1.54.15l-11.62,20.28,11.62,20.4S1038.52,159.39,1009.55,144.11Z"/><path d="M1152,71.63a4,4,0,0,1,.11-.42,41.22,41.22,0,0,0,1.26-7.48,29.61,29.61,0,0,0-1.06-10.5.13.13,0,0,0,0,0h0c-4.08-9.61-14.69-13-21-14.24h0c-.78-.15-1.5-.27-2.14-.35-3-.54-8.41-1.7-11.2-3.39l.13.12a74.14,74.14,0,0,1-15.81-11.14c.7,1,4.46,5,4.46,5a52.57,52.57,0,0,0,13.12,9.41,43.54,43.54,0,0,0,12.43,4.29c15.72,1.78,16.3,13.76,16.33,15v.07a16.5,16.5,0,0,1-3.81,8.51c-1.32,1.67-2.5,4.27-7.24,4.58,0,0,15.65,8.44,15.57,8.35C1151.05,76.59,1151.72,72.85,1152,71.63Z"/><rect class="cls-1" x="1000.82" y="0.26" width="166.83" height="224.64" transform="translate(2168.47 225.15) rotate(-180)"/><path d="M726,131.78c-7.88,1.16-18.41,4.77-22.13,7.62-4.42,3.39-12.64,5.92-17.82,7.94l-.87.34-.26.1-.13-.16c-.11-.14-.21-.28-.29-.39l.16-.17C702.44,128.4,726,131.78,726,131.78Z"/><path d="M684.95,147.85s-1,1.23-1.24,1.1,1-1.43,1-1.43Z"/><path d="M684.45,147.23s-1.41.74-1.33,1,1.59-.65,1.59-.65Z"/><path d="M676.56,172.86l11-4.06L695,166a4.71,4.71,0,0,1,5.7,2l.22.37a4.79,4.79,0,0,1-1,6l-6.08,5.39a250.57,250.57,0,0,0,41.62-8.42c.5-.33.93-.63,1.28-.88.83-.58,1.25-.92,1.25-.92l-20.27-11.44-.37-23.52S693.7,144.81,676.56,172.86Z"/><path d="M718.19,133.76c-7.67,4.6-9.21,16.25-3.44,26s16.67,14,24.34,9.38a14,14,0,0,0,6.13-8.17l.07.11c6.05-29.73,28.64-29,35.45-28.1,1.24.17,2,.34,2,.34s.63-4.79-3.42-12.12l-.05-.09c-.4-.72-.81-1.39-1.22-2-3.14-4.69-6.4-6.34-7.43-6.77h0l-.11.35-.26.81-.11.34L770,114a1.27,1.27,0,0,1,0,.14l0,.14,0,.07c-.75,2.22-1.35,3.64-1.49,4l0,.05v0c-9.41,22.6-40.21,13.7-40.21,13.7l.07.11A13.86,13.86,0,0,0,718.19,133.76Z"/><path d="M824.59,122.35c-.39,1-.82,1.93-1.3,2.88-.32.65-.66,1.3-1,1.94-.09.17-.18.34-.28.5l-.39.67q-.58,1-1.2,1.88c-.55.83-1.13,1.64-1.73,2.42-.33.44-.68.86-1,1.27-.15.18-.29.35-.45.52s-.29.34-.44.5c-.43.48-.87.95-1.32,1.41l-.34.34a42,42,0,0,1-5.37,4.55l-.14.09a44.09,44.09,0,0,1-3.93,2.47l0,0-.76.4c-.51.27-1,.52-1.53.77l-.78.35h0c-.47.2-1,.42-1.43.61l-.73.29c-.49.19-1,.36-1.47.53-.72.24-1.45.47-2.18.68l-.09,0a8.31,8.31,0,0,1-2.1.53,8,8,0,0,1-2.89-.2,8.22,8.22,0,0,1-2-.78,8.49,8.49,0,0,1-1.15-.78h0a8,8,0,0,1-2.59-3.79c0-.14-.09-.29-.12-.43l0,0-.08-.39c0-.23-.08-.46-.12-.69,0,0,0-.07,0-.1l0-.09c0-.27-.05-.54-.09-.81l-.2-1.09A17.56,17.56,0,0,0,784.2,135l0,0c0-.13-.12-.27-.18-.4a.08.08,0,0,0,0-.05c-.05-.12-.11-.24-.17-.36s-.11-.23-.17-.35-.11-.21-.16-.3a20.79,20.79,0,0,0-4.67-6.06l-.51-.44h0l0,0a21.31,21.31,0,0,0-2.79-1.9l-.1-.06c-.63-.35-1.28-.67-1.94-1l0,0h0l-.07,0a21.63,21.63,0,0,0-8.21-1.56h-.36v-.08a.41.41,0,0,1,0-.1s0,0,0,0a.58.58,0,0,0,0-.15.76.76,0,0,0,0-.14c0-.26-.1-.52-.17-.8a1.64,1.64,0,0,1,0-.16c0-.14-.06-.3-.1-.45s0-.11,0-.16a.21.21,0,0,0,0-.07l-.12-.56s0-.11,0-.16-.09-.37-.14-.57l0-.16c-.06-.2-.11-.41-.15-.62a.82.82,0,0,1,0-.14c-.07-.25-.14-.51-.21-.78,0,0,0,0,0,0-.07-.24-.13-.47-.21-.71s-.07-.28-.12-.43l-.1-.36c-.06-.17-.1-.35-.15-.52s0-.17-.08-.25l-.18-.61a1.14,1.14,0,0,1-.05-.16c-.08-.23-.14-.47-.22-.7,0-.06,0-.12-.06-.19q-.2-.57-.39-1.16l-.26-.71-.13-.37a1,1,0,0,1,0-.13l-.25-.68-.15-.39-.17-.42c0-.09-.07-.19-.1-.28l0,0s-4.28-12.83-12.29-20.36l-.18-.16a1,1,0,0,1-.25-.32.3.3,0,0,1,0-.08,1,1,0,0,1,0-.77l.17-.33c.22-.45.47-.91.72-1.36a42.17,42.17,0,0,1,48.29-20.4c.48.14,1,.28,1.44.44l.27.11a54.08,54.08,0,0,1,11.23,5.91c1,.65,1.9,1.34,2.82,2.06a42.63,42.63,0,0,1,14.59,31c0,.06,0,.14,0,.2,0,.86,0,1.72,0,2.58a1.89,1.89,0,0,1,0,.23c0,1.05-.11,2.11-.24,3.15v0l0,.08a40.28,40.28,0,0,1-.83,4.79v.07l0,0q-.35,1.49-.82,3C825.41,120.2,825,121.28,824.59,122.35Z"/><path d="M716,135.46S702.17,148,687.53,168.8q-2.53,3.59-5.07,7.51a2.82,2.82,0,0,0,2.58,4.37c3-.24,6-.54,8.86-.88a260.88,260.88,0,0,0,34.28-6.37c3.29-.85,5.79-1.58,7.34-2h0l1.47-.75-.21-.12L730.65,167,716.37,159Z"/><path d="M749.42,85.89s-15.25,22.8,16.43,37l5.44,1.45Z"/><path d="M741.07,167.71s-4.54,4.22-9.49,4.81l4.41-7.24Z"/><path d="M825.51,84.59a3.91,3.91,0,0,1,.29-.32,40.92,40.92,0,0,0,4.45-6.12A29.54,29.54,0,0,0,834,68.28v0h0c.92-15.28-16.58-25-16.58-25a32.9,32.9,0,0,0-13.18-4.15,28.66,28.66,0,0,0-6.44,0c.76.55,1.74,1.18,2.73,1.8s2,1.18,2.8,1.66c1.21.7,2.08,1.18,2.08,1.18C836.84,52,829.24,69.41,828.6,70.77l0,.06a16.34,16.34,0,0,1-7.19,5.88c-1.92.89-4.14,2.69-8.51.82,0,0,10.23,14.61,10.21,14.5C822.43,88.58,824.69,85.55,825.51,84.59Z"/><path d="M685.8,188.74l8.54-8,5.84-5.5a4.8,4.8,0,0,0,1.47-2.89,4.74,4.74,0,0,0-.69-3.15l-.23-.36A4.71,4.71,0,0,0,695,167l-7.51,3a253.88,253.88,0,0,1,26.2-33.66c.52-.3,1-.55,1.35-.76.89-.48,1.38-.71,1.38-.71l1,23.39,20.67,10.92S718.37,185.95,685.8,188.74Z"/><path class="cls-2" d="M810,40.71c0,.19,0,.39,0,.58a.45.45,0,0,1,0,.11,4.54,4.54,0,0,1-.05.53.59.59,0,0,1,0,.14,9.93,9.93,0,0,1-.89,3h0v0a1.1,1.1,0,0,0-.07.13l-.06.12a10,10,0,0,1-3.44,3.78l0,0c-.21.14-.44.27-.66.39A10.06,10.06,0,0,1,792.12,47a2.89,2.89,0,0,1-.22-.3,8.42,8.42,0,0,1-.64-1h0a9.56,9.56,0,0,1-.93-2.17,9.15,9.15,0,0,1-.32-1.57,9.92,9.92,0,0,1-.08-1.23c0-.25,0-.51,0-.76s0-.31.05-.46v0a9.77,9.77,0,0,1,1.25-3.74h0a2.93,2.93,0,0,1,.28-.44l.22-.34.07-.09.29-.39a5.5,5.5,0,0,1,.45-.51c.13-.14.26-.28.4-.41A9.79,9.79,0,0,1,795,32c.16-.09.32-.18.49-.26l.51-.23.52-.2a1.76,1.76,0,0,1,.3-.1,2.61,2.61,0,0,1,.4-.12,9.38,9.38,0,0,1,1.08-.24l.44-.06.58-.05.59,0q.37,0,.75,0a3.9,3.9,0,0,1,.48.05h.06l.34.05a9.53,9.53,0,0,1,3,1,2.48,2.48,0,0,1,.28.15l.54.32,0,0a6.17,6.17,0,0,1,.53.36,0,0,0,0,0,0,0h0l.07.05A10.1,10.1,0,0,1,809.61,38,9.87,9.87,0,0,1,810,40.71Z"/><path d="M798.25,40.89A6.05,6.05,0,0,1,792.41,47h-.29a2.89,2.89,0,0,1-.22-.3,8.42,8.42,0,0,1-.64-1h0a9.56,9.56,0,0,1-.93-2.17,9.15,9.15,0,0,1-.32-1.57,9.92,9.92,0,0,1-.08-1.23c0-.25,0-.51,0-.76s0-.31.05-.46v0a9.77,9.77,0,0,1,1.25-3.74h0a2.93,2.93,0,0,1,.28-.44l.28-.42h0a1.82,1.82,0,0,1,.33,0h.17a5.58,5.58,0,0,1,1.09.12A6.1,6.1,0,0,1,798,39.19,6,6,0,0,1,798.25,40.89Z"/><path class="cls-3" d="M793.54,41.41a2.3,2.3,0,0,1-3.22,2.1,9.15,9.15,0,0,1-.32-1.57,9.92,9.92,0,0,1-.08-1.23c0-.25,0-.51,0-.76s0-.31.05-.46v0a2.28,2.28,0,0,1,1.24-.36,2.36,2.36,0,0,1,1.29.39A2.32,2.32,0,0,1,793.54,41.41Z"/><path d="M809,45.06v0a1.1,1.1,0,0,0-.07.13l-.06.12a10,10,0,0,1-3.44,3.78l0,0c-.21.14-.44.27-.66.39A10.06,10.06,0,0,1,792.12,47a2.89,2.89,0,0,1-.22-.3,8.42,8.42,0,0,1-.64-1h0a21.77,21.77,0,0,0,2.83,1c3.5.94,9.63,1.79,14.91-1.6Z"/><path d="M810,40.71c0,.19,0,.39,0,.58a.45.45,0,0,1,0,.11,18.85,18.85,0,0,0-7.31-6.34,10.82,10.82,0,0,0-5.3-.92,10,10,0,0,0-1.21.16c-.75.14-1.45.3-2.06.46l-.67.19h0c-.73.22-1.31.43-1.68.58h0l-.46.18h0a2.93,2.93,0,0,1,.28-.44l.22-.34.07-.09.29-.39a5.5,5.5,0,0,1,.45-.51c.13-.14.26-.28.4-.41A9.79,9.79,0,0,1,795,32c.16-.09.32-.18.49-.26l.51-.23.52-.2a1.76,1.76,0,0,1,.3-.1,2.61,2.61,0,0,1,.4-.12,9.38,9.38,0,0,1,1.08-.24l.44-.06.58-.05.59,0q.37,0,.75,0a3.9,3.9,0,0,1,.48.05h.06l.34.05a9.53,9.53,0,0,1,3,1,2.48,2.48,0,0,1,.28.15l.54.32,0,0,.5.36H806l.07.05A10.1,10.1,0,0,1,809.61,38,9.87,9.87,0,0,1,810,40.71Z"/><path d="M810,41.29c0-.19,0-.39,0-.58a9.87,9.87,0,0,0-.38-2.73l-.15-.11c-.08-.3-.14-.59-.24-.91l-1.72-.47L803.92,34l-6-1h-4l-1.59,1.88h0l-.59.7h0A27.14,27.14,0,0,0,790,39.47v0a2,2,0,0,0-.08.47h0c.18,0,1.12-.26,2.58-.45a34.11,34.11,0,0,1,5.48-.31,30.44,30.44,0,0,1,5.82.68,11.58,11.58,0,0,1-.17,3.49,32.31,32.31,0,0,1-6,.24,26.22,26.22,0,0,1-4.63-.68,22.58,22.58,0,0,1-3-1,9.15,9.15,0,0,0,.32,1.57,9.56,9.56,0,0,0,.93,2.17h0a8.42,8.42,0,0,0,.64,1l.51.29,4.27,2.39,6.07.37,2-.21c.22-.12.45-.25.66-.39l0,0a10,10,0,0,0,3.44-3.78l.06-.12a1.1,1.1,0,0,1,.07-.13v0a9.93,9.93,0,0,0,.89-3,0,0,0,0,0,0,0A.3.3,0,0,0,810,42v-.09l-.06,0a4.54,4.54,0,0,0,.05-.53A.45.45,0,0,0,810,41.29Z"/><rect class="cls-1" x="667.21" y="0.26" width="166.8" height="224.64" transform="translate(1501.22 225.16) rotate(-180)"/><path d="M834,145.07l11.61-.52,7.93-.35a4.71,4.71,0,0,1,4.8,3.66l.1.41a4.78,4.78,0,0,1-2.71,5.43L848.36,157a247.3,247.3,0,0,0,41.92,4.7c.57-.16,1.07-.32,1.47-.45,1-.3,1.46-.5,1.46-.5l-15.77-17.1,6.69-22.52S858.64,123.58,834,145.07Z"/><path d="M885.13,120.54c-8.64,2-13.58,12.67-11,23.75s11.6,18.41,20.24,16.38a13.87,13.87,0,0,0,8.25-5.91l0,.13c14.63-26.48,35.8-18.9,42-15.94,1.12.54,1.74.92,1.74.92s2-4.37.39-12.59l0-.1c-.16-.81-.35-1.57-.56-2.28-1.57-5.42-4.16-8-5-8.73h0l-.21.3-.49.69-.21.29-.1.14-.09.12-.08.12,0,.06c-1.38,1.88-2.37,3.05-2.6,3.32l0,0h0c-15.67,18.66-42.17.76-42.17.76l0,.13A13.7,13.7,0,0,0,885.13,120.54Z"/><path d="M991.72,120.48c-.41,1-.85,1.91-1.34,2.85-.33.65-.68,1.29-1,1.92-.09.17-.19.34-.29.49l-.4.66q-.59,1-1.23,1.86c-.56.82-1.15,1.62-1.76,2.38-.34.43-.69.84-1,1.25-.15.18-.3.35-.46.51s-.3.34-.45.5c-.44.47-.89.93-1.34,1.38l-.34.33a41.74,41.74,0,0,1-5.42,4.44l-.14.09a43.74,43.74,0,0,1-4,2.4l0,0-.76.39c-.51.26-1,.5-1.53.74l-.78.34h0c-.47.2-1,.4-1.43.58l-.73.27c-.49.18-1,.34-1.47.51-.72.23-1.44.44-2.17.64l-.09,0a8.21,8.21,0,0,1-2.1.49,8,8,0,0,1-2.86-.25,8.14,8.14,0,0,1-1.92-.82,8.44,8.44,0,0,1-1.12-.8h0a8,8,0,0,1-2.5-3.83c0-.15-.08-.29-.12-.43l0,0-.08-.39c0-.23-.07-.46-.1-.7,0,0,0-.07,0-.1l0-.09c0-.27,0-.54-.07-.81l-.18-1.09a17.65,17.65,0,0,0-1-3.78l0,0c0-.14-.11-.27-.17-.41a.08.08,0,0,0,0-.05c-.05-.12-.1-.24-.16-.36s-.1-.23-.17-.35-.1-.21-.15-.31a20.79,20.79,0,0,0-4.53-6.15l-.5-.45h0l0,0a21.18,21.18,0,0,0-2.73-2l-.1-.06c-.62-.36-1.26-.69-1.91-1l0,0h0l-.06,0a21.38,21.38,0,0,0-8.13-1.72h-.36v-.08a.41.41,0,0,1,0-.1s0,0,0,0a.58.58,0,0,0,0-.15.76.76,0,0,0,0-.14c0-.26-.09-.52-.15-.8a1.65,1.65,0,0,1,0-.16c0-.14-.06-.3-.09-.45s0-.11,0-.16a.21.21,0,0,0,0-.07l-.11-.56s0-.11,0-.16-.08-.38-.13-.57l0-.16c-.05-.2-.1-.41-.14-.62a.82.82,0,0,1,0-.14c-.07-.25-.13-.51-.2-.78,0,0,0,0,0,0-.06-.24-.12-.48-.19-.72s-.07-.28-.11-.43l-.09-.36c-.05-.17-.09-.35-.14-.53s0-.17-.08-.25-.11-.41-.17-.61a1.14,1.14,0,0,1,0-.16c-.07-.23-.13-.47-.21-.7,0-.06,0-.12-.06-.19q-.19-.57-.36-1.17l-.24-.72-.12-.37a1,1,0,0,1,0-.14l-.24-.68-.14-.4-.16-.43c0-.09-.07-.19-.1-.28l0,0s-4-12.91-11.84-20.58l-.17-.16a1,1,0,0,1-.24-.33.3.3,0,0,1,0-.08,1,1,0,0,1,.06-.77l.18-.33c.23-.45.48-.9.74-1.34A41.78,41.78,0,0,1,965.7,63c.48.15,1,.3,1.42.46l.27.11a53.65,53.65,0,0,1,11.05,6.11c.94.67,1.87,1.38,2.76,2.11a42.76,42.76,0,0,1,13.93,31.31c0,.06,0,.14,0,.2,0,.86,0,1.72-.06,2.58a1.9,1.9,0,0,1,0,.23c-.06,1.05-.15,2.1-.29,3.15v0l0,.08a40.5,40.5,0,0,1-.91,4.77l0,.07,0,0q-.37,1.49-.87,3C992.57,118.35,992.17,119.42,991.72,120.48Z"/><path d="M882.55,121.49s-16.85,7.7-36.93,23.06q-3.47,2.65-7,5.61a2.84,2.84,0,0,0,1.13,4.95c2.95.69,5.84,1.32,8.65,1.87a257.57,257.57,0,0,0,34.36,4.41c3.37.19,6,.27,7.56.3h0l1.62-.27-.17-.18L887,156.05l-11.11-12Z"/><path d="M917.7,82.62s-15.57,22.51,15.65,37.25l5.37,1.56Z"/><path d="M896.63,159.88s-5.56,2.63-10.43,1.68l6.35-5.55Z"/><path d="M941.45,137.64s10.73,6.7,14.7,3.68l-5-24.16-9.93,4Z"/><path d="M992.93,78.65a3.91,3.91,0,0,1,.27-.33,41,41,0,0,0,4.23-6.27,29.68,29.68,0,0,0,3.38-10v0h0c.42-15.3-17.28-24.46-17.28-24.46a32.52,32.52,0,0,0-13.23-3.71,28.3,28.3,0,0,0-6.39.2c.77.53,1.76,1.12,2.77,1.7s2,1.11,2.83,1.57c1.22.66,2.1,1.11,2.1,1.11,31.5,7.28,24.52,24.91,23.92,26.3l0,.06a16.29,16.29,0,0,1-7,6.12c-1.88,1-4,2.82-8.43,1.1,0,0,10.64,14.27,10.61,14.15C990,82.74,992.15,79.63,992.93,78.65Z"/><path d="M839.64,161.56l10.56-4.91,7.22-3.36a4.78,4.78,0,0,0,2.62-5.48l-.1-.41a4.7,4.7,0,0,0-4.86-3.58l-8,.5a250.31,250.31,0,0,1,35.19-23.58l1.51-.29c1-.17,1.52-.23,1.52-.23l-6.34,22.52L895,159.68S871.22,169.29,839.64,161.56Z"/><rect class="cls-1" x="834.02" y="0.28" width="166.8" height="224.64" transform="translate(1834.84 225.2) rotate(-180)"/><path d="M974.82,35.85a10,10,0,0,1-17.9,6.23,10,10,0,0,1-1.43-2.43v0l-.1-.27-.09-.25c0-.14-.1-.28-.13-.41a10,10,0,0,1,9.63-12.85h.45a10,10,0,0,1,9.59,10Z"/><path d="M555,206.8l7.28-9.22,5-6.3a4.75,4.75,0,0,1,2.74-1.71,4.64,4.64,0,0,1,3.17.45l.37.2a4.78,4.78,0,0,1,2.28,5.64l-2.42,7.79a253,253,0,0,0,31.22-29c.26-.55.47-1,.64-1.42.4-.93.59-1.44.59-1.44l-23.22.83-12.43-19.9S555.19,173.85,555,206.8Z"/><path d="M570.42,151.6c-4.18,7.94.51,18.71,10.48,24s21.45,3.22,25.63-4.72a14.15,14.15,0,0,0,1-10.2l.12.06c-10.16-28.58,9.52-39.79,15.8-42.56,1.14-.5,1.84-.73,1.84-.73s-1.93-4.42-9.17-8.56l-.09-.05c-.71-.41-1.4-.76-2.07-1.07-5.1-2.36-8.74-2.07-9.84-1.89h0l.09.36.2.83.08.35,0,.17a1.27,1.27,0,0,1,0,.15l0,.14,0,.07c.5,2.29.72,3.82.77,4.16a.43.43,0,0,0,0,.05v0C609,136.44,578.11,145,578.11,145l.12.06A14,14,0,0,0,570.42,151.6Z"/><path d="M664,107.6c-.4,1-.84,1.92-1.32,2.87-.33.65-.67,1.3-1,1.94-.09.17-.19.34-.28.5l-.4.67q-.58,1-1.21,1.87c-.55.83-1.14,1.63-1.74,2.4-.34.43-.69.85-1,1.26-.15.18-.3.35-.45.52s-.29.34-.45.5c-.44.47-.88.94-1.33,1.4l-.34.34a42,42,0,0,1-5.4,4.51l-.14.09a44.09,44.09,0,0,1-3.95,2.45l0,0-.76.4c-.51.26-1,.52-1.54.76l-.78.35h0c-.48.2-1,.41-1.44.6l-.73.28c-.49.19-1,.35-1.47.52-.72.24-1.45.46-2.18.66l-.09,0a8.31,8.31,0,0,1-2.11.52,8,8,0,0,1-2.89-.22,8.22,8.22,0,0,1-1.95-.79,8.49,8.49,0,0,1-1.14-.79h0a8,8,0,0,1-2.57-3.8c0-.14-.09-.29-.12-.43l0,0-.08-.39c0-.23-.08-.46-.11-.69,0,0,0-.07,0-.1l0-.09c0-.27-.05-.54-.08-.81l-.19-1.09a17.57,17.57,0,0,0-1.1-3.77l0,0c0-.13-.12-.27-.17-.41a.08.08,0,0,0,0-.05c-.05-.12-.1-.24-.17-.36s-.11-.23-.17-.35-.11-.21-.16-.3a20.79,20.79,0,0,0-4.63-6.1l-.51-.44h0l0,0a21.31,21.31,0,0,0-2.77-1.92l-.1-.06c-.63-.36-1.28-.68-1.93-1l0,0h0l-.07,0a21.63,21.63,0,0,0-8.2-1.62h-.36v-.08a.41.41,0,0,1,0-.1s0,0,0,0a.58.58,0,0,0,0-.15.76.76,0,0,0,0-.14c0-.26-.1-.52-.16-.8a1.65,1.65,0,0,1,0-.16c0-.14-.06-.3-.09-.45s0-.11,0-.16a.21.21,0,0,0,0-.07l-.12-.56s0-.11,0-.16-.09-.37-.13-.57l0-.16c-.05-.2-.11-.41-.15-.62a.82.82,0,0,1,0-.14c-.07-.25-.14-.51-.21-.78,0,0,0,0,0,0-.06-.24-.13-.47-.2-.72s-.07-.28-.11-.43l-.1-.36c-.06-.17-.1-.35-.15-.53s0-.17-.08-.25-.12-.41-.17-.61a1.14,1.14,0,0,1,0-.16c-.08-.23-.14-.47-.22-.7,0-.06,0-.12-.06-.19q-.19-.57-.38-1.17l-.25-.71-.12-.37a1,1,0,0,1,0-.13l-.25-.68-.15-.4-.17-.42c0-.09-.07-.19-.1-.28l0,0s-4.2-12.86-12.16-20.44l-.18-.16a1,1,0,0,1-.24-.32.3.3,0,0,1,0-.08,1,1,0,0,1,.05-.77l.17-.33c.23-.45.47-.91.73-1.35a42.17,42.17,0,0,1,48.42-20.08c.48.14,1,.29,1.43.45l.27.11A54.08,54.08,0,0,1,650,57c1,.66,1.89,1.35,2.8,2.08A42.63,42.63,0,0,1,667.2,90.24c0,.06,0,.14,0,.2,0,.86,0,1.72,0,2.58a1.89,1.89,0,0,1,0,.23c0,1.05-.13,2.1-.26,3.15v0l0,.08a40.27,40.27,0,0,1-.86,4.78v.07l0,0q-.36,1.49-.84,3C664.8,105.46,664.42,106.54,664,107.6Z"/><path d="M569.43,154.19s-5.37,17.95-7.15,43.39q-.31,4.39-.46,9.07a2.8,2.8,0,0,0,4.45,2.38q3.7-2.7,7.12-5.39a263.38,263.38,0,0,0,26-23.39c2.37-2.45,4.14-4.38,5.22-5.59l0,0,.87-1.41h-.24l-7,.26-16.36.59Z"/><path d="M589,70.65s-15.4,22.7,16.2,37.06l5.43,1.49Z"/><path d="M607.47,168.63s-1.71,6-5.63,9.08l0-8.5Z"/><path d="M649.08,50.56a4,4,0,0,1,.08-.42,41.24,41.24,0,0,0,.65-7.56,29.6,29.6,0,0,0-1.9-10.38.13.13,0,0,0,0,0h0c-7.09-13.53-27.07-12.7-27.07-12.7a32.88,32.88,0,0,0-13.4,3.36,28.84,28.84,0,0,0-5.51,3.36c.93.08,2.09.1,3.26.1s2.28,0,3.25,0c1.39,0,2.39-.08,2.39-.08,31.16-9.34,33.64,9.49,33.79,11v.07A16.52,16.52,0,0,1,641.5,46c-1.18,1.77-2.15,4.46-6.85,5.16,0,0,16.28,7.13,16.2,7C648.52,55.59,648.88,51.81,649.08,50.56Z"/><path d="M580,144.6c-6.14,5.12-13.27,13.72-15,18.09-2,5.21-7.75,11.68-11.13,16.11l-.57.75-.17.22-.2-.07-.45-.18.05-.23C558.13,154,580,144.6,580,144.6Z"/><path d="M553.21,179.8s-.24,1.59-.49,1.59.09-1.73.09-1.73Z"/><path d="M552.46,179.53s-.83,1.38-.63,1.54,1-1.39,1-1.39Z"/><rect class="cls-1" x="500.41" y="0.26" width="166.8" height="224.64" transform="translate(1167.62 225.15) rotate(-180)"/><path class="cls-2" d="M613.64,24a10,10,0,0,1-.25,4.45h0v0a1.1,1.1,0,0,0,0,.14.67.67,0,0,0,0,.13,10,10,0,0,1-2.76,4.3l0,0a10.06,10.06,0,0,1-13.46.11,9.68,9.68,0,0,1-1.06-1.1h0a9.55,9.55,0,0,1-1.28-2,9.92,9.92,0,0,1-1-3.94,9.91,9.91,0,0,1,1-4.87A10,10,0,0,1,613.64,24Z"/><path d="M602.09,26.19a6.08,6.08,0,0,1-5,7h0a9.68,9.68,0,0,1-1.06-1.1v0a9.55,9.55,0,0,1-1.28-2,9.92,9.92,0,0,1-1-3.94,9.91,9.91,0,0,1,1-4.87,1.82,1.82,0,0,1,.32-.08A6.08,6.08,0,0,1,602.09,26.19Z"/><path class="cls-3" d="M597.53,27.5a2.3,2.3,0,0,1-1.88,2.65,2.33,2.33,0,0,1-.94,0,9.92,9.92,0,0,1-1-3.94,2.28,2.28,0,0,1,1.16-.56A2.3,2.3,0,0,1,597.53,27.5Z"/><path d="M613.39,28.5a0,0,0,0,1,0,0,1.1,1.1,0,0,0,0,.14.67.67,0,0,0,0,.13,10,10,0,0,1-2.76,4.3l0,0a10.06,10.06,0,0,1-13.46.11,9.68,9.68,0,0,1-1.06-1.1h0a21.77,21.77,0,0,0,3,.47c3.61.34,9.79.15,14.43-4.08Z"/><path d="M608.32,16.81h0c-.18-.09-.35-.18-.55-.27l0,0A10.06,10.06,0,0,0,595,20.87a9.68,9.68,0,0,0-.64,1.39s0,0,0,0A19.77,19.77,0,0,1,597,20.85c.58-.27,1.24-.54,2-.8a10.49,10.49,0,0,1,1.16-.35,10.82,10.82,0,0,1,5.38,0,18.83,18.83,0,0,1,8.27,5C613.75,19.2,608.32,16.81,608.32,16.81Z"/><rect class="cls-1" x="166.8" y="0.23" width="166.8" height="224.64" transform="translate(500.41 225.11) rotate(-180)"/><rect class="cls-1" y="0.36" width="166.8" height="224.64" transform="translate(166.8 225.36) rotate(-180)"/><ellipse class="cls-2" cx="79.47" cy="37.93" rx="10.04" ry="10.02"/><ellipse cx="77.67" cy="39.11" rx="6.09" ry="6.07"/><ellipse class="cls-3" cx="74.75" cy="39.63" rx="2.3" ry="2.3"/><path class="cls-2" d="M254.42,32.92a10,10,0,0,1-17.07,7.14h0a10,10,0,0,1-3-7.14,9.76,9.76,0,0,1,.75-3.79,10,10,0,0,1,19.33,3.79Z"/><path d="M244.68,34.1a6.09,6.09,0,0,1-6.09,6.08,6.25,6.25,0,0,1-1.23-.12h0a10,10,0,0,1-3-7.14,9.76,9.76,0,0,1,.75-3.79,6.09,6.09,0,0,1,9.58,5Z"/><ellipse class="cls-3" cx="237.67" cy="34.62" rx="2.3" ry="2.3"/><path class="cls-2" d="M426.32,29a10,10,0,0,1-17.88,6.26,10,10,0,0,1-2.2-6.26,10.09,10.09,0,0,1,.08-1.24,9.9,9.9,0,0,1,1.83-4.63A10,10,0,0,1,426.32,29Z"/><path d="M414.57,29.13a6.09,6.09,0,0,1-6.09,6.08h0a10,10,0,0,1-2.2-6.26,10.09,10.09,0,0,1,.08-1.24,9.9,9.9,0,0,1,1.83-4.63,1.82,1.82,0,0,1,.33,0A6.08,6.08,0,0,1,414.57,29.13Z"/><path class="cls-3" d="M409.87,29.65a2.3,2.3,0,0,1-2.3,2.29,2.33,2.33,0,0,1-.92-.19,9.92,9.92,0,0,1-.32-4,2.28,2.28,0,0,1,1.24-.36A2.3,2.3,0,0,1,409.87,29.65Z"/><path d="M1115.53,25.86a10,10,0,0,1-17.9,6.23,10,10,0,0,1-1.43-2.43v0l-.1-.27-.09-.25c0-.14-.1-.28-.13-.41a10,10,0,0,1,9.63-12.85h.45a10,10,0,0,1,9.59,10Z"/><path d="M1342.59,127.17l11.49,2.16,7.86,1.48a4.76,4.76,0,0,1,3.88,4.67v.43a4.75,4.75,0,0,1-3.88,4.67l-8,1.5a250.94,250.94,0,0,0,40,14.21l1.54-.1c1-.08,1.54-.15,1.54-.15l-11.62-20.28,11.62-20.4S1371.55,111.89,1342.59,127.17Z"/><path d="M1457.05,135.61v.1c-.21,7.44-2.57,11.25-3.1,12-.21-.09-.41-.2-.62-.31s-.58-.5-1-.84-.83-.64-1.34-1c-6.73-4.83-24.53-13.94-43.38,6.9v-.13a14.42,14.42,0,0,1-7,3.63,13,13,0,0,1-2.44.23,13.17,13.17,0,0,1-1.68-.11,10.31,10.31,0,0,1-1.14-.21,13.1,13.1,0,0,1-3.8-1.49C1386,151.18,1382,144,1382,135.61c0-9.78,5.36-18,12.55-20.08h0a9.93,9.93,0,0,1,1.23-.29,12,12,0,0,1,2.34-.22,13.89,13.89,0,0,1,9.42,3.88v-.14s18.94,20.29,37.31,11.49c.33-.15.65-.32,1-.49s.79-.43,1.18-.68c.69-.41,1.37-.88,2-1.38h0l0,0c.28-.2,1.52-1.12,3.29-2.64l.06,0,.11-.1a.53.53,0,0,0,.11-.1l.13-.11.27-.23c.2-.18.42-.36.63-.56l.28-.24q.13.18.33.48a17.77,17.77,0,0,1,2.46,7.39c.08.56.13,1.16.17,1.78S1457.07,134.79,1457.05,135.61Z"/><path d="M1469.06,141.32a19.91,19.91,0,0,1-1.37,1.49c-2.56,2.58-8.3,7.37-13.73,4.92-.21-.09-.41-.2-.62-.31a10,10,0,0,1-2.34-1.84h0l.08-11.29,1.23-4.14,1.77-5.93a2.5,2.5,0,0,1,.32-.11C1456.33,123.48,1466.35,121.34,1469.06,141.32Z"/><path d="M1418.37,99.36c-.13.5-.24,1-.35,1.5l-.08.36a1,1,0,0,0,.19.83,1,1,0,0,0,.33.25l.21.11c9.66,5.18,17.08,16.47,17.08,16.47l0,0,.18.24.27.37.24.34.41.59.09.12.22.31.42.63.67,1,.11.16.39.62.09.14.34.54.14.22.29.47.18.31.23.38.37.64,0,0,.4.7.07.13.31.56.08.15.28.52.08.14.27.51,0,.07.08.15.21.41.08.15.36.72.06.13.07.13.06.13,0,.07a21.47,21.47,0,0,1,8.68-.73h.13a20.81,20.81,0,0,1,2.12.43l.1,0a20.76,20.76,0,0,1,3.18,1.11h0l.62.29a20.94,20.94,0,0,1,6.3,4.9l.25.29.25.3,0,0,.28.35,0,0a17.32,17.32,0,0,1,2.05,3.34l.47,1c.11.25.2.5.3.76l0,.09,0,.09q.13.33.28.64l.19.36,0,0,.23.38a8,8,0,0,0,3.47,3h0a7.93,7.93,0,0,0,3.39.71,8,8,0,0,0,2.83-.56h0a8,8,0,0,0,1.89-1.05l.07-.05q1-.59,1.93-1.23.65-.44,1.28-.89l.63-.46c.42-.31.82-.64,1.23-1h0l.66-.55q.65-.55,1.28-1.13l.63-.59,0,0a41.59,41.59,0,0,0,3.17-3.41l.11-.13a42.66,42.66,0,0,0,4-5.78l.24-.42c.32-.56.62-1.13.92-1.7q.67-1.33,1.26-2.71a44,44,0,0,0,1.73-4.91l.21-.75.15-.55a43.07,43.07,0,0,0,.89-16.85,42.63,42.63,0,0,0-23.37-32.22,54.26,54.26,0,0,0-15.61-4l-.29,0A42.32,42.32,0,0,0,1418.37,99.36Z"/><path d="M1395.46,115.35s-18.25,3.63-41.38,14q-4,1.78-8.16,3.84a2.83,2.83,0,0,0,0,5.08c2.73,1.35,5.43,2.62,8.06,3.81a261.39,261.39,0,0,0,32.69,12.18c3.26,1,5.78,1.63,7.35,2h0l1.64.11-.12-.21L1392,150l-8.19-14.28Z"/><path d="M1419.3,96.16s-10.85,25.23,22.87,33.29l5.61.43Z"/><path d="M1400.64,156s-6,1.28-10.6-.76l7.47-4Z"/><path d="M1343,144.11l11.49-2.16,7.86-1.48a4.76,4.76,0,0,0,3.88-4.67v-.43a4.75,4.75,0,0,0-3.88-4.67l-8-1.5a250.94,250.94,0,0,1,40-14.21l1.54.1c1,.08,1.54.15,1.54.15l-11.62,20.28,11.62,20.4S1371.92,159.39,1343,144.11Z"/><rect class="cls-1" x="1334.22" y="0.26" width="166.83" height="224.64" transform="translate(2835.27 225.15) rotate(-180)"/><path d="M1176,129.21l11.46,2.16,7.83,1.48a4.75,4.75,0,0,1,3.87,4.67v.43a4.75,4.75,0,0,1-3.87,4.67l-7.94,1.5a249.65,249.65,0,0,0,39.92,14.21l1.54-.1c1-.08,1.54-.15,1.54-.15l-11.58-20.29,11.58-20.41S1204.86,113.93,1176,129.21Z"/><path d="M1290.12,137.66v.1c-.21,7.44-2.56,11.26-3.09,12-.21-.09-.41-.2-.62-.31s-.58-.5-1-.84-.83-.64-1.33-1c-6.71-4.83-24.46-13.95-43.26,6.91v-.13a14.37,14.37,0,0,1-7,3.64,12.92,12.92,0,0,1-2.43.23,13.08,13.08,0,0,1-1.67-.11,10.25,10.25,0,0,1-1.14-.21,13,13,0,0,1-3.78-1.49c-5.62-3.21-9.52-10.42-9.52-18.79,0-9.79,5.35-18,12.51-20.09h0a9.87,9.87,0,0,1,1.23-.29,11.94,11.94,0,0,1,2.33-.22,13.82,13.82,0,0,1,9.39,3.88v-.14s18.88,20.3,37.2,11.5c.33-.15.65-.32,1-.49s.79-.43,1.18-.68c.69-.41,1.36-.88,2-1.38h0l0,0c.28-.2,1.51-1.12,3.28-2.64l.06,0,.11-.1a.53.53,0,0,0,.11-.1l.13-.11.27-.23c.2-.18.42-.36.63-.56l.28-.24q.13.18.33.48a17.82,17.82,0,0,1,2.45,7.39c.08.56.13,1.16.17,1.78S1290.14,136.84,1290.12,137.66Z"/><path d="M1302.09,143.37a19.9,19.9,0,0,1-1.36,1.49c-2.55,2.58-8.28,7.37-13.69,4.92-.21-.09-.41-.2-.62-.31a10,10,0,0,1-2.33-1.84h0l.08-11.3,1.23-4.14,1.76-5.93a2.49,2.49,0,0,1,.32-.11C1289.4,125.53,1299.39,123.38,1302.09,143.37Z"/><path d="M1251.55,101.39c-.13.5-.24,1-.35,1.5l-.08.36a1,1,0,0,0,.19.83,1,1,0,0,0,.32.25l.21.11c9.64,5.18,17,16.48,17,16.48l0,0,.18.24.27.37.24.34.41.59.09.12.22.31.42.63.67,1,.11.16.39.62.09.14.33.54.14.22.29.47.18.31.23.38.37.64,0,0,.39.7.07.13.31.56.08.15.28.52.08.14.27.51,0,.07.08.15.21.41.08.15.36.72.06.13.07.13.06.13,0,.07a21.34,21.34,0,0,1,8.65-.73h.13a20.69,20.69,0,0,1,2.12.43l.1,0a20.66,20.66,0,0,1,3.17,1.11h0l.61.29a20.89,20.89,0,0,1,6.28,4.9l.25.29.25.3,0,0,.28.35,0,0a17.34,17.34,0,0,1,2,3.34l.47,1c.11.25.2.5.3.76l0,.09,0,.09q.13.33.28.64l.19.36,0,0,.23.38a8,8,0,0,0,3.46,3h0a7.88,7.88,0,0,0,3.38.71,7.92,7.92,0,0,0,2.82-.56h0a7.94,7.94,0,0,0,1.89-1.06l.07-.05q1-.59,1.93-1.23.64-.44,1.27-.89l.62-.47c.42-.31.82-.64,1.23-1h0l.66-.55q.65-.55,1.28-1.14l.62-.59,0,0a41.56,41.56,0,0,0,3.16-3.41l.11-.13a42.68,42.68,0,0,0,4-5.79l.24-.42c.32-.56.62-1.13.91-1.7q.67-1.33,1.26-2.72a44.13,44.13,0,0,0,1.73-4.91l.21-.75.14-.55a43.23,43.23,0,0,0,.89-16.86,42.64,42.64,0,0,0-23.3-32.24,54,54,0,0,0-15.57-4l-.29,0C1274.82,68.17,1256.59,81.31,1251.55,101.39Z"/><path d="M1228.71,117.39s-18.2,3.64-41.27,14q-4,1.79-8.14,3.85a2.84,2.84,0,0,0,0,5.08c2.72,1.35,5.41,2.63,8,3.81a260.08,260.08,0,0,0,32.6,12.19c3.25,1,5.76,1.63,7.33,2h0l1.64.11-.12-.21-3.51-6.15-8.16-14.29Z"/><path d="M1252.48,98.19s-10.82,25.25,22.8,33.31l5.59.43Z"/><path d="M1233.87,158s-6,1.28-10.57-.76l7.45-4Z"/><path d="M1176.35,146.17l11.46-2.16,7.83-1.48a4.75,4.75,0,0,0,3.87-4.67v-.43a4.75,4.75,0,0,0-3.87-4.67l-7.94-1.5A249.65,249.65,0,0,1,1227.63,117l1.54.1c1,.08,1.54.15,1.54.15l-11.58,20.29L1230.71,158S1205.23,161.45,1176.35,146.17Z"/><path d="M1318.49,80.36c.08.09-15.59-8.24-15.59-8.24,4.71-.32,5.78-3,7.16-4.57l.11-.12a12.56,12.56,0,0,0,2.55-11.64C1307.63,38.32,1284,33.56,1284,33.56a165.76,165.76,0,0,1-22.39-7.51c-1.16-.5-2.26-1-3.3-1.49-1.57-.73-3-1.45-4.28-2.17s-2.51-1.43-3.57-2.12-1.83-1.21-2.6-1.78a31.73,31.73,0,0,1-3.23-2.73,2.16,2.16,0,0,1,.11-.24c.06-.12.13-.25.2-.37a32.48,32.48,0,0,0,3.54,2.36,66.17,66.17,0,0,0,10.7,4.85c1.17.43,2.41.86,3.73,1.29a191,191,0,0,0,22.66,5.68c41.75,8.12,31.83,42.91,31.83,42.91S1315.91,77,1318.49,80.36Z"/><rect class="cls-1" x="1167.39" y="0.23" width="166.83" height="224.77" transform="translate(2501.61 225.23) rotate(-180)"/><path d="M1254.59,17.12a10.08,10.08,0,0,1-2.07,6.14,10,10,0,0,1-15.8.14,10.14,10.14,0,0,1-1.43-2.45v0l-.1-.27-.09-.25c0-.14-.1-.28-.13-.42a10.11,10.11,0,0,1,9.61-13h.45a10,10,0,0,1,9.37,8.09A10.19,10.19,0,0,1,1254.59,17.12Z"/><path d="M1433.06,9.39a10.08,10.08,0,0,1-1.63,6.27,10,10,0,0,1-15.75,1.25,10.14,10.14,0,0,1-1.59-2.34l0,0-.12-.26-.11-.24c-.06-.14-.11-.27-.16-.41A10.11,10.11,0,0,1,1422.36,0l.45,0a10,10,0,0,1,9.92,7.41A10.19,10.19,0,0,1,1433.06,9.39Z"/><path d="M1487.79,80.62c.07.1-14.7-9.73-14.7-9.73,4.72.14,6-2.4,7.58-3.84l.12-.11a12.56,12.56,0,0,0,3.68-11.33C1481.1,37.71,1458,30.65,1458,30.65A165.75,165.75,0,0,1,1436.5,21c-1.1-.61-2.15-1.22-3.13-1.81-1.49-.88-2.83-1.74-4.05-2.58s-2.36-1.67-3.34-2.46-1.7-1.39-2.41-2a31.73,31.73,0,0,1-2.94-3,2.16,2.16,0,0,1,.13-.22c.07-.12.15-.24.23-.35a32.48,32.48,0,0,0,3.29,2.69,66.17,66.17,0,0,0,10.17,5.88c1.12.54,2.31,1.09,3.59,1.65a191,191,0,0,0,22,7.88c40.75,12.18,27.46,45.83,27.46,45.83S1485.54,77,1487.79,80.62Z"/><path d="M1509.56,127.17l11.49,2.16,7.86,1.48a4.76,4.76,0,0,1,3.88,4.67v.43a4.75,4.75,0,0,1-3.88,4.67l-8,1.5a250.94,250.94,0,0,0,40,14.21l1.54-.1c1-.08,1.54-.15,1.54-.15l-11.62-20.28,11.62-20.4S1538.52,111.89,1509.56,127.17Z"/><path d="M1624,135.61v.1c-.21,7.44-2.57,11.25-3.1,12-.21-.09-.41-.2-.62-.31s-.58-.5-1-.84-.83-.64-1.34-1c-6.73-4.83-24.53-13.94-43.38,6.9v-.13a14.42,14.42,0,0,1-7,3.63,13,13,0,0,1-2.44.23,13.17,13.17,0,0,1-1.68-.11,10.31,10.31,0,0,1-1.14-.21,13.1,13.1,0,0,1-3.8-1.49c-5.63-3.21-9.55-10.42-9.55-18.78,0-9.78,5.36-18,12.55-20.08h0a9.93,9.93,0,0,1,1.23-.29,12,12,0,0,1,2.34-.22,13.89,13.89,0,0,1,9.42,3.88v-.14s18.94,20.29,37.31,11.49c.33-.15.65-.32,1-.49s.79-.43,1.18-.68c.69-.41,1.37-.88,2-1.38h0l0,0c.28-.2,1.52-1.12,3.29-2.64l.06,0,.11-.1a.53.53,0,0,0,.11-.1l.13-.11.27-.23c.2-.18.42-.36.63-.56l.28-.24q.13.18.33.48a17.77,17.77,0,0,1,2.46,7.39c.08.56.13,1.16.17,1.78S1624,134.79,1624,135.61Z"/><path d="M1636,141.32a19.91,19.91,0,0,1-1.37,1.49c-2.56,2.58-8.3,7.37-13.73,4.92-.21-.09-.41-.2-.62-.31a10,10,0,0,1-2.34-1.84h0l.08-11.29,1.23-4.14,1.77-5.93a2.5,2.5,0,0,1,.32-.11C1623.31,123.48,1633.32,121.34,1636,141.32Z"/><path d="M1585.34,99.36c-.13.5-.24,1-.35,1.5l-.08.36a1,1,0,0,0,.19.83,1,1,0,0,0,.33.25l.21.11c9.66,5.18,17.08,16.47,17.08,16.47l0,0,.18.24.27.37.24.34.41.59.09.12.22.31.42.63.67,1,.11.16.39.62.09.14.34.54.14.22.29.47.18.31.23.38.37.64,0,0,.4.7.07.13.31.56.08.15.28.52.08.14.27.51,0,.07.08.15.21.41.08.15.36.72.06.13.07.13.06.13,0,.07a21.47,21.47,0,0,1,8.68-.73h.13a20.81,20.81,0,0,1,2.12.43l.1,0a20.76,20.76,0,0,1,3.18,1.11h0l.62.29a20.94,20.94,0,0,1,6.3,4.9l.25.29.25.3,0,0,.28.35,0,0a17.32,17.32,0,0,1,2.05,3.34l.47,1c.11.25.2.5.3.76l0,.09,0,.09q.13.33.28.64l.19.36,0,0,.23.38a8,8,0,0,0,3.47,3h0a7.93,7.93,0,0,0,3.39.71,8,8,0,0,0,2.83-.56h0a8,8,0,0,0,1.89-1.05l.07-.05q1-.59,1.93-1.23.65-.44,1.28-.89l.63-.46c.42-.31.82-.64,1.23-1h0l.66-.55q.65-.55,1.28-1.13l.63-.59,0,0a41.59,41.59,0,0,0,3.17-3.41l.11-.13a42.66,42.66,0,0,0,4-5.78l.24-.42c.32-.56.62-1.13.92-1.7q.67-1.33,1.26-2.71a44,44,0,0,0,1.73-4.91l.21-.75.15-.55a43.07,43.07,0,0,0,.89-16.85,42.63,42.63,0,0,0-23.37-32.22,54.26,54.26,0,0,0-15.61-4l-.29,0A42.32,42.32,0,0,0,1585.34,99.36Z"/><path d="M1562.44,115.35s-18.25,3.63-41.38,14q-4,1.78-8.16,3.84a2.83,2.83,0,0,0,0,5.08c2.73,1.35,5.43,2.62,8.06,3.81a261.39,261.39,0,0,0,32.69,12.18c3.26,1,5.78,1.63,7.35,2h0l1.64.11-.12-.21L1559,150l-8.19-14.28Z"/><path d="M1586.28,96.16s-10.85,25.23,22.87,33.29l5.61.43Z"/><path d="M1567.62,156s-6,1.28-10.6-.76l7.47-4Z"/><path d="M1509.93,144.11l11.49-2.16,7.86-1.48a4.76,4.76,0,0,0,3.88-4.67v-.43a4.75,4.75,0,0,0-3.88-4.67l-8-1.5a250.94,250.94,0,0,1,40-14.21l1.54.1c1,.08,1.54.15,1.54.15l-11.62,20.28,11.62,20.4S1538.89,159.39,1509.93,144.11Z"/><rect class="cls-1" x="1501.19" y="0.26" width="166.83" height="224.64" transform="translate(3169.22 225.15) rotate(-180)"/><path d="M1600,9.39a10.08,10.08,0,0,1-1.63,6.27,10,10,0,0,1-15.75,1.25,10.14,10.14,0,0,1-1.59-2.34l0,0-.12-.26-.11-.24c-.06-.14-.11-.27-.16-.41A10.11,10.11,0,0,1,1589.33,0l.45,0a10,10,0,0,1,9.92,7.41A10.19,10.19,0,0,1,1600,9.39Z"/><path d="M1654.76,80.62c.07.1-14.7-9.73-14.7-9.73,4.72.14,6-2.4,7.58-3.84l.12-.11a12.56,12.56,0,0,0,3.68-11.33C1648.08,37.71,1625,30.65,1625,30.65A165.76,165.76,0,0,1,1603.47,21c-1.1-.61-2.15-1.22-3.13-1.81-1.49-.88-2.83-1.74-4.05-2.58s-2.36-1.67-3.34-2.46-1.7-1.39-2.41-2a31.73,31.73,0,0,1-2.94-3,2.16,2.16,0,0,1,.13-.22c.07-.12.15-.24.23-.35a32.48,32.48,0,0,0,3.29,2.69,66.17,66.17,0,0,0,10.17,5.88c1.12.54,2.31,1.09,3.59,1.65a191,191,0,0,0,22,7.88c40.75,12.18,27.46,45.83,27.46,45.83S1652.52,77,1654.76,80.62Z"/><path d="M1676.53,127.17l11.49,2.16,7.86,1.48a4.76,4.76,0,0,1,3.88,4.67v.43a4.75,4.75,0,0,1-3.88,4.67l-8,1.5a250.94,250.94,0,0,0,40,14.21l1.54-.1c1-.08,1.54-.15,1.54-.15l-11.62-20.28,11.62-20.4S1705.5,111.89,1676.53,127.17Z"/><path d="M1791,135.61v.1c-.21,7.44-2.57,11.25-3.1,12-.21-.09-.41-.2-.62-.31s-.58-.5-1-.84-.83-.64-1.34-1c-6.73-4.83-24.53-13.94-43.38,6.9v-.13a14.42,14.42,0,0,1-7,3.63,13,13,0,0,1-2.44.23,13.17,13.17,0,0,1-1.68-.11,10.31,10.31,0,0,1-1.14-.21,13.1,13.1,0,0,1-3.8-1.49c-5.63-3.21-9.55-10.42-9.55-18.78,0-9.78,5.36-18,12.55-20.08h0a9.93,9.93,0,0,1,1.23-.29,12,12,0,0,1,2.34-.22,13.89,13.89,0,0,1,9.42,3.88v-.14s18.94,20.29,37.31,11.49c.33-.15.65-.32,1-.49s.79-.43,1.18-.68c.69-.41,1.37-.88,2-1.38h0l0,0c.28-.2,1.52-1.12,3.29-2.64l.06,0,.11-.1a.53.53,0,0,0,.11-.1l.13-.11.27-.23c.2-.18.42-.36.63-.56l.28-.24q.13.18.33.48a17.77,17.77,0,0,1,2.46,7.39c.08.56.13,1.16.17,1.78S1791,134.79,1791,135.61Z"/><path d="M1803,141.32a19.91,19.91,0,0,1-1.37,1.49c-2.56,2.58-8.3,7.37-13.73,4.92-.21-.09-.41-.2-.62-.31a10,10,0,0,1-2.34-1.84h0l.08-11.29,1.23-4.14,1.77-5.93a2.5,2.5,0,0,1,.32-.11C1790.28,123.48,1800.3,121.34,1803,141.32Z"/><path d="M1752.31,99.36c-.13.5-.24,1-.35,1.5l-.08.36a1,1,0,0,0,.19.83,1,1,0,0,0,.33.25l.21.11c9.66,5.18,17.08,16.47,17.08,16.47l0,0,.18.24.27.37.24.34.41.59.09.12.22.31.42.63.67,1,.11.16.39.62.09.14.34.54.14.22.29.47.18.31.23.38.37.64,0,0,.4.7.07.13.31.56.08.15.28.52.08.14.27.51,0,.07.08.15.21.41.08.15.36.72.06.13.07.13.06.13,0,.07a21.47,21.47,0,0,1,8.68-.73h.13a20.81,20.81,0,0,1,2.12.43l.1,0a20.76,20.76,0,0,1,3.18,1.11h0l.62.29a20.94,20.94,0,0,1,6.3,4.9l.25.29.25.3,0,0,.28.35,0,0a17.32,17.32,0,0,1,2.05,3.34l.47,1c.11.25.2.5.3.76l0,.09,0,.09q.13.33.28.64l.19.36,0,0,.23.38a8,8,0,0,0,3.47,3h0a7.93,7.93,0,0,0,3.39.71,8,8,0,0,0,2.83-.56h0a8,8,0,0,0,1.89-1.05l.07-.05q1-.59,1.93-1.23.65-.44,1.28-.89l.63-.46c.42-.31.82-.64,1.23-1h0l.66-.55q.65-.55,1.28-1.13l.63-.59,0,0a41.59,41.59,0,0,0,3.17-3.41l.11-.13a42.66,42.66,0,0,0,4-5.78l.24-.42c.32-.56.62-1.13.92-1.7q.67-1.33,1.26-2.71a44,44,0,0,0,1.73-4.91l.21-.75.15-.55a43.07,43.07,0,0,0,.89-16.85,42.63,42.63,0,0,0-23.37-32.22,54.26,54.26,0,0,0-15.61-4l-.29,0A42.32,42.32,0,0,0,1752.31,99.36Z"/><path d="M1729.41,115.35s-18.25,3.63-41.38,14q-4,1.78-8.16,3.84a2.83,2.83,0,0,0,0,5.08c2.73,1.35,5.43,2.62,8.06,3.81a261.39,261.39,0,0,0,32.69,12.18c3.26,1,5.78,1.63,7.35,2h0l1.64.11-.12-.21L1726,150l-8.19-14.28Z"/><path d="M1753.25,96.16s-10.85,25.23,22.87,33.29l5.61.43Z"/><path d="M1734.59,156s-6,1.28-10.6-.76l7.47-4Z"/><path d="M1676.9,144.11l11.49-2.16,7.86-1.48a4.76,4.76,0,0,0,3.88-4.67v-.43a4.75,4.75,0,0,0-3.88-4.67l-8-1.5a250.94,250.94,0,0,1,40-14.21l1.54.1c1,.08,1.54.15,1.54.15l-11.62,20.28,11.62,20.4S1705.86,159.39,1676.9,144.11Z"/><rect class="cls-1" x="1668.17" y="0.26" width="166.83" height="224.64" transform="translate(3503.17 225.15) rotate(-180)"/><path d="M1767,9.39a10.08,10.08,0,0,1-1.63,6.27,10,10,0,0,1-15.75,1.25,10.14,10.14,0,0,1-1.59-2.34l0,0-.12-.26-.11-.24c-.06-.14-.11-.27-.16-.41A10.11,10.11,0,0,1,1756.3,0l.45,0a10,10,0,0,1,9.92,7.41A10.19,10.19,0,0,1,1767,9.39Z"/><path d="M1821.73,80.62c.07.1-14.7-9.73-14.7-9.73,4.72.14,6-2.4,7.58-3.84l.12-.11a12.56,12.56,0,0,0,3.68-11.33C1815.05,37.71,1792,30.65,1792,30.65A165.76,165.76,0,0,1,1770.45,21c-1.1-.61-2.15-1.22-3.13-1.81-1.49-.88-2.83-1.74-4.05-2.58s-2.36-1.67-3.34-2.46-1.7-1.39-2.41-2a31.73,31.73,0,0,1-2.94-3,2.16,2.16,0,0,1,.13-.22c.07-.12.15-.24.23-.35a32.48,32.48,0,0,0,3.29,2.69,66.17,66.17,0,0,0,10.17,5.88c1.12.54,2.31,1.09,3.59,1.65a191,191,0,0,0,22,7.88c40.75,12.18,27.46,45.83,27.46,45.83S1819.49,77,1821.73,80.62Z"/></g></g></svg>