<svg xmlns="http://www.w3.org/2000/svg" viewBox="0 0 1125 225"><defs><style>.cls-1{fill:none;}.cls-2{fill:#f2eee9;}.cls-3{fill:#fff;}</style></defs><title>elmus-side-sprite</title><g id="Calque_2" data-name="Calque 2"><g id="Calque_9" data-name="Calque 9"><rect class="cls-1" y="0.1" width="140.25" height="224.88" transform="translate(140.25 225.08) rotate(-180)"/><path d="M89.76,221.06l2.15-11.37,1.47-7.77A4.72,4.72,0,0,1,98,198.09h.42a4.72,4.72,0,0,1,4.65,3.84l1.49,7.87a247.18,247.18,0,0,0,14.14-39.6c0-.59-.06-1.1-.1-1.53-.08-1-.15-1.53-.15-1.53L98.3,178.63,78,167.14S74.55,192.41,89.76,221.06Z"/><path d="M77.66,166c0,8.83,9.18,16,20.5,16s20.5-7.15,20.5-16a13.7,13.7,0,0,0-3.85-9.32h.13c-22.33-20.07-10.14-38.91-5.86-44.23.78-1,1.29-1.49,1.29-1.49s-3.77-2.94-12.12-3.17h-.1c-.82,0-1.6,0-2.34,0-5.62.32-8.71,2.26-9.6,2.92h0l.25.27.56.63.23.26.11.13.1.11.1.11,0,.06c1.51,1.75,2.42,3,2.62,3.25l0,0v0c14.51,19.34-8.9,41.06-8.9,41.06h.13A13.7,13.7,0,0,0,77.66,166Z"/><path d="M56.07,88.49c0,.51,0,1,0,1.51,0,.12,0,.24,0,.36a1,1,0,0,0,.39.75,1,1,0,0,0,.38.16l.23.05c10.66,2.58,20.64,11.51,20.64,11.51l0,0L78,103l.35.28.32.26.55.46.11.1.29.25.56.49.9.81.14.13.53.49.12.11.46.43.19.18.39.38.26.25.31.31.52.52,0,0,.56.57.1.1.43.45.12.12.4.42.11.12.38.42,0,.05.11.12.3.34.11.12.53.59.09.11.1.11.1.11,0,.06a21.9,21.9,0,0,1,8.26-2.8H96a21.31,21.31,0,0,1,2.17-.11h.1a21.22,21.22,0,0,1,3.37.28h0l.67.13a21.13,21.13,0,0,1,7.32,3.12l.32.21.32.22,0,0,.36.26,0,0a17.12,17.12,0,0,1,2.82,2.68l.7.83c.17.21.32.43.48.65l.06.08.06.08q.21.28.43.54l.27.29,0,0,.32.31a8.09,8.09,0,0,0,4.1,2h0a8,8,0,0,0,1.38.12,8.18,8.18,0,0,0,4.71-1.49h0a8,8,0,0,0,1.58-1.46l.06-.07q.81-.8,1.58-1.64.52-.57,1-1.16l.49-.59c.33-.4.65-.81,1-1.22h0l.51-.68q.5-.69,1-1.39l.46-.71,0,0a40.78,40.78,0,0,0,2.25-4l.07-.15a41.51,41.51,0,0,0,2.5-6.48l.13-.46c.17-.61.33-1.22.47-1.84q.33-1.43.56-2.89a42.4,42.4,0,0,0,.48-5.09c0-.25,0-.51,0-.76s0-.37,0-.56A41.45,41.45,0,0,0,137,72.37a42.32,42.32,0,0,0-30.61-25,55.52,55.52,0,0,0-16.17,0l-.29,0A42,42,0,0,0,56.07,88.49Z"/><path d="M78,168.76s3.62,18.05,13.92,40.93q1.78,4,3.83,8.08a2.83,2.83,0,0,0,5.06,0c1.35-2.7,2.61-5.37,3.79-8a257.53,257.53,0,0,0,12.12-32.34c1-3.22,1.62-5.71,2-7.27v0c0-.55.08-1.09.11-1.63l-.21.12-6.12,3.49-14.22,8.1Z"/><path d="M56.2,85.22s-4.37,26.65,30.39,26.11l5.56-1Z"/><path d="M118.43,163.64s1.28,6-.76,10.48l-3.93-7.39Z"/><path d="M51.44,43.31H50.05a66.66,66.66,0,0,1,1.41-10s3.26-13.78,20.09-15.14c0,0,23.08-2.16,29.05,23.78,0,0,.81,4.86,4.66,6.65.11,0-17.69-.16-17.69-.16,4.07-2.43,3.93-5.24,4.34-7.3,3.53-17.57-16.29-18.65-16.29-18.65S61.23,21.14,55.53,32A47.46,47.46,0,0,0,51.44,43.31Z"/><path d="M83.15,155.11a37.24,37.24,0,0,0-5.25,18.05,58.24,58.24,0,0,1-2.8,16.16l-.28.88-.08.26h-.21l-.49,0c0-.08,0-.15,0-.23C70.74,165,83.15,155.11,83.15,155.11Z"/><path d="M74.82,190.47s.31,1.55.07,1.63-.5-1.63-.5-1.63Z"/><path d="M74,190.47s-.31,1.55-.07,1.63.5-1.63.5-1.63Z"/><path d="M217.4,216.26l3-11.17,2.07-7.64a4.74,4.74,0,0,1,4.93-3.47l.42,0a4.71,4.71,0,0,1,4.34,4.17l.87,8a247.71,247.71,0,0,0,17.17-38.42c0-.59,0-1.1,0-1.53,0-1,0-1.53,0-1.53l-21,9.93-19.35-13S204.46,186.54,217.4,216.26Z"/><path d="M209.61,160.49c-.68,8.8,7.91,16.63,19.2,17.48s21-5.59,21.68-14.39a13.67,13.67,0,0,0-3.11-9.58h.13c-20.71-21.69-7.09-39.56-2.41-44.55.85-.91,1.4-1.38,1.4-1.38S243,104.87,234.67,104h-.1c-.82-.08-1.59-.13-2.33-.14-5.63-.11-8.86,1.6-9.8,2.19h0l.23.29.51.67.21.28.1.13.09.12.09.11,0,.06c1.37,1.86,2.18,3.15,2.36,3.44l0,0v0c13,20.38-12.06,40.27-12.06,40.27h.13A13.73,13.73,0,0,0,209.61,160.49Z"/><path d="M278.1,83.91c0,1,0,2.06-.07,3.1,0,.72-.1,1.43-.18,2.15,0,.19,0,.38-.06.56l-.1.76q-.15,1.09-.37,2.16c-.18,1-.4,1.92-.65,2.85-.14.52-.29,1-.45,1.54-.07.22-.13.43-.21.65s-.13.42-.21.63c-.21.6-.43,1.2-.67,1.79l-.18.44a41.21,41.21,0,0,1-3.17,6.19,1.11,1.11,0,0,1-.09.13,43.66,43.66,0,0,1-2.65,3.76l0,0-.54.66c-.36.44-.74.87-1.11,1.29-.2.21-.38.42-.58.62h0c-.36.37-.71.75-1.08,1.11l-.56.54c-.38.36-.76.7-1.15,1.05-.57.5-1.15,1-1.74,1.46l-.07.06a8.38,8.38,0,0,1-1.73,1.3,8.2,8.2,0,0,1-2.74.95,8.4,8.4,0,0,1-2.1.06,8.63,8.63,0,0,1-1.36-.26h0a8,8,0,0,1-3.87-2.41l-.28-.34,0,0-.23-.32c-.13-.19-.26-.38-.38-.58l0-.09-.05-.08c-.13-.24-.26-.47-.4-.7l-.61-.9a17.2,17.2,0,0,0-2.51-3l0,0c-.1-.1-.21-.19-.32-.3l0,0-.3-.26-.3-.25-.26-.21a20.79,20.79,0,0,0-6.69-3.65l-.65-.2h0a21.65,21.65,0,0,0-3.31-.63h-.11c-.72-.07-1.44-.11-2.17-.11h-.12a22.1,22.1,0,0,0-8.18,1.79,0,0,0,0,0,0,0l-.32.14,0-.07a.4.4,0,0,1-.06-.09l0,0a.56.56,0,0,0-.09-.12.74.74,0,0,0-.08-.11c-.14-.22-.3-.43-.46-.65l-.1-.13-.27-.37-.1-.13,0-.06-.33-.45-.1-.13-.35-.46-.1-.13c-.13-.16-.26-.33-.38-.5l-.09-.11-.5-.62,0,0-.47-.56-.27-.34-.23-.28c-.12-.13-.23-.27-.35-.41l-.17-.2-.4-.48a1.11,1.11,0,0,1-.11-.12l-.48-.54-.13-.15-.81-.9-.52-.54-.26-.28-.1-.1-.5-.51-.29-.3-.32-.32-.21-.21,0,0s-9-9.91-19.31-13.57l-.23-.07a1,1,0,0,1-.35-.2l-.05-.07a.94.94,0,0,1-.26-.72c0-.13,0-.25,0-.37,0-.5.07-1,.13-1.5a42.12,42.12,0,0,1,36.52-37.22c.5-.06,1-.12,1.49-.16h.29a55.13,55.13,0,0,1,12.67,1c1.14.21,2.28.47,3.4.76A42.11,42.11,0,0,1,274.16,67l.08.18c.36.77.69,1.54,1,2.33a1.83,1.83,0,0,1,.08.21c.37,1,.72,1.94,1,2.93v0l0,.08a38.8,38.8,0,0,1,1.11,4.64v.12q.26,1.48.41,3C278,81.66,278.09,82.78,278.1,83.91Z"/><path d="M209.73,163.22s2.21,18.27,10.7,41.86q1.46,4.08,3.19,8.34a2.83,2.83,0,0,0,5,.38c1.55-2.59,3-5.15,4.4-7.66a258.11,258.11,0,0,0,14.6-31.33c1.21-3.14,2.06-5.57,2.57-7.09v0c.08-.54.16-1.08.24-1.61l-.22.11-6.37,3-14.8,7Z"/><path d="M194.51,80.31s-5.12,26.52,29.64,26.93l5.58-.81Z"/><path d="M250.44,161.16s.81,6.06-1.57,10.4l-3.35-7.66Z"/><path d="M241.71,38.48a3.81,3.81,0,0,1-.1-.41A39.8,39.8,0,0,0,239.21,31a28.84,28.84,0,0,0-5.88-8.59l0,0h0c-11.9-9.37-29.94-.72-29.94-.72a33.13,33.13,0,0,0-11,8.32,28.55,28.55,0,0,0-3.72,5.2c.89-.3,2-.74,3-1.2s2.09-.92,3-1.32c1.26-.58,2.16-1,2.16-1,24.93-20.73,34.7-4.77,35.44-3.47l0,.06a15.93,15.93,0,0,1,.64,9.14c-.38,2.06-.2,4.86-4.25,7.35,0,0,17.8,0,17.69-.07C243.19,43.23,242,39.69,241.71,38.48Z"/><path class="cls-1" d="M140.25.1V225H280.5V.1ZM279.1,75.27c-.23-1-.51-2-.82-3m0,0a1.83,1.83,0,0,0-.07-.22m0,0c-.25-.81-.53-1.6-.84-2.39"/><path d="M216.38,149c-4.06,6.79-7.88,17.12-8,21.74-.16,5.49-3.37,13.38-5,18.62l-.28.88-.08.26h-.21l-.49,0c0-.08,0-.15,0-.23C199,165,216.38,149,216.38,149Z"/><path d="M203,190.47s.31,1.55.07,1.63-.5-1.63-.5-1.63Z"/><path d="M202.24,190.47s-.31,1.55-.07,1.63.5-1.63.5-1.63Z"/><path d="M351.1,214.79l3.75-11,2.56-7.49a4.75,4.75,0,0,1,5.15-3.15l.42.06a4.7,4.7,0,0,1,4.05,4.44l.35,8A248.23,248.23,0,0,0,387,168.45c.06-.59.1-1.1.12-1.53.07-1,.07-1.53.07-1.53L365.62,174l-18.46-14.2S340.14,184.31,351.1,214.79Z"/><path d="M347,158.64c-1.26,8.74,6.81,17.1,18,18.67s21.32-4.23,22.58-13a13.65,13.65,0,0,0-2.48-9.76l.13,0c-19.24-23-4.47-39.93.52-44.61.91-.85,1.49-1.29,1.49-1.29s-3.31-3.44-11.54-4.83l-.1,0c-.81-.14-1.58-.23-2.32-.29-5.61-.47-8.94,1-9.93,1.56h0l.21.3.47.7.19.29.09.14.08.12.08.12,0,.06c1.25,1.95,2,3.28,2.13,3.59l0,0v0c11.6,21.16-14.67,39.41-14.67,39.41l.13,0A13.76,13.76,0,0,0,347,158.64Z"/><path d="M420.37,86.6c-.05,1-.14,2.05-.27,3.09-.09.71-.19,1.42-.32,2.13,0,.19-.06.38-.1.55l-.15.75q-.23,1.08-.51,2.13c-.24.95-.52,1.89-.83,2.81-.17.51-.36,1-.55,1.51-.08.22-.16.42-.25.63s-.16.41-.25.61c-.25.58-.51,1.17-.78,1.74l-.21.42a41.31,41.31,0,0,1-3.57,6,1.11,1.11,0,0,1-.1.13,43.77,43.77,0,0,1-2.9,3.59l0,0-.58.62c-.39.42-.79.82-1.19,1.22l-.62.58h0c-.38.35-.76.7-1.15,1l-.59.5c-.4.34-.8.65-1.21,1-.6.46-1.21.91-1.83,1.34l-.07.06a8.4,8.4,0,0,1-1.81,1.19,8.22,8.22,0,0,1-2.8.77,8.4,8.4,0,0,1-2.1-.08,8.62,8.62,0,0,1-1.34-.35h0a8,8,0,0,1-3.71-2.65l-.26-.36,0,0-.21-.34c-.12-.2-.23-.4-.34-.6l0-.09,0-.08c-.11-.25-.23-.48-.35-.72l-.55-.94a17.16,17.16,0,0,0-2.31-3.11l0,0c-.09-.11-.2-.21-.3-.32l0,0-.28-.28-.28-.27-.25-.23a20.74,20.74,0,0,0-6.43-4.07l-.63-.24h0a21.62,21.62,0,0,0-3.27-.84l-.11,0c-.71-.12-1.43-.2-2.15-.25h-.12a22.12,22.12,0,0,0-8.28,1.26h0l-.33.12,0-.07a.4.4,0,0,1-.05-.09l0,0a.56.56,0,0,0-.08-.13.74.74,0,0,0-.07-.12c-.13-.23-.27-.44-.42-.68l-.09-.14-.24-.39-.09-.14,0-.06-.3-.47-.09-.14-.32-.48-.09-.14c-.12-.17-.24-.35-.35-.52l-.08-.12-.46-.65,0,0-.43-.59-.25-.36-.21-.3c-.11-.14-.21-.29-.32-.43l-.16-.21-.37-.5a1.11,1.11,0,0,1-.1-.13l-.44-.57-.12-.16-.75-.95-.48-.57-.24-.3L357,96.9l-.46-.54-.27-.32-.3-.34-.19-.23,0,0S347.45,85,337.37,80.67l-.22-.09a1,1,0,0,1-.34-.22l0-.07a.93.93,0,0,1-.21-.73c0-.13,0-.25.05-.37.06-.49.14-1,.23-1.49A42.21,42.21,0,0,1,375.72,42.9c.5,0,1-.06,1.5-.07h.29a55.09,55.09,0,0,1,12.58,1.76c1.12.29,2.24.61,3.35,1a42,42,0,0,1,24.1,23.91l.07.19c.31.79.59,1.58.84,2.39a1.82,1.82,0,0,1,.07.22c.31,1,.59,2,.82,3v.11a38.76,38.76,0,0,1,.8,4.7v.12q.17,1.5.21,3C420.43,84.34,420.43,85.47,420.37,86.6Z"/><path d="M346.93,161.37s1,18.37,7.93,42.46q1.19,4.16,2.63,8.53a2.83,2.83,0,0,0,5,.7c1.72-2.49,3.35-5,4.9-7.37A258.67,258.67,0,0,0,384,175.37c1.41-3.06,2.42-5.43,3-6.92v0l.34-1.6-.23.09-6.56,2.6-15.23,6Z"/><path d="M337.18,77.66S330.33,103.8,365,106.43l5.62-.45Z"/><path d="M387.69,161.92s.41,6.1-2.25,10.28l-2.84-7.86Z"/><path d="M387,38.94a3.8,3.8,0,0,1-.07-.42,39.74,39.74,0,0,0-1.94-7.2,28.77,28.77,0,0,0-5.3-8.94l0,0h0c-11.26-10.11-29.83-2.63-29.83-2.63a33.21,33.21,0,0,0-11.51,7.6,28.62,28.62,0,0,0-4.06,4.95c.91-.24,2-.61,3.11-1s2.15-.78,3-1.13c1.3-.5,2.22-.88,2.22-.88,26.24-19.1,34.94-2.54,35.59-1.2l0,.06a15.93,15.93,0,0,1,0,9.16c-.52,2-.52,4.84-4.72,7.06,0,0,17.77,1.11,17.66,1.06C388.2,43.77,387.27,40.16,387,38.94Z"/><path class="cls-1" d="M280.5.1V225H420.75V.1ZM419.35,72.3c-.23-1-.51-2-.82-3.05m0,0a1.89,1.89,0,0,0-.07-.22m0,0c-.25-.83-.53-1.63-.84-2.44"/><path d="M352.63,149c-4.06,6.79-7.88,17.12-8,21.74-.16,5.49-3.37,13.38-5,18.62l-.28.88-.08.26H339l-.49,0c0-.08,0-.15,0-.23C335.21,165,352.63,149,352.63,149Z"/><path d="M339.29,190.47s.31,1.55.07,1.63-.5-1.63-.5-1.63Z"/><path d="M338.48,190.47s-.31,1.55-.07,1.63.5-1.63.5-1.63Z"/><path class="cls-2" d="M343.69,30.93a10.07,10.07,0,0,1-17.91,6.27,10,10,0,0,1-2.2-6.27,10.09,10.09,0,0,1,.08-1.24,9.91,9.91,0,0,1,1.83-4.63,10.06,10.06,0,0,1,18.2,5.87Z"/><path d="M331.92,31.11a6.1,6.1,0,0,1-6.1,6.09h0a10,10,0,0,1-2.2-6.27,10.09,10.09,0,0,1,.08-1.24,9.91,9.91,0,0,1,1.83-4.63,1.83,1.83,0,0,1,.33,0A6.09,6.09,0,0,1,331.92,31.11Z"/><path class="cls-3" d="M327.2,31.63a2.3,2.3,0,0,1-2.3,2.3,2.33,2.33,0,0,1-.92-.19,9.92,9.92,0,0,1-.32-4.05,2.28,2.28,0,0,1,1.24-.36A2.31,2.31,0,0,1,327.2,31.63Z"/><ellipse class="cls-2" cx="51.13" cy="41.11" rx="10.06" ry="10.03"/><ellipse cx="49.33" cy="42.29" rx="6.1" ry="6.08"/><ellipse class="cls-3" cx="46.4" cy="42.81" rx="2.31" ry="2.3"/><path d="M779,208.9l3.75-11,2.56-7.49a4.75,4.75,0,0,1,5.15-3.15l.42.06a4.7,4.7,0,0,1,4.05,4.44l.35,8A248.23,248.23,0,0,0,815,162.57c.06-.59.1-1.1.12-1.53.07-1,.07-1.53.07-1.53l-21.62,8.57-18.46-14.2S768.06,178.43,779,208.9Z"/><path d="M815.63,156.76a13.89,13.89,0,0,1-.13,1.7,12.75,12.75,0,0,1-.35,1.63,7.87,7.87,0,0,1-.36,1.07,12.93,12.93,0,0,1-2,3.54c-4,5.06-11.62,7.89-19.87,6.74-9.66-1.35-17-7.75-18-15.09v0a9.23,9.23,0,0,1-.12-1.29,12.36,12.36,0,0,1,.12-2.27,13.8,13.8,0,0,1,5.14-8.68l-.13,0s26.28-18.25,14.68-39.41v0s0,0,0,0c-.14-.26-.68-1.24-1.58-2.71l-.45-.72-.1-.16,0-.06-.08-.12a.56.56,0,0,0-.08-.13l-.09-.14c-.06-.1-.12-.2-.19-.3l-.47-.7-.2-.3a11.77,11.77,0,0,1,2.12-.86h0a20.79,20.79,0,0,1,7.79-.7c.73.06,1.5.15,2.31.29l.11,0c8.22,1.39,11.54,4.82,11.54,4.82s-.28.21-.75.62c-.21.18-.46.41-.74.67-5,4.67-19.77,21.64-.52,44.61l-.13,0a14.1,14.1,0,0,1,2.58,7.34S815.63,156.3,815.63,156.76Z"/><path d="M774.85,155.49s1,18.37,7.93,42.46q1.19,4.16,2.63,8.53a2.83,2.83,0,0,0,5,.7c1.72-2.49,3.35-5,4.9-7.37a258.67,258.67,0,0,0,16.62-30.33c1.41-3.06,2.42-5.43,3-6.92v0l.34-1.6-.23.09-6.56,2.6-15.23,6Z"/><path d="M815.61,156s.41,6.1-2.25,10.28l-2.84-7.86Z"/><path d="M844.5,78.49v.23c0,.2,0,.38,0,.56s0,.51,0,.76,0,.21,0,.31c0,.33,0,.66,0,1s0,.53-.06.8l-.06.62c-.08.8-.18,1.59-.3,2.38-.15,1-.34,1.94-.56,2.88-.14.62-.3,1.23-.47,1.85l-.13.45-.06.18a40.36,40.36,0,0,1-2.44,6.3,1,1,0,0,1-.07.15,40.33,40.33,0,0,1-2.24,4l0,0c-.15.24-.3.47-.46.71-.31.47-.63.94-1,1.39l-.5.68h0l-1,1.22-.5.59c-.33.4-.67.78-1,1.17-.51.55-1,1.1-1.57,1.63l-.06.07a7.61,7.61,0,0,1-1.58,1.46h0a8,8,0,0,1-2.61,1.22,8.11,8.11,0,0,1-2.09.28,7.79,7.79,0,0,1-1.37-.12h0a8.1,8.1,0,0,1-4.11-2l-.32-.31,0,0-.27-.3c-.15-.17-.29-.35-.43-.53l-.06-.08L819,108c-.15-.22-.3-.43-.47-.65l-.7-.83a17.09,17.09,0,0,0-2.82-2.68l0,0-.35-.27,0,0-.13-.09-.19-.13a3.6,3.6,0,0,0-.32-.22,21,21,0,0,0-7.31-3.12c-.23,0-.45-.1-.67-.13h0a22.1,22.1,0,0,0-3.37-.29h-.1c-.73,0-1.45,0-2.17.11h-.12a21.94,21.94,0,0,0-3.73.81,21.43,21.43,0,0,0-3.42,1.38l-.45-.72-1.59.28-.05,0-.3-.34-.12-.13,0,0-.39-.41-.11-.12-.39-.42-.12-.13c-.14-.15-.29-.3-.43-.45l-.1-.1-.56-.57,0,0-.52-.52c-.11-.1-.21-.2-.31-.31l-.26-.25-.39-.39-.19-.18-.46-.42-.12-.12-.53-.49a.87.87,0,0,1-.14-.13l-.91-.81-.56-.49-.29-.25-.11-.09-.55-.46-.32-.26-.35-.29L782,93l0,0S772,84,761.36,81.44l-.23,0a.9.9,0,0,1-.37-.17.93.93,0,0,1-.35-.5v0a1.65,1.65,0,0,1,0-.22c0-.11,0-.24,0-.35v0q0-.76,0-1.51c0-1.09,0-2.15.12-3.22a.17.17,0,0,0,0,0,42,42,0,0,1,33.72-37.82l.29,0c.3,0,.61-.09.91-.12a54.81,54.81,0,0,1,15.26.17c.52.11,1,.23,1.55.36h0A42.25,42.25,0,0,1,840,59.74c.44.85.85,1.73,1.23,2.62l.05.12a41,41,0,0,1,2.95,11A39.56,39.56,0,0,1,844.5,78.49Z"/><path d="M796.4,100.49l-3.87.66-1.59.28-.1,0c-24.69.38-29.63-13-30.42-20.73v0c0-.19,0-.38-.05-.56v0a23.08,23.08,0,0,1,.09-4.73.17.17,0,0,0,0,0L793.4,98.39h0Z"/><path d="M762.25,12.14h0c5.72-1.22,23.6-3.9,34,6.88a12.09,12.09,0,0,1,3,11.31s0,.1,0,.16c-.52,2-.27,4.81-4.35,7.22,0,0,14.36.18,17.2.18h.49c-3.84-1.77-4.66-6.59-4.66-6.59s-4.8-24.44-30.46-25.51c-1.12,0-2.29,0-3.5,0a57.26,57.26,0,0,0-11.65,1.76l-.13,0c-2,.39-28,5.13-45.27-.68V8.31a65.53,65.53,0,0,0,17.89,5.45A84.37,84.37,0,0,0,762.25,12.14Z"/><path class="cls-1" d="M844.19,67.52c.12.48.23,1,.31,1.44V.1H704.25V225H844.5V75.58a38.24,38.24,0,0,0-.35-5.12m-55.62,30.69.49.72c-.4.19-.81.4-1.21.61l-.05-.06-.1-.11a.54.54,0,0,0-.11-.11l-.1-.11-.57-.59-.06-.08Z"/><path d="M778.7,149.88c-4.78,6.31-9.71,16.18-10.35,20.76-.76,5.44-4.81,12.95-7.06,18l-.38.84-.11.25-.21,0-.48-.07c0-.08,0-.16,0-.23C759.63,164,778.7,149.88,778.7,149.88Z"/><path d="M760.89,189.71s.14,1.57-.1,1.63-.32-1.67-.32-1.67Z"/><path d="M760.1,189.62s-.48,1.51-.25,1.62.67-1.57.67-1.57Z"/><path d="M778.38,146s-15.86,16.65-17.45,33.52l6.74-5.86Z"/><path d="M734.3,10a9.93,9.93,0,0,1-2.08,6.09,10.07,10.07,0,0,1-17.29-2.29v0l-.1-.27-.09-.25c0-.14-.1-.28-.14-.41A10,10,0,0,1,724.24,0h.46a10,10,0,0,1,9.61,10Z"/><path class="cls-1" d="M844.5.1V225H984.75V.1Zm88.28,97.29.45.74c-.37.18-.75.39-1.12.61l-.05-.05-.09-.11-.1-.12-.09-.1-.53-.61-.06-.07Z"/><path d="M919.27,207.64l3.75-11,2.56-7.49a4.75,4.75,0,0,1,5.15-3.15l.42.06a4.7,4.7,0,0,1,4.05,4.44l.35,8a248.23,248.23,0,0,0,19.66-37.24c.06-.59.1-1.1.12-1.53.07-1,.07-1.53.07-1.53l-21.62,8.57-18.46-14.2S908.31,177.16,919.27,207.64Z"/><path d="M955.88,155.5a13.9,13.9,0,0,1-.13,1.7,12.75,12.75,0,0,1-.35,1.63,7.87,7.87,0,0,1-.36,1.07,12.93,12.93,0,0,1-2,3.54c-4,5.06-11.62,7.89-19.87,6.74-9.66-1.35-17-7.76-18-15.09v0a9.51,9.51,0,0,1-.12-1.3,12.26,12.26,0,0,1,.12-2.26,13.8,13.8,0,0,1,5.14-8.69h-.13s26.28-18.26,14.68-39.42h0s0,0,0,0c-.14-.26-.68-1.24-1.58-2.71l-.45-.72-.1-.16,0-.06-.08-.13-.08-.12-.09-.14c-.06-.1-.12-.2-.19-.3l-.47-.7-.2-.3h0a12.57,12.57,0,0,1,2.12-.86,21.08,21.08,0,0,1,7.8-.69c.73.06,1.5.15,2.31.29l.11,0c8.22,1.38,11.54,4.82,11.54,4.82s-.28.21-.75.62c-.21.18-.46.41-.74.67-5,4.67-19.77,21.64-.52,44.61l-.13,0a14.1,14.1,0,0,1,2.58,7.34S955.88,155,955.88,155.5Z"/><path d="M915.1,154.22s1,18.37,7.93,42.46q1.19,4.16,2.63,8.53a2.83,2.83,0,0,0,5,.7c1.72-2.49,3.35-5,4.9-7.37a258.67,258.67,0,0,0,16.62-30.33c1.41-3.06,2.42-5.43,3-6.92v0l.34-1.6-.23.09-6.56,2.6-15.23,6Z"/><path d="M955.86,154.77s.41,6.1-2.25,10.28l-2.84-7.86Z"/><path d="M984.75,77.23v.23c0,.19,0,.38,0,.56s0,.51,0,.76a42.67,42.67,0,0,1-.49,5.1c-.15,1-.34,1.94-.56,2.88-.14.62-.3,1.23-.47,1.85l-.13.45a41.6,41.6,0,0,1-2.5,6.48,1,1,0,0,1-.07.15,40.35,40.35,0,0,1-2.24,4l0,0c-.15.24-.3.47-.46.71-.31.47-.63.94-1,1.39l-.5.68h0c-.31.41-.63.82-1,1.23l-.5.59q-.5.59-1,1.16c-.51.56-1,1.11-1.57,1.64l-.06.07a8.18,8.18,0,0,1-1.58,1.46h0A8,8,0,0,1,968,109.9a8.1,8.1,0,0,1-2.09.28,7.79,7.79,0,0,1-1.37-.12h0a8.1,8.1,0,0,1-4.11-2l-.32-.31,0,0-.27-.29a6.14,6.14,0,0,1-.43-.54l-.06-.08-.06-.07c-.15-.22-.3-.43-.47-.65l-.7-.83a16.69,16.69,0,0,0-2.82-2.68l0,0-.35-.27,0,0-.13-.09-.19-.14-.32-.21a21.24,21.24,0,0,0-7.31-3.13l-.67-.13h0a20.91,20.91,0,0,0-3.37-.29h-.1c-.73,0-1.45,0-2.17.11h-.12a22.85,22.85,0,0,0-3.74.8l-.05,0a20.45,20.45,0,0,0-3.36,1.37l-.45-.72-1.59.28-.05,0-.3-.34-.12-.13,0-.06-.39-.41-.11-.11-.39-.42-.12-.13-.43-.45-.1-.1-.56-.57,0,0c-.18-.17-.35-.35-.52-.51s-.21-.21-.31-.31l-.26-.25-.39-.39-.19-.18-.46-.43-.12-.11-.53-.49-.14-.13-.91-.81-.56-.49-.29-.25-.11-.1-.55-.45-.32-.27-.35-.28-.23-.2,0,0s-10-8.93-20.65-11.51l-.23-.06A1,1,0,0,1,901,80a.93.93,0,0,1-.35-.5v0a1.65,1.65,0,0,1,0-.22c0-.12,0-.24,0-.35v0q0-.76,0-1.51c0-1.09,0-2.15.12-3.22a.17.17,0,0,0,0,0,42,42,0,0,1,32.81-37.62l.91-.2.29,0a55.38,55.38,0,0,1,15.18-.08c.33,0,.66.08,1,.13a42.32,42.32,0,0,1,30.6,25,40.94,40.94,0,0,1,2.95,11A39.56,39.56,0,0,1,984.75,77.23Z"/><path d="M936.65,99.22h-.06l-3.81.65-1.59.28-.1,0c-24.69.38-29.63-13-30.42-20.73v0c0-.19,0-.38-.05-.56v0a23.08,23.08,0,0,1,.09-4.73.17.17,0,0,0,0,0l32.95,23,3,2.09Z"/><path d="M950.76,36.61c.11,0-17.69-.17-17.69-.17,4.08-2.41,3.83-5.22,4.35-7.22,0-.06,0-.11,0-.16a12.1,12.1,0,0,0-3-11.32c-12.46-13-35.79-6.45-35.79-6.45a170.2,170.2,0,0,1-23.45,3.54c-1.26.09-2.47.15-3.63.19-1.73.07-3.34.08-4.82,0s-2.9-.12-4.16-.24-2.18-.23-3.14-.38a32.21,32.21,0,0,1-4.13-.93,2.08,2.08,0,0,1,0-.25c0-.14,0-.27,0-.41a33.14,33.14,0,0,0,4.24.46,67.84,67.84,0,0,0,11.78-.59c1.24-.16,2.54-.33,3.93-.56a196.18,196.18,0,0,0,22.87-5.27C939.25-4.86,946.1,30,946.1,30S946.93,34.84,950.76,36.61Z"/><path d="M919.5,144.63c-5.78,6.85-12,17.72-13,22.86-1.2,6.12-6.24,14.36-9.08,19.91l-.48.93-.14.28-.23,0-.54-.11c0-.09,0-.18,0-.26C897.14,159.4,919.5,144.63,919.5,144.63Z"/><path d="M896.93,188.63s.06,1.79-.22,1.84-.25-1.92-.25-1.92Z"/><path d="M896,188.48s-.64,1.67-.39,1.81.86-1.73.86-1.73Z"/><path d="M922.38,142.14s-21.42,17-24.3,35.1l8-7.62Z"/><path d="M866.54,13a9.93,9.93,0,0,1-2.08,6.09,10.07,10.07,0,0,1-17.29-2.29v0l-.1-.27-.09-.25c0-.14-.1-.28-.14-.41A10,10,0,0,1,856.48,3h.46a10,10,0,0,1,9.61,10Z"/><path class="cls-1" d="M984.75.1V224.94H1125V.1ZM1073,98.67l.45.74c-.37.18-.75.39-1.12.61l-.05-.06-.09-.11-.1-.11-.09-.11-.53-.6-.06-.08Z"/><path d="M1059.52,208.86l3.75-11,2.56-7.49a4.75,4.75,0,0,1,5.15-3.15l.42.06a4.7,4.7,0,0,1,4.05,4.44l.35,8a248.23,248.23,0,0,0,19.66-37.24c.06-.59.1-1.1.12-1.53.07-1,.07-1.53.07-1.53L1074,168l-18.46-14.2S1048.56,178.38,1059.52,208.86Z"/><path d="M1096.13,156.71a12.16,12.16,0,0,1-.13,1.7,12.54,12.54,0,0,1-.35,1.64,9.55,9.55,0,0,1-.36,1.07,13,13,0,0,1-2,3.53c-4,5.07-11.62,7.9-19.87,6.74-9.66-1.35-17-7.75-18-15.08v0a9.52,9.52,0,0,1-.12-1.3,12.26,12.26,0,0,1,.12-2.26,13.8,13.8,0,0,1,5.14-8.69l-.13,0s26.28-18.25,14.68-39.41v0l0,0c-.14-.26-.68-1.24-1.58-2.71l-.45-.72-.1-.16,0-.07-.08-.12-.08-.12-.09-.15-.19-.29-.47-.7-.2-.31a11.76,11.76,0,0,1,2.12-.86h0a20.79,20.79,0,0,1,7.79-.7q1.1.09,2.31.3h.11c8.22,1.39,11.54,4.83,11.54,4.83s-.28.21-.75.62c-.21.18-.46.41-.74.67-5,4.67-19.77,21.64-.52,44.61l-.13,0a14.1,14.1,0,0,1,2.58,7.33S1096.13,156.25,1096.13,156.71Z"/><path d="M1055.35,155.44s1,18.37,7.93,42.46q1.19,4.16,2.63,8.53a2.83,2.83,0,0,0,5,.7c1.72-2.49,3.35-5,4.9-7.37a258.67,258.67,0,0,0,16.62-30.33c1.41-3.06,2.42-5.43,3-6.92v0l.34-1.6-.23.09-6.56,2.6-15.23,6Z"/><path d="M1096.11,156s.41,6.1-2.25,10.28l-2.84-7.86Z"/><path d="M1125,78.45v.23c0,.19,0,.38,0,.56s0,.5,0,.76a42.32,42.32,0,0,1-.49,5.09c-.15,1-.34,1.95-.56,2.89-.14.61-.3,1.23-.47,1.84,0,.16-.09.31-.13.46a41.6,41.6,0,0,1-2.5,6.48,1,1,0,0,1-.07.15,40.35,40.35,0,0,1-2.24,4l0,0c-.15.24-.3.47-.46.71-.31.46-.63.93-1,1.39l-.5.68h0c-.31.41-.63.82-1,1.22l-.5.59c-.33.4-.67.78-1,1.17-.51.56-1,1.11-1.57,1.64l-.06.07a8.18,8.18,0,0,1-1.58,1.46h0a8,8,0,0,1-2.61,1.23,8.1,8.1,0,0,1-2.09.27,7.81,7.81,0,0,1-1.37-.12h0a8.09,8.09,0,0,1-4.11-2l-.32-.31,0,0c-.09-.09-.18-.2-.27-.3s-.29-.35-.43-.53l-.06-.08s0,0-.06-.07a7.8,7.8,0,0,0-.47-.65l-.7-.83a16.75,16.75,0,0,0-2.82-2.69h0l-.35-.27,0,0-.13-.09a1.33,1.33,0,0,0-.19-.14l-.32-.22a21,21,0,0,0-7.31-3.12l-.67-.13h0a19.84,19.84,0,0,0-3.37-.29h-.1c-.73,0-1.45,0-2.17.11h-.12a21.91,21.91,0,0,0-3.73.81,20.62,20.62,0,0,0-3.42,1.39l-.45-.72-1.59.27-.05,0-.3-.34-.12-.12,0-.06-.39-.41-.11-.12-.39-.42-.12-.12-.43-.45-.1-.11-.56-.56,0,0c-.18-.17-.35-.35-.52-.51l-.31-.31-.26-.26-.39-.38-.19-.18-.46-.43-.12-.11-.53-.49-.14-.13L1065,95l-.56-.49-.29-.25-.11-.1-.55-.45-.32-.27-.35-.29-.23-.19,0,0s-10-8.93-20.65-11.5l-.23-.06a1,1,0,0,1-.37-.16.9.9,0,0,1-.35-.52h0a1.4,1.4,0,0,1,0-.22c0-.11,0-.23,0-.34v0q0-.76,0-1.51c0-1.09,0-2.15.12-3.22a.17.17,0,0,0,0,0,41.94,41.94,0,0,1,32.17-37.47c.51-.13,1-.25,1.55-.35l.29,0a54.77,54.77,0,0,1,13.09-.31c1,.08,2.05.21,3.08.36a42.32,42.32,0,0,1,30.6,25,41,41,0,0,1,2.95,11A39.84,39.84,0,0,1,1125,78.45Z"/><path d="M1076.89,100.44l-3.87.67-1.59.27-.1,0c-24.72.39-29.64-13-30.42-20.74h0c0-.19,0-.38-.05-.55v0a23.08,23.08,0,0,1,.09-4.73.17.17,0,0,0,0,0l32.95,23h0Z"/><path d="M994.35,24.14s14,3,34-7.13a60.41,60.41,0,0,1,12.8-4.52h0c6.83-1.24,22.94-2.85,32.57,7.16a12.09,12.09,0,0,1,3,11.31s0,.1,0,.16c-.52,2-.27,4.81-4.35,7.22,0,0,14.36.18,17.2.18h.49c-3.84-1.77-4.66-6.59-4.66-6.59s-4.83-24.59-30.7-25.51q-1.49-.06-3.07,0c-1.15,0-2.35.13-3.6.27h0a23.24,23.24,0,0,0-4.89.75l-1.52.4-.83.24a69,69,0,0,0-12.59,5.33,65.62,65.62,0,0,1-12.71,5.25,95,95,0,0,1-21.11,3.82Z"/><path d="M1060.2,149.88c-4.78,6.31-9.71,16.18-10.35,20.76-.76,5.44-4.81,12.95-7.06,18l-.38.84-.11.25-.21,0-.48-.07c0-.08,0-.16,0-.23C1041.13,164,1060.2,149.88,1060.2,149.88Z"/><path d="M1042.39,189.71s.14,1.57-.1,1.63-.32-1.67-.32-1.67Z"/><path d="M1041.6,189.62s-.48,1.51-.25,1.62.67-1.57.67-1.57Z"/><path d="M1059.88,146s-15.86,16.65-17.45,33.52l6.74-5.86Z"/><path d="M1005.79,24.06a9.93,9.93,0,0,1-2.08,6.09,10.07,10.07,0,0,1-17.29-2.29v0l-.1-.27-.09-.25c0-.14-.1-.28-.14-.41A10,10,0,0,1,995.73,14h.46a10,10,0,0,1,9.61,10Z"/><path class="cls-2" d="M204.44,36.09a10.06,10.06,0,0,1-17.1,7.15h0a10,10,0,0,1-3-7.15,9.76,9.76,0,0,1,.75-3.79,10.06,10.06,0,0,1,19.36,3.79Z"/><path d="M194.68,37.28a6.1,6.1,0,0,1-6.1,6.09,6.27,6.27,0,0,1-1.23-.12h0a10,10,0,0,1-3-7.15,9.76,9.76,0,0,1,.75-3.79,6.1,6.1,0,0,1,9.6,5Z"/><ellipse class="cls-3" cx="187.65" cy="37.79" rx="2.31" ry="2.3"/><path d="M494.79,210.88l3.75-11,2.56-7.49a4.75,4.75,0,0,1,5.15-3.15l.42.06a4.7,4.7,0,0,1,4.05,4.44l.35,8a248.23,248.23,0,0,0,19.66-37.24c.06-.59.1-1.1.12-1.53.07-1,.07-1.53.07-1.53l-21.62,8.57-18.46-14.2S483.83,180.4,494.79,210.88Z"/><path d="M490.67,154.74c-1.26,8.74,6.81,17.1,18,18.67s21.32-4.23,22.58-13a13.65,13.65,0,0,0-2.48-9.76l.13,0c-19.24-23-4.47-39.93.52-44.61.91-.85,1.49-1.29,1.49-1.29s-3.31-3.44-11.54-4.83l-.1,0c-.81-.14-1.58-.23-2.32-.29-5.61-.47-8.94,1-9.93,1.56h0l.21.3.47.7.19.29.09.14.08.12.08.12,0,.06c1.25,1.95,2,3.28,2.13,3.59l0,0v0C522,127.78,495.68,146,495.68,146l.13,0A13.76,13.76,0,0,0,490.67,154.74Z"/><path d="M562.6,81.27v.31c0,.19,0,.38,0,.56l0,.76c0,.74-.09,1.46-.16,2.18h0c-.1,1-.23,1.95-.4,2.89-.09.52-.19,1-.31,1.57-.05.23-.1.45-.16.68s-.09.41-.14.62c-.15.62-.32,1.23-.5,1.84,0,.16-.09.31-.14.45a40.18,40.18,0,0,1-2.59,6.44l-.07.15a42.57,42.57,0,0,1-2.31,4l0,0-.48.7c-.32.46-.65.93-1,1.38-.16.23-.34.44-.51.67h0c-.31.4-.64.81-1,1.21l-.5.58c-.34.4-.69.77-1,1.15-.52.55-1.06,1.1-1.6,1.62a.16.16,0,0,0-.06.06,8,8,0,0,1-1.61,1.44h0a8.29,8.29,0,0,1-4.74,1.42,9.09,9.09,0,0,1-1.37-.14h0a8.18,8.18,0,0,1-4.07-2.06l-.32-.32,0,0a3.82,3.82,0,0,1-.27-.3,4.62,4.62,0,0,1-.42-.54l-.06-.08-.06-.07c-.15-.23-.3-.44-.46-.66l-.69-.84a16.68,16.68,0,0,0-2.77-2.72l0,0c-.12-.1-.23-.19-.36-.28l0,0-.32-.23-.31-.22c-.27-.19-.56-.38-.86-.56a20.73,20.73,0,0,0-6.41-2.67l-.67-.15h0a20.75,20.75,0,0,0-3.36-.34h-.1a19.79,19.79,0,0,0-2.17.08h-.13a22.08,22.08,0,0,0-2.75.49h0a22,22,0,0,0-5.21,2h0c-.11,0-.19.11-.3.17l-.05-.06-.07-.09,0,0a.52.52,0,0,0-.1-.11l-.09-.11c-.16-.2-.34-.41-.52-.6a.69.69,0,0,0-.11-.13c-.09-.12-.19-.23-.29-.35l-.12-.13,0,0a1.06,1.06,0,0,1-.14-.16l-.24-.27-.11-.12c-.12-.14-.25-.29-.39-.42a.69.69,0,0,0-.11-.13l-.43-.46-.1-.1-.54-.58,0,0-.51-.53-.31-.31-.25-.26-.38-.39-.19-.18-.45-.44-.12-.11-.52-.5-.14-.13-.89-.83-.56-.49-.28-.26-.12-.1-.53-.46-.32-.27-.35-.29-.22-.2,0,0S490.05,85.78,479.43,83a2,2,0,0,1-.23-.06,1,1,0,0,1-.38-.16l-.06-.06a1,1,0,0,1-.32-.69v-.37c0-.5,0-1,0-1.51A42,42,0,0,1,512.9,39.62l.3,0c.34,0,.67-.09,1-.11h0a55.58,55.58,0,0,1,15.15.4c.68.15,1.28.31,1.94.49h.08a42.3,42.3,0,0,1,26,20.41c.17.29.33.58.48.88l.3.6c.5,1,1,2,1.37,3a40.78,40.78,0,0,1,2,6.29c.11.47.21.94.29,1.41h0c.22,1.1.38,2.2.5,3.32s.19,2.06.22,3.11C562.61,80,562.61,80.66,562.6,81.27Z"/><path d="M490.61,157.47s1,18.37,7.93,42.46q1.19,4.16,2.63,8.53a2.83,2.83,0,0,0,5,.7c1.72-2.49,3.35-5,4.9-7.37a258.67,258.67,0,0,0,16.62-30.33c1.41-3.06,2.42-5.43,3-6.92v0l.34-1.6-.23.09-6.56,2.6-15.23,6Z"/><path d="M478.78,80.1s-2.7,26.86,32,24.22l5.49-1.29Z"/><path d="M531.38,158s.41,6.1-2.25,10.28l-2.84-7.86Z"/><path d="M527.42,34a3.8,3.8,0,0,1-.07-.42,39.75,39.75,0,0,0-2-7.17,28.78,28.78,0,0,0-5.43-8.87l0,0h0c-7.78-6.81-18.86-5.36-25.11-3.76h0c-.78.2-1.48.4-2.09.59-3,.79-8.35,2-11.6,1.73l.17,0a75.27,75.27,0,0,1-19.08-3.2c1,.56,6.19,2.58,6.19,2.58a53.38,53.38,0,0,0,15.9,2.81,44.49,44.49,0,0,0,13.1-1.44c15-5.06,20.64,5.32,21.17,6.37l0,.06a15.93,15.93,0,0,1,.16,9.16c-.49,2-.46,4.85-4.62,7.12,0,0,17.78.88,17.67.82C528.65,38.78,527.66,35.19,527.42,34Z"/><path class="cls-1" d="M560.42,60.25a39.51,39.51,0,0,1,3.23,11.21A37.66,37.66,0,0,1,564,76.6V.1H421V225H564V78a39.76,39.76,0,0,1-.2,4c-.1,1-.24,2-.42,3-.12.63-.24,1.27-.4,1.9,0,.15-.08.31-.11.47l-.45.17c.07-.23.12-.46.18-.7.13-.53.24-1.07.34-1.6.19-1,.33-2,.44-3h0c.08-.74.14-1.47.18-2.23l0-.78c0-.19,0-.38,0-.57v-.31c0-.62,0-1.25,0-1.87,0-1.07-.12-2.13-.24-3.17S563,71.1,562.8,70h0c-.09-.48-.2-1-.32-1.44a39.47,39.47,0,0,0-2.18-6.42c-.46-1-1-2.09-1.51-3.09l-.33-.61c-.16-.3-.34-.6-.53-.9a9.88,9.88,0,0,1,1.4.55C559.72,58.78,560.07,59.51,560.42,60.25Zm2.18,20v0c0,.21,0,.41,0,.62v-1.2C562.61,79.91,562.61,80.09,562.6,80.27Z"/><path d="M493.45,148.69c-3.74,7-7.06,17.47-7,22.08.1,5.49-2.73,13.52-4.16,18.83l-.24.89-.07.27h-.7l0-.23C476.81,165.51,493.45,148.69,493.45,148.69Z"/><path d="M482.08,190.75s.39,1.53.15,1.63-.57-1.61-.57-1.61Z"/><path d="M481.28,190.78s-.24,1.56,0,1.64.42-1.65.42-1.65Z"/><path d="M495.49,146S480.08,164.6,481,180.72l5.52-8Z"/><path class="cls-2" d="M473.53,14.89a10,10,0,0,1-1,4.35h0v0a1.1,1.1,0,0,0-.07.13l-.06.12A10,10,0,0,1,469,23.29l0,0a10.09,10.09,0,0,1-13.31-2.16,9.69,9.69,0,0,1-.86-1.26h0a9.56,9.56,0,0,1-.93-2.18,9.92,9.92,0,0,1-.32-4.05A9.91,9.91,0,0,1,455.33,9a10.06,10.06,0,0,1,18.2,5.87Z"/><path d="M461.76,15.07a6.09,6.09,0,0,1-6.1,6.09h0a9.69,9.69,0,0,1-.86-1.26s0,0,0,0a9.56,9.56,0,0,1-.93-2.18,9.92,9.92,0,0,1-.32-4.05A9.91,9.91,0,0,1,455.33,9a1.83,1.83,0,0,1,.33,0A6.09,6.09,0,0,1,461.76,15.07Z"/><path class="cls-3" d="M457,15.59a2.3,2.3,0,0,1-2.3,2.3,2.33,2.33,0,0,1-.92-.19,9.92,9.92,0,0,1-.32-4.05,2.28,2.28,0,0,1,1.24-.36A2.31,2.31,0,0,1,457,15.59Z"/><path d="M472.54,19.24v0a1.1,1.1,0,0,0-.07.13l-.06.12A10,10,0,0,1,469,23.29l0,0a10.09,10.09,0,0,1-13.31-2.16,9.69,9.69,0,0,1-.86-1.26h0a21.83,21.83,0,0,0,2.83,1c3.51.94,9.65,1.79,14.94-1.6Z"/><path d="M469.5,6.85h0c-.16-.12-.32-.24-.5-.36l0,0a10.09,10.09,0,0,0-13.31,2.16,9.68,9.68,0,0,0-.86,1.26s0,0,0,0a19.82,19.82,0,0,1,2.84-1c.61-.16,1.31-.33,2.07-.46a10.52,10.52,0,0,1,1.21-.15,10.86,10.86,0,0,1,5.31.92,18.87,18.87,0,0,1,7.33,6.35C474.45,10.13,469.5,6.85,469.5,6.85Z"/><path d="M638.78,209.89l3.75-11,2.56-7.49a4.75,4.75,0,0,1,5.15-3.15l.42.06a4.7,4.7,0,0,1,4.05,4.44l.35,8a248.23,248.23,0,0,0,19.66-37.24c.06-.59.1-1.1.12-1.53.07-1,.07-1.53.07-1.53l-21.62,8.57-18.46-14.2S627.81,179.42,638.78,209.89Z"/><path d="M675.38,157.75a13.89,13.89,0,0,1-.13,1.7,12.54,12.54,0,0,1-.35,1.64v0c-.1.36-.22.7-.35,1a13.23,13.23,0,0,1-2,3.54c-4,5.06-11.62,7.89-19.87,6.74-9.66-1.35-17-7.75-18-15.09v0a9.23,9.23,0,0,1-.12-1.29,12.36,12.36,0,0,1,.12-2.27,13.8,13.8,0,0,1,5.14-8.68l-.13,0s26.28-18.25,14.68-39.41v0s0,0,0,0c-.14-.26-.68-1.24-1.58-2.71l-.45-.72-.1-.16,0-.06-.08-.12a.56.56,0,0,0-.08-.13l-.09-.14c-.06-.1-.12-.2-.19-.3l-.47-.7-.2-.3a11.77,11.77,0,0,1,2.12-.86h0a20.79,20.79,0,0,1,7.79-.7c.73.06,1.5.16,2.31.29l.11,0c8.22,1.39,11.54,4.82,11.54,4.82s-.28.21-.75.62c-.21.18-.46.41-.74.67-5,4.67-19.77,21.64-.52,44.61l-.13,0a14.1,14.1,0,0,1,2.58,7.34S675.38,157.28,675.38,157.75Z"/><path d="M634.6,156.48s1,18.37,7.93,42.46q1.19,4.16,2.63,8.53a2.83,2.83,0,0,0,5,.7c1.72-2.49,3.35-5,4.9-7.37a258.67,258.67,0,0,0,16.62-30.33c1.41-3.06,2.42-5.43,3-6.92v0l.34-1.6-.23.09-6.56,2.6-15.23,6Z"/><path d="M675.36,157s.41,6.1-2.25,10.28l-2.84-7.86Z"/><path d="M704.25,79.72c0,.19,0,.38,0,.55s0,.51,0,.77c0,.07,0,.14,0,.21a41.26,41.26,0,0,1-.48,4.88c-.15,1-.34,1.94-.56,2.88-.14.62-.3,1.23-.47,1.85l-.13.45a41.61,41.61,0,0,1-2.5,6.48,1,1,0,0,1-.07.15,39.25,39.25,0,0,1-2.24,4l0,0c-.15.24-.3.47-.46.71-.31.47-.63.94-1,1.39l-.5.68h0l-1,1.22-.5.59c-.33.4-.67.78-1,1.17-.51.55-1,1.11-1.57,1.63l-.06.07a7.93,7.93,0,0,1-1.58,1.47h0a8,8,0,0,1-2.61,1.22,7.7,7.7,0,0,1-2.09.28,7.79,7.79,0,0,1-1.37-.12h0a8.1,8.1,0,0,1-4.11-2l-.32-.31,0,0-.27-.3c-.15-.17-.29-.35-.43-.53l-.06-.08-.06-.08c-.15-.22-.3-.43-.47-.65l-.7-.83a17.09,17.09,0,0,0-2.82-2.68l0,0-.35-.27,0,0-.13-.09-.19-.13-.32-.22a21,21,0,0,0-7.31-3.12c-.23,0-.45-.1-.67-.13h0a22.1,22.1,0,0,0-3.37-.29h-.1a19.88,19.88,0,0,0-2.17.12h-.12a21.94,21.94,0,0,0-3.73.81,21.43,21.43,0,0,0-3.42,1.38l-.45-.72-1.59.28-.05,0-.3-.34-.12-.13,0,0-.39-.41-.11-.12-.39-.42-.12-.13c-.14-.15-.29-.3-.43-.45l-.1-.1-.56-.57,0,0-.52-.52c-.11-.1-.21-.2-.31-.31l-.26-.25-.39-.38-.19-.19-.46-.42-.12-.12-.53-.49a.87.87,0,0,1-.14-.13l-.91-.81-.56-.49-.29-.24-.11-.1-.55-.46-.32-.26-.35-.29-.23-.19,0,0s-10-8.93-20.65-11.51l-.23,0a1,1,0,0,1-.37-.16.92.92,0,0,1-.35-.51v0a1.65,1.65,0,0,1,0-.22c0-.11,0-.24,0-.35v0c0-.49,0-1,0-1.51,0-1.09,0-2.15.12-3.22a.17.17,0,0,0,0,0A42,42,0,0,1,653.92,38.5l.29,0c1.5-.22,3-.38,4.52-.45a54.75,54.75,0,0,1,11.65.5c.91.18,1.81.4,2.69.63h0A42.27,42.27,0,0,1,700,61.31c.35.71.67,1.42,1,2.15a41,41,0,0,1,2.95,11A39.61,39.61,0,0,1,704.25,79.72Z"/><path class="cls-2" d="M704.25,79.72c0,.19,0,.38,0,.55s0,.51,0,.77c0,.07,0,.14,0,.21a41.26,41.26,0,0,1-.48,4.88c-.15,1-.34,1.94-.56,2.88-.14.62-.3,1.23-.47,1.85l-1-.19a33.43,33.43,0,0,0-3.85-.41,24.19,24.19,0,0,0-3.69.09l-.58.08a12.94,12.94,0,0,0-3.39.9,5.58,5.58,0,0,0-1.09.58,15.45,15.45,0,0,1-5.15-3.7,15.29,15.29,0,0,1-4-11.1A15.51,15.51,0,0,1,701,63.47a41,41,0,0,1,2.95,11A39.61,39.61,0,0,1,704.25,79.72Z"/><path d="M704.25,79.72c0,.19,0,.38,0,.55s0,.51,0,.77c0,.07,0,.14,0,.21a41.26,41.26,0,0,1-.48,4.88c-.15,1-.34,1.94-.56,2.88-.14.62-.3,1.23-.47,1.85l-.13.45a9.4,9.4,0,0,1-8.43-1l-.16-.11a9.34,9.34,0,0,1-3.7-5.21,9,9,0,0,1-.33-2.9,9.35,9.35,0,0,1,9.81-8.86,9.23,9.23,0,0,1,4.17,1.2A39.61,39.61,0,0,1,704.25,79.72Z"/><path class="cls-3" d="M704.23,81c0,.07,0,.14,0,.21a41.26,41.26,0,0,1-.48,4.88,3.4,3.4,0,0,1-5.36-2.91,3.25,3.25,0,0,1,.24-1.09A3.41,3.41,0,0,1,704.23,81Z"/><path d="M656.15,101.47l-3.87.66-1.59.28-.1,0c-24.69.39-29.63-13-30.42-20.73v0c0-.19,0-.38-.05-.56v0a23.08,23.08,0,0,1,.09-4.73.17.17,0,0,0,0,0l32.95,23.06h0Z"/><path d="M674.27,39.85c.11,0-17.69-.17-17.69-.17,4.08-2.41,3.83-5.22,4.35-7.22,0-.06,0-.11,0-.16A12.1,12.1,0,0,0,658,21c-12.46-13-35.79-6.45-35.79-6.45a170.2,170.2,0,0,1-23.45,3.54c-1.26.09-2.47.15-3.63.19-1.73.07-3.34.08-4.82,0s-2.9-.12-4.16-.24-2.18-.23-3.14-.38a32.21,32.21,0,0,1-4.13-.93,2.08,2.08,0,0,1,0-.25c0-.14,0-.27,0-.41a33.14,33.14,0,0,0,4.24.46A67.84,67.84,0,0,0,594.89,16c1.24-.16,2.54-.33,3.93-.56a196.18,196.18,0,0,0,22.87-5.27c41.07-11.75,47.93,23.13,47.93,23.13S670.43,38.08,674.27,39.85Z"/><rect class="cls-1" x="564" y="0.1" width="140.25" height="224.88" transform="translate(1268.25 225.08) rotate(-180)"/><path d="M704.25,79.43c0,.2,0,.38,0,.56s0,.51,0,.76a42.67,42.67,0,0,1-.49,5.1c-.15,1-.34,1.94-.56,2.88-.14.62-.3,1.23-.47,1.85l-.13.45-.06.18-.33-.06-.24,0a34.71,34.71,0,0,0-4-.43c-1,0-1.89,0-2.7,0h0l-1.14.1-.61.07a13.75,13.75,0,0,0-3.53.93,5.55,5.55,0,0,0-1.14.6,15.79,15.79,0,0,1-9.57-15.21,16,16,0,0,1,16.92-15,16.67,16.67,0,0,1,4.79.95l.05.12a41,41,0,0,1,2.95,11A39.46,39.46,0,0,1,704.25,79.43Z"/><path d="M641,144.63c-5.78,6.85-12,17.72-13,22.86-1.2,6.12-6.24,14.36-9.08,19.91l-.48.93-.14.28-.23,0-.54-.11c0-.09,0-.18,0-.26C618.65,159.4,641,144.63,641,144.63Z"/><path d="M618.43,188.63s.06,1.79-.22,1.84-.25-1.92-.25-1.92Z"/><path d="M617.54,188.48s-.64,1.67-.39,1.81.86-1.73.86-1.73Z"/><path d="M643.89,142.14s-21.42,17-24.3,35.1l8-7.62Z"/><path class="cls-2" d="M599.15,16.89c0,.19,0,.39,0,.58a.45.45,0,0,1,0,.11,4.54,4.54,0,0,1-.05.53.59.59,0,0,1,0,.14,9.94,9.94,0,0,1-.89,3h0v0a1.1,1.1,0,0,0-.07.13l-.06.12a10,10,0,0,1-3.45,3.78l0,0c-.21.14-.44.27-.66.39a10.09,10.09,0,0,1-12.65-2.55,2.89,2.89,0,0,1-.22-.3,8.43,8.43,0,0,1-.64-1h0a9.56,9.56,0,0,1-.93-2.18,9.15,9.15,0,0,1-.32-1.57,9.92,9.92,0,0,1-.08-1.23c0-.25,0-.51,0-.76s0-.31.05-.46v0a9.77,9.77,0,0,1,1.25-3.74h0a2.93,2.93,0,0,1,.28-.44l.22-.34.07-.09.29-.39a5.51,5.51,0,0,1,.45-.51c.13-.14.26-.28.4-.41a9.81,9.81,0,0,1,2.08-1.55c.16-.09.32-.18.49-.26l.51-.23.52-.2a1.77,1.77,0,0,1,.3-.1,2.62,2.62,0,0,1,.4-.12A9.41,9.41,0,0,1,587.47,7l.44-.06.58-.05.59,0q.38,0,.75,0a3.91,3.91,0,0,1,.48.05h.06l.34.05a9.55,9.55,0,0,1,3,1,2.49,2.49,0,0,1,.28.15l.54.32,0,0a6.18,6.18,0,0,1,.53.36,0,0,0,0,0,0,0h0l.07.05a10.11,10.11,0,0,1,3.58,5.24A9.87,9.87,0,0,1,599.15,16.89Z"/><path d="M587.37,17.07a6.11,6.11,0,0,1-.63,2.71,6.06,6.06,0,0,1-5.22,3.37h-.29a2.89,2.89,0,0,1-.22-.3,8.43,8.43,0,0,1-.64-1h0a9.56,9.56,0,0,1-.93-2.18,9.15,9.15,0,0,1-.32-1.57,9.92,9.92,0,0,1-.08-1.23c0-.25,0-.51,0-.76s0-.31.05-.46v0a9.77,9.77,0,0,1,1.25-3.74h0a2.93,2.93,0,0,1,.28-.44l.28-.42h0a1.83,1.83,0,0,1,.33,0h.17a5.6,5.6,0,0,1,1.09.12,6.11,6.11,0,0,1,4.6,4.24A6,6,0,0,1,587.37,17.07Z"/><path class="cls-3" d="M582.66,17.59a2.31,2.31,0,0,1-3.23,2.11,9.15,9.15,0,0,1-.32-1.57,9.92,9.92,0,0,1-.08-1.23c0-.25,0-.51,0-.76s0-.31.05-.46v0a2.28,2.28,0,0,1,1.24-.36,2.36,2.36,0,0,1,1.29.39A2.32,2.32,0,0,1,582.66,17.59Z"/><path d="M598.15,21.24v0a1.1,1.1,0,0,0-.07.13l-.06.12a10,10,0,0,1-3.45,3.78l0,0c-.21.14-.44.27-.66.39a10.09,10.09,0,0,1-12.65-2.55,2.89,2.89,0,0,1-.22-.3,8.43,8.43,0,0,1-.64-1h0a21.83,21.83,0,0,0,2.83,1c3.51.94,9.65,1.79,14.94-1.6Z"/><path d="M599.15,16.89c0,.19,0,.39,0,.58a.45.45,0,0,1,0,.11,18.88,18.88,0,0,0-7.32-6.35,10.85,10.85,0,0,0-5.31-.92,10,10,0,0,0-1.21.16c-.75.14-1.45.3-2.06.46l-.67.19h0c-.73.22-1.31.43-1.68.58h0l-.46.18h0a2.93,2.93,0,0,1,.28-.44l.22-.34.07-.09.29-.39a5.51,5.51,0,0,1,.45-.51c.13-.14.26-.28.4-.41a9.81,9.81,0,0,1,2.08-1.55c.16-.09.32-.18.49-.26l.51-.23.52-.2a1.77,1.77,0,0,1,.3-.1,2.62,2.62,0,0,1,.4-.12A9.41,9.41,0,0,1,587.47,7l.44-.06.58-.05.59,0q.38,0,.75,0a3.91,3.91,0,0,1,.48.05h.06l.34.05a9.55,9.55,0,0,1,3,1,2.49,2.49,0,0,1,.28.15l.54.32,0,0,.5.36h.05l.07.05a10.11,10.11,0,0,1,3.58,5.24A9.87,9.87,0,0,1,599.15,16.89Z"/><path d="M599.13,17.47c0-.19,0-.39,0-.58a9.87,9.87,0,0,0-.38-2.74l-.15-.11c-.08-.3-.14-.59-.24-.91l-1.72-.47-3.59-2.54-6-1h-4L581.44,11h0l-.59.7h0a27.15,27.15,0,0,0-1.72,3.93v0a2,2,0,0,0-.08.47h0c.18,0,1.12-.26,2.58-.45a34.22,34.22,0,0,1,5.49-.31A30.53,30.53,0,0,1,593,16a11.58,11.58,0,0,1-.17,3.49,32.4,32.4,0,0,1-6.05.24,26.29,26.29,0,0,1-4.64-.68,22.64,22.64,0,0,1-3-1,9.15,9.15,0,0,0,.32,1.57,9.56,9.56,0,0,0,.93,2.18h0a8.43,8.43,0,0,0,.64,1l.51.29,4.28,2.4,6.08.37,2-.21c.22-.12.45-.25.66-.39l0,0A10,10,0,0,0,598,21.51l.06-.12a1.1,1.1,0,0,1,.07-.13v0a9.94,9.94,0,0,0,.89-3,0,0,0,0,0,0,0,.3.3,0,0,0,.07-.08V18.1l-.06,0a4.54,4.54,0,0,0,.05-.53A.45.45,0,0,0,599.13,17.47Z"/></g></g></svg>