<svg xmlns="http://www.w3.org/2000/svg" viewBox="0 0 2000 225"><defs><style>.cls-1{fill:none;}.cls-2{fill:#f2eee9;}.cls-3{fill:#fff;}</style></defs><title>elmus-sprite-swim_13</title><g id="Calque_2" data-name="Calque 2"><g id="Personnage_forme" data-name="Personnage forme"><path d="M116.34,220.79l2.14-11.58L120,201.3a4.8,4.8,0,0,1,1.62-2.8,4.65,4.65,0,0,1,3-1.1H125a4.73,4.73,0,0,1,4.63,3.91l1.48,8A255.7,255.7,0,0,0,145.2,169c0-.6-.06-1.12-.09-1.56-.08-1-.15-1.56-.15-1.56l-20.1,11.71-20.22-11.71S101.2,191.61,116.34,220.79Z"/><path d="M104.29,164.75c0,9,9.14,16.28,20.42,16.28s20.42-7.29,20.42-16.28a14.12,14.12,0,0,0-3.83-9.49h.13c-22.24-20.44-10.1-39.64-5.84-45.06.77-1,1.29-1.51,1.29-1.51s-3.75-3-12.07-3.23h-.1c-.82,0-1.59,0-2.33,0-5.6.32-8.67,2.3-9.57,3h0l.25.28.56.64.23.27.11.13.1.11.09.11,0,.06c1.51,1.79,2.41,3,2.61,3.32l0,0v0c14.45,19.7-8.86,41.83-8.86,41.83h.13A14.12,14.12,0,0,0,104.29,164.75Z"/><path d="M82.79,85.73c0,.51,0,1,0,1.54,0,.12,0,.25,0,.37a1,1,0,0,0,.39.76,1,1,0,0,0,.38.16l.23.06c10.62,2.62,20.56,11.72,20.56,11.72l0,0,.23.19.35.29.32.27.54.47.11.1.29.25.56.5.9.83.14.13.53.5.12.12.46.44.19.18.39.39.25.26.31.31.52.53,0,0,.55.58.1.1.43.46.12.13.4.43.11.12.38.42,0,.06.11.13.3.34.11.13.52.61.09.11.1.11.09.11,0,.06a21.48,21.48,0,0,1,8.22-2.86h.13a20.75,20.75,0,0,1,2.16-.11h.1a20.68,20.68,0,0,1,3.35.29h0l.67.13a20.8,20.8,0,0,1,7.29,3.18l.32.22.32.23,0,0,.36.27,0,0a17.22,17.22,0,0,1,2.8,2.73l.7.85c.16.22.32.44.47.66l.06.08.06.08q.21.29.43.55l.27.3,0,0,.32.31a8,8,0,0,0,4.09,2h0a7.8,7.8,0,0,0,1.37.12,7.88,7.88,0,0,0,2.09-.28,8,8,0,0,0,2.6-1.24h0a8,8,0,0,0,1.58-1.49l.06-.07q.81-.81,1.57-1.67.52-.58,1-1.18l.49-.61c.33-.41.64-.82,1-1.24h0l.51-.69q.5-.7,1-1.42l.46-.73,0,0a41.83,41.83,0,0,0,2.24-4.09l.07-.15a42.88,42.88,0,0,0,2.49-6.6l.13-.47c.17-.62.33-1.25.47-1.88q.33-1.45.56-2.94a44.16,44.16,0,0,0,.48-5.19c0-.26,0-.52,0-.78s0-.38,0-.57a43.08,43.08,0,0,0-3.25-16.55A42.38,42.38,0,0,0,132.9,43.88a54.08,54.08,0,0,0-16.11,0l-.29,0A42.51,42.51,0,0,0,82.79,85.73Z"/><path d="M104.63,167.51s3.6,18.39,13.86,41.7q1.77,4,3.81,8.23a2.79,2.79,0,0,0,5,0c1.34-2.75,2.6-5.47,3.78-8.12a266.19,266.19,0,0,0,12.08-32.94c1-3.28,1.61-5.82,2-7.4v0c0-.56.08-1.11.11-1.66l-.21.12L139,171l-14.16,8.25Z"/><path d="M82.92,82.4s-4.35,27.15,30.27,26.6l5.54-1Z"/><path d="M144.9,162.29s1.27,6.09-.75,10.68l-3.92-7.53Z"/><path d="M78.18,39.71H76.79a69.35,69.35,0,0,1,1.4-10.19s3.25-14,20-15.42c0,0,23-2.2,28.94,24.23,0,0,.81,5,4.64,6.77.11.05-17.62-.16-17.62-.16,4.06-2.48,3.92-5.34,4.33-7.43,3.52-17.9-16.23-19-16.23-19s-14.33-1.38-20,9.64A49.08,49.08,0,0,0,78.18,39.71Z"/><path d="M109.76,153.61A38.59,38.59,0,0,0,104.53,172a60.55,60.55,0,0,1-2.79,16.47l-.28.89-.08.27h-.21l-.48,0c0-.08,0-.16,0-.23C97.4,163.7,109.76,153.61,109.76,153.61Z"/><path d="M101.46,189.63s.31,1.58.07,1.66-.5-1.66-.5-1.66Z"/><path d="M100.66,189.63s-.31,1.58-.07,1.66.5-1.66.5-1.66Z"/><rect class="cls-1" x="333.27" y="0.23" width="166.64" height="224.64" transform="translate(833.18 225.11) rotate(-180)"/><path d="M430.87,214.4l3.74-11.16,2.55-7.63a4.78,4.78,0,0,1,2-2.54,4.64,4.64,0,0,1,3.13-.67l.42.06a4.75,4.75,0,0,1,4,4.53l.35,8.15a255,255,0,0,0,19.58-37.94c.06-.6.1-1.12.12-1.55.07-1,.07-1.56.07-1.56l-21.54,8.73-18.39-14.46S420,183.35,430.87,214.4Z"/><path d="M426.77,157.21c-1.26,8.9,6.78,17.42,17.94,19s21.23-4.31,22.49-13.22a14.15,14.15,0,0,0-2.47-9.94l.13,0c-19.17-23.4-4.46-40.68.52-45.44.9-.87,1.49-1.32,1.49-1.32s-3.3-3.5-11.5-4.92l-.1,0c-.81-.14-1.58-.23-2.31-.3-5.59-.47-8.91,1-9.89,1.59h0l.21.31.47.71.19.3.09.14.08.13.08.12,0,.06c1.24,2,2,3.34,2.12,3.65l0,0v0c11.56,21.56-14.62,40.15-14.62,40.15l.13,0A14.08,14.08,0,0,0,426.77,157.21Z"/><path d="M499.86,83.81c0,1-.14,2.09-.27,3.15-.09.72-.19,1.45-.32,2.17,0,.19-.06.38-.1.56l-.15.76q-.22,1.1-.51,2.17c-.24,1-.52,1.92-.83,2.86-.17.52-.36,1-.55,1.54-.08.22-.16.43-.25.64s-.16.42-.25.62c-.25.59-.51,1.19-.78,1.77l-.21.43a42.3,42.3,0,0,1-3.55,6.09,1.13,1.13,0,0,1-.1.13,44.42,44.42,0,0,1-2.88,3.65l0,0-.58.63c-.39.42-.79.84-1.19,1.24-.21.2-.41.4-.62.59h0c-.38.35-.76.71-1.15,1.06l-.59.51c-.4.34-.8.66-1.21,1-.6.47-1.21.93-1.83,1.37l-.07.06a8.35,8.35,0,0,1-1.81,1.21,8,8,0,0,1-2.78.79,8.18,8.18,0,0,1-2.1-.08,8.43,8.43,0,0,1-1.34-.35h0a7.94,7.94,0,0,1-3.69-2.7l-.26-.36,0,0-.21-.34c-.12-.2-.23-.4-.34-.61l0-.09,0-.08c-.11-.25-.23-.49-.35-.73l-.55-1a17.46,17.46,0,0,0-2.31-3.17l0,0c-.09-.11-.2-.21-.3-.32a.08.08,0,0,0,0,0c-.09-.09-.18-.19-.28-.28l-.28-.27-.25-.23a20.61,20.61,0,0,0-6.41-4.15l-.63-.24h0a21.15,21.15,0,0,0-3.25-.86l-.11,0c-.71-.12-1.43-.2-2.15-.25h-.12a21.57,21.57,0,0,0-8.25,1.29,0,0,0,0,0,0,0l-.33.12,0-.07a.41.41,0,0,1,0-.09l0,0a.57.57,0,0,0-.08-.13.76.76,0,0,0-.07-.12c-.13-.23-.27-.45-.42-.69l-.09-.14-.24-.39-.09-.14a.21.21,0,0,0,0-.06l-.3-.48-.09-.14-.32-.49-.09-.14c-.12-.17-.24-.35-.35-.53a.81.81,0,0,1-.08-.12l-.46-.66s0,0,0,0l-.43-.6-.25-.36-.21-.3c-.11-.14-.21-.29-.32-.44l-.16-.21-.37-.51a1.13,1.13,0,0,1-.1-.13l-.44-.58-.12-.16q-.37-.47-.75-1l-.48-.58-.24-.3-.09-.11-.46-.55-.27-.32-.3-.34-.19-.23,0,0s-8.27-10.66-18.31-15.06l-.22-.09a1,1,0,0,1-.34-.22l0-.07a1,1,0,0,1-.21-.74c0-.13,0-.25,0-.37.06-.5.14-1,.23-1.52a42.4,42.4,0,0,1,38.74-35.46c.5,0,1-.06,1.5-.07h.29A53.73,53.73,0,0,1,469.71,41c1.12.29,2.24.62,3.33,1a42.32,42.32,0,0,1,24,24.36l.07.19c.31.81.59,1.61.84,2.44a1.89,1.89,0,0,1,.07.22c.31,1,.59,2,.82,3v.11a40.31,40.31,0,0,1,.8,4.79v.12q.16,1.52.21,3.08C499.92,81.51,499.92,82.66,499.86,83.81Z"/><path d="M426.71,160s1,18.72,7.9,43.26q1.19,4.24,2.62,8.69a2.79,2.79,0,0,0,5,.72c1.71-2.54,3.34-5,4.88-7.5a265.47,265.47,0,0,0,16.56-30.9c1.4-3.12,2.41-5.53,3-7v0l.34-1.63-.23.09-6.53,2.65-15.17,6.15Z"/><path d="M417,74.7s-6.83,26.63,27.7,29.31l5.6-.46Z"/><path d="M467.32,160.54s.41,6.21-2.24,10.47l-2.83-8Z"/><path d="M466.66,35.26a4,4,0,0,1-.07-.43,41.22,41.22,0,0,0-1.94-7.34,29.45,29.45,0,0,0-5.28-9.11l0,0h0c-11.22-10.3-29.71-2.68-29.71-2.68a33,33,0,0,0-11.46,7.74,29.06,29.06,0,0,0-4,5c.9-.25,2-.62,3.1-1s2.14-.8,3-1.15c1.29-.51,2.21-.89,2.21-.89,26.13-19.45,34.8-2.59,35.45-1.23l0,.06a16.58,16.58,0,0,1,0,9.33c-.51,2.07-.52,4.93-4.7,7.2,0,0,17.7,1.13,17.59,1.08C467.82,40.17,466.89,36.5,466.66,35.26Z"/><path d="M433.39,147.36c-4,6.91-7.85,17.44-8,22.14-.16,5.6-3.35,13.63-5,19l-.28.89-.08.27h-.21l-.48,0c0-.08,0-.16,0-.23C416,163.7,433.39,147.36,433.39,147.36Z"/><path d="M420.1,189.63s.31,1.58.07,1.66-.5-1.66-.5-1.66Z"/><path d="M419.3,189.63s-.31,1.58-.07,1.66.5-1.66.5-1.66Z"/><path d="M272.81,215.9l3-11.38,2.06-7.78a4.79,4.79,0,0,1,1.83-2.67,4.64,4.64,0,0,1,3.08-.87l.42,0a4.74,4.74,0,0,1,4.32,4.25l.87,8.11a255.36,255.36,0,0,0,17.1-39.14c0-.6,0-1.12,0-1.56,0-1,0-1.56,0-1.56l-20.93,10.12-19.28-13.23S259.92,185.63,272.81,215.9Z"/><path d="M265,159.09c-.68,9,7.88,16.94,19.13,17.81s20.91-5.69,21.6-14.66a14.14,14.14,0,0,0-3.1-9.76h.13c-20.63-22.1-7.06-40.31-2.4-45.38.85-.92,1.4-1.41,1.4-1.41s-3.52-3.28-11.79-4.15h-.1c-.82-.09-1.59-.13-2.32-.14-5.6-.11-8.82,1.63-9.76,2.23h0l.22.29.51.68.21.29.1.14.09.12.09.12,0,.06c1.37,1.9,2.17,3.21,2.35,3.51l0,0v0c12.92,20.76-12,41-12,41h.13A14.1,14.1,0,0,0,265,159.09Z"/><path d="M333.27,81.07c0,1,0,2.1-.07,3.16,0,.73-.1,1.46-.18,2.19,0,.19,0,.39-.06.57l-.1.77q-.15,1.11-.37,2.2c-.18,1-.39,2-.64,2.91-.14.53-.29,1.06-.45,1.57-.07.23-.13.44-.21.66s-.13.43-.21.64c-.21.61-.43,1.22-.66,1.82l-.18.45a42.36,42.36,0,0,1-3.15,6.31,1.13,1.13,0,0,1-.09.14,44.5,44.5,0,0,1-2.64,3.83l0,0-.54.67c-.36.45-.73.89-1.11,1.31-.2.21-.38.43-.58.63h0c-.36.38-.71.76-1.08,1.13l-.55.55c-.38.37-.75.71-1.14,1.07-.57.51-1.15,1-1.73,1.49l-.07.06a8.36,8.36,0,0,1-1.72,1.32,8.05,8.05,0,0,1-2.73,1,8.18,8.18,0,0,1-2.1.06,8.42,8.42,0,0,1-1.36-.26h0a7.93,7.93,0,0,1-3.86-2.45l-.28-.34,0,0-.23-.33c-.13-.19-.26-.39-.38-.59l0-.09-.05-.08c-.13-.24-.26-.48-.4-.71l-.61-.92a17.43,17.43,0,0,0-2.5-3l0,0c-.1-.1-.21-.2-.32-.3l0,0-.3-.26-.3-.25-.26-.21a20.58,20.58,0,0,0-6.66-3.72l-.64-.2h0a21.13,21.13,0,0,0-3.3-.64h-.11c-.71-.07-1.44-.11-2.16-.11h-.12a21.58,21.58,0,0,0-8.15,1.82,0,0,0,0,0,0,0l-.32.14,0-.07a.41.41,0,0,1-.06-.09l0,0a.57.57,0,0,0-.09-.13.76.76,0,0,0-.08-.12c-.14-.22-.3-.43-.46-.67l-.1-.13-.26-.38-.1-.13,0-.06-.33-.46-.1-.13-.35-.47-.1-.13c-.13-.16-.26-.34-.38-.51l-.09-.12-.5-.63,0,0-.47-.57-.27-.35-.23-.29c-.12-.13-.23-.28-.35-.42l-.17-.2-.4-.49a1.13,1.13,0,0,1-.11-.12l-.48-.55-.13-.15-.81-.92-.52-.55-.26-.29-.1-.1-.49-.52-.29-.3-.32-.32-.2-.22,0,0s-8.94-10.1-19.24-13.83l-.22-.08a1,1,0,0,1-.35-.2l-.05-.07a1,1,0,0,1-.26-.73c0-.13,0-.25,0-.37,0-.51.07-1,.13-1.53A42.46,42.46,0,0,1,286,39.55c.5-.06,1-.13,1.49-.17h.29a53.71,53.71,0,0,1,12.62,1c1.13.22,2.27.48,3.39.78a42.25,42.25,0,0,1,25.52,22.74l.08.19c.36.78.69,1.57,1,2.38a1.89,1.89,0,0,1,.08.22c.37,1,.72,2,1,3v0l0,.08a40.29,40.29,0,0,1,1.1,4.73v.12q.26,1.51.41,3.06C333.18,78.78,333.25,79.92,333.27,81.07Z"/><path d="M265.16,161.87s2.2,18.61,10.66,42.65q1.46,4.15,3.18,8.5a2.79,2.79,0,0,0,5,.39c1.55-2.64,3-5.25,4.38-7.81a265.82,265.82,0,0,0,14.54-31.91c1.2-3.2,2.05-5.68,2.56-7.23v0c.08-.55.16-1.1.24-1.64l-.22.11L299.18,168l-14.74,7.13Z"/><path d="M250,77.4s-5.1,27,29.52,27.44l5.56-.82Z"/><path d="M305.72,159.77s.8,6.17-1.56,10.59l-3.33-7.81Z"/><path d="M297,34.79a4,4,0,0,1-.1-.42,41.18,41.18,0,0,0-2.4-7.19,29.41,29.41,0,0,0-5.86-8.75l0,0h0c-11.86-9.55-29.82-.73-29.82-.73a33.09,33.09,0,0,0-10.94,8.48,29.11,29.11,0,0,0-3.71,5.3c.88-.3,2-.75,3-1.22s2.08-.93,3-1.35c1.26-.59,2.15-1,2.15-1,24.83-21.12,34.56-4.86,35.3-3.54l0,.06a16.58,16.58,0,0,1,.64,9.31c-.38,2.1-.2,5-4.23,7.49,0,0,17.73,0,17.62-.07C298.5,39.62,297.33,36,297,34.79Z"/><path d="M271.79,147.36c-4,6.91-7.85,17.44-8,22.14-.16,5.6-3.35,13.63-5,19l-.28.89-.08.27h-.21l-.48,0c0-.08,0-.16,0-.23C254.44,163.7,271.79,147.36,271.79,147.36Z"/><path d="M258.5,189.63s.31,1.58.07,1.66-.5-1.66-.5-1.66Z"/><path d="M257.71,189.63s-.31,1.58-.07,1.66.5-1.66.5-1.66Z"/><path d="M1008.18,127.17l11.48,2.16,7.85,1.48a4.75,4.75,0,0,1,3.87,4.67v.43a4.75,4.75,0,0,1-3.87,4.67l-8,1.5a250.52,250.52,0,0,0,40,14.21l1.54-.1c1-.08,1.54-.15,1.54-.15L1051,135.74l11.6-20.4S1037.11,111.89,1008.18,127.17Z"/><path d="M1122.53,135.61v.1c-.21,7.44-2.56,11.25-3.09,12-.21-.09-.41-.2-.62-.31s-.58-.5-1-.84-.83-.64-1.34-1c-6.73-4.83-24.51-13.94-43.34,6.9v-.13a14.4,14.4,0,0,1-7,3.63,13,13,0,0,1-2.43.23,13.14,13.14,0,0,1-1.68-.11,10.29,10.29,0,0,1-1.14-.21,13.08,13.08,0,0,1-3.79-1.49c-5.63-3.21-9.54-10.42-9.54-18.78,0-9.78,5.36-18,12.53-20.08h0a9.91,9.91,0,0,1,1.23-.29,12,12,0,0,1,2.33-.22,13.87,13.87,0,0,1,9.41,3.88v-.14s18.92,20.29,37.27,11.49c.33-.15.65-.32,1-.49s.79-.43,1.18-.68c.69-.41,1.37-.88,2-1.38h0l0,0c.28-.2,1.52-1.12,3.28-2.64l.06,0,.11-.1a.53.53,0,0,0,.11-.1l.13-.11.27-.23c.2-.18.42-.36.63-.56l.28-.24q.13.18.33.48a17.78,17.78,0,0,1,2.45,7.39c.08.56.13,1.16.17,1.78S1122.55,134.79,1122.53,135.61Z"/><path d="M1134.52,141.32a19.9,19.9,0,0,1-1.37,1.49c-2.55,2.58-8.29,7.37-13.72,4.92-.21-.09-.41-.2-.62-.31a10,10,0,0,1-2.33-1.84h0l.08-11.29,1.23-4.14,1.77-5.93a2.5,2.5,0,0,1,.32-.11C1121.81,123.48,1131.82,121.34,1134.52,141.32Z"/><path d="M1083.88,99.36c-.13.5-.24,1-.35,1.5l-.08.36a1,1,0,0,0,.19.83,1,1,0,0,0,.32.25l.21.11c9.65,5.18,17.07,16.47,17.07,16.47l0,0,.18.24.27.37.24.34.41.59.09.12.22.31.42.63.67,1,.11.16.39.62.09.14.34.54.14.22.29.47.18.31.23.38.37.64,0,0,.4.7.07.13.31.56.08.15.28.52.08.14.27.51,0,.07.08.15.21.41.08.15.36.72.06.13.07.13.06.13,0,.07a21.43,21.43,0,0,1,8.67-.73h.13a20.77,20.77,0,0,1,2.12.43l.1,0a20.73,20.73,0,0,1,3.18,1.11h0l.62.29a20.92,20.92,0,0,1,6.29,4.9l.25.29.25.3,0,0,.28.35,0,0a17.33,17.33,0,0,1,2.05,3.34l.47,1c.11.25.2.5.3.76l0,.09,0,.09q.13.33.28.64l.19.36,0,0,.23.38a8,8,0,0,0,3.46,3h0a7.91,7.91,0,0,0,3.39.71,8,8,0,0,0,2.83-.56h0a8,8,0,0,0,1.89-1.05l.07-.05q1-.59,1.93-1.23.65-.44,1.28-.89l.63-.46c.42-.31.82-.64,1.23-1h0l.66-.55q.65-.55,1.28-1.13l.63-.59,0,0a41.57,41.57,0,0,0,3.17-3.41l.11-.13a42.66,42.66,0,0,0,4-5.78l.24-.42c.32-.56.62-1.13.91-1.7q.67-1.33,1.26-2.71a44,44,0,0,0,1.73-4.91l.21-.75.15-.55a43.11,43.11,0,0,0,.89-16.85,42.63,42.63,0,0,0-23.34-32.22,54.16,54.16,0,0,0-15.6-4l-.29,0A42.28,42.28,0,0,0,1083.88,99.36Z"/><path d="M1061,115.35s-18.23,3.63-41.34,14q-4,1.78-8.16,3.84a2.84,2.84,0,0,0,0,5.08c2.73,1.35,5.42,2.62,8.05,3.81a261,261,0,0,0,32.66,12.18c3.26,1,5.77,1.63,7.34,2h0l1.64.11-.12-.21-3.52-6.15-8.18-14.28Z"/><path d="M1084.82,96.16s-10.84,25.23,22.85,33.29l5.6.43Z"/><path d="M1066.18,156s-6,1.28-10.59-.76l7.46-4Z"/><path d="M1008.54,144.11,1020,142l7.85-1.48a4.75,4.75,0,0,0,3.87-4.67v-.43a4.75,4.75,0,0,0-3.87-4.67l-8-1.5a250.52,250.52,0,0,1,40-14.21l1.54.1c1,.08,1.54.15,1.54.15l-11.6,20.28,11.6,20.4S1037.48,159.39,1008.54,144.11Z"/><path d="M1150.87,71.63a4,4,0,0,1,.11-.42,41.26,41.26,0,0,0,1.26-7.48,29.64,29.64,0,0,0-1.06-10.5.13.13,0,0,0,0,0h0c-4.07-9.61-14.68-13-21-14.24h0c-.78-.15-1.5-.27-2.13-.35-3-.54-8.4-1.7-11.19-3.39l.13.12a74.07,74.07,0,0,1-15.8-11.14c.69,1,4.46,5,4.46,5a52.51,52.51,0,0,0,13.11,9.41,43.47,43.47,0,0,0,12.42,4.29c15.7,1.78,16.29,13.76,16.31,15v.07a16.51,16.51,0,0,1-3.81,8.51c-1.32,1.67-2.5,4.27-7.24,4.58,0,0,15.63,8.44,15.56,8.35C1149.9,76.59,1150.57,72.85,1150.87,71.63Z"/><rect class="cls-1" x="999.82" y="0.26" width="166.66" height="224.64" transform="translate(2166.31 225.15) rotate(-180)"/><path d="M725.24,131.78c-7.88,1.16-18.39,4.77-22.1,7.62-4.42,3.39-12.63,5.92-17.8,7.94l-.87.34-.26.1-.13-.16c-.11-.14-.21-.28-.29-.39l.16-.17C701.74,128.4,725.24,131.78,725.24,131.78Z"/><path d="M684.26,147.85s-1,1.23-1.24,1.1,1-1.43,1-1.43Z"/><path d="M683.76,147.23s-1.41.74-1.33,1,1.59-.65,1.59-.65Z"/><path d="M675.89,172.86l11-4.06,7.49-2.78a4.7,4.7,0,0,1,5.69,2l.22.37a4.79,4.79,0,0,1-1,6l-6.08,5.39a250.1,250.1,0,0,0,41.58-8.42c.5-.33.93-.63,1.28-.88.82-.58,1.25-.92,1.25-.92l-20.25-11.44-.37-23.52S693,144.81,675.89,172.86Z"/><path d="M717.47,133.76c-7.66,4.6-9.2,16.25-3.43,26s16.65,14,24.31,9.38a14,14,0,0,0,6.13-8.17l.07.11c6-29.73,28.61-29,35.41-28.1,1.24.17,1.95.34,1.95.34s.63-4.79-3.42-12.12l-.05-.09c-.4-.72-.81-1.39-1.22-2-3.14-4.69-6.39-6.34-7.43-6.77h0l-.11.35-.26.81-.11.34-.05.16a1.27,1.27,0,0,1,0,.14l0,.14,0,.07c-.75,2.22-1.35,3.64-1.49,4l0,.05v0c-9.4,22.6-40.17,13.7-40.17,13.7l.07.11A13.83,13.83,0,0,0,717.47,133.76Z"/><path d="M823.77,122.35c-.39,1-.82,1.93-1.3,2.88-.32.65-.66,1.3-1,1.94-.09.17-.18.34-.28.5l-.39.67q-.58,1-1.2,1.88c-.55.83-1.12,1.64-1.73,2.42-.33.44-.68.86-1,1.27-.15.18-.29.35-.45.52s-.29.34-.44.5c-.43.48-.87.95-1.32,1.41l-.34.34a41.94,41.94,0,0,1-5.36,4.55l-.14.09a44,44,0,0,1-3.93,2.47l0,0-.76.4c-.51.27-1,.52-1.53.77l-.78.35h0c-.47.2-1,.42-1.43.61l-.72.29c-.49.19-1,.36-1.47.53-.72.24-1.44.47-2.17.68l-.09,0a8.3,8.3,0,0,1-2.1.53,8,8,0,0,1-2.88-.2,8.21,8.21,0,0,1-1.95-.78,8.48,8.48,0,0,1-1.14-.78h0a8,8,0,0,1-2.59-3.79c0-.14-.09-.29-.12-.43l0,0-.08-.39c0-.23-.08-.46-.12-.69,0,0,0-.07,0-.1l0-.09c0-.27-.05-.54-.09-.81l-.2-1.09a17.58,17.58,0,0,0-1.12-3.76l0,0c0-.13-.12-.27-.18-.4a.08.08,0,0,0,0-.05c-.05-.12-.11-.24-.17-.36s-.11-.23-.17-.35-.11-.21-.16-.3a20.79,20.79,0,0,0-4.67-6.06l-.51-.44h0l0,0a21.29,21.29,0,0,0-2.78-1.9l-.1-.06c-.63-.35-1.28-.67-1.94-1l0,0h0l-.07,0a21.59,21.59,0,0,0-8.21-1.56H764v-.08a.41.41,0,0,1,0-.1s0,0,0,0a.58.58,0,0,0,0-.15.76.76,0,0,0,0-.14c0-.26-.1-.52-.17-.8a1.65,1.65,0,0,1,0-.16c0-.14-.06-.3-.1-.45s0-.11,0-.16a.21.21,0,0,0,0-.07l-.12-.56s0-.11,0-.16-.09-.37-.14-.57l0-.16c-.06-.2-.11-.41-.15-.62a.82.82,0,0,1,0-.14c-.07-.25-.14-.51-.21-.78,0,0,0,0,0,0-.07-.24-.13-.47-.2-.71s-.07-.28-.12-.43l-.1-.36c-.06-.17-.1-.35-.15-.52s0-.17-.08-.25l-.18-.61a1.14,1.14,0,0,1-.05-.16c-.08-.23-.14-.47-.22-.7,0-.06,0-.12-.06-.19q-.2-.57-.39-1.16l-.26-.71-.13-.37a1,1,0,0,1,0-.13l-.25-.68-.15-.39-.17-.42c0-.09-.07-.19-.1-.28l0,0s-4.27-12.83-12.28-20.36l-.18-.16a1,1,0,0,1-.25-.32.3.3,0,0,1,0-.08,1,1,0,0,1,0-.77l.17-.33c.22-.45.47-.91.72-1.36a42.11,42.11,0,0,1,48.24-20.4c.48.14,1,.28,1.43.44l.27.11a54,54,0,0,1,11.22,5.91c1,.65,1.9,1.34,2.81,2.06a42.64,42.64,0,0,1,14.58,31c0,.06,0,.14,0,.2,0,.86,0,1.72,0,2.58a1.89,1.89,0,0,1,0,.23c0,1.05-.11,2.11-.24,3.15v0l0,.08a40.31,40.31,0,0,1-.83,4.79v.07l0,0q-.35,1.49-.82,3C824.59,120.2,824.21,121.28,823.77,122.35Z"/><path d="M715.29,135.46S701.47,148,686.85,168.8q-2.53,3.59-5.06,7.51a2.82,2.82,0,0,0,2.57,4.37c3-.24,6-.54,8.85-.88a260.39,260.39,0,0,0,34.24-6.37c3.29-.85,5.79-1.58,7.33-2h0l1.47-.75-.21-.12L729.93,167,715.66,159Z"/><path d="M748.67,85.89s-15.24,22.8,16.42,37l5.43,1.45Z"/><path d="M740.33,167.71s-4.54,4.22-9.49,4.81l4.41-7.24Z"/><path d="M824.68,84.59a3.91,3.91,0,0,1,.29-.32,40.92,40.92,0,0,0,4.45-6.12,29.55,29.55,0,0,0,3.72-9.87v0h0c.92-15.28-16.56-25-16.56-25a32.85,32.85,0,0,0-13.17-4.15,28.6,28.6,0,0,0-6.43,0c.76.55,1.73,1.18,2.73,1.8s2,1.18,2.79,1.66c1.2.7,2.08,1.18,2.08,1.18C836,52,828.42,69.41,827.77,70.77l0,.06a16.33,16.33,0,0,1-7.18,5.88c-1.92.89-4.13,2.69-8.5.82,0,0,10.22,14.61,10.2,14.5C821.61,88.58,823.87,85.55,824.68,84.59Z"/><path d="M685.11,188.74l8.53-8,5.83-5.5a4.8,4.8,0,0,0,1.47-2.89,4.74,4.74,0,0,0-.69-3.15l-.23-.36a4.7,4.7,0,0,0-5.75-1.84l-7.5,3a253.84,253.84,0,0,1,26.17-33.66c.52-.3,1-.55,1.35-.76.89-.48,1.38-.71,1.38-.71l1,23.39,20.65,10.92S717.66,185.95,685.11,188.74Z"/><path class="cls-2" d="M809.18,40.71c0,.19,0,.39,0,.58a.45.45,0,0,1,0,.11,4.55,4.55,0,0,1,0,.53.59.59,0,0,1,0,.14,9.94,9.94,0,0,1-.89,3h0v0a1.1,1.1,0,0,0-.07.13l-.06.12a10,10,0,0,1-3.44,3.78l0,0c-.21.14-.44.27-.66.39A10,10,0,0,1,791.33,47a2.89,2.89,0,0,1-.22-.3,8.42,8.42,0,0,1-.64-1h0a9.56,9.56,0,0,1-.93-2.17,9.15,9.15,0,0,1-.32-1.57,9.93,9.93,0,0,1-.08-1.23c0-.25,0-.51,0-.76s0-.31,0-.46v0a9.78,9.78,0,0,1,1.25-3.74h0a2.93,2.93,0,0,1,.28-.44l.22-.34.07-.09.29-.39a5.5,5.5,0,0,1,.45-.51c.13-.14.26-.28.4-.41A9.78,9.78,0,0,1,794.25,32c.16-.09.32-.18.49-.26l.51-.23.52-.2a1.76,1.76,0,0,1,.3-.1,2.61,2.61,0,0,1,.4-.12,9.37,9.37,0,0,1,1.08-.24l.44-.06.58-.05.59,0q.37,0,.75,0a3.89,3.89,0,0,1,.48.05h.06l.34.05a9.51,9.51,0,0,1,3,1,2.48,2.48,0,0,1,.28.15l.54.32,0,0a6.16,6.16,0,0,1,.53.36,0,0,0,0,0,0,0h0l.07.05A10.1,10.1,0,0,1,808.81,38,9.88,9.88,0,0,1,809.18,40.71Z"/><path d="M797.45,40.89A6,6,0,0,1,791.62,47h-.29a2.89,2.89,0,0,1-.22-.3,8.42,8.42,0,0,1-.64-1h0a9.56,9.56,0,0,1-.93-2.17,9.15,9.15,0,0,1-.32-1.57,9.93,9.93,0,0,1-.08-1.23c0-.25,0-.51,0-.76s0-.31,0-.46v0a9.78,9.78,0,0,1,1.25-3.74h0a2.93,2.93,0,0,1,.28-.44l.28-.42h0a1.82,1.82,0,0,1,.33,0h.17a5.57,5.57,0,0,1,1.09.12,6.1,6.1,0,0,1,4.58,4.24A6,6,0,0,1,797.45,40.89Z"/><path class="cls-3" d="M792.75,41.41a2.27,2.27,0,0,1-2.3,2.29,2.32,2.32,0,0,1-.92-.19,9.15,9.15,0,0,1-.32-1.57,9.93,9.93,0,0,1-.08-1.23c0-.25,0-.51,0-.76s0-.31,0-.46v0a2.27,2.27,0,0,1,1.24-.36,2.35,2.35,0,0,1,1.29.39A2.32,2.32,0,0,1,792.75,41.41Z"/><path d="M808.2,45.06v0a1.1,1.1,0,0,0-.07.13l-.06.12a10,10,0,0,1-3.44,3.78l0,0c-.21.14-.44.27-.66.39A10,10,0,0,1,791.33,47a2.89,2.89,0,0,1-.22-.3,8.42,8.42,0,0,1-.64-1h0a21.74,21.74,0,0,0,2.83,1c3.5.94,9.62,1.79,14.89-1.6Z"/><path d="M809.18,40.71c0,.19,0,.39,0,.58a.45.45,0,0,1,0,.11,18.84,18.84,0,0,0-7.3-6.34,10.8,10.8,0,0,0-5.29-.92,10,10,0,0,0-1.21.16c-.75.14-1.45.3-2.06.46l-.67.19h0c-.73.22-1.31.43-1.68.58h0l-.46.18h0a2.93,2.93,0,0,1,.28-.44l.22-.34.07-.09.29-.39a5.5,5.5,0,0,1,.45-.51c.13-.14.26-.28.4-.41A9.78,9.78,0,0,1,794.25,32c.16-.09.32-.18.49-.26l.51-.23.52-.2a1.76,1.76,0,0,1,.3-.1,2.61,2.61,0,0,1,.4-.12,9.37,9.37,0,0,1,1.08-.24l.44-.06.58-.05.59,0q.37,0,.75,0a3.89,3.89,0,0,1,.48.05h.06l.34.05a9.51,9.51,0,0,1,3,1,2.48,2.48,0,0,1,.28.15l.54.32,0,0,.5.36h0l.07.05A10.1,10.1,0,0,1,808.81,38,9.88,9.88,0,0,1,809.18,40.71Z"/><path d="M809.16,41.29c0-.19,0-.39,0-.58a9.88,9.88,0,0,0-.38-2.73l-.15-.11c-.08-.3-.14-.59-.24-.91l-1.72-.47L803.11,34l-6-1h-4l-1.59,1.88h0l-.59.7h0a27.15,27.15,0,0,0-1.72,3.93v0a2,2,0,0,0-.08.47h0c.18,0,1.12-.26,2.58-.45a34,34,0,0,1,5.47-.31,30.38,30.38,0,0,1,5.82.68,11.59,11.59,0,0,1-.17,3.49,32.24,32.24,0,0,1-6,.24,26.16,26.16,0,0,1-4.62-.68,22.54,22.54,0,0,1-3-1,9.15,9.15,0,0,0,.32,1.57,9.56,9.56,0,0,0,.93,2.17h0a8.42,8.42,0,0,0,.64,1l.51.29,4.26,2.39,6.06.37,2-.21c.22-.12.45-.25.66-.39l0,0a10,10,0,0,0,3.44-3.78l.06-.12a1.1,1.1,0,0,1,.07-.13v0a9.94,9.94,0,0,0,.89-3,0,0,0,0,0,0,0,.3.3,0,0,0,.07-.08v-.09l-.06,0a4.55,4.55,0,0,0,0-.53A.45.45,0,0,0,809.16,41.29Z"/><rect class="cls-1" x="666.54" y="0.26" width="166.64" height="224.64" transform="translate(1499.72 225.16) rotate(-180)"/><path d="M833.18,145.07l11.59-.52,7.93-.35a4.71,4.71,0,0,1,4.79,3.66l.09.41a4.78,4.78,0,0,1-2.71,5.43L847.51,157a246.81,246.81,0,0,0,41.88,4.7c.57-.16,1.06-.32,1.47-.45,1-.3,1.46-.5,1.46-.5l-15.75-17.1,6.68-22.52S857.78,123.58,833.18,145.07Z"/><path d="M884.24,120.54c-8.63,2-13.57,12.67-11,23.75s11.59,18.41,20.22,16.38a13.85,13.85,0,0,0,8.25-5.91l0,.13c14.61-26.48,35.77-18.9,41.93-15.94,1.12.54,1.74.92,1.74.92s2-4.37.39-12.59l0-.1c-.16-.81-.35-1.57-.56-2.28-1.57-5.42-4.16-8-5-8.73h0l-.21.3-.49.69-.21.29-.1.14-.09.12-.08.12,0,.06c-1.38,1.88-2.37,3.05-2.59,3.32l0,0h0c-15.65,18.66-42.13.76-42.13.76l0,.13A13.67,13.67,0,0,0,884.24,120.54Z"/><path d="M990.73,120.48c-.41,1-.85,1.91-1.34,2.85-.33.65-.68,1.29-1,1.92-.09.17-.19.34-.29.49l-.4.66q-.59,1-1.23,1.86c-.56.82-1.15,1.62-1.76,2.38-.34.43-.69.84-1,1.25-.15.18-.3.35-.45.51s-.29.34-.45.5c-.44.47-.88.93-1.34,1.38l-.34.33a41.71,41.71,0,0,1-5.41,4.44l-.14.09a43.69,43.69,0,0,1-3.95,2.4l0,0-.76.39c-.51.26-1,.5-1.53.74l-.78.34h0c-.47.2-1,.4-1.43.58l-.73.27c-.49.18-1,.34-1.47.51-.72.23-1.44.44-2.17.64l-.09,0a8.2,8.2,0,0,1-2.1.49,7.93,7.93,0,0,1-2.86-.25,8.13,8.13,0,0,1-1.92-.82,8.44,8.44,0,0,1-1.12-.8h0a8,8,0,0,1-2.5-3.83c0-.15-.08-.29-.12-.43l0,0-.08-.39c0-.23-.07-.46-.1-.7,0,0,0-.07,0-.1l0-.09c0-.27,0-.54-.07-.81l-.18-1.09a17.67,17.67,0,0,0-1-3.78l0,0c0-.14-.11-.27-.17-.41a.08.08,0,0,0,0-.05c-.05-.12-.1-.24-.16-.36s-.1-.23-.17-.35-.1-.21-.15-.31a20.79,20.79,0,0,0-4.53-6.15l-.5-.45h0l0,0a21.16,21.16,0,0,0-2.73-2l-.1-.06c-.62-.36-1.26-.69-1.91-1l0,0h0l-.06,0a21.34,21.34,0,0,0-8.12-1.72h-.36v-.08a.41.41,0,0,1,0-.1s0,0,0,0a.58.58,0,0,0,0-.15.77.77,0,0,0,0-.14c0-.26-.09-.52-.15-.8a1.66,1.66,0,0,1,0-.16c0-.14-.06-.3-.09-.45s0-.11,0-.16a.21.21,0,0,0,0-.07l-.11-.56s0-.11,0-.16-.08-.38-.13-.57l0-.16c-.05-.2-.1-.41-.14-.62a.82.82,0,0,1,0-.14c-.07-.25-.13-.51-.2-.78,0,0,0,0,0,0-.06-.24-.12-.48-.19-.72s-.06-.28-.11-.43l-.09-.36c-.05-.17-.09-.35-.14-.53s0-.17-.08-.25-.11-.41-.17-.61a1.14,1.14,0,0,1,0-.16c-.07-.23-.13-.47-.21-.7,0-.06,0-.12-.06-.19q-.19-.57-.36-1.17l-.24-.72-.12-.37a1,1,0,0,1,0-.14l-.24-.68-.14-.4-.16-.43c0-.09-.07-.19-.1-.28l0,0s-4-12.91-11.83-20.58l-.17-.16a1,1,0,0,1-.24-.33.3.3,0,0,1,0-.08,1,1,0,0,1,.06-.77l.18-.33c.23-.45.48-.9.74-1.34A41.72,41.72,0,0,1,964.74,63c.47.15.95.3,1.42.46l.27.11a53.58,53.58,0,0,1,11,6.11c.94.67,1.86,1.38,2.76,2.11a42.78,42.78,0,0,1,13.92,31.31c0,.06,0,.14,0,.2,0,.86,0,1.72-.06,2.58a1.9,1.9,0,0,1,0,.23c-.06,1.05-.15,2.1-.29,3.15v0l0,.08a40.53,40.53,0,0,1-.91,4.77l0,.07,0,0q-.37,1.49-.87,3C991.58,118.35,991.18,119.42,990.73,120.48Z"/><path d="M881.67,121.49s-16.84,7.7-36.9,23.06q-3.47,2.65-7,5.61a2.84,2.84,0,0,0,1.13,4.95c2.94.69,5.83,1.32,8.64,1.87a257.06,257.06,0,0,0,34.33,4.41c3.37.19,5.95.27,7.56.3h0l1.62-.27-.17-.18-4.78-5.18L875,144Z"/><path d="M916.78,82.62s-15.56,22.51,15.64,37.25l5.37,1.56Z"/><path d="M895.74,159.88s-5.56,2.63-10.42,1.68l6.34-5.55Z"/><path d="M940.51,137.64s10.72,6.7,14.69,3.68l-5-24.16-9.92,4Z"/><path d="M991.94,78.65a3.91,3.91,0,0,1,.27-.33,41,41,0,0,0,4.22-6.27,29.7,29.7,0,0,0,3.38-10v0h0c.42-15.3-17.26-24.46-17.26-24.46a32.46,32.46,0,0,0-13.21-3.71,28.24,28.24,0,0,0-6.39.2c.77.53,1.76,1.12,2.77,1.7s2,1.11,2.83,1.57c1.22.66,2.1,1.11,2.1,1.11,31.47,7.28,24.5,24.91,23.9,26.3l0,.06a16.28,16.28,0,0,1-6.94,6.12c-1.88,1-4,2.82-8.42,1.1,0,0,10.63,14.27,10.6,14.15C989,82.74,991.16,79.63,991.94,78.65Z"/><path d="M838.8,161.56l10.55-4.91,7.21-3.36a4.79,4.79,0,0,0,2.62-5.48l-.1-.41a4.7,4.7,0,0,0-4.85-3.58l-8,.5a250,250,0,0,1,35.15-23.58l1.51-.29c1-.17,1.52-.23,1.52-.23l-6.33,22.52,16.07,16.94S870.35,169.29,838.8,161.56Z"/><rect class="cls-1" x="833.19" y="0.28" width="166.64" height="224.64" transform="translate(1833.01 225.2) rotate(-180)"/><path d="M973.84,35.85A10,10,0,0,1,956,42.08a10,10,0,0,1-1.43-2.43v0l-.1-.27-.09-.25c0-.14-.1-.28-.13-.41a10,10,0,0,1,9.62-12.85h.45a10,10,0,0,1,9.58,10Z"/><path d="M554.45,206.8l7.27-9.22,5-6.3a4.74,4.74,0,0,1,2.74-1.71,4.63,4.63,0,0,1,3.17.45l.37.2a4.78,4.78,0,0,1,2.27,5.64l-2.42,7.79a252.89,252.89,0,0,0,31.19-29c.26-.55.47-1,.64-1.42.4-.93.59-1.44.59-1.44l-23.2.83-12.42-19.9S554.63,173.85,554.45,206.8Z"/><path d="M569.85,151.6c-4.18,7.94.51,18.71,10.47,24s21.42,3.22,25.6-4.72a14.17,14.17,0,0,0,1-10.2l.12.06c-10.15-28.58,9.51-39.79,15.79-42.56,1.14-.5,1.84-.73,1.84-.73s-1.92-4.42-9.16-8.56l-.09-.05c-.71-.41-1.4-.76-2.07-1.07-5.09-2.36-8.73-2.07-9.83-1.89h0l.09.36.2.83.08.35,0,.17a1.27,1.27,0,0,1,0,.15l0,.14,0,.07c.5,2.29.72,3.82.76,4.16a.43.43,0,0,0,0,.05v0c3.61,24.24-27.27,32.76-27.27,32.76l.12.06A14,14,0,0,0,569.85,151.6Z"/><path d="M663.31,107.6c-.4,1-.84,1.92-1.31,2.87-.33.65-.67,1.3-1,1.94-.09.17-.19.34-.28.5l-.4.67q-.58,1-1.21,1.87c-.55.83-1.14,1.63-1.74,2.4-.34.43-.69.85-1,1.26-.15.18-.3.35-.45.52s-.29.34-.44.5c-.43.47-.88.94-1.33,1.4l-.34.34a41.93,41.93,0,0,1-5.39,4.51l-.14.09a44,44,0,0,1-3.94,2.45l0,0-.76.4c-.51.26-1,.52-1.53.76l-.78.35h0c-.48.2-1,.41-1.44.6l-.73.28c-.49.19-1,.35-1.47.52-.72.24-1.45.46-2.18.66l-.09,0a8.29,8.29,0,0,1-2.11.52,8,8,0,0,1-2.88-.22,8.21,8.21,0,0,1-1.94-.79,8.49,8.49,0,0,1-1.14-.79h0a8,8,0,0,1-2.56-3.8c0-.14-.09-.29-.12-.43l0,0-.08-.39c0-.23-.08-.46-.11-.69,0,0,0-.07,0-.1l0-.09c0-.27,0-.54-.08-.81L624,123.8a17.58,17.58,0,0,0-1.1-3.77l0,0c0-.13-.12-.27-.17-.41a.08.08,0,0,0,0-.05c-.05-.12-.1-.24-.17-.36s-.11-.23-.17-.35-.11-.21-.16-.3a20.79,20.79,0,0,0-4.63-6.1L617,112h0l0,0a21.29,21.29,0,0,0-2.77-1.92l-.1-.06c-.63-.36-1.27-.68-1.93-1l0,0h0l-.07,0a21.59,21.59,0,0,0-8.2-1.62h-.36v-.08a.41.41,0,0,1,0-.1s0,0,0,0a.58.58,0,0,0,0-.15.76.76,0,0,0,0-.14c0-.26-.1-.52-.16-.8a1.65,1.65,0,0,1,0-.16c0-.14-.06-.3-.09-.45s0-.11,0-.16a.21.21,0,0,0,0-.07l-.12-.56s0-.11,0-.16-.09-.37-.13-.57l0-.16c-.05-.2-.11-.41-.15-.62a.82.82,0,0,1,0-.14c-.07-.25-.14-.51-.21-.78,0,0,0,0,0,0-.06-.24-.13-.47-.2-.72s-.07-.28-.11-.43l-.1-.36c-.06-.17-.1-.35-.15-.53s0-.17-.08-.25-.12-.41-.17-.61a1.14,1.14,0,0,1,0-.16c-.08-.23-.14-.47-.22-.7,0-.06,0-.12-.06-.19q-.19-.57-.38-1.17l-.25-.71-.12-.37a1,1,0,0,1,0-.13l-.25-.68-.14-.4-.17-.42c0-.09-.07-.19-.1-.28l0,0s-4.19-12.86-12.15-20.44l-.18-.16a1,1,0,0,1-.24-.32.3.3,0,0,1,0-.08,1,1,0,0,1,.05-.77l.17-.33c.23-.45.47-.91.73-1.35a42.11,42.11,0,0,1,48.37-20.08c.48.14,1,.29,1.43.45l.27.11a54,54,0,0,1,11.18,6c1,.66,1.89,1.35,2.8,2.08a42.65,42.65,0,0,1,14.38,31.13c0,.06,0,.14,0,.2,0,.86,0,1.72,0,2.58a1.89,1.89,0,0,1,0,.23c0,1.05-.13,2.1-.26,3.15v0l0,.08a40.31,40.31,0,0,1-.86,4.78v.07l0,0q-.36,1.49-.84,3C664.14,105.46,663.75,106.54,663.31,107.6Z"/><path d="M568.86,154.19s-5.37,17.95-7.14,43.39q-.31,4.39-.46,9.07a2.8,2.8,0,0,0,4.45,2.38q3.7-2.7,7.11-5.39a263.21,263.21,0,0,0,26-23.39c2.37-2.45,4.13-4.38,5.21-5.59l0,0,.87-1.41h-.24l-7,.26-16.34.59Z"/><path d="M588.44,70.65s-15.39,22.7,16.18,37.06L610,109.2Z"/><path d="M606.86,168.63s-1.71,6-5.63,9.08l0-8.5Z"/><path d="M648.43,50.56a4,4,0,0,1,.08-.42,41.28,41.28,0,0,0,.65-7.56,29.62,29.62,0,0,0-1.9-10.38.13.13,0,0,0,0,0h0c-7.08-13.53-27-12.7-27-12.7a32.83,32.83,0,0,0-13.39,3.36,28.81,28.81,0,0,0-5.5,3.36c.93.08,2.09.1,3.26.1s2.28,0,3.24,0c1.39,0,2.38-.08,2.38-.08,31.13-9.34,33.6,9.49,33.76,11v.07A16.53,16.53,0,0,1,640.85,46c-1.18,1.77-2.15,4.46-6.84,5.16,0,0,16.26,7.13,16.18,7C647.87,55.59,648.23,51.81,648.43,50.56Z"/><path d="M579.39,144.6c-6.13,5.12-13.26,13.72-15,18.09-2,5.21-7.74,11.68-11.12,16.11l-.57.75-.17.22-.2-.07-.45-.18.05-.23C557.57,154,579.39,144.6,579.39,144.6Z"/><path d="M552.65,179.8s-.24,1.59-.49,1.59.09-1.73.09-1.73Z"/><path d="M551.9,179.53s-.82,1.38-.63,1.54,1-1.39,1-1.39Z"/><rect class="cls-1" x="499.91" y="0.26" width="166.64" height="224.64" transform="translate(1166.45 225.15) rotate(-180)"/><path class="cls-2" d="M613,24a10,10,0,0,1-.25,4.45h0v0a1.1,1.1,0,0,0,0,.14.67.67,0,0,0,0,.13,10,10,0,0,1-2.76,4.3l0,0a10,10,0,0,1-13.45.11,9.67,9.67,0,0,1-1.06-1.1h0a9.55,9.55,0,0,1-1.28-2,9.93,9.93,0,0,1-1-3.94,9.91,9.91,0,0,1,1-4.87A10,10,0,0,1,613,24Z"/><path d="M601.48,26.19a6.08,6.08,0,0,1-5,7h0a9.67,9.67,0,0,1-1.06-1.1v0a9.55,9.55,0,0,1-1.28-2,9.93,9.93,0,0,1-1-3.94,9.91,9.91,0,0,1,1-4.87,1.82,1.82,0,0,1,.32-.08A6.07,6.07,0,0,1,601.48,26.19Z"/><path class="cls-3" d="M596.93,27.5a2.3,2.3,0,0,1-2.82,2.61,9.93,9.93,0,0,1-1-3.94,2.27,2.27,0,0,1,1.16-.56A2.3,2.3,0,0,1,596.93,27.5Z"/><path d="M612.78,28.5a0,0,0,0,1,0,0,1.1,1.1,0,0,0,0,.14.67.67,0,0,0,0,.13,10,10,0,0,1-2.76,4.3l0,0a10,10,0,0,1-13.45.11,9.67,9.67,0,0,1-1.06-1.1h0a21.73,21.73,0,0,0,2.95.47c3.6.34,9.78.15,14.41-4.08Z"/><path d="M607.72,16.81h0c-.18-.09-.35-.18-.55-.27l0,0a10,10,0,0,0-12.73,4.35,9.68,9.68,0,0,0-.64,1.39s0,0,0,0a19.75,19.75,0,0,1,2.63-1.43c.58-.27,1.23-.54,2-.8a10.47,10.47,0,0,1,1.16-.35,10.8,10.8,0,0,1,5.37,0,18.81,18.81,0,0,1,8.26,5C613.13,19.2,607.72,16.81,607.72,16.81Z"/><rect class="cls-1" x="166.64" y="0.23" width="166.64" height="224.64" transform="translate(499.91 225.11) rotate(-180)"/><rect class="cls-1" y="0.36" width="166.64" height="224.64" transform="translate(166.64 225.36) rotate(-180)"/><ellipse class="cls-2" cx="79.39" cy="37.93" rx="10.03" ry="10.02"/><ellipse cx="77.59" cy="39.11" rx="6.08" ry="6.07"/><circle class="cls-3" cx="74.67" cy="39.63" r="2.3"/><path class="cls-2" d="M254.17,32.92a10,10,0,0,1-17,7.14h0a10,10,0,0,1-3-7.14,9.77,9.77,0,0,1,.75-3.79,10,10,0,0,1,19.31,3.79Z"/><path d="M244.43,34.1a6.08,6.08,0,0,1-6.08,6.08,6.24,6.24,0,0,1-1.23-.12h0a10,10,0,0,1-3-7.14,9.77,9.77,0,0,1,.75-3.79,6.08,6.08,0,0,1,9.57,5Z"/><circle class="cls-3" cx="237.43" cy="34.62" r="2.3"/><path class="cls-2" d="M425.9,29a10,10,0,1,1-20-1.24,10,10,0,0,1,9.95-8.77A10,10,0,0,1,425.9,29Z"/><path d="M414.16,29.13a6.08,6.08,0,0,1-6.08,6.08h0a10,10,0,0,1-2.2-6.26,10.1,10.1,0,0,1,.08-1.24,9.91,9.91,0,0,1,1.83-4.63,1.82,1.82,0,0,1,.33,0A6.08,6.08,0,0,1,414.16,29.13Z"/><path class="cls-3" d="M409.46,29.65a2.3,2.3,0,0,1-2.3,2.29,2.32,2.32,0,0,1-.92-.19,9.93,9.93,0,0,1-.32-4,2.27,2.27,0,0,1,1.24-.36A2.3,2.3,0,0,1,409.46,29.65Z"/><path d="M1114.42,25.86a10,10,0,0,1-17.88,6.23,10,10,0,0,1-1.43-2.43v0l-.1-.27-.09-.25c0-.14-.1-.28-.13-.41a10,10,0,0,1,9.62-12.85h.45a10,10,0,0,1,9.58,10Z"/><path d="M1341.25,127.17l11.48,2.16,7.85,1.48a4.75,4.75,0,0,1,3.87,4.67v.43a4.75,4.75,0,0,1-3.87,4.67l-8,1.5a250.52,250.52,0,0,0,40,14.21l1.54-.1c1-.08,1.54-.15,1.54-.15l-11.6-20.28,11.6-20.4S1370.18,111.89,1341.25,127.17Z"/><path d="M1455.6,135.61v.1c-.21,7.44-2.56,11.25-3.09,12-.21-.09-.41-.2-.62-.31s-.58-.5-1-.84-.83-.64-1.34-1c-6.73-4.83-24.51-13.94-43.34,6.9v-.13a14.4,14.4,0,0,1-7,3.63,13,13,0,0,1-2.43.23,13.14,13.14,0,0,1-1.68-.11,10.29,10.29,0,0,1-1.14-.21,13.08,13.08,0,0,1-3.79-1.49c-5.63-3.21-9.54-10.42-9.54-18.78,0-9.78,5.36-18,12.53-20.08h0a9.91,9.91,0,0,1,1.23-.29,12,12,0,0,1,2.33-.22,13.87,13.87,0,0,1,9.41,3.88v-.14s18.92,20.29,37.27,11.49c.33-.15.65-.32,1-.49s.79-.43,1.18-.68c.69-.41,1.37-.88,2-1.38h0l0,0c.28-.2,1.52-1.12,3.28-2.64l.06,0,.11-.1a.53.53,0,0,0,.11-.1l.13-.11.27-.23c.2-.18.42-.36.63-.56l.28-.24q.13.18.33.48a17.78,17.78,0,0,1,2.45,7.39c.08.56.13,1.16.17,1.78S1455.62,134.79,1455.6,135.61Z"/><path d="M1467.59,141.32a19.9,19.9,0,0,1-1.37,1.49c-2.55,2.58-8.29,7.37-13.72,4.92-.21-.09-.41-.2-.62-.31a10,10,0,0,1-2.33-1.84h0l.08-11.29,1.23-4.14,1.77-5.93a2.5,2.5,0,0,1,.32-.11C1454.88,123.48,1464.88,121.34,1467.59,141.32Z"/><path d="M1416.95,99.36c-.13.5-.24,1-.35,1.5l-.08.36a1,1,0,0,0,.19.83,1,1,0,0,0,.32.25l.21.11c9.65,5.18,17.07,16.47,17.07,16.47l0,0,.18.24.27.37.24.34.41.59.09.12.22.31.42.63.67,1,.11.16.39.62.09.14.34.54.14.22.29.47.18.31.23.38.37.64,0,0,.4.7.07.13.31.56.08.15.28.52.08.14.27.51,0,.07.08.15.21.41.08.15.36.72.06.13.07.13.06.13,0,.07a21.43,21.43,0,0,1,8.67-.73h.13a20.77,20.77,0,0,1,2.12.43l.1,0a20.73,20.73,0,0,1,3.18,1.11h0l.62.29a20.92,20.92,0,0,1,6.29,4.9l.25.29.25.3,0,0,.28.35,0,0a17.33,17.33,0,0,1,2.05,3.34l.47,1c.11.25.2.5.3.76l0,.09,0,.09q.13.33.28.64l.19.36,0,0,.23.38a8,8,0,0,0,3.46,3h0a7.91,7.91,0,0,0,3.39.71,8,8,0,0,0,2.83-.56h0a8,8,0,0,0,1.89-1.05l.07-.05q1-.59,1.93-1.23.65-.44,1.28-.89l.63-.46c.42-.31.82-.64,1.23-1h0l.66-.55q.65-.55,1.28-1.13l.63-.59,0,0a41.57,41.57,0,0,0,3.17-3.41l.11-.13a42.66,42.66,0,0,0,4-5.78l.24-.42c.32-.56.62-1.13.91-1.7q.67-1.33,1.26-2.71a44,44,0,0,0,1.73-4.91l.21-.75.15-.55a43.11,43.11,0,0,0,.89-16.85,42.63,42.63,0,0,0-23.34-32.22,54.16,54.16,0,0,0-15.6-4l-.29,0A42.28,42.28,0,0,0,1416.95,99.36Z"/><path d="M1394.07,115.35s-18.23,3.63-41.34,14q-4,1.78-8.16,3.84a2.84,2.84,0,0,0,0,5.08c2.73,1.35,5.42,2.62,8.05,3.81a261,261,0,0,0,32.66,12.18c3.26,1,5.77,1.63,7.34,2h0l1.64.11-.12-.21-3.52-6.15-8.18-14.28Z"/><path d="M1417.89,96.16s-10.84,25.23,22.85,33.29l5.6.43Z"/><path d="M1399.24,156s-6,1.28-10.59-.76l7.46-4Z"/><path d="M1341.61,144.11l11.48-2.16,7.85-1.48a4.75,4.75,0,0,0,3.87-4.67v-.43a4.75,4.75,0,0,0-3.87-4.67l-8-1.5A250.52,250.52,0,0,1,1393,115l1.54.1c1,.08,1.54.15,1.54.15l-11.6,20.28,11.6,20.4S1370.55,159.39,1341.61,144.11Z"/><rect class="cls-1" x="1332.89" y="0.26" width="166.66" height="224.64" transform="translate(2832.44 225.15) rotate(-180)"/><path d="M1174.81,129.21l11.45,2.16,7.83,1.48a4.75,4.75,0,0,1,3.86,4.67v.43a4.75,4.75,0,0,1-3.86,4.67l-7.93,1.5A249.23,249.23,0,0,0,1226,158.33l1.54-.1c1-.08,1.54-.15,1.54-.15l-11.57-20.29,11.57-20.41S1203.66,113.93,1174.81,129.21Z"/><path d="M1288.83,137.66v.1c-.21,7.44-2.56,11.26-3.08,12-.21-.09-.41-.2-.62-.31s-.58-.5-1-.84-.83-.64-1.33-1c-6.71-4.83-24.44-13.95-43.21,6.91v-.13a14.35,14.35,0,0,1-7,3.64,12.9,12.9,0,0,1-2.43.23,13.06,13.06,0,0,1-1.67-.11,10.23,10.23,0,0,1-1.13-.21,13,13,0,0,1-3.78-1.49c-5.61-3.21-9.51-10.42-9.51-18.79,0-9.79,5.34-18,12.5-20.09h0a9.86,9.86,0,0,1,1.22-.29,11.92,11.92,0,0,1,2.33-.22,13.8,13.8,0,0,1,9.38,3.88v-.14s18.86,20.3,37.16,11.5c.33-.15.65-.32,1-.49s.79-.43,1.17-.68c.69-.41,1.36-.88,2-1.38h0l0,0c.28-.2,1.51-1.12,3.27-2.64l.06,0,.11-.1a.53.53,0,0,0,.11-.1l.13-.11.27-.23c.2-.18.42-.36.63-.56l.28-.24q.13.18.33.48a17.83,17.83,0,0,1,2.45,7.39c.08.56.13,1.16.17,1.78S1288.85,136.84,1288.83,137.66Z"/><path d="M1300.79,143.37a19.89,19.89,0,0,1-1.36,1.49c-2.55,2.58-8.27,7.37-13.68,4.92-.21-.09-.41-.2-.62-.31a10,10,0,0,1-2.33-1.84h0l.08-11.3,1.22-4.14,1.76-5.93a2.49,2.49,0,0,1,.32-.11C1288.12,125.53,1298.1,123.38,1300.79,143.37Z"/><path d="M1250.3,101.39c-.13.5-.24,1-.35,1.5l-.08.36a1,1,0,0,0,.19.83,1,1,0,0,0,.32.25l.21.11c9.63,5.18,17,16.48,17,16.48l0,0,.18.24.27.37.24.34.41.59.09.12.22.31.42.63.67,1,.11.16.39.62.09.14.33.54.14.22.29.47.18.31.22.38.37.64,0,0,.39.7.07.13.31.56.08.15.28.52.08.14.27.51,0,.07.08.15.21.41.08.15.36.72.06.13.07.13.06.13,0,.07a21.3,21.3,0,0,1,8.64-.73h.13a20.65,20.65,0,0,1,2.11.43l.1,0a20.62,20.62,0,0,1,3.17,1.11h0l.61.29a20.87,20.87,0,0,1,6.27,4.9l.25.29.25.3,0,0,.28.35,0,0a17.35,17.35,0,0,1,2,3.34l.47,1c.11.25.2.5.3.76l0,.09,0,.09q.13.33.28.64l.19.36,0,0,.23.38a8,8,0,0,0,3.45,3h0a7.87,7.87,0,0,0,3.38.71,7.91,7.91,0,0,0,2.82-.56h0a7.93,7.93,0,0,0,1.89-1.06l.07-.05q1-.59,1.92-1.23.64-.44,1.27-.89l.62-.47c.42-.31.82-.64,1.22-1h0l.66-.55q.65-.55,1.28-1.14l.62-.59,0,0a41.54,41.54,0,0,0,3.16-3.41l.11-.13a42.69,42.69,0,0,0,4-5.79l.24-.42c.32-.56.62-1.13.91-1.7q.67-1.33,1.26-2.72a44.16,44.16,0,0,0,1.73-4.91l.21-.75.14-.55a43.27,43.27,0,0,0,.89-16.86,42.64,42.64,0,0,0-23.28-32.24,53.86,53.86,0,0,0-15.55-4l-.29,0C1273.54,68.17,1255.33,81.31,1250.3,101.39Z"/><path d="M1227.48,117.39s-18.18,3.64-41.22,14q-4,1.79-8.13,3.85a2.84,2.84,0,0,0,0,5.08c2.72,1.35,5.41,2.63,8,3.81a259.66,259.66,0,0,0,32.57,12.19c3.25,1,5.75,1.63,7.32,2h0l1.64.11-.12-.21-3.51-6.15-8.15-14.29Z"/><path d="M1251.23,98.19s-10.81,25.25,22.78,33.31l5.59.43Z"/><path d="M1232.64,158s-6,1.28-10.56-.76l7.44-4Z"/><path d="M1175.17,146.17l11.45-2.16,7.83-1.48a4.75,4.75,0,0,0,3.86-4.67v-.43a4.75,4.75,0,0,0-3.86-4.67l-7.93-1.5A249.23,249.23,0,0,1,1226.4,117l1.54.1c1,.08,1.54.15,1.54.15l-11.57,20.29L1229.48,158S1204,161.45,1175.17,146.17Z"/><path d="M1317.17,80.36c.08.09-15.57-8.24-15.57-8.24,4.71-.32,5.77-3,7.16-4.57l.11-.12a12.57,12.57,0,0,0,2.54-11.64c-5.09-17.46-28.7-22.22-28.7-22.22a165.48,165.48,0,0,1-22.37-7.51c-1.16-.5-2.26-1-3.29-1.49-1.56-.73-3-1.45-4.28-2.17s-2.51-1.43-3.57-2.12-1.82-1.21-2.6-1.78a31.71,31.71,0,0,1-3.22-2.73,2.16,2.16,0,0,1,.11-.24c.06-.12.13-.25.2-.37a32.45,32.45,0,0,0,3.54,2.36,66.07,66.07,0,0,0,10.69,4.85c1.17.43,2.4.86,3.73,1.29a190.67,190.67,0,0,0,22.64,5.68c41.71,8.12,31.79,42.91,31.79,42.91S1314.59,77,1317.17,80.36Z"/><rect class="cls-1" x="1166.22" y="0.23" width="166.66" height="224.77" transform="translate(2499.11 225.23) rotate(-180)"/><path d="M1253.34,17.12a10.08,10.08,0,0,1-2.07,6.14,9.95,9.95,0,0,1-15.78.14,10.15,10.15,0,0,1-1.42-2.45v0l-.1-.27-.09-.25c0-.14-.1-.28-.13-.42a10.11,10.11,0,0,1,9.6-13h.45a10,10,0,0,1,9.36,8.09A10.2,10.2,0,0,1,1253.34,17.12Z"/><path d="M1431.63,9.39a10.08,10.08,0,0,1-1.63,6.27,9.95,9.95,0,0,1-15.73,1.25,10.14,10.14,0,0,1-1.59-2.34l0,0-.12-.26-.11-.24c-.06-.14-.11-.27-.16-.41A10.11,10.11,0,0,1,1420.93,0l.45,0a10,10,0,0,1,9.91,7.41A10.2,10.2,0,0,1,1431.63,9.39Z"/><path d="M1486.3,80.62c.07.1-14.69-9.73-14.69-9.73,4.72.14,6-2.4,7.57-3.84l.12-.11A12.56,12.56,0,0,0,1483,55.59c-3.35-17.88-26.39-24.94-26.39-24.94A165.51,165.51,0,0,1,1435.07,21c-1.1-.61-2.15-1.22-3.13-1.81-1.49-.88-2.83-1.74-4-2.58s-2.35-1.67-3.34-2.46-1.7-1.39-2.41-2a31.72,31.72,0,0,1-2.94-3,2.16,2.16,0,0,1,.13-.22c.07-.12.15-.24.23-.35a32.46,32.46,0,0,0,3.29,2.69A66.09,66.09,0,0,0,1433,17.08c1.12.54,2.31,1.09,3.58,1.65a190.7,190.7,0,0,0,22,7.88C1499.28,38.78,1486,72.43,1486,72.43S1484.06,77,1486.3,80.62Z"/><path d="M1508.05,127.17l11.48,2.16,7.85,1.48a4.75,4.75,0,0,1,3.87,4.67v.43a4.75,4.75,0,0,1-3.87,4.67l-8,1.5a250.52,250.52,0,0,0,40,14.21l1.54-.1c1-.08,1.54-.15,1.54-.15l-11.6-20.28,11.6-20.4S1537,111.89,1508.05,127.17Z"/><path d="M1622.4,135.61v.1c-.21,7.44-2.56,11.25-3.09,12-.21-.09-.41-.2-.62-.31s-.58-.5-1-.84-.83-.64-1.34-1c-6.73-4.83-24.51-13.94-43.34,6.9v-.13a14.4,14.4,0,0,1-7,3.63,13,13,0,0,1-2.43.23,13.14,13.14,0,0,1-1.68-.11,10.29,10.29,0,0,1-1.14-.21,13.08,13.08,0,0,1-3.79-1.49c-5.63-3.21-9.54-10.42-9.54-18.78,0-9.78,5.36-18,12.53-20.08h0a9.91,9.91,0,0,1,1.23-.29,12,12,0,0,1,2.33-.22,13.87,13.87,0,0,1,9.41,3.88v-.14s18.92,20.29,37.27,11.49c.33-.15.65-.32,1-.49s.79-.43,1.18-.68c.69-.41,1.37-.88,2-1.38h0l0,0c.28-.2,1.52-1.12,3.28-2.64l.06,0,.11-.1a.53.53,0,0,0,.11-.1l.13-.11.27-.23c.2-.18.42-.36.63-.56l.28-.24q.13.18.33.48a17.78,17.78,0,0,1,2.45,7.39c.08.56.13,1.16.17,1.78S1622.42,134.79,1622.4,135.61Z"/><path d="M1634.4,141.32a19.9,19.9,0,0,1-1.37,1.49c-2.55,2.58-8.29,7.37-13.72,4.92-.21-.09-.41-.2-.62-.31a10,10,0,0,1-2.33-1.84h0l.08-11.29,1.23-4.14,1.77-5.93a2.5,2.5,0,0,1,.32-.11C1621.68,123.48,1631.69,121.34,1634.4,141.32Z"/><path d="M1583.76,99.36c-.13.5-.24,1-.35,1.5l-.08.36a1,1,0,0,0,.19.83,1,1,0,0,0,.32.25l.21.11c9.65,5.18,17.07,16.47,17.07,16.47l0,0,.18.24.27.37.24.34.41.59.09.12.22.31.42.63.67,1,.11.16.39.62.09.14.34.54.14.22.29.47.18.31.23.38.37.64,0,0,.4.7.07.13.31.56.08.15.28.52.08.14.27.51,0,.07.08.15.21.41.08.15.36.72.06.13.07.13.06.13,0,.07a21.43,21.43,0,0,1,8.67-.73h.13a20.77,20.77,0,0,1,2.12.43l.1,0a20.73,20.73,0,0,1,3.18,1.11h0l.62.29a20.92,20.92,0,0,1,6.29,4.9l.25.29.25.3,0,0,.28.35,0,0a17.33,17.33,0,0,1,2.05,3.34l.47,1c.11.25.2.5.3.76l0,.09,0,.09q.13.33.28.64l.19.36,0,0,.23.38a8,8,0,0,0,3.46,3h0a7.91,7.91,0,0,0,3.39.71,8,8,0,0,0,2.83-.56h0a8,8,0,0,0,1.89-1.05l.07-.05q1-.59,1.93-1.23.65-.44,1.28-.89l.63-.46c.42-.31.82-.64,1.23-1h0l.66-.55q.65-.55,1.28-1.13l.63-.59,0,0a41.57,41.57,0,0,0,3.17-3.41l.11-.13a42.66,42.66,0,0,0,4-5.78l.24-.42c.32-.56.62-1.13.91-1.7q.67-1.33,1.26-2.71a44,44,0,0,0,1.73-4.91l.21-.75.15-.55a43.11,43.11,0,0,0,.89-16.85,42.63,42.63,0,0,0-23.34-32.22,54.16,54.16,0,0,0-15.6-4l-.29,0A42.28,42.28,0,0,0,1583.76,99.36Z"/><path d="M1560.88,115.35s-18.23,3.63-41.34,14q-4,1.78-8.16,3.84a2.84,2.84,0,0,0,0,5.08c2.73,1.35,5.42,2.62,8.05,3.81a261,261,0,0,0,32.66,12.18c3.26,1,5.77,1.63,7.34,2h0l1.64.11-.12-.21-3.52-6.15-8.18-14.28Z"/><path d="M1584.69,96.16s-10.84,25.23,22.85,33.29l5.6.43Z"/><path d="M1566,156s-6,1.28-10.59-.76l7.46-4Z"/><path d="M1508.42,144.11,1519.9,142l7.85-1.48a4.75,4.75,0,0,0,3.87-4.67v-.43a4.75,4.75,0,0,0-3.87-4.67l-8-1.5a250.52,250.52,0,0,1,40-14.21l1.54.1c1,.08,1.54.15,1.54.15l-11.6,20.28,11.6,20.4S1537.35,159.39,1508.42,144.11Z"/><rect class="cls-1" x="1499.69" y="0.26" width="166.66" height="224.64" transform="translate(3166.05 225.15) rotate(-180)"/><path d="M1598.44,9.39a10.08,10.08,0,0,1-1.63,6.27,9.95,9.95,0,0,1-15.73,1.25,10.14,10.14,0,0,1-1.59-2.34l0,0-.12-.26-.11-.24c-.06-.14-.11-.27-.16-.41A10.11,10.11,0,0,1,1587.74,0l.45,0a10,10,0,0,1,9.91,7.41A10.2,10.2,0,0,1,1598.44,9.39Z"/><path d="M1653.11,80.62c.07.1-14.69-9.73-14.69-9.73,4.72.14,6-2.4,7.57-3.84l.12-.11a12.56,12.56,0,0,0,3.67-11.33c-3.35-17.88-26.39-24.94-26.39-24.94A165.51,165.51,0,0,1,1601.87,21c-1.1-.61-2.15-1.22-3.13-1.81-1.49-.88-2.83-1.74-4-2.58s-2.35-1.67-3.34-2.46-1.7-1.39-2.41-2a31.72,31.72,0,0,1-2.94-3,2.16,2.16,0,0,1,.13-.22c.07-.12.15-.24.23-.35a32.46,32.46,0,0,0,3.29,2.69,66.09,66.09,0,0,0,10.16,5.88c1.12.54,2.31,1.09,3.58,1.65a190.7,190.7,0,0,0,22,7.88c40.71,12.18,27.43,45.83,27.43,45.83S1650.87,77,1653.11,80.62Z"/><path d="M1674.86,127.17l11.48,2.16,7.85,1.48a4.75,4.75,0,0,1,3.87,4.67v.43a4.75,4.75,0,0,1-3.87,4.67l-8,1.5a250.52,250.52,0,0,0,40,14.21l1.54-.1c1-.08,1.54-.15,1.54-.15l-11.6-20.28,11.6-20.4S1703.79,111.89,1674.86,127.17Z"/><path d="M1789.21,135.61v.1c-.21,7.44-2.56,11.25-3.09,12-.21-.09-.41-.2-.62-.31s-.58-.5-1-.84-.83-.64-1.34-1c-6.73-4.83-24.51-13.94-43.34,6.9v-.13a14.4,14.4,0,0,1-7,3.63,13,13,0,0,1-2.43.23,13.14,13.14,0,0,1-1.68-.11,10.29,10.29,0,0,1-1.14-.21,13.08,13.08,0,0,1-3.79-1.49c-5.63-3.21-9.54-10.42-9.54-18.78,0-9.78,5.36-18,12.53-20.08h0a9.91,9.91,0,0,1,1.23-.29,12,12,0,0,1,2.33-.22,13.87,13.87,0,0,1,9.41,3.88v-.14s18.92,20.29,37.27,11.49c.33-.15.65-.32,1-.49s.79-.43,1.18-.68c.69-.41,1.37-.88,2-1.38h0l0,0c.28-.2,1.52-1.12,3.28-2.64l.06,0,.11-.1a.53.53,0,0,0,.11-.1l.13-.11.27-.23c.2-.18.42-.36.63-.56l.28-.24q.13.18.33.48a17.78,17.78,0,0,1,2.45,7.39c.08.56.13,1.16.17,1.78S1789.23,134.79,1789.21,135.61Z"/><path d="M1801.2,141.32a19.9,19.9,0,0,1-1.37,1.49c-2.55,2.58-8.29,7.37-13.72,4.92-.21-.09-.41-.2-.62-.31a10,10,0,0,1-2.33-1.84h0l.08-11.29,1.23-4.14,1.77-5.93a2.5,2.5,0,0,1,.32-.11C1788.49,123.48,1798.5,121.34,1801.2,141.32Z"/><path d="M1750.56,99.36c-.13.5-.24,1-.35,1.5l-.08.36a1,1,0,0,0,.19.83,1,1,0,0,0,.32.25l.21.11c9.65,5.18,17.07,16.47,17.07,16.47l0,0,.18.24.27.37.24.34.41.59.09.12.22.31.42.63.67,1,.11.16.39.62.09.14.34.54.14.22.29.47.18.31.23.38.37.64,0,0,.4.7.07.13.31.56.08.15.28.52.08.14.27.51,0,.07.08.15.21.41.08.15.36.72.06.13.07.13.06.13,0,.07a21.43,21.43,0,0,1,8.67-.73h.13a20.77,20.77,0,0,1,2.12.43l.1,0a20.73,20.73,0,0,1,3.18,1.11h0l.62.29a20.92,20.92,0,0,1,6.29,4.9l.25.29.25.3,0,0,.28.35,0,0a17.33,17.33,0,0,1,2.05,3.34l.47,1c.11.25.2.5.3.76l0,.09,0,.09q.13.33.28.64l.19.36,0,0,.23.38a8,8,0,0,0,3.46,3h0a7.91,7.91,0,0,0,3.39.71,8,8,0,0,0,2.83-.56h0a8,8,0,0,0,1.89-1.05l.07-.05q1-.59,1.93-1.23.65-.44,1.28-.89l.63-.46c.42-.31.82-.64,1.23-1h0l.66-.55q.65-.55,1.28-1.13l.63-.59,0,0a41.57,41.57,0,0,0,3.17-3.41l.11-.13a42.66,42.66,0,0,0,4-5.78l.24-.42c.32-.56.62-1.13.91-1.7q.67-1.33,1.26-2.71a44,44,0,0,0,1.73-4.91l.21-.75.15-.55a43.11,43.11,0,0,0,.89-16.85,42.63,42.63,0,0,0-23.34-32.22,54.16,54.16,0,0,0-15.6-4l-.29,0A42.28,42.28,0,0,0,1750.56,99.36Z"/><path d="M1727.68,115.35s-18.23,3.63-41.34,14q-4,1.78-8.16,3.84a2.84,2.84,0,0,0,0,5.08c2.73,1.35,5.42,2.62,8.05,3.81a261,261,0,0,0,32.66,12.18c3.26,1,5.77,1.63,7.34,2h0l1.64.11-.12-.21-3.52-6.15-8.18-14.28Z"/><path d="M1751.5,96.16s-10.84,25.23,22.85,33.29l5.6.43Z"/><path d="M1732.86,156s-6,1.28-10.59-.76l7.46-4Z"/><path d="M1675.23,144.11l11.48-2.16,7.85-1.48a4.75,4.75,0,0,0,3.87-4.67v-.43a4.75,4.75,0,0,0-3.87-4.67l-8-1.5a250.52,250.52,0,0,1,40-14.21l1.54.1c1,.08,1.54.15,1.54.15l-11.6,20.28,11.6,20.4S1704.16,159.39,1675.23,144.11Z"/><rect class="cls-1" x="1666.5" y="0.26" width="166.66" height="224.64" transform="translate(3499.67 225.15) rotate(-180)"/><path d="M1765.25,9.39a10.08,10.08,0,0,1-1.63,6.27,9.95,9.95,0,0,1-15.73,1.25,10.14,10.14,0,0,1-1.59-2.34l0,0-.12-.26L1746,14c-.06-.14-.11-.27-.16-.41A10.11,10.11,0,0,1,1754.55,0l.45,0a10,10,0,0,1,9.91,7.41A10.2,10.2,0,0,1,1765.25,9.39Z"/><path d="M1819.91,80.62c.07.1-14.69-9.73-14.69-9.73,4.72.14,6-2.4,7.57-3.84l.12-.11a12.56,12.56,0,0,0,3.67-11.33c-3.35-17.88-26.39-24.94-26.39-24.94A165.51,165.51,0,0,1,1768.68,21c-1.1-.61-2.15-1.22-3.13-1.81-1.49-.88-2.83-1.74-4-2.58s-2.35-1.67-3.34-2.46-1.7-1.39-2.41-2a31.72,31.72,0,0,1-2.94-3,2.16,2.16,0,0,1,.13-.22c.07-.12.15-.24.23-.35a32.46,32.46,0,0,0,3.29,2.69,66.09,66.09,0,0,0,10.16,5.88c1.12.54,2.31,1.09,3.58,1.65a190.7,190.7,0,0,0,22,7.88c40.71,12.18,27.43,45.83,27.43,45.83S1817.67,77,1819.91,80.62Z"/><path d="M1841.69,127.17l11.48,2.16,7.85,1.48a4.75,4.75,0,0,1,3.87,4.67v.43a4.75,4.75,0,0,1-3.87,4.67l-8,1.5a250.52,250.52,0,0,0,40,14.21l1.54-.1c1-.08,1.54-.15,1.54-.15l-11.6-20.28,11.6-20.4S1870.63,111.89,1841.69,127.17Z"/><path d="M1956,135.61v.1c-.21,7.44-2.56,11.25-3.09,12-.21-.09-.41-.2-.62-.31s-.58-.5-1-.84-.83-.64-1.34-1c-6.73-4.83-24.51-13.94-43.34,6.9v-.13a14.4,14.4,0,0,1-7,3.63,13,13,0,0,1-2.43.23,13.14,13.14,0,0,1-1.68-.11,10.29,10.29,0,0,1-1.14-.21,13.08,13.08,0,0,1-3.79-1.49c-5.63-3.21-9.54-10.42-9.54-18.78,0-9.78,5.36-18,12.53-20.08h0a9.91,9.91,0,0,1,1.23-.29,12,12,0,0,1,2.33-.22,13.87,13.87,0,0,1,9.41,3.88v-.14s18.92,20.29,37.27,11.49c.33-.15.65-.32,1-.49s.79-.43,1.18-.68c.69-.41,1.37-.88,2-1.38h0l0,0c.28-.2,1.52-1.12,3.28-2.64l.06,0,.11-.1a.53.53,0,0,0,.11-.1l.13-.11.27-.23c.2-.18.42-.36.63-.56l.28-.24q.13.18.33.48a17.78,17.78,0,0,1,2.45,7.39c.08.56.13,1.16.17,1.78S1956.06,134.79,1956,135.61Z"/><path d="M1968,141.32a19.9,19.9,0,0,1-1.37,1.49c-2.55,2.58-8.29,7.37-13.72,4.92-.21-.09-.41-.2-.62-.31a10,10,0,0,1-2.33-1.84h0l.08-11.29,1.23-4.14,1.77-5.93a2.5,2.5,0,0,1,.32-.11C1955.32,123.48,1965.33,121.34,1968,141.32Z"/><path d="M1917.4,99.36c-.13.5-.24,1-.35,1.5l-.08.36a1,1,0,0,0,.19.83,1,1,0,0,0,.32.25l.21.11c9.65,5.18,17.07,16.47,17.07,16.47l0,0,.18.24.27.37.24.34.41.59.09.12.22.31.42.63.67,1,.11.16.39.62.09.14.34.54.14.22.29.47.18.31.23.38.37.64,0,0,.4.7.07.13.31.56.08.15.28.52.08.14.27.51,0,.07.08.15.21.41.08.15.36.72.06.13.07.13.06.13,0,.07a21.43,21.43,0,0,1,8.67-.73h.13a20.77,20.77,0,0,1,2.12.43l.1,0a20.73,20.73,0,0,1,3.18,1.11h0l.62.29a20.92,20.92,0,0,1,6.29,4.9l.25.29.25.3,0,0,.28.35,0,0a17.33,17.33,0,0,1,2.05,3.34l.47,1c.11.25.2.5.3.76l0,.09,0,.09q.13.33.28.64l.19.36,0,0,.23.38a8,8,0,0,0,3.46,3h0a7.91,7.91,0,0,0,3.39.71,8,8,0,0,0,2.83-.56h0a8,8,0,0,0,1.89-1.05l.07-.05q1-.59,1.93-1.23.65-.44,1.28-.89l.63-.46c.42-.31.82-.64,1.23-1h0l.66-.55q.65-.55,1.28-1.13l.63-.59,0,0a41.57,41.57,0,0,0,3.17-3.41l.11-.13a42.66,42.66,0,0,0,4-5.78l.24-.42c.32-.56.62-1.13.91-1.7q.67-1.33,1.26-2.71a44,44,0,0,0,1.73-4.91l.21-.75.15-.55a43.11,43.11,0,0,0,.89-16.85,42.63,42.63,0,0,0-23.34-32.22,54.16,54.16,0,0,0-15.6-4l-.29,0A42.28,42.28,0,0,0,1917.4,99.36Z"/><path d="M1894.52,115.35s-18.23,3.63-41.34,14q-4,1.78-8.16,3.84a2.84,2.84,0,0,0,0,5.08c2.73,1.35,5.42,2.62,8.05,3.81a261,261,0,0,0,32.66,12.18c3.26,1,5.77,1.63,7.34,2h0l1.64.11-.12-.21-3.52-6.15-8.18-14.28Z"/><path d="M1918.33,96.16s-10.84,25.23,22.85,33.29l5.6.43Z"/><path d="M1899.69,156s-6,1.28-10.59-.76l7.46-4Z"/><path d="M1842.06,144.11l11.48-2.16,7.85-1.48a4.75,4.75,0,0,0,3.87-4.67v-.43a4.75,4.75,0,0,0-3.87-4.67l-8-1.5a250.52,250.52,0,0,1,40-14.21l1.54.1c1,.08,1.54.15,1.54.15l-11.6,20.28,11.6,20.4S1871,159.39,1842.06,144.11Z"/><rect class="cls-1" x="1833.34" y="0.26" width="166.66" height="224.64" transform="translate(3833.34 225.15) rotate(-180)"/><path d="M1932.08,9.39a10.08,10.08,0,0,1-1.63,6.27,9.95,9.95,0,0,1-15.73,1.25,10.14,10.14,0,0,1-1.59-2.34l0,0-.12-.26-.11-.24c-.06-.14-.11-.27-.16-.41A10.11,10.11,0,0,1,1921.38,0l.45,0a10,10,0,0,1,9.91,7.41A10.2,10.2,0,0,1,1932.08,9.39Z"/><path d="M1986.75,80.62c.07.1-14.69-9.73-14.69-9.73,4.72.14,6-2.4,7.57-3.84l.12-.11a12.56,12.56,0,0,0,3.67-11.33C1980.07,37.71,1957,30.65,1957,30.65A165.51,165.51,0,0,1,1935.51,21c-1.1-.61-2.15-1.22-3.13-1.81-1.49-.88-2.83-1.74-4-2.58s-2.35-1.67-3.34-2.46-1.7-1.39-2.41-2a31.72,31.72,0,0,1-2.94-3,2.16,2.16,0,0,1,.13-.22c.07-.12.15-.24.23-.35a32.46,32.46,0,0,0,3.29,2.69,66.09,66.09,0,0,0,10.16,5.88c1.12.54,2.31,1.09,3.58,1.65a190.7,190.7,0,0,0,22,7.88c40.71,12.18,27.43,45.83,27.43,45.83S1984.51,77,1986.75,80.62Z"/><path d="M165.34,85.2c0,.19,0,.38,0,.57s0,.51,0,.77A43.51,43.51,0,0,1,165,91.7c-.13,1-.29,2-.49,2.94-.13.62-.27,1.26-.43,1.87l-.13.47a9.23,9.23,0,0,1-8.42-.78l-.59.08a12.77,12.77,0,0,0-3.34,1,4.85,4.85,0,0,0-1.07.63,15.62,15.62,0,0,1,6.32-30,15,15,0,0,1,4.87.92,42,42,0,0,1,3.2,11A44.62,44.62,0,0,1,165.34,85.2Z"/><path class="cls-2" d="M165.34,85.2c0,.19,0,.38,0,.57s0,.51,0,.77A43.51,43.51,0,0,1,165,91.7c-.13,1-.29,2-.49,2.94-.13.62-.27,1.26-.43,1.87l-1-.16A33.07,33.07,0,0,0,159.2,96a22.41,22.41,0,0,0-3.67.19l-.59.08a12.77,12.77,0,0,0-3.34,1,4.85,4.85,0,0,0-1.07.63,15.62,15.62,0,0,1,6.32-30,15,15,0,0,1,4.87.92,42,42,0,0,1,3.2,11A44.62,44.62,0,0,1,165.34,85.2Z"/><path d="M165.34,85.2c0,.19,0,.38,0,.57s0,.51,0,.77A43.51,43.51,0,0,1,165,91.7c-.13,1-.29,2-.49,2.94-.13.62-.27,1.26-.43,1.87l-.13.47a9.23,9.23,0,0,1-8.42-.78l-.17-.12a9.45,9.45,0,0,1,5.37-17.31,9.27,9.27,0,0,1,4.18,1.11A44.62,44.62,0,0,1,165.34,85.2Z"/><path class="cls-3" d="M159.58,88.88a3.41,3.41,0,0,0,3.3,3.5,3.35,3.35,0,0,0,2.11-.68,43.54,43.54,0,0,0,.36-5.16,3.36,3.36,0,0,0-2.31-1A3.4,3.4,0,0,0,159.58,88.88Z"/><rect class="cls-1" x="134.94" y="64.91" width="30.31" height="33" transform="translate(-1.89 3.58) rotate(-1.36)"/><path class="cls-2" d="M317.15,94.91a4.85,4.85,0,0,1,1.09-.6,12.78,12.78,0,0,1,3.37-.91l.59-.07a22.43,22.43,0,0,1,3.68-.1,33.18,33.18,0,0,1,3.83.43l1,.18c.17-.61.33-1.24.47-1.86.22-1,.41-1.94.56-2.93a43.44,43.44,0,0,0,.49-5.15c0-.26,0-.51,0-.77s0-.38,0-.57a40.78,40.78,0,0,0-.32-5.32,41.71,41.71,0,0,0-2.86-10.93,1.49,1.49,0,0,0-.07-.19,15.1,15.1,0,0,0-4.86-1A15.58,15.58,0,0,0,308,79.91,15.6,15.6,0,0,0,317.15,94.91Z"/><path d="M322,93.22l.17.11a9.25,9.25,0,0,0,8.41,1l.13-.46c.17-.62.33-1.24.47-1.87q.33-1.44.56-2.92a43.54,43.54,0,0,0,.48-5.15c0-.26,0-.51,0-.77s0-.38,0-.57a42.54,42.54,0,0,0-.32-5.32A9.21,9.21,0,0,0,327.8,76,9.45,9.45,0,0,0,322,93.22Z"/><path class="cls-3" d="M326.42,86.1a3.41,3.41,0,0,0,3.22,3.58,3.35,3.35,0,0,0,2.13-.63,43.54,43.54,0,0,0,.48-5.15A3.36,3.36,0,0,0,330,82.85,3.4,3.4,0,0,0,326.42,86.1Z"/><path d="M306.25,78.66a33.59,33.59,0,0,1,2.38-2.39,42.5,42.5,0,0,1,20.47-10,1.49,1.49,0,0,0-.07-.19c-.32-.76-.65-1.5-1-2.24C311.54,62.43,306.25,78.66,306.25,78.66Z"/><rect class="cls-1" x="301.96" y="61.91" width="30.31" height="33"/><path class="cls-2" d="M474.63,85.2c0,.43,0,.85.09,1.27a15.51,15.51,0,0,0,6.7,11.2,4.85,4.85,0,0,1,1.18-.4,12.78,12.78,0,0,1,3.47-.32l.59,0a22.43,22.43,0,0,1,3.64.53A33.19,33.19,0,0,1,494,98.6l1,.35c.27-.57.54-1.16.78-1.75.38-.91.74-1.84,1.05-2.79a43.43,43.43,0,0,0,1.37-5c0-.26.1-.5.14-.76s.08-.37.11-.56a40.78,40.78,0,0,0,.6-5.3c0-.64.05-1.28,0-1.91l-1-9.55c-.37-.23-.75-.43-1.13-.62a15.05,15.05,0,0,0-3.48-1.24,15.58,15.58,0,0,0-18.83,15.7Z"/><path d="M486.52,96.84l.14.14a9.25,9.25,0,0,0,8.11,2.41L495,99c.27-.58.54-1.16.78-1.76q.57-1.37,1.05-2.78a43.54,43.54,0,0,0,1.36-5l.15-.76c0-.19.07-.37.1-.56a42.54,42.54,0,0,0,.6-5.29,9.21,9.21,0,0,0-3.89-1.91,9.45,9.45,0,0,0-8.64,15.93Z"/><path class="cls-3" d="M492.07,90.59a3.41,3.41,0,0,0,2.56,4.08,3.35,3.35,0,0,0,2.2-.25,43.54,43.54,0,0,0,1.36-5A3.36,3.36,0,0,0,496.12,88,3.4,3.4,0,0,0,492.07,90.59Z"/><path d="M473.53,87l1.19-.48.94-.36a95.4,95.4,0,0,1,12-3.64,60.93,60.93,0,0,1,8.23-1.36q1.61-.16,3.2-.2l-1-9.55c0-.19-.09-.38-.14-.56a17.51,17.51,0,0,0-12.32-1.58C472.73,71.89,473.53,87,473.53,87Z"/><rect class="cls-1" x="469.07" y="64.91" width="30.31" height="33" transform="translate(21.23 -82.11) rotate(9.91)"/><path class="cls-2" d="M641.35,97.36a15.55,15.55,0,0,0-1.9,11.66,15.27,15.27,0,0,0,2.73,5.89,4.85,4.85,0,0,1,1.24,0,12.78,12.78,0,0,1,3.39.82l.55.22a22.45,22.45,0,0,1,3.28,1.68,33.21,33.21,0,0,1,3.15,2.22c.27.21.54.43.82.65.44-.45.88-.93,1.3-1.41.65-.74,1.29-1.51,1.9-2.3a43.66,43.66,0,0,0,2.77-4.08l.12-.21.38-.67c.1-.16.19-.33.28-.5a40.76,40.76,0,0,0,2.27-4.82,42.32,42.32,0,0,0,2.76-11.16,15.12,15.12,0,0,0-3.76-3.24A15.48,15.48,0,0,0,641.35,97.36Z"/><path d="M646.58,109.27a9.46,9.46,0,0,0,.69,6.49l.09.19a9.25,9.25,0,0,0,6.91,4.9l.34-.35c.44-.45.88-.93,1.3-1.41.65-.74,1.29-1.51,1.9-2.3a43.66,43.66,0,0,0,2.77-4.08l.12-.21.38-.67c.1-.16.19-.33.28-.5a40.76,40.76,0,0,0,2.27-4.82,9.25,9.25,0,0,0-3.07-3.06,9.37,9.37,0,0,0-12.88,3.19A9.53,9.53,0,0,0,646.58,109.27Z"/><path class="cls-3" d="M654.54,111.63a3.41,3.41,0,0,0,1.11,4.69,3.32,3.32,0,0,0,2.16.46,43.66,43.66,0,0,0,2.77-4.08l.12-.21a3.38,3.38,0,0,0-6.17-.87Z"/><path d="M661.48,111.13l-.11.2c-.09.17-.18.33-.28.5l-.38.67-.12.21a28.66,28.66,0,0,0-5.28-2,51,51,0,0,0-8.72-1.48,70,70,0,0,0-7.13-.25c-1.31,0-2.09.08-2.09.08s-3.43-8.53-1.07-15.09l1.62-3c2.4-3,6.9-5,14.93-4.32,7.63.66,11.74,3.25,13.72,6.62,0,.67-.09,1.35-.16,2a42.33,42.33,0,0,1-2.76,11.16A40.94,40.94,0,0,1,661.48,111.13Z"/><rect class="cls-1" x="633.56" y="85.25" width="32.99" height="30.32" transform="translate(250.36 622.81) rotate(-61.36)"/><path class="cls-2" d="M964.5,116.12c-.2.38-.37.77-.53,1.16a15.53,15.53,0,0,0,.5,13,4.85,4.85,0,0,1,1.23.21,12.79,12.79,0,0,1,3.2,1.39l.5.31a22.46,22.46,0,0,1,2.94,2.22,33.23,33.23,0,0,1,2.72,2.73c.23.25.46.52.69.78.51-.37,1-.76,1.53-1.16.77-.61,1.53-1.26,2.26-1.94a43.38,43.38,0,0,0,3.59-3.72l.49-.6c.13-.14.24-.29.36-.44a40.74,40.74,0,0,0,3.07-4.36c.34-.55.66-1.1,1-1.65l3.69-8.87c-.21-.37-.45-.74-.69-1.09a15.07,15.07,0,0,0-2.46-2.76,15.57,15.57,0,0,0-24.05,4.71Z"/><path d="M969.34,132l.06.19a9.26,9.26,0,0,0,6,6l.39-.28q.78-.56,1.53-1.16,1.16-.92,2.26-1.93a43.48,43.48,0,0,0,3.59-3.73l.5-.59.36-.44a42.5,42.5,0,0,0,3.07-4.35,9.22,9.22,0,0,0-2.49-3.54,9.36,9.36,0,0,0-13.23.9A9.46,9.46,0,0,0,969.34,132Z"/><path class="cls-3" d="M977.2,129.23a3.41,3.41,0,0,0,.28,4.81,3.35,3.35,0,0,0,2.05.84,43.48,43.48,0,0,0,3.59-3.73,3.38,3.38,0,0,0-5.93-1.92Z"/><path d="M962.69,117.13l1.27.15,1,.13A95.39,95.39,0,0,1,977.23,120a60.94,60.94,0,0,1,7.87,2.76q1.49.63,2.9,1.36l3.69-8.87c.06-.18.11-.37.15-.56a17.52,17.52,0,0,0-10-7.32C969.22,103.53,962.69,117.13,962.69,117.13Z"/><rect class="cls-1" x="959.57" y="100.92" width="30.32" height="32.99" transform="translate(286.87 -583.11) rotate(38.65)"/><path class="cls-2" d="M1639.78,119.26c-.12.41-.2.83-.28,1.25a15.52,15.52,0,0,0,3.19,12.66,4.85,4.85,0,0,1,1.24,0,12.78,12.78,0,0,1,3.42.7l.56.2a22.44,22.44,0,0,1,3.33,1.56,33.21,33.21,0,0,1,3.23,2.1c.28.2.55.41.84.62.43-.47.85-1,1.25-1.45.63-.76,1.24-1.55,1.81-2.37a43.4,43.4,0,0,0,2.75-4.38l.35-.68c.09-.17.18-.33.26-.5a40.76,40.76,0,0,0,2.1-4.9c.22-.61.42-1.21.6-1.81l1.77-9.44c-.29-.32-.59-.63-.9-.92a15.06,15.06,0,0,0-3-2.19,15.57,15.57,0,0,0-22.56,9.6Z"/><path d="M1647.8,133.85l.1.17a9.26,9.26,0,0,0,7.07,4.65l.33-.35c.43-.47.85-1,1.26-1.46q.94-1.14,1.81-2.36a43.51,43.51,0,0,0,2.74-4.39l.36-.68.26-.51a42.52,42.52,0,0,0,2.1-4.89,9.22,9.22,0,0,0-3.17-3,9.37,9.37,0,0,0-12.76,3.62A9.46,9.46,0,0,0,1647.8,133.85Z"/><path class="cls-3" d="M1654.92,129.47a3.41,3.41,0,0,0,1.27,4.65,3.35,3.35,0,0,0,2.18.39,43.51,43.51,0,0,0,2.74-4.39,3.38,3.38,0,0,0-6.19-.65Z"/><path d="M1638.22,120.63l1.28-.12,1-.08a95.38,95.38,0,0,1,12.54,0,60.92,60.92,0,0,1,8.27,1.07q1.59.31,3.12.73l1.77-9.44c0-.19,0-.39,0-.58a17.52,17.52,0,0,0-11.34-5.08C1641.8,106,1638.22,120.63,1638.22,120.63Z"/><rect class="cls-1" x="1634.9" y="101.92" width="30.32" height="32.99" transform="translate(229.14 -728.76) rotate(26.7)"/><path class="cls-2" d="M1141.46,133.93a4.85,4.85,0,0,1,1.24,0,12.78,12.78,0,0,1,3.39.81l.55.22a22.45,22.45,0,0,1,3.28,1.67,33.21,33.21,0,0,1,3.16,2.2c.27.21.54.43.82.65.44-.46.88-.93,1.3-1.41.65-.74,1.28-1.51,1.89-2.31a43.4,43.4,0,0,0,2.88-4.29l.38-.67c.1-.16.19-.33.28-.5a40.76,40.76,0,0,0,2.25-4.83,41.71,41.71,0,0,0,2.69-11,1.49,1.49,0,0,0,0-.2,15.12,15.12,0,0,0-3.77-3.23,15.56,15.56,0,0,0-21.26,5.33A15.61,15.61,0,0,0,1141.46,133.93Z"/><path d="M1146.55,134.77l.09.18a9.26,9.26,0,0,0,6.93,4.87l.34-.34c.44-.46.88-.93,1.3-1.42q1-1.11,1.89-2.3a43.5,43.5,0,0,0,2.88-4.3l.38-.67.28-.5a42.52,42.52,0,0,0,2.25-4.82,9.22,9.22,0,0,0-3.08-3,9.37,9.37,0,0,0-12.87,3.22A9.46,9.46,0,0,0,1146.55,134.77Z"/><path class="cls-3" d="M1153.8,130.61a3.41,3.41,0,0,0,1.13,4.68,3.35,3.35,0,0,0,2.17.46,43.5,43.5,0,0,0,2.88-4.3,3.38,3.38,0,0,0-6.17-.84Z"/><path d="M1139.61,114.45a33.55,33.55,0,0,1,3.23-1,42.48,42.48,0,0,1,22.74,1,1.49,1.49,0,0,0,0-.2c.08-.82.14-1.63.18-2.45C1152,102.7,1139.61,114.45,1139.61,114.45Z"/><rect class="cls-1" x="1134.13" y="102.92" width="30.32" height="32.99" transform="translate(196.14 -533.76) rotate(28.49)"/><path class="cls-2" d="M1475.12,133.93a4.85,4.85,0,0,1,1.24,0,12.78,12.78,0,0,1,3.39.81l.55.22a22.45,22.45,0,0,1,3.28,1.67,33.21,33.21,0,0,1,3.16,2.2c.27.21.54.43.82.65.44-.46.88-.93,1.3-1.41.65-.74,1.28-1.51,1.89-2.31a43.4,43.4,0,0,0,2.88-4.29l.38-.67c.1-.16.19-.33.28-.5a40.76,40.76,0,0,0,2.25-4.83,41.71,41.71,0,0,0,2.69-11,1.49,1.49,0,0,0,0-.2,15.12,15.12,0,0,0-3.77-3.23,15.56,15.56,0,0,0-21.26,5.33A15.61,15.61,0,0,0,1475.12,133.93Z"/><path d="M1480.22,134.77l.09.18a9.26,9.26,0,0,0,6.93,4.87l.34-.34c.44-.46.88-.93,1.3-1.42q1-1.11,1.89-2.3a43.5,43.5,0,0,0,2.88-4.3l.38-.67.28-.5a42.52,42.52,0,0,0,2.25-4.82,9.22,9.22,0,0,0-3.08-3,9.37,9.37,0,0,0-12.87,3.22A9.46,9.46,0,0,0,1480.22,134.77Z"/><path class="cls-3" d="M1487.47,130.61a3.41,3.41,0,0,0,1.13,4.68,3.35,3.35,0,0,0,2.17.46,43.5,43.5,0,0,0,2.88-4.3,3.38,3.38,0,0,0-6.17-.84Z"/><path d="M1473.28,114.45a33.55,33.55,0,0,1,3.23-1,42.48,42.48,0,0,1,22.74,1,1.49,1.49,0,0,0,0-.2c.08-.82.14-1.63.18-2.45C1485.66,102.7,1473.28,114.45,1473.28,114.45Z"/><rect class="cls-1" x="1467.79" y="102.92" width="30.32" height="32.99" transform="translate(236.55 -692.92) rotate(28.49)"/><path d="M1327.61,130.93l-.26.5c-.12.23-.24.45-.36.68a43.48,43.48,0,0,1-2.74,4.39c-.58.82-1.19,1.61-1.81,2.37-.4.49-.83,1-1.25,1.45l-.34.36a9.24,9.24,0,0,1-7.07-4.65l-.56-.2a12.77,12.77,0,0,0-3.42-.7,4.84,4.84,0,0,0-1.24,0,15.61,15.61,0,0,1,19.65-23.51,15,15,0,0,1,3.86,3.11,42,42,0,0,1-2.36,11.26A44.6,44.6,0,0,1,1327.61,130.93Z"/><path class="cls-2" d="M1327.61,130.93l-.26.5c-.12.23-.24.45-.36.68a43.48,43.48,0,0,1-2.74,4.39c-.58.82-1.19,1.61-1.81,2.37-.4.49-.83,1-1.25,1.45l-.84-.62a33.1,33.1,0,0,0-3.24-2.11,22.43,22.43,0,0,0-3.33-1.56l-.56-.2a12.77,12.77,0,0,0-3.42-.7,4.84,4.84,0,0,0-1.24,0,15.61,15.61,0,0,1,19.65-23.51,15,15,0,0,1,3.86,3.11,42,42,0,0,1-2.36,11.26A44.6,44.6,0,0,1,1327.61,130.93Z"/><path d="M1327.61,130.93l-.26.5c-.12.23-.24.45-.36.68a43.48,43.48,0,0,1-2.74,4.39c-.58.82-1.19,1.61-1.81,2.37-.4.49-.83,1-1.25,1.45l-.34.36a9.24,9.24,0,0,1-7.07-4.65l-.1-.18a9.45,9.45,0,0,1,12.86-12.76,9.28,9.28,0,0,1,3.17,2.95A44.6,44.6,0,0,1,1327.61,130.93Z"/><path class="cls-3" d="M1320.79,131.46a3.41,3.41,0,0,0,1.27,4.65,3.35,3.35,0,0,0,2.18.39,43.51,43.51,0,0,0,2.74-4.39,3.38,3.38,0,0,0-6.2-.65Z"/><rect class="cls-1" x="1300.77" y="103.92" width="30.32" height="32.99" transform="translate(194.18 -578.05) rotate(26.68)"/><path class="cls-2" d="M1808.11,115.59a15.55,15.55,0,0,0-1.59,11.7,15.27,15.27,0,0,0,2.88,5.82,4.85,4.85,0,0,1,1.24,0,12.78,12.78,0,0,1,3.41.73l.56.21a22.44,22.44,0,0,1,3.32,1.59,33.21,33.21,0,0,1,3.21,2.13c.28.2.55.42.83.63.43-.47.86-1,1.27-1.44.63-.75,1.25-1.54,1.83-2.35a43.67,43.67,0,0,0,2.67-4.15l.12-.21.36-.68c.1-.16.18-.33.27-.5a40.76,40.76,0,0,0,2.14-4.88,42.32,42.32,0,0,0,2.47-11.23,15.12,15.12,0,0,0-3.85-3.14A15.48,15.48,0,0,0,1808.11,115.59Z"/><path d="M1813.64,127.36a9.46,9.46,0,0,0,.86,6.47l.1.18a9.25,9.25,0,0,0,7,4.71l.33-.36c.43-.47.86-1,1.27-1.44.63-.75,1.25-1.54,1.83-2.35a43.67,43.67,0,0,0,2.67-4.15l.12-.21.36-.68c.1-.16.18-.33.27-.5a40.76,40.76,0,0,0,2.14-4.88,9.25,9.25,0,0,0-3.15-3,9.37,9.37,0,0,0-12.79,3.52A9.53,9.53,0,0,0,1813.64,127.36Z"/><path class="cls-3" d="M1821.66,129.51a3.41,3.41,0,0,0,1.23,4.66,3.32,3.32,0,0,0,2.17.41,43.67,43.67,0,0,0,2.67-4.15l.12-.21a3.38,3.38,0,0,0-6.19-.7Z"/><path d="M1828.59,128.82l-.1.2c-.09.17-.17.34-.27.5l-.36.68-.12.21a28.66,28.66,0,0,0-5.33-1.82,51,51,0,0,0-8.76-1.25,70,70,0,0,0-7.13-.06c-1.31.06-2.09.13-2.09.13s-3.66-8.44-1.47-15.06l1.55-3c2.32-3.1,6.76-5.2,14.81-4.71,7.64.46,11.82,2.94,13.88,6.25,0,.68-.05,1.35-.11,2a42.33,42.33,0,0,1-2.47,11.23A40.94,40.94,0,0,1,1828.59,128.82Z"/><rect class="cls-1" x="1800.39" y="103.25" width="32.99" height="30.32" transform="translate(882.86 1681.33) rotate(-62.87)"/></g></g></svg>