<svg xmlns="http://www.w3.org/2000/svg" viewBox="0 0 1170 225"><defs><style>.cls-1{fill:none;}.cls-2{fill:#f2eee9;}.cls-3{fill:#fff;}</style></defs><title>elmus-swim-sprite</title><g id="Calque_2" data-name="Calque 2"><g id="Personnage_forme" data-name="Personnage forme"><path d="M116.7,220.79l2.15-11.59,1.47-7.92a4.8,4.8,0,0,1,1.63-2.81,4.66,4.66,0,0,1,3-1.11h.42a4.75,4.75,0,0,1,4.64,3.91l1.49,8a255.62,255.62,0,0,0,14.13-40.39c0-.6-.06-1.12-.09-1.56-.08-1-.15-1.56-.15-1.56l-20.17,11.72L104.94,165.8S101.51,191.57,116.7,220.79Z"/><path d="M104.61,164.69c0,9,9.17,16.3,20.48,16.3s20.48-7.3,20.48-16.3a14.12,14.12,0,0,0-3.84-9.5h.13c-22.31-20.46-10.13-39.68-5.85-45.11.78-1,1.29-1.52,1.29-1.52s-3.77-3-12.1-3.24h-.1c-.82,0-1.6,0-2.33,0-5.61.33-8.7,2.3-9.6,3h0l.25.28.56.64.23.27.11.13.1.11.09.11,0,.06c1.51,1.79,2.41,3,2.62,3.32l0,0v0c14.5,19.72-8.89,41.87-8.89,41.87h.13A14.12,14.12,0,0,0,104.61,164.69Z"/><path d="M83,85.59c0,.52,0,1,0,1.54,0,.12,0,.25,0,.37a1,1,0,0,0,.39.76,1,1,0,0,0,.38.16l.23.06c10.65,2.63,20.62,11.74,20.62,11.74l0,0,.23.19.35.29.32.27.55.47.11.1.29.25.56.5.9.83.14.13.53.5.12.12.46.44.19.18.39.39.25.26.31.31.52.53,0,0,.56.58.1.1.43.46.12.13.4.43.11.12.38.42,0,.06.11.13.3.34.11.13.53.61.09.11.1.11.09.11,0,.06a21.58,21.58,0,0,1,8.25-2.86h.13a20.86,20.86,0,0,1,2.16-.11h.1a20.78,20.78,0,0,1,3.36.29h0l.67.13a20.89,20.89,0,0,1,7.31,3.19l.32.22.32.23,0,0,.36.27,0,0a17.26,17.26,0,0,1,2.81,2.73l.7.85c.17.22.32.44.47.66l.06.08.06.08q.21.29.43.55l.27.3,0,0,.32.31a8,8,0,0,0,4.1,2h0a7.83,7.83,0,0,0,1.38.12,7.92,7.92,0,0,0,2.09-.28,8,8,0,0,0,2.61-1.24h0a8,8,0,0,0,1.58-1.49l.06-.07q.81-.81,1.58-1.67.52-.58,1-1.19l.49-.61c.33-.41.65-.82,1-1.24h0l.51-.69q.5-.7,1-1.42l.46-.73,0,0a41.84,41.84,0,0,0,2.24-4.09l.07-.15a42.87,42.87,0,0,0,2.5-6.61l.13-.47c.17-.62.33-1.25.47-1.88q.33-1.46.56-2.95a44.12,44.12,0,0,0,.48-5.19c0-.26,0-.52,0-.78s0-.38,0-.57a43.05,43.05,0,0,0-3.26-16.57A42.48,42.48,0,0,0,133.3,43.69a54.35,54.35,0,0,0-16.16,0l-.29,0A42.58,42.58,0,0,0,83,85.59Z"/><path d="M104.94,167.45s3.61,18.41,13.9,41.75q1.77,4,3.82,8.24a2.8,2.8,0,0,0,5.05,0c1.35-2.76,2.61-5.47,3.79-8.13a266.12,266.12,0,0,0,12.11-33c1-3.29,1.62-5.83,2-7.41v0c0-.56.08-1.11.11-1.66l-.21.12-6.11,3.56-14.2,8.26Z"/><path d="M83.17,82.25s-4.37,27.18,30.36,26.63l5.55-1Z"/><path d="M145.34,162.23s1.27,6.1-.75,10.69l-3.93-7.53Z"/><path d="M78.42,39.52H77a69.29,69.29,0,0,1,1.4-10.2s3.26-14.06,20.08-15.44c0,0,23.06-2.21,29,24.26,0,0,.81,5,4.65,6.78.11.05-17.68-.17-17.68-.17,4.07-2.48,3.93-5.35,4.34-7.44,3.53-17.92-16.28-19-16.28-19S88.2,16.91,82.5,27.93A49.06,49.06,0,0,0,78.42,39.52Z"/><path d="M110.1,153.53a38.57,38.57,0,0,0-5.25,18.41,60.51,60.51,0,0,1-2.8,16.48l-.28.9-.08.27h-.21l-.49,0c0-.08,0-.16,0-.23C97.7,163.63,110.1,153.53,110.1,153.53Z"/><path d="M101.77,189.59s.31,1.58.07,1.67-.5-1.66-.5-1.66Z"/><path d="M101,189.59s-.31,1.58-.07,1.67.5-1.66.5-1.66Z"/><rect class="cls-1" x="334.28" width="167.14" height="224.87" transform="translate(835.71 224.87) rotate(-180)"/><path d="M432.18,214.39l3.75-11.17,2.56-7.64a4.79,4.79,0,0,1,2-2.55,4.66,4.66,0,0,1,3.14-.67l.42.06A4.76,4.76,0,0,1,448.1,197l.35,8.16a255.1,255.1,0,0,0,19.64-38c.06-.6.1-1.12.12-1.56.07-1,.07-1.56.07-1.56l-21.6,8.74-18.44-14.48S421.23,183.31,432.18,214.39Z"/><path d="M428.07,157.14c-1.26,8.91,6.8,17.44,18,19s21.3-4.32,22.56-13.23a14.14,14.14,0,0,0-2.48-10l.13,0c-19.22-23.42-4.47-40.72.52-45.49.91-.87,1.49-1.32,1.49-1.32s-3.31-3.5-11.53-4.92l-.1,0c-.81-.14-1.58-.23-2.31-.3-5.6-.47-8.93,1-9.92,1.59h0l.21.31.47.71.19.3.09.14.08.13.08.12,0,.06c1.25,2,2,3.35,2.13,3.66l0,0v0c11.59,21.58-14.66,40.19-14.66,40.19l.13,0A14.09,14.09,0,0,0,428.07,157.14Z"/><path d="M501.38,83.66c-.05,1-.14,2.1-.27,3.15-.09.73-.19,1.45-.32,2.18,0,.19-.06.38-.1.56l-.15.77q-.23,1.1-.51,2.18c-.24,1-.52,1.92-.83,2.86-.17.52-.36,1-.55,1.54-.08.22-.16.43-.25.64s-.16.42-.25.62c-.25.59-.51,1.19-.78,1.77l-.21.43a42.32,42.32,0,0,1-3.56,6.1,1.13,1.13,0,0,1-.1.13,44.48,44.48,0,0,1-2.89,3.66l0,0-.58.63c-.39.42-.79.84-1.19,1.24-.21.2-.41.4-.62.59h0c-.38.35-.76.72-1.15,1.06l-.59.51c-.4.34-.8.66-1.21,1-.6.47-1.21.93-1.83,1.37l-.07.06a8.38,8.38,0,0,1-1.81,1.21,8.08,8.08,0,0,1-2.79.79,8.22,8.22,0,0,1-2.1-.08,8.47,8.47,0,0,1-1.34-.35h0a8,8,0,0,1-3.7-2.7l-.26-.36,0,0-.21-.34c-.12-.2-.23-.4-.34-.61l0-.09,0-.08c-.11-.25-.23-.49-.35-.74l-.55-1a17.48,17.48,0,0,0-2.31-3.17l0,0c-.09-.11-.2-.21-.3-.32a.08.08,0,0,0,0,0c-.09-.09-.18-.19-.28-.28l-.28-.27-.25-.23a20.68,20.68,0,0,0-6.43-4.15l-.63-.24h0a21.25,21.25,0,0,0-3.26-.86l-.11,0c-.71-.12-1.43-.2-2.15-.25h-.12a21.68,21.68,0,0,0-8.28,1.29,0,0,0,0,0,0,0l-.33.12,0-.07a.41.41,0,0,1-.05-.09l0,0a.57.57,0,0,0-.08-.13.76.76,0,0,0-.07-.12c-.13-.23-.27-.45-.42-.7l-.09-.14-.24-.39-.09-.14a.21.21,0,0,0,0-.06l-.3-.48-.09-.14-.32-.49-.09-.14c-.12-.17-.24-.35-.35-.53a.81.81,0,0,1-.08-.12l-.46-.66s0,0,0,0l-.43-.6-.25-.36-.21-.3c-.11-.14-.21-.29-.32-.44l-.16-.21L440.3,97a1.13,1.13,0,0,1-.1-.13l-.44-.58-.12-.16q-.38-.47-.75-1l-.48-.58-.24-.3-.09-.11-.46-.55-.27-.32-.3-.34-.19-.23,0,0S428.53,82,418.46,77.61l-.22-.09a1,1,0,0,1-.34-.22l0-.07a1,1,0,0,1-.21-.75c0-.13,0-.25.05-.37.06-.5.14-1,.23-1.52a42.49,42.49,0,0,1,38.85-35.5c.5,0,1-.06,1.5-.07h.29a54,54,0,0,1,12.57,1.79c1.12.29,2.24.62,3.34,1a42.4,42.4,0,0,1,24.08,24.38l.07.19c.31.81.59,1.61.84,2.44a1.89,1.89,0,0,1,.07.22c.31,1,.59,2,.82,3.05v.11a40.28,40.28,0,0,1,.8,4.8v.12q.17,1.53.21,3.08C501.44,81.36,501.44,82.51,501.38,83.66Z"/><path d="M428,159.92s1,18.74,7.92,43.3q1.19,4.24,2.63,8.7a2.8,2.8,0,0,0,5,.72c1.72-2.54,3.35-5,4.89-7.51a265.57,265.57,0,0,0,16.61-30.93c1.41-3.12,2.42-5.54,3-7.05v0l.34-1.63-.23.09-6.55,2.65-15.22,6.16Z"/><path d="M418.27,74.55s-6.85,26.65,27.78,29.34l5.62-.46Z"/><path d="M468.73,160.48s.41,6.22-2.24,10.48l-2.83-8Z"/><path d="M468.08,35.06a4,4,0,0,1-.07-.43,41.2,41.2,0,0,0-1.94-7.34,29.47,29.47,0,0,0-5.3-9.12l0,0h0c-11.25-10.31-29.8-2.68-29.8-2.68a33.14,33.14,0,0,0-11.5,7.75,29.1,29.1,0,0,0-4.05,5c.9-.25,2-.62,3.11-1s2.15-.8,3-1.15c1.3-.51,2.22-.89,2.22-.89C450,5.71,458.67,22.59,459.33,24l0,.06a16.56,16.56,0,0,1,0,9.34c-.52,2.07-.52,4.94-4.71,7.2,0,0,17.75,1.14,17.64,1.08C469.24,40,468.31,36.3,468.08,35.06Z"/><path d="M434.7,147.28c-4.06,6.92-7.87,17.46-8,22.17-.16,5.6-3.36,13.65-5,19l-.28.9-.08.27h-.21l-.49,0c0-.08,0-.16,0-.23C417.3,163.63,434.7,147.28,434.7,147.28Z"/><path d="M421.37,189.59s.31,1.58.07,1.67-.5-1.66-.5-1.66Z"/><path d="M420.57,189.59s-.31,1.58-.07,1.67.5-1.66.5-1.66Z"/><path d="M273.63,215.89l3-11.39,2.07-7.79a4.79,4.79,0,0,1,1.84-2.67,4.66,4.66,0,0,1,3.09-.87l.42,0a4.75,4.75,0,0,1,4.33,4.26l.87,8.12a255.36,255.36,0,0,0,17.15-39.18c0-.6,0-1.13,0-1.56,0-1,0-1.56,0-1.56l-21,10.13-19.33-13.25S260.71,185.59,273.63,215.89Z"/><path d="M265.85,159c-.68,9,7.91,17,19.18,17.83s21-5.7,21.66-14.67a14.13,14.13,0,0,0-3.11-9.77h.13C283,130.3,296.63,112.07,301.3,107c.85-.92,1.4-1.41,1.4-1.41s-3.53-3.28-11.82-4.16h-.1c-.82-.09-1.59-.13-2.33-.14-5.62-.11-8.85,1.63-9.79,2.23h0l.23.29.51.68.21.29.1.14.09.12.09.12,0,.06c1.37,1.9,2.18,3.21,2.36,3.51l0,0v0c13,20.78-12,41.06-12,41.06h.13A14.11,14.11,0,0,0,265.85,159Z"/><path d="M334.28,80.92c0,1,0,2.1-.07,3.16,0,.73-.1,1.46-.18,2.19,0,.19,0,.39-.06.57l-.1.77q-.15,1.12-.37,2.21c-.18,1-.4,2-.64,2.91-.14.53-.29,1.06-.45,1.57-.07.23-.13.44-.21.66s-.13.43-.21.64c-.21.61-.43,1.22-.67,1.82l-.18.45a42.37,42.37,0,0,1-3.16,6.32,1.13,1.13,0,0,1-.09.14,44.54,44.54,0,0,1-2.65,3.84l0,0-.54.67c-.36.45-.74.89-1.11,1.31-.2.21-.38.43-.58.63h0c-.36.38-.71.76-1.08,1.13l-.56.55c-.38.37-.76.72-1.14,1.07-.57.51-1.15,1-1.74,1.49l-.07.06a8.39,8.39,0,0,1-1.73,1.32,8.09,8.09,0,0,1-2.74,1,8.22,8.22,0,0,1-2.1.06,8.46,8.46,0,0,1-1.36-.26h0a8,8,0,0,1-3.87-2.45l-.28-.35,0,0-.23-.33c-.13-.19-.26-.39-.38-.59l0-.09-.05-.08c-.13-.24-.26-.48-.4-.71l-.61-.92a17.45,17.45,0,0,0-2.51-3l0,0c-.1-.1-.21-.2-.32-.3l0,0-.3-.26-.3-.25-.26-.21a20.65,20.65,0,0,0-6.68-3.72l-.64-.2h0a21.23,21.23,0,0,0-3.31-.64H290c-.72-.07-1.44-.11-2.16-.11h-.12a21.69,21.69,0,0,0-8.18,1.83,0,0,0,0,0,0,0l-.32.14,0-.07a.41.41,0,0,1-.06-.09l0,0a.57.57,0,0,0-.09-.13.76.76,0,0,0-.08-.12c-.14-.22-.3-.43-.46-.67l-.1-.13-.27-.38-.1-.14,0-.06-.33-.46-.1-.13-.35-.47-.1-.13c-.13-.16-.26-.34-.38-.51l-.09-.12-.5-.63,0,0-.47-.58-.27-.35-.23-.29c-.12-.13-.23-.28-.35-.42l-.17-.2-.4-.49a1.13,1.13,0,0,1-.11-.12l-.48-.55-.13-.15-.81-.92-.52-.55-.26-.29-.1-.1-.5-.52-.29-.3-.32-.32-.2-.22,0,0s-9-10.11-19.3-13.84l-.23-.08a1,1,0,0,1-.35-.2l-.05-.07a1,1,0,0,1-.26-.73c0-.13,0-.25,0-.38,0-.51.07-1,.13-1.53a42.54,42.54,0,0,1,36.49-38c.5-.06,1-.13,1.49-.17h.29a54,54,0,0,1,12.66,1c1.14.22,2.28.48,3.4.78a42.35,42.35,0,0,1,25.6,22.76l.08.19c.36.78.69,1.57,1,2.38a1.89,1.89,0,0,1,.08.22c.37,1,.72,2,1,3v0l0,.08a40.26,40.26,0,0,1,1.11,4.73v.12q.26,1.51.41,3.06C334.19,78.62,334.26,79.77,334.28,80.92Z"/><path d="M266,161.8s2.2,18.63,10.69,42.69q1.46,4.16,3.19,8.51a2.8,2.8,0,0,0,5,.39c1.55-2.64,3-5.26,4.4-7.82a265.84,265.84,0,0,0,14.58-31.95c1.2-3.2,2.06-5.69,2.57-7.24v0c.08-.55.16-1.1.24-1.65l-.22.11-6.36,3.07L285.3,175Z"/><path d="M250.76,77.25s-5.12,27,29.61,27.47l5.58-.82Z"/><path d="M306.64,159.7s.81,6.18-1.56,10.6l-3.34-7.81Z"/><path d="M297.92,34.59a4,4,0,0,1-.1-.42,41.17,41.17,0,0,0-2.41-7.2,29.44,29.44,0,0,0-5.87-8.76l0,0h0c-11.89-9.56-29.91-.74-29.91-.74a33.18,33.18,0,0,0-11,8.49,29.14,29.14,0,0,0-3.72,5.3c.89-.3,2-.75,3-1.22s2.09-.94,3-1.35c1.26-.59,2.16-1,2.16-1,24.91-21.14,34.67-4.86,35.41-3.54l0,.06a16.56,16.56,0,0,1,.64,9.32c-.38,2.1-.2,5-4.24,7.5,0,0,17.79,0,17.68-.07C299.4,39.43,298.23,35.82,297.92,34.59Z"/><path d="M272.62,147.28c-4.06,6.92-7.87,17.46-8,22.17-.16,5.6-3.36,13.65-5,19l-.28.9-.08.27H259l-.49,0c0-.08,0-.16,0-.23C255.22,163.63,272.62,147.28,272.62,147.28Z"/><path d="M259.29,189.59s.31,1.58.07,1.67-.5-1.66-.5-1.66Z"/><path d="M258.49,189.59s-.31,1.58-.07,1.67.5-1.66.5-1.66Z"/><path d="M1011.24,127.06l11.52,2.16,7.87,1.48a4.76,4.76,0,0,1,3.89,4.67v.43a4.76,4.76,0,0,1-3.89,4.68l-8,1.5a251.62,251.62,0,0,0,40.12,14.22l1.55-.1c1-.08,1.55-.15,1.55-.15l-11.64-20.3,11.64-20.42S1040.26,111.77,1011.24,127.06Z"/><path d="M1125.94,135.52v.1c-.21,7.45-2.57,11.26-3.1,12-.21-.09-.41-.2-.62-.31s-.58-.5-1-.84-.83-.64-1.34-1c-6.75-4.84-24.58-14-43.47,6.91v-.13a14.46,14.46,0,0,1-7,3.64,13,13,0,0,1-2.44.23,13.2,13.2,0,0,1-1.68-.11,10.34,10.34,0,0,1-1.14-.21,13.13,13.13,0,0,1-3.8-1.49c-5.64-3.21-9.57-10.43-9.57-18.8,0-9.79,5.37-18,12.57-20.1h.05a10,10,0,0,1,1.23-.29,12.05,12.05,0,0,1,2.34-.22,13.92,13.92,0,0,1,9.44,3.88v-.14s19,20.31,37.38,11.51c.33-.15.65-.32,1-.49s.79-.43,1.18-.69c.69-.41,1.37-.88,2.05-1.38h0l0,0c.28-.2,1.52-1.12,3.29-2.64l.06,0,.11-.1a.53.53,0,0,0,.11-.1l.13-.11.27-.23c.2-.18.42-.36.63-.56l.28-.24q.14.18.33.48a17.77,17.77,0,0,1,2.46,7.4c.08.56.13,1.16.17,1.78S1126,134.69,1125.94,135.52Z"/><path d="M1138,141.23a19.94,19.94,0,0,1-1.37,1.49c-2.56,2.58-8.32,7.38-13.76,4.93-.21-.09-.41-.2-.62-.31a10,10,0,0,1-2.34-1.84h0l.08-11.3,1.23-4.14,1.77-5.93a2.51,2.51,0,0,1,.32-.11C1125.22,123.38,1135.26,121.23,1138,141.23Z"/><path d="M1087.17,99.23c-.13.5-.24,1-.35,1.5l-.08.36a.95.95,0,0,0,.52,1.09l.21.11c9.68,5.19,17.12,16.49,17.12,16.49l0,0,.18.24.27.37.24.34.41.59.09.12.22.31.42.63.67,1,.11.16.39.62.09.14.34.54.14.22.29.47.18.31.23.38.37.64,0,0,.4.7.07.13.31.56.08.15.28.52.08.14.27.51,0,.07.08.15.21.41.08.15.36.72.06.13.07.13.07.13,0,.07a21.54,21.54,0,0,1,8.7-.73h.13a20.87,20.87,0,0,1,2.13.43l.1,0a20.82,20.82,0,0,1,3.19,1.11h0l.62.29a21,21,0,0,1,6.31,4.9l.25.29.25.3,0,0,.28.35,0,0a17.34,17.34,0,0,1,2.06,3.34l.47,1c.11.25.2.5.3.76l0,.09,0,.09q.13.33.28.64l.19.36,0,0,.23.38a8.05,8.05,0,0,0,3.47,3h0a7.95,7.95,0,0,0,3.4.71,8,8,0,0,0,2.84-.56h0a8,8,0,0,0,1.9-1.06l.07-.05q1-.59,1.94-1.23.65-.44,1.28-.9l.63-.47c.42-.31.83-.64,1.23-1h0l.66-.55q.66-.55,1.29-1.14l.63-.59,0,0a41.65,41.65,0,0,0,3.17-3.41l.11-.13a42.7,42.7,0,0,0,4-5.79l.24-.42c.32-.56.62-1.13.92-1.71q.68-1.33,1.26-2.72a44,44,0,0,0,1.74-4.91l.21-.75.15-.55a42.92,42.92,0,0,0-22.52-49.12A54.42,54.42,0,0,0,1130.49,67l-.29,0A42.4,42.4,0,0,0,1087.17,99.23Z"/><path d="M1064.22,115.23s-18.29,3.64-41.47,14q-4,1.79-8.18,3.85a2.84,2.84,0,0,0,0,5.09c2.74,1.35,5.44,2.63,8.08,3.82a262.09,262.09,0,0,0,32.76,12.19c3.27,1,5.79,1.63,7.36,2h0l1.65.11-.12-.21-3.53-6.15-8.2-14.3Z"/><path d="M1088.11,96s-10.88,25.26,22.91,33.33l5.62.43Z"/><path d="M1069.41,155.9s-6.06,1.28-10.62-.76l7.48-4Z"/><path d="M1011.61,144l11.52-2.16,7.87-1.48a4.76,4.76,0,0,0,3.89-4.67v-.43a4.76,4.76,0,0,0-3.89-4.68l-8-1.5a251.62,251.62,0,0,1,40.12-14.22l1.55.1c1,.08,1.55.15,1.55.15l-11.64,20.3,11.64,20.42S1040.63,159.32,1011.61,144Z"/><path d="M1154.37,71.47a4,4,0,0,1,.11-.42,41.23,41.23,0,0,0,1.26-7.49A29.61,29.61,0,0,0,1154.68,53a.13.13,0,0,0,0,0h0c-4.09-9.62-14.72-13-21.05-14.25h0c-.79-.15-1.51-.27-2.14-.35-3-.54-8.43-1.7-11.22-3.39l.13.12A74.29,74.29,0,0,1,1104.54,24c.7,1,4.47,5,4.47,5a52.67,52.67,0,0,0,13.15,9.42,43.66,43.66,0,0,0,12.45,4.3c15.75,1.79,16.34,13.78,16.36,15v.07a16.51,16.51,0,0,1-3.82,8.52c-1.32,1.67-2.51,4.27-7.26,4.58,0,0,15.68,8.45,15.61,8.35C1153.4,76.43,1154.06,72.69,1154.37,71.47Z"/><rect class="cls-1" x="1002.86" y="0.02" width="167.14" height="224.87" transform="translate(2172.86 224.92) rotate(-180)"/><path d="M727.44,131.68c-7.9,1.16-18.45,4.78-22.17,7.63-4.43,3.39-12.67,5.92-17.85,8l-.87.34-.26.1-.13-.16c-.11-.14-.21-.28-.29-.39L686,147C703.87,128.3,727.44,131.68,727.44,131.68Z"/><path d="M686.34,147.77s-1,1.24-1.24,1.1,1-1.43,1-1.43Z"/><path d="M685.84,147.14s-1.42.74-1.34,1,1.6-.65,1.6-.65Z"/><path d="M677.94,172.81l11-4.07,7.52-2.78a4.72,4.72,0,0,1,5.71,2l.22.37a4.79,4.79,0,0,1-1,6l-6.09,5.39a251.3,251.3,0,0,0,41.7-8.43c.5-.33.93-.63,1.28-.88.83-.58,1.25-.93,1.25-.93l-20.31-11.46-.37-23.54S695.12,144.73,677.94,172.81Z"/><path d="M719.65,133.67c-7.69,4.6-9.23,16.27-3.44,26.05s16.7,14,24.39,9.39a14.06,14.06,0,0,0,6.15-8.18l.07.11c6.06-29.76,28.7-29,35.52-28.13,1.24.17,2,.34,2,.34s.64-4.79-3.43-12.13l-.05-.09c-.4-.72-.81-1.39-1.22-2-3.15-4.69-6.41-6.35-7.45-6.78h0l-.11.35-.26.81-.11.34-.06.16a1.27,1.27,0,0,1,0,.14l0,.14,0,.07c-.75,2.22-1.36,3.64-1.49,4l0,.05v0C760.53,140.94,729.66,132,729.66,132l.07.11A13.9,13.9,0,0,0,719.65,133.67Z"/><path d="M826.27,122.24c-.39,1-.83,1.93-1.3,2.88-.33.65-.66,1.3-1,1.94-.09.17-.18.34-.28.5l-.4.67q-.58,1-1.2,1.88c-.55.83-1.13,1.64-1.73,2.42-.33.44-.68.86-1,1.27-.15.18-.29.35-.45.52s-.29.35-.44.5c-.43.48-.88.95-1.32,1.41l-.34.34a42,42,0,0,1-5.38,4.55l-.14.09a44.19,44.19,0,0,1-3.94,2.48l0,0-.76.4c-.51.27-1,.52-1.53.77l-.78.35h0c-.48.2-1,.42-1.44.61l-.73.29c-.49.19-1,.36-1.47.53-.72.24-1.45.47-2.18.68l-.09,0a8.33,8.33,0,0,1-2.11.53,8.07,8.07,0,0,1-2.89-.2,8.24,8.24,0,0,1-2-.78,8.51,8.51,0,0,1-1.15-.78h0a8,8,0,0,1-2.6-3.79c0-.14-.09-.29-.13-.43l0,0-.08-.39c0-.23-.08-.46-.12-.69,0,0,0-.07,0-.1l0-.09c0-.27-.05-.54-.09-.81l-.2-1.09a17.57,17.57,0,0,0-1.13-3.77l0,0c0-.13-.12-.27-.18-.4a.08.08,0,0,0,0-.05c-.05-.12-.11-.24-.17-.36s-.11-.23-.17-.35-.11-.21-.16-.3a20.81,20.81,0,0,0-4.68-6.07l-.51-.44h0l0,0A21.35,21.35,0,0,0,777,125l-.1-.06c-.63-.35-1.28-.67-1.95-1l0,0h0l-.07,0a21.69,21.69,0,0,0-8.23-1.56h-.36v-.08a.41.41,0,0,1,0-.1s0,0,0,0a.58.58,0,0,0,0-.15.76.76,0,0,0,0-.14c0-.26-.1-.52-.17-.8a1.65,1.65,0,0,1,0-.16c0-.14-.06-.3-.1-.45s0-.11,0-.16a.21.21,0,0,0,0-.07l-.12-.56s0-.11,0-.16-.09-.37-.14-.57l0-.16c-.06-.2-.11-.41-.15-.62a.82.82,0,0,1,0-.14c-.07-.25-.14-.51-.21-.78,0,0,0,0,0,0-.07-.24-.13-.47-.21-.71s-.07-.28-.12-.43l-.1-.36c-.06-.17-.1-.35-.15-.53s0-.17-.08-.25l-.18-.61a1.14,1.14,0,0,1-.05-.16c-.08-.23-.14-.47-.22-.7,0-.06,0-.12-.06-.19q-.2-.57-.39-1.16l-.26-.71-.13-.37a1,1,0,0,1,0-.13l-.25-.68-.15-.39-.17-.42c0-.09-.07-.19-.1-.28l0,0S758.14,96.23,750.1,88.7l-.18-.16a1,1,0,0,1-.25-.32.3.3,0,0,1,0-.08,1,1,0,0,1,0-.77l.17-.33c.22-.45.47-.91.72-1.36A42.27,42.27,0,0,1,799,65.25c.48.14,1,.28,1.44.44l.27.11A54.21,54.21,0,0,1,812,71.7c1,.65,1.91,1.34,2.82,2.06a42.65,42.65,0,0,1,14.62,31.07c0,.06,0,.14,0,.2,0,.86,0,1.72,0,2.58a1.89,1.89,0,0,1,0,.23c0,1.05-.11,2.11-.24,3.15v0l0,.08a40.28,40.28,0,0,1-.83,4.79V116l0,0q-.35,1.49-.82,3C827.09,120.09,826.71,121.18,826.27,122.24Z"/><path d="M717.47,135.37s-13.87,12.54-28.53,33.37q-2.53,3.6-5.08,7.52a2.83,2.83,0,0,0,2.58,4.37c3-.24,6-.54,8.88-.88a261.65,261.65,0,0,0,34.35-6.38c3.3-.85,5.8-1.58,7.36-2h0l1.47-.75-.21-.12L732.14,167l-14.31-8.07Z"/><path d="M750.94,85.74s-15.29,22.83,16.47,37l5.45,1.46Z"/><path d="M742.58,167.65s-4.55,4.22-9.51,4.81l4.42-7.25Z"/><path d="M827.19,84.44a3.92,3.92,0,0,1,.29-.32A41,41,0,0,0,831.94,78a29.55,29.55,0,0,0,3.73-9.88v0h0c.92-15.29-16.61-25-16.61-25a33,33,0,0,0-13.21-4.15,28.74,28.74,0,0,0-6.45,0c.76.55,1.74,1.18,2.74,1.8s2,1.18,2.8,1.66c1.21.7,2.08,1.18,2.08,1.18,31.51,8.34,23.9,25.74,23.25,27.11l0,.06A16.37,16.37,0,0,1,823,76.56c-1.93.9-4.15,2.69-8.53.82,0,0,10.26,14.63,10.23,14.51C824.11,88.44,826.37,85.4,827.19,84.44Z"/><path d="M687.2,188.71l8.56-8.05,5.85-5.5a4.81,4.81,0,0,0,1.48-2.89,4.74,4.74,0,0,0-.69-3.15l-.23-.36a4.72,4.72,0,0,0-5.77-1.84L688.86,170a254.18,254.18,0,0,1,26.25-33.69c.52-.3,1-.55,1.36-.76.89-.48,1.38-.71,1.38-.71l1,23.42,20.71,10.93S719.84,185.91,687.2,188.71Z"/><path class="cls-2" d="M811.64,40.52c0,.19,0,.39,0,.58a.45.45,0,0,1,0,.11,4.54,4.54,0,0,1-.05.53.59.59,0,0,1,0,.14,9.94,9.94,0,0,1-.89,3h0v0a1.1,1.1,0,0,0-.07.13l-.06.12a10,10,0,0,1-3.45,3.78l0,0c-.21.14-.44.27-.66.39a10.09,10.09,0,0,1-12.65-2.55,2.89,2.89,0,0,1-.22-.3,8.43,8.43,0,0,1-.64-1h0a9.56,9.56,0,0,1-.93-2.18,9.15,9.15,0,0,1-.32-1.57,9.92,9.92,0,0,1-.08-1.23c0-.25,0-.51,0-.76s0-.31.05-.46v0a9.77,9.77,0,0,1,1.25-3.74h0a2.93,2.93,0,0,1,.28-.44l.22-.34.07-.09.29-.39a5.51,5.51,0,0,1,.45-.51c.13-.14.26-.28.4-.41a9.81,9.81,0,0,1,2.08-1.55c.16-.09.32-.18.49-.26l.51-.23.52-.2a1.77,1.77,0,0,1,.3-.1,2.62,2.62,0,0,1,.4-.12,9.41,9.41,0,0,1,1.08-.24l.44-.06.58-.05.59,0q.38,0,.75,0a3.91,3.91,0,0,1,.48.05h.06l.34.05a9.55,9.55,0,0,1,3,1,2.49,2.49,0,0,1,.28.15l.54.32,0,0a6.18,6.18,0,0,1,.53.36,0,0,0,0,0,0,0h0l.07.05a10.11,10.11,0,0,1,3.58,5.24A9.87,9.87,0,0,1,811.64,40.52Z"/><path d="M799.87,40.7a6.11,6.11,0,0,1-.63,2.71A6.06,6.06,0,0,1,794,46.78h-.29a2.89,2.89,0,0,1-.22-.3,8.43,8.43,0,0,1-.64-1h0a9.56,9.56,0,0,1-.93-2.18,9.15,9.15,0,0,1-.32-1.57,9.92,9.92,0,0,1-.08-1.23c0-.25,0-.51,0-.76s0-.31.05-.46v0a9.77,9.77,0,0,1,1.25-3.74h0a2.93,2.93,0,0,1,.28-.44l.28-.42h0a1.83,1.83,0,0,1,.33,0h.17a5.6,5.6,0,0,1,1.09.12,6.11,6.11,0,0,1,4.6,4.24A6,6,0,0,1,799.87,40.7Z"/><path class="cls-3" d="M795.15,41.22a2.31,2.31,0,0,1-3.23,2.11,9.15,9.15,0,0,1-.32-1.57,9.92,9.92,0,0,1-.08-1.23c0-.25,0-.51,0-.76s0-.31.05-.46v0a2.28,2.28,0,0,1,1.24-.36,2.36,2.36,0,0,1,1.29.39A2.32,2.32,0,0,1,795.15,41.22Z"/><path d="M810.65,44.87v0a1.1,1.1,0,0,0-.07.13l-.06.12a10,10,0,0,1-3.45,3.78l0,0c-.21.14-.44.27-.66.39a10.09,10.09,0,0,1-12.65-2.55,2.89,2.89,0,0,1-.22-.3,8.43,8.43,0,0,1-.64-1h0a21.83,21.83,0,0,0,2.83,1c3.51.94,9.65,1.79,14.94-1.6Z"/><path d="M811.64,40.52c0,.19,0,.39,0,.58a.45.45,0,0,1,0,.11,18.88,18.88,0,0,0-7.32-6.35,10.85,10.85,0,0,0-5.31-.92,10,10,0,0,0-1.21.16c-.75.14-1.45.3-2.06.46l-.67.19h0c-.73.22-1.31.43-1.68.58h0l-.46.18h0a2.93,2.93,0,0,1,.28-.44l.22-.34.07-.09.29-.39a5.51,5.51,0,0,1,.45-.51c.13-.14.26-.28.4-.41a9.81,9.81,0,0,1,2.08-1.55c.16-.09.32-.18.49-.26l.51-.23.52-.2a1.77,1.77,0,0,1,.3-.1,2.62,2.62,0,0,1,.4-.12,9.41,9.41,0,0,1,1.08-.24l.44-.06.58-.05.59,0q.38,0,.75,0a3.91,3.91,0,0,1,.48.05h.06l.34.05a9.55,9.55,0,0,1,3,1,2.49,2.49,0,0,1,.28.15l.54.32,0,0,.5.36h.05l.07.05a10.11,10.11,0,0,1,3.58,5.24A9.87,9.87,0,0,1,811.64,40.52Z"/><path d="M811.62,41.1c0-.19,0-.39,0-.58a9.87,9.87,0,0,0-.38-2.74l-.15-.11c-.08-.3-.14-.59-.24-.91l-1.72-.47-3.59-2.54-6-1h-4l-1.59,1.88h0l-.59.7h0a27.15,27.15,0,0,0-1.72,3.93v0a2,2,0,0,0-.08.47h0c.18,0,1.12-.26,2.58-.45a34.22,34.22,0,0,1,5.49-.31,30.53,30.53,0,0,1,5.83.68,11.58,11.58,0,0,1-.17,3.49,32.4,32.4,0,0,1-6.05.24,26.29,26.29,0,0,1-4.64-.68,22.64,22.64,0,0,1-3-1,9.15,9.15,0,0,0,.32,1.57,9.56,9.56,0,0,0,.93,2.18h0a8.43,8.43,0,0,0,.64,1l.51.29,4.28,2.4,6.08.37,2-.21c.22-.12.45-.25.66-.39l0,0a10,10,0,0,0,3.45-3.78l.06-.12a1.1,1.1,0,0,1,.07-.13v0a9.94,9.94,0,0,0,.89-3,0,0,0,0,0,0,0,.3.3,0,0,0,.07-.08v-.09l-.06,0a4.54,4.54,0,0,0,.05-.53A.45.45,0,0,0,811.62,41.1Z"/><rect class="cls-1" x="668.57" y="0.03" width="167.14" height="224.87" transform="translate(1504.28 224.92) rotate(-180)"/><path d="M835.71,145l11.63-.52,7.95-.36a4.72,4.72,0,0,1,4.8,3.67l.1.42a4.78,4.78,0,0,1-2.72,5.44l-7.39,3.28a248,248,0,0,0,42,4.71c.57-.16,1.07-.32,1.48-.45,1-.3,1.46-.5,1.46-.5l-15.8-17.12,6.7-22.54S860.38,123.47,835.71,145Z"/><path d="M886.93,120.43c-8.66,2-13.61,12.68-11.06,23.77s11.62,18.43,20.28,16.39a13.89,13.89,0,0,0,8.27-5.92l0,.13c14.66-26.51,35.88-18.91,42.05-16,1.12.54,1.75.92,1.75.92s2-4.37.39-12.6l0-.1c-.16-.81-.35-1.57-.56-2.28-1.58-5.43-4.17-8-5-8.73h0l-.21.3-.49.7-.21.29-.1.14-.09.12-.08.12,0,.06c-1.38,1.89-2.37,3.05-2.6,3.32l0,0h0c-15.7,18.68-42.26.77-42.26.77l0,.13A13.74,13.74,0,0,0,886.93,120.43Z"/><path d="M993.74,120.37c-.41,1-.86,1.91-1.34,2.86-.34.65-.68,1.29-1.05,1.92-.09.17-.19.34-.29.49l-.4.66q-.59,1-1.23,1.86c-.56.82-1.15,1.62-1.76,2.39-.34.43-.69.84-1,1.25-.15.18-.3.35-.46.52s-.3.34-.45.5c-.44.47-.89.93-1.34,1.38l-.35.33a41.82,41.82,0,0,1-5.43,4.45l-.14.09a43.84,43.84,0,0,1-4,2.4l0,0-.76.39c-.51.26-1,.5-1.54.74l-.78.34h0c-.48.2-1,.4-1.44.58l-.73.27c-.49.18-1,.34-1.47.51-.72.23-1.45.44-2.18.64l-.09,0a8.24,8.24,0,0,1-2.1.49,8,8,0,0,1-2.87-.25,8.16,8.16,0,0,1-1.93-.82,8.46,8.46,0,0,1-1.13-.8h0a8,8,0,0,1-2.51-3.84c0-.15-.08-.29-.12-.43l0,0-.08-.39c0-.23-.07-.46-.1-.7,0,0,0-.07,0-.1l0-.09c0-.27,0-.54-.07-.81l-.18-1.09a17.66,17.66,0,0,0-1.05-3.79l0,0c0-.14-.11-.27-.17-.41a.08.08,0,0,0,0-.05c-.05-.12-.1-.24-.16-.36s-.1-.23-.17-.35-.1-.21-.15-.31a20.81,20.81,0,0,0-4.54-6.16l-.5-.45h0l0,0a21.23,21.23,0,0,0-2.74-2l-.1-.06c-.62-.36-1.26-.69-1.91-1l0,0h0l-.07,0a21.44,21.44,0,0,0-8.15-1.72h-.36v-.08a.41.41,0,0,1,0-.1s0,0,0,0a.58.58,0,0,0,0-.15.76.76,0,0,0,0-.14c0-.26-.09-.52-.15-.8a1.65,1.65,0,0,1,0-.16c0-.14-.06-.3-.09-.45s0-.11,0-.16a.21.21,0,0,0,0-.07l-.11-.56s0-.11,0-.16-.08-.38-.13-.58l0-.16c-.05-.2-.1-.42-.14-.62a.82.82,0,0,1,0-.14c-.07-.25-.13-.51-.2-.79,0,0,0,0,0,0-.06-.24-.12-.48-.19-.72s-.07-.28-.11-.43l-.09-.36c-.05-.17-.09-.35-.14-.53s0-.17-.08-.25-.11-.41-.17-.61a1.14,1.14,0,0,1,0-.16c-.07-.23-.13-.47-.21-.7,0-.06,0-.12-.06-.19q-.19-.57-.36-1.17l-.24-.72-.12-.37a1,1,0,0,1,0-.14l-.24-.68-.14-.4-.16-.43c0-.09-.07-.19-.1-.28l0,0s-4-12.92-11.87-20.6l-.17-.16a1,1,0,0,1-.24-.33.3.3,0,0,1,0-.08,1,1,0,0,1,.06-.77l.18-.33c.23-.45.48-.9.74-1.34a41.88,41.88,0,0,1,48.45-19.51c.48.15,1,.3,1.42.46l.27.11a53.78,53.78,0,0,1,11.08,6.12c.94.67,1.87,1.38,2.76,2.12a42.79,42.79,0,0,1,14,31.34c0,.06,0,.14,0,.2,0,.86,0,1.72-.06,2.58a1.9,1.9,0,0,1,0,.23c-.06,1.05-.15,2.11-.29,3.15v0l0,.08a40.5,40.5,0,0,1-.92,4.77l0,.07,0,0q-.38,1.49-.87,3C994.59,118.24,994.19,119.31,993.74,120.37Z"/><path d="M884.35,121.38s-16.89,7.71-37,23.08q-3.48,2.65-7.06,5.61a2.84,2.84,0,0,0,1.14,5c3,.7,5.85,1.32,8.67,1.88a258.33,258.33,0,0,0,34.43,4.41c3.38.19,6,.27,7.58.3h0l1.62-.27-.17-.18L888.78,156l-11.13-12.06Z"/><path d="M919.56,82.47S904,105,935.25,119.76l5.39,1.56Z"/><path d="M898.46,159.81s-5.58,2.63-10.45,1.68l6.36-5.56Z"/><path d="M943.37,137.55s10.75,6.7,14.73,3.68l-5-24.18-9.95,4Z"/><path d="M995,78.5a3.92,3.92,0,0,1,.28-.33,41,41,0,0,0,4.23-6.27,29.69,29.69,0,0,0,3.39-10v0h0c.42-15.31-17.31-24.48-17.31-24.48a32.61,32.61,0,0,0-13.25-3.71,28.38,28.38,0,0,0-6.4.2c.77.53,1.77,1.12,2.78,1.71s2,1.12,2.84,1.57c1.22.66,2.11,1.11,2.11,1.11,31.56,7.29,24.57,24.94,24,26.33l0,.06a16.32,16.32,0,0,1-7,6.12c-1.88,1-4,2.82-8.44,1.1,0,0,10.66,14.28,10.63,14.16C992,82.6,994.17,79.48,995,78.5Z"/><path d="M841.35,161.49l10.58-4.92,7.23-3.36a4.79,4.79,0,0,0,2.62-5.48l-.1-.41a4.71,4.71,0,0,0-4.87-3.59l-8,.5A250.85,250.85,0,0,1,884,120.63l1.51-.29c1-.17,1.53-.23,1.53-.23l-6.35,22.54,16.12,17S873,169.23,841.35,161.49Z"/><rect class="cls-1" x="835.72" y="0.05" width="167.14" height="224.87" transform="translate(1838.58 224.97) rotate(-180)"/><path d="M976.8,35.65a9.93,9.93,0,0,1-2.08,6.09,10.07,10.07,0,0,1-17.29-2.29v0l-.1-.27-.09-.25c0-.14-.1-.28-.14-.41a10,10,0,0,1,9.65-12.86h.46a10,10,0,0,1,9.61,10Z"/><path d="M556.13,206.78l7.3-9.23,5-6.31a4.76,4.76,0,0,1,2.74-1.71,4.66,4.66,0,0,1,3.18.45l.37.2a4.78,4.78,0,0,1,2.28,5.65l-2.43,7.79a253.45,253.45,0,0,0,31.29-29c.26-.55.47-1,.64-1.42.41-.93.59-1.45.59-1.45l-23.27.83-12.46-19.92S556.32,173.8,556.13,206.78Z"/><path d="M571.58,151.52c-4.19,8,.51,18.73,10.5,24.06s21.49,3.22,25.68-4.73a14.16,14.16,0,0,0,1-10.21l.12.06c-10.18-28.6,9.54-39.83,15.84-42.61,1.14-.51,1.85-.73,1.85-.73s-1.93-4.43-9.19-8.57l-.09-.05c-.72-.41-1.41-.76-2.08-1.07-5.11-2.36-8.76-2.07-9.86-1.9h0l.09.36.2.83.08.35,0,.17a1.27,1.27,0,0,1,0,.15l0,.14,0,.07c.5,2.29.72,3.82.77,4.17a.43.43,0,0,0,0,.05v0c3.62,24.26-27.35,32.79-27.35,32.79l.12.06A14,14,0,0,0,571.58,151.52Z"/><path d="M665.32,107.48c-.4,1-.84,1.92-1.32,2.87-.33.65-.67,1.3-1,1.94-.09.17-.19.34-.28.5l-.4.67q-.58,1-1.21,1.87c-.55.83-1.14,1.63-1.75,2.41-.34.43-.69.85-1,1.26-.15.18-.3.35-.45.52s-.29.34-.45.5c-.44.47-.88.94-1.33,1.4l-.34.34a42,42,0,0,1-5.41,4.52l-.14.09a44.18,44.18,0,0,1-4,2.45l0,0-.76.4c-.51.26-1,.52-1.54.76l-.78.35h0c-.48.2-1,.41-1.44.6l-.73.28c-.49.19-1,.35-1.48.52-.72.24-1.45.46-2.19.66l-.09,0a8.33,8.33,0,0,1-2.11.52,8.07,8.07,0,0,1-2.89-.22,8.24,8.24,0,0,1-1.95-.79,8.51,8.51,0,0,1-1.14-.79h0a8,8,0,0,1-2.57-3.81c0-.14-.09-.29-.12-.43l0,0-.08-.39c0-.23-.08-.46-.11-.69,0,0,0-.07,0-.1l0-.09c0-.27-.05-.54-.08-.81l-.19-1.09a17.57,17.57,0,0,0-1.1-3.78l0,0c0-.13-.12-.27-.17-.41a.08.08,0,0,0,0-.05c-.05-.12-.1-.24-.17-.36s-.11-.23-.17-.35-.11-.21-.16-.3a20.82,20.82,0,0,0-4.64-6.1l-.51-.44h0l0,0a21.36,21.36,0,0,0-2.78-1.92l-.1-.06c-.63-.36-1.28-.68-1.94-1l0,0h0l-.07,0a21.69,21.69,0,0,0-8.22-1.62h-.36v-.08a.41.41,0,0,1,0-.1s0,0,0,0a.58.58,0,0,0,0-.15.76.76,0,0,0,0-.14c0-.26-.1-.52-.16-.8a1.65,1.65,0,0,1,0-.16c0-.14-.06-.3-.09-.45s0-.11,0-.16a.21.21,0,0,0,0-.07l-.12-.56s0-.11,0-.16-.09-.38-.13-.57l0-.16c-.06-.2-.11-.41-.15-.62a.82.82,0,0,1,0-.14c-.07-.25-.14-.51-.21-.78,0,0,0,0,0,0-.06-.24-.13-.47-.2-.72s-.07-.28-.11-.43l-.1-.36c-.06-.17-.1-.35-.15-.53s0-.17-.08-.25-.12-.41-.17-.61a1.14,1.14,0,0,1-.05-.16c-.08-.23-.14-.47-.22-.7,0-.06,0-.12-.06-.19q-.19-.57-.38-1.17l-.25-.71-.12-.37a1,1,0,0,1,0-.13L602,95l-.15-.4-.17-.42c0-.09-.07-.19-.1-.28l0,0S597.36,81,589.37,73.44l-.18-.16A1,1,0,0,1,589,73a.3.3,0,0,1,0-.08,1,1,0,0,1,.05-.77l.17-.33c.23-.45.48-.91.73-1.35a42.27,42.27,0,0,1,48.52-20.1c.48.14,1,.29,1.44.45l.27.11a54.21,54.21,0,0,1,11.22,6c1,.66,1.9,1.35,2.81,2.08A42.66,42.66,0,0,1,668.56,90.1c0,.06,0,.14,0,.2,0,.86,0,1.72,0,2.58a1.89,1.89,0,0,1,0,.23c0,1.05-.13,2.11-.26,3.15v0l0,.08a40.28,40.28,0,0,1-.87,4.78v.07l0,0q-.36,1.49-.84,3C666.16,105.34,665.77,106.42,665.32,107.48Z"/><path d="M570.59,154.12s-5.38,18-7.16,43.44q-.31,4.4-.46,9.08a2.81,2.81,0,0,0,4.46,2.38q3.71-2.7,7.13-5.39a263.82,263.82,0,0,0,26.06-23.41c2.38-2.45,4.14-4.38,5.23-5.6l0,0,.87-1.41h-.24l-7.05.26L583,174Z"/><path d="M590.23,70.49s-15.43,22.73,16.23,37.1l5.44,1.49Z"/><path d="M608.7,168.57s-1.71,6-5.65,9.09l0-8.51Z"/><path d="M650.4,50.38a4,4,0,0,1,.08-.43,41.24,41.24,0,0,0,.65-7.57A29.6,29.6,0,0,0,649.23,32a.13.13,0,0,0,0,0h0c-7.1-13.55-27.12-12.71-27.12-12.71a33,33,0,0,0-13.43,3.36A28.91,28.91,0,0,0,603.14,26c.93.08,2.1.1,3.27.1s2.29,0,3.25,0c1.39,0,2.39-.08,2.39-.08,31.23-9.35,33.71,9.5,33.86,11V37a16.53,16.53,0,0,1-3.12,8.8c-1.18,1.77-2.16,4.47-6.86,5.16,0,0,16.31,7.14,16.23,7C649.84,55.41,650.2,51.63,650.4,50.38Z"/><path d="M581.15,144.52c-6.15,5.12-13.3,13.73-15,18.11-2,5.21-7.77,11.69-11.15,16.13l-.57.75-.17.22-.2-.07-.45-.18.05-.23C559.26,154,581.15,144.52,581.15,144.52Z"/><path d="M554.33,179.76s-.24,1.59-.49,1.59.09-1.73.09-1.73Z"/><path d="M553.58,179.48s-.83,1.38-.63,1.54,1-1.39,1-1.39Z"/><rect class="cls-1" x="501.43" y="0.02" width="167.14" height="224.87" transform="translate(1170 224.92) rotate(-180)"/><path class="cls-2" d="M614.89,23.84a10,10,0,0,1-.25,4.46h0v0a1.1,1.1,0,0,0,0,.14.67.67,0,0,0,0,.13,10,10,0,0,1-2.76,4.3l0,0a10.09,10.09,0,0,1-13.49.11,9.69,9.69,0,0,1-1.06-1.1h0a9.56,9.56,0,0,1-1.28-2,9.92,9.92,0,0,1-1-3.94,9.91,9.91,0,0,1,1-4.87,10.06,10.06,0,0,1,18.93,2.74Z"/><path d="M603.31,26a6.09,6.09,0,0,1-5,7h0a9.69,9.69,0,0,1-1.06-1.1v0a9.56,9.56,0,0,1-1.28-2,9.92,9.92,0,0,1-1-3.94,9.91,9.91,0,0,1,1-4.87,1.83,1.83,0,0,1,.32-.08A6.09,6.09,0,0,1,603.31,26Z"/><path class="cls-3" d="M598.75,27.29a2.3,2.3,0,0,1-1.89,2.65,2.33,2.33,0,0,1-.94,0,9.92,9.92,0,0,1-1-3.94,2.28,2.28,0,0,1,1.16-.56A2.31,2.31,0,0,1,598.75,27.29Z"/><path d="M614.64,28.29a0,0,0,0,1,0,0,1.1,1.1,0,0,0,0,.14.67.67,0,0,0,0,.13,10,10,0,0,1-2.76,4.3l0,0a10.09,10.09,0,0,1-13.49.11,9.69,9.69,0,0,1-1.06-1.1h0a21.83,21.83,0,0,0,3,.47c3.61.34,9.81.15,14.46-4.08Z"/><path d="M609.56,16.59h0c-.18-.09-.35-.18-.55-.27l0,0a10.09,10.09,0,0,0-12.76,4.36,9.68,9.68,0,0,0-.64,1.39s0,0,0,0a19.82,19.82,0,0,1,2.64-1.44c.58-.27,1.24-.54,2-.8a10.52,10.52,0,0,1,1.16-.36,10.86,10.86,0,0,1,5.39,0,18.87,18.87,0,0,1,8.29,5C615,19,609.56,16.59,609.56,16.59Z"/><rect class="cls-1" x="167.14" width="167.14" height="224.87" transform="translate(501.43 224.87) rotate(-180)"/><rect class="cls-1" y="0.13" width="167.14" height="224.87" transform="translate(167.14 225.13) rotate(-180)"/><ellipse class="cls-2" cx="79.63" cy="37.73" rx="10.06" ry="10.03"/><ellipse cx="77.83" cy="38.92" rx="6.1" ry="6.08"/><ellipse class="cls-3" cx="74.9" cy="39.43" rx="2.31" ry="2.3"/><path class="cls-2" d="M254.94,32.72a10.06,10.06,0,0,1-17.1,7.15h0a10,10,0,0,1-3-7.15,9.76,9.76,0,0,1,.75-3.79,10.06,10.06,0,0,1,19.36,3.79Z"/><path d="M245.17,33.9a6.1,6.1,0,0,1-6.1,6.09,6.27,6.27,0,0,1-1.23-.12h0a10,10,0,0,1-3-7.15,9.76,9.76,0,0,1,.75-3.79,6.1,6.1,0,0,1,9.6,5Z"/><ellipse class="cls-3" cx="238.15" cy="34.42" rx="2.31" ry="2.3"/><path class="cls-2" d="M427.19,28.75A10.07,10.07,0,0,1,409.28,35a10,10,0,0,1-2.2-6.27,10.09,10.09,0,0,1,.08-1.24A9.91,9.91,0,0,1,409,22.87a10.06,10.06,0,0,1,18.2,5.87Z"/><path d="M415.42,28.93a6.1,6.1,0,0,1-6.1,6.09h0a10,10,0,0,1-2.2-6.27,10.09,10.09,0,0,1,.08-1.24A9.91,9.91,0,0,1,409,22.87a1.83,1.83,0,0,1,.33,0A6.09,6.09,0,0,1,415.42,28.93Z"/><path class="cls-3" d="M410.7,29.45a2.3,2.3,0,0,1-2.3,2.3,2.33,2.33,0,0,1-.92-.19,9.92,9.92,0,0,1-.32-4.05,2.28,2.28,0,0,1,1.24-.36A2.31,2.31,0,0,1,410.7,29.45Z"/><path d="M1117.8,25.65a9.93,9.93,0,0,1-2.08,6.09,10.07,10.07,0,0,1-17.29-2.29v0l-.1-.27-.09-.25c0-.14-.1-.28-.14-.41a10,10,0,0,1,9.65-12.86h.46a10,10,0,0,1,9.61,10Z"/></g></g></svg>