<svg xmlns="http://www.w3.org/2000/svg" viewBox="0 0 500 205"><defs><style>.cls-1{fill:#fff;}.cls-2{fill:#f2eee9;stroke:#000;stroke-miterlimit:10;}.cls-3{fill:none;}</style></defs><title>elmus-face_1</title><g id="Calque_2" data-name="Calque 2"><g id="Calque_7" data-name="Calque 7"><path d="M190,25.45h1.38A68.72,68.72,0,0,0,190,15.34S186.8,1.41,170.16,0c0,0-22.82-2.18-28.73,24,0,0-.81,4.92-4.61,6.72-.1,0,17.49-.16,17.49-.16-4-2.46-3.89-5.3-4.3-7.37C146.53,5.51,166.13,4.41,166.13,4.41S180.36,3,186,14A48.65,48.65,0,0,1,190,25.45Z"/><path class="cls-1" d="M128.47,102.91a21,21,0,0,1,1.86-2.57A8.1,8.1,0,0,1,128.47,102.91Z"/><path d="M130.33,100.34a21,21,0,0,0-1.86,2.57,8.1,8.1,0,0,0,1.86-2.57Z"/><path class="cls-1" d="M161.66,100.34a21,21,0,0,1,1.86,2.57A8.1,8.1,0,0,1,161.66,100.34Z"/><path d="M161.66,100.34a8.1,8.1,0,0,0,1.86,2.57,21,21,0,0,0-1.86-2.57Z"/><path d="M165.93,150.25l-20.08,11.61-20-11.61s-3.4,25.54,11.63,54.48l3.58-19.34a4.7,4.7,0,0,1,4.59-3.88h.42a4.7,4.7,0,0,1,4.59,3.88l3.58,19.34C169.34,175.78,165.93,150.25,165.93,150.25Z"/><path d="M162.46,142.3h.13s-27.07-25.66-4.51-46.2c0,0-3.76-3.42-12.08-3.21s-12.08,3.21-12.08,3.21,21.58,22.24-4.51,46.2h.13a14,14,0,0,0-3.81,9.41c0,8.92,9.08,16.15,20.27,16.15s20.27-7.23,20.27-16.15A14,14,0,0,0,162.46,142.3Z"/><path d="M100.75,80.59c0-1.61-.2-2.83-.4-2.83s-.4,1.53-.4,3.41.18,3.41.4,3.41.36-1.2.4-2.78a5.66,5.66,0,0,1,4.71.17l-.37-1.78S103.86,81.67,100.75,80.59Z"/><path d="M191.5,77.76c-.2,0-.36,1.23-.4,2.83-2.87,1-4.12-.17-4.31-.37a43.23,43.23,0,0,0,.81-8.36,42.17,42.17,0,0,0-33.46-41.52l-.29,0a53.73,53.73,0,0,0-16,0A42.32,42.32,0,0,0,104.38,72a42.75,42.75,0,0,0,4.13,18.28l.07.15a42.06,42.06,0,0,0,2.22,4.05l0,0q.9,1.45,1.92,2.82h0a42.27,42.27,0,0,0,4,4.69,7.89,7.89,0,0,0,1.59,1.52h0a8,8,0,0,0,4.65,1.51,7.7,7.7,0,0,0,1.36-.12h0a8,8,0,0,0,4.06-2l.32-.31,0,0,.27-.3q.22-.25.43-.54l.12-.16.47-.66a21.64,21.64,0,0,1,1.57-1.9,17,17,0,0,1,1.93-1.78l.35-.27,0,0,.32-.23.31-.22a20.34,20.34,0,0,1,7.9-3.17h0A20.56,20.56,0,0,1,146,93a20.92,20.92,0,0,1,2.2.12h.07A20.33,20.33,0,0,1,158,96.94a17.45,17.45,0,0,1,3.12,3l.29.37.07.09c.31.39.61.79.89,1.21a8.07,8.07,0,0,0,1.15,1.33,8,8,0,0,0,5.43,2.14,8.19,8.19,0,0,0,.94-.05h0a7.92,7.92,0,0,0,3.71-1.45h0a7.9,7.9,0,0,0,1.43-1.32l.16-.19c.31-.31.62-.63.92-1h0l0,0c.25-.27.5-.54.74-.81a42.14,42.14,0,0,0,4.9-6.76c.3-.52.6-1,.88-1.58l0,0,.4-.78,0,0h0l.16-.32.07-.13A42.45,42.45,0,0,0,186.41,82a5.67,5.67,0,0,1,4.69-.16c0,1.58.2,2.78.4,2.78s.4-1.53.4-3.41S191.72,77.76,191.5,77.76Z"/><path class="cls-2" d="M158.24,86.83c-4.85.8-6.75-7.53-6.75-12.91a15.31,15.31,0,1,1,20.86,14.51S168.62,85.12,158.24,86.83Z"/><path class="cls-2" d="M134.28,86.83c4.84.86,6.75-7.53,6.75-12.91a15.31,15.31,0,1,0-20.86,14.51S124.71,85.12,134.28,86.83Z"/><ellipse cx="125.59" cy="79.79" rx="9.26" ry="9.42"/><ellipse cx="166.4" cy="79.79" rx="9.26" ry="9.42"/><path d="M139.34,94.1s5.84,7.54,13.15,0A19.37,19.37,0,0,0,139.34,94.1Z"/><path d="M131.44,140.33a38.25,38.25,0,0,0-5.2,18.24,60,60,0,0,1-2.77,16.33l-.28.89-.08.26h-.21l-.48,0c0-.08,0-.16,0-.23C119.17,150.34,131.44,140.33,131.44,140.33Z"/><path d="M122.39,176.05s-.31,1.56-.07,1.65.49-1.65.49-1.65Z"/><path d="M123.2,176.05s.31,1.56.07,1.65-.49-1.65-.49-1.65Z"/><path d="M160.52,140.33a38.25,38.25,0,0,1,5.2,18.24,60,60,0,0,0,2.77,16.33l.28.89.08.26h.21l.48,0c0-.08,0-.16,0-.23C172.79,150.34,160.52,140.33,160.52,140.33Z"/><path d="M169.57,176.05s.31,1.57.07,1.66-.49-1.65-.49-1.65Z"/><path d="M168.76,176.05s-.31,1.57-.07,1.66.49-1.65.49-1.65Z"/><ellipse class="cls-1" cx="125.32" cy="83.89" rx="2.86" ry="2.91"/><path d="M125.32,81.47A2.41,2.41,0,1,1,123,83.89a2.39,2.39,0,0,1,2.36-2.41m0-1a3.41,3.41,0,1,0,3.36,3.41,3.39,3.39,0,0,0-3.36-3.41Z"/><ellipse class="cls-1" cx="166.13" cy="83.89" rx="2.86" ry="2.91"/><path d="M166.13,81.47a2.41,2.41,0,1,1-2.36,2.41,2.39,2.39,0,0,1,2.36-2.41m0-1a3.41,3.41,0,1,0,3.36,3.41,3.39,3.39,0,0,0-3.36-3.41Z"/><path d="M183.28,90.69c0,.11-.1.22-.16.32h0l0,0-.4.78,0,0c-.28.54-.58,1.06-.88,1.58-1.55,2.43-3.76,5.3-4.9,6.76l-.74.93,0,0h0q-.55.56-1.08,1a10.85,10.85,0,0,1-5.15,2.78h0a6.66,6.66,0,0,1-4.85-1,10.36,10.36,0,0,1-2.74-2.59c-.27-.36-.54-.71-.83-1.06l-.1-.13c-.32-.39-.64-.76-1-1.14l-.1-.11a21,21,0,0,0-12-5.83h-.07A14.26,14.26,0,0,0,146,93a19.36,19.36,0,0,0-3.43.3h0l-.65.13a20.6,20.6,0,0,0-7.25,3.16l-.31.22-.32.23,0,0-.35.27,0,0a17.1,17.1,0,0,0-2.79,2.71l-.69.84-.47.66-.12.16q-.21.29-.43.54l-.27.3,0,0-.32.31a8,8,0,0,1-4.06,2h0a7.7,7.7,0,0,1-1.36.12,8,8,0,0,1-4.65-1.51h0a7.89,7.89,0,0,1-1.59-1.52,42.27,42.27,0,0,1-4-4.69h0q-1-1.36-1.92-2.82l0,0a42.06,42.06,0,0,1-2.22-4.05c2.6,1.08,6.58.08,9-.72a14.53,14.53,0,0,0,3-1.48c6.18-3.86,16.33-.94,18.48-.25.31.1.62.19.94.26a31.55,31.55,0,0,0,12.72,0c.31-.07.63-.16.94-.26,2.15-.69,12.3-3.61,18.47.25a14.59,14.59,0,0,0,3,1.48C177.3,90.42,180.72,91.29,183.28,90.69Z"/><path d="M114.52,63.32s11.21-5,22.41,0C136.93,63.32,126.53,51.8,114.52,63.32Z"/><path d="M155.6,63.32s11.21-5,22.41,0C178,63.32,167.61,51.8,155.6,63.32Z"/><rect class="cls-3" x="100.01" y="0.02" width="99.88" height="204.98"/><path d="M146.06,165.4l-20-11.61a222.51,222.51,0,0,0,17.49,49.52,2.77,2.77,0,0,0,5,0,224.12,224.12,0,0,0,17.54-49.52Z"/><path d="M290,25.45h1.38A68.72,68.72,0,0,0,290,15.34S286.75,1.41,270.1,0c0,0-22.82-2.18-28.73,24,0,0-.81,4.92-4.61,6.72-.1,0,17.49-.16,17.49-.16-4-2.46-3.89-5.3-4.3-7.37C246.48,5.51,266.08,4.41,266.08,4.41S280.31,3,285.94,14A48.65,48.65,0,0,1,290,25.45Z"/><path class="cls-1" d="M228.41,102.91a21,21,0,0,1,1.86-2.57A8.1,8.1,0,0,1,228.41,102.91Z"/><path d="M230.27,100.34a21,21,0,0,0-1.86,2.57,8.1,8.1,0,0,0,1.86-2.57Z"/><path class="cls-1" d="M261.61,100.34a21,21,0,0,1,1.86,2.57A8.1,8.1,0,0,1,261.61,100.34Z"/><path d="M261.61,100.34a8.1,8.1,0,0,0,1.86,2.57,21,21,0,0,0-1.86-2.57Z"/><path d="M265.88,150.25,245.8,161.85l-20-11.61s-3.4,25.54,11.63,54.48l3.58-19.34a4.7,4.7,0,0,1,4.59-3.88h.42a4.7,4.7,0,0,1,4.59,3.88l3.58,19.34C269.28,175.78,265.88,150.25,265.88,150.25Z"/><path d="M262.41,142.3h.13S235.47,116.64,258,96.1c0,0-3.76-3.42-12.08-3.21s-12.08,3.21-12.08,3.21,21.58,22.24-4.51,46.2h.13a14,14,0,0,0-3.81,9.41c0,8.92,9.08,16.15,20.27,16.15s20.27-7.23,20.27-16.15A14,14,0,0,0,262.41,142.3Z"/><path d="M200.69,80.59c0-1.61-.2-2.83-.4-2.83s-.4,1.53-.4,3.41.18,3.41.4,3.41.36-1.2.4-2.78a5.66,5.66,0,0,1,4.71.17L205,80.2S203.81,81.67,200.69,80.59Z"/><path d="M291.45,77.76c-.2,0-.36,1.23-.4,2.83-2.87,1-4.12-.17-4.31-.37a43.23,43.23,0,0,0,.81-8.36,42.17,42.17,0,0,0-33.46-41.52l-.29,0a53.73,53.73,0,0,0-16,0A42.32,42.32,0,0,0,204.32,72a42.75,42.75,0,0,0,4.13,18.28l.07.15a42.06,42.06,0,0,0,2.22,4.05l0,0q.9,1.45,1.92,2.82h0a42.27,42.27,0,0,0,4,4.69,7.89,7.89,0,0,0,1.59,1.52h0a8,8,0,0,0,4.65,1.51,7.7,7.7,0,0,0,1.36-.12h0a8,8,0,0,0,4.06-2l.32-.31,0,0,.27-.3q.22-.25.43-.54l.12-.16.47-.66a21.64,21.64,0,0,1,1.57-1.9,17,17,0,0,1,1.93-1.78l.35-.27,0,0,.32-.23.31-.22a20.34,20.34,0,0,1,7.9-3.17h0a20.56,20.56,0,0,1,3.43-.29,20.92,20.92,0,0,1,2.2.12h.07a20.33,20.33,0,0,1,9.73,3.78,17.45,17.45,0,0,1,3.12,3l.29.37.07.09c.31.39.61.79.89,1.21a8.07,8.07,0,0,0,1.15,1.33,8,8,0,0,0,5.43,2.14,8.19,8.19,0,0,0,.94-.05h0a7.92,7.92,0,0,0,3.71-1.45h0a7.9,7.9,0,0,0,1.43-1.32l.16-.19c.31-.31.62-.63.92-1h0l0,0c.25-.27.5-.54.74-.81a42.14,42.14,0,0,0,4.9-6.76c.3-.52.6-1,.88-1.58l0,0,.4-.78,0,0h0l.16-.32.07-.13A42.45,42.45,0,0,0,286.36,82a5.67,5.67,0,0,1,4.69-.16c0,1.58.2,2.78.4,2.78s.4-1.53.4-3.41S291.67,77.76,291.45,77.76Z"/><path class="cls-2" d="M258.19,86.83c-4.85.8-6.75-7.53-6.75-12.91A15.31,15.31,0,1,1,272.3,88.43S268.56,85.12,258.19,86.83Z"/><path class="cls-2" d="M234.22,86.83c4.84.86,6.75-7.53,6.75-12.91a15.31,15.31,0,1,0-20.86,14.51S224.66,85.12,234.22,86.83Z"/><ellipse cx="225.53" cy="79.79" rx="9.26" ry="9.42"/><ellipse cx="266.34" cy="79.79" rx="9.26" ry="9.42"/><path d="M239.29,94.1s5.84,7.54,13.15,0A19.37,19.37,0,0,0,239.29,94.1Z"/><path d="M231.39,140.33a38.25,38.25,0,0,0-5.2,18.24,60,60,0,0,1-2.77,16.33l-.28.89-.08.26h-.21l-.48,0c0-.08,0-.16,0-.23C219.11,150.34,231.39,140.33,231.39,140.33Z"/><path d="M222.34,176.05s-.31,1.56-.07,1.65.49-1.65.49-1.65Z"/><path d="M223.14,176.05s.31,1.56.07,1.65-.49-1.65-.49-1.65Z"/><path d="M260.46,140.33a38.25,38.25,0,0,1,5.2,18.24,60,60,0,0,0,2.77,16.33l.28.89.08.26H269l.48,0c0-.08,0-.16,0-.23C272.73,150.34,260.46,140.33,260.46,140.33Z"/><path d="M269.51,176.05s.31,1.57.07,1.66-.49-1.65-.49-1.65Z"/><path d="M268.71,176.05s-.31,1.57-.07,1.66.49-1.65.49-1.65Z"/><ellipse class="cls-1" cx="225.27" cy="83.89" rx="2.86" ry="2.91"/><path d="M225.27,81.47a2.41,2.41,0,1,1-2.36,2.41,2.39,2.39,0,0,1,2.36-2.41m0-1a3.41,3.41,0,1,0,3.36,3.41,3.39,3.39,0,0,0-3.36-3.41Z"/><ellipse class="cls-1" cx="266.08" cy="83.89" rx="2.86" ry="2.91"/><path d="M266.08,81.47a2.41,2.41,0,1,1-2.36,2.41,2.39,2.39,0,0,1,2.36-2.41m0-1a3.41,3.41,0,1,0,3.36,3.41,3.39,3.39,0,0,0-3.36-3.41Z"/><path d="M283.22,90.69c0,.11-.1.22-.16.32h0l0,0-.4.78,0,0c-.28.54-.58,1.06-.88,1.58-1.55,2.43-3.76,5.3-4.9,6.76l-.74.93,0,0h0q-.55.56-1.08,1a10.85,10.85,0,0,1-5.15,2.78h0a6.66,6.66,0,0,1-4.85-1,10.36,10.36,0,0,1-2.74-2.59c-.27-.36-.54-.71-.83-1.06l-.1-.13c-.32-.39-.64-.76-1-1.14l-.1-.11a21,21,0,0,0-12-5.83h-.07a14.26,14.26,0,0,0-2.2-.13,19.36,19.36,0,0,0-3.43.3h0l-.65.13a20.6,20.6,0,0,0-7.25,3.16l-.31.22-.32.23,0,0-.35.27,0,0a17.1,17.1,0,0,0-2.79,2.71l-.69.84-.47.66-.12.16q-.21.29-.43.54l-.27.3,0,0-.32.31a8,8,0,0,1-4.06,2h0a7.7,7.7,0,0,1-1.36.12,8,8,0,0,1-4.65-1.51h0a7.89,7.89,0,0,1-1.59-1.52,42.27,42.27,0,0,1-4-4.69h0q-1-1.36-1.92-2.82l0,0a42.06,42.06,0,0,1-2.22-4.05c2.6,1.08,6.58.08,9-.72a14.53,14.53,0,0,0,3-1.48c6.18-3.86,16.33-.94,18.48-.25.31.1.62.19.94.26a31.55,31.55,0,0,0,12.72,0c.31-.07.63-.16.94-.26,2.15-.69,12.3-3.61,18.47.25a14.59,14.59,0,0,0,3,1.48C277.25,90.42,280.66,91.29,283.22,90.69Z"/><path d="M210.36,73.64S229.77,67,241,72c0,0-3.22-16.11-17.72-14.47C211.51,58.86,210.36,73.64,210.36,73.64Z"/><path d="M283.13,73.64s-20.25-6.6-32-1.64c0,0,3.36-16.11,18.5-14.47C281.93,58.86,283.13,73.64,283.13,73.64Z"/><rect class="cls-3" x="199.96" y="0.02" width="99.88" height="204.98"/><path d="M246.21,165.4l-20-11.61a222.51,222.51,0,0,0,17.49,49.52,2.77,2.77,0,0,0,5,0,224.12,224.12,0,0,0,17.54-49.52Z"/><path d="M390.27,25.45h1.38a68.72,68.72,0,0,0-1.39-10.11S387,1.41,370.39,0c0,0-22.82-2.18-28.73,24,0,0-.81,4.92-4.61,6.72-.1,0,17.49-.16,17.49-.16-4-2.46-3.89-5.3-4.3-7.37C346.76,5.51,366.36,4.41,366.36,4.41S380.59,3,386.23,14A48.65,48.65,0,0,1,390.27,25.45Z"/><path class="cls-1" d="M328.69,102.91a21,21,0,0,1,1.86-2.57A8.1,8.1,0,0,1,328.69,102.91Z"/><path d="M330.55,100.34a21,21,0,0,0-1.86,2.57,8.11,8.11,0,0,0,1.86-2.57Z"/><path class="cls-1" d="M361.89,100.34a21,21,0,0,1,1.86,2.57A8.1,8.1,0,0,1,361.89,100.34Z"/><path d="M361.89,100.34a8.11,8.11,0,0,0,1.86,2.57,21,21,0,0,0-1.86-2.57Z"/><path d="M366.16,150.25l-20.08,11.61-20-11.61s-3.4,25.54,11.63,54.48l3.58-19.34a4.7,4.7,0,0,1,4.59-3.88h.42a4.7,4.7,0,0,1,4.59,3.88l3.58,19.34C369.56,175.78,366.16,150.25,366.16,150.25Z"/><path d="M362.69,142.3h.13s-27.07-25.66-4.51-46.2c0,0-3.76-3.42-12.08-3.21s-12.08,3.21-12.08,3.21,21.58,22.24-4.51,46.2h.13a14,14,0,0,0-3.81,9.41c0,8.92,9.08,16.15,20.27,16.15s20.27-7.23,20.27-16.15A14,14,0,0,0,362.69,142.3Z"/><path d="M301,80.59c0-1.61-.2-2.83-.4-2.83s-.4,1.53-.4,3.41.18,3.41.4,3.41.36-1.2.4-2.78a5.66,5.66,0,0,1,4.71.17l-.37-1.78S304.09,81.67,301,80.59Z"/><path d="M391.73,77.76c-.2,0-.36,1.23-.4,2.83-2.87,1-4.12-.17-4.31-.37a43.23,43.23,0,0,0,.81-8.36,42.17,42.17,0,0,0-33.46-41.52l-.29,0a53.73,53.73,0,0,0-16,0A42.32,42.32,0,0,0,304.6,72a42.75,42.75,0,0,0,4.13,18.28l.07.15A42.06,42.06,0,0,0,311,94.47l0,0Q312,96,313,97.32h0a42.27,42.27,0,0,0,4,4.69,7.89,7.89,0,0,0,1.59,1.52h0a8,8,0,0,0,4.65,1.51,7.7,7.7,0,0,0,1.36-.12h0a8,8,0,0,0,4.06-2l.32-.31,0,0,.27-.3q.22-.25.43-.54l.12-.16.47-.66a21.64,21.64,0,0,1,1.57-1.9,17,17,0,0,1,1.93-1.78l.35-.27,0,0,.32-.23.31-.22a20.34,20.34,0,0,1,7.9-3.17h0a20.56,20.56,0,0,1,3.43-.29,20.92,20.92,0,0,1,2.2.12h.07a20.33,20.33,0,0,1,9.73,3.78,17.45,17.45,0,0,1,3.12,3l.29.37.07.09c.31.39.61.79.89,1.21a8.07,8.07,0,0,0,1.15,1.33,8,8,0,0,0,5.43,2.14,8.19,8.19,0,0,0,.94-.05h0a7.92,7.92,0,0,0,3.71-1.45h0a7.9,7.9,0,0,0,1.43-1.32l.16-.19c.31-.31.62-.63.92-1h0l0,0c.25-.27.5-.54.74-.81a42.14,42.14,0,0,0,4.9-6.76c.3-.52.6-1,.88-1.58l0,0,.4-.78,0,0h0l.16-.32.07-.13A42.45,42.45,0,0,0,386.64,82a5.67,5.67,0,0,1,4.69-.16c0,1.58.2,2.78.4,2.78s.4-1.53.4-3.41S392,77.76,391.73,77.76Z"/><path class="cls-2" d="M358.47,86.83c-4.85.8-6.75-7.53-6.75-12.91a15.31,15.31,0,1,1,20.86,14.51S368.84,85.12,358.47,86.83Z"/><path class="cls-2" d="M334.51,86.83c4.84.86,6.75-7.53,6.75-12.91A15.31,15.31,0,1,0,320.4,88.43S324.94,85.12,334.51,86.83Z"/><ellipse cx="325.82" cy="79.79" rx="9.26" ry="9.42"/><ellipse cx="366.63" cy="79.79" rx="9.26" ry="9.42"/><path d="M339.57,94.1s5.84,7.54,13.15,0A19.37,19.37,0,0,0,339.57,94.1Z"/><path d="M331.67,140.33a38.25,38.25,0,0,0-5.2,18.24,60,60,0,0,1-2.77,16.33l-.28.89-.08.26h-.21l-.48,0c0-.08,0-.16,0-.23C319.4,150.34,331.67,140.33,331.67,140.33Z"/><path d="M322.62,176.05s-.31,1.56-.07,1.65.49-1.65.49-1.65Z"/><path d="M323.43,176.05s.31,1.56.07,1.65-.49-1.65-.49-1.65Z"/><path d="M360.74,140.33a38.25,38.25,0,0,1,5.2,18.24,60,60,0,0,0,2.77,16.33l.28.89.08.26h.21l.48,0c0-.08,0-.16,0-.23C373,150.34,360.74,140.33,360.74,140.33Z"/><path d="M369.79,176.05s.31,1.57.07,1.66-.49-1.65-.49-1.65Z"/><path d="M369,176.05s-.31,1.57-.07,1.66.49-1.65.49-1.65Z"/><ellipse class="cls-1" cx="325.55" cy="83.89" rx="2.86" ry="2.91"/><path d="M325.55,81.47a2.41,2.41,0,1,1-2.36,2.41,2.39,2.39,0,0,1,2.36-2.41m0-1a3.41,3.41,0,1,0,3.36,3.41,3.39,3.39,0,0,0-3.36-3.41Z"/><ellipse class="cls-1" cx="366.36" cy="83.89" rx="2.86" ry="2.91"/><path d="M366.36,81.47A2.41,2.41,0,1,1,364,83.89a2.39,2.39,0,0,1,2.36-2.41m0-1a3.41,3.41,0,1,0,3.36,3.41,3.39,3.39,0,0,0-3.36-3.41Z"/><path d="M383.5,90.69c0,.11-.1.22-.16.32h0l0,0-.4.78,0,0c-.28.54-.58,1.06-.88,1.58-1.55,2.43-3.76,5.3-4.9,6.76l-.74.93,0,0h0q-.55.56-1.08,1a10.85,10.85,0,0,1-5.15,2.78h0a6.66,6.66,0,0,1-4.85-1,10.36,10.36,0,0,1-2.74-2.59c-.27-.36-.54-.71-.83-1.06l-.1-.13c-.32-.39-.64-.76-1-1.14l-.1-.11a21,21,0,0,0-12-5.83h-.07a14.26,14.26,0,0,0-2.2-.13,19.36,19.36,0,0,0-3.43.3h0l-.65.13a20.6,20.6,0,0,0-7.25,3.16l-.31.22-.32.23,0,0-.35.27,0,0a17.1,17.1,0,0,0-2.79,2.71l-.69.84-.47.66-.12.16q-.21.29-.43.54l-.27.3,0,0-.32.31a8,8,0,0,1-4.06,2h0a7.7,7.7,0,0,1-1.36.12,8,8,0,0,1-4.65-1.51h0A7.89,7.89,0,0,1,317,102a42.27,42.27,0,0,1-4-4.69h0q-1-1.36-1.92-2.82l0,0a42.06,42.06,0,0,1-2.22-4.05c2.6,1.08,6.58.08,9-.72a14.53,14.53,0,0,0,3-1.48c6.18-3.86,16.33-.94,18.48-.25.31.1.62.19.94.26a31.55,31.55,0,0,0,12.72,0c.31-.07.63-.16.94-.26,2.15-.69,12.3-3.61,18.47.25a14.59,14.59,0,0,0,3,1.48C377.53,90.42,380.95,91.29,383.5,90.69Z"/><path d="M313.33,82.66s16.65-4.92,26.58-.55c0,0,9.93-28.13-16.38-24.58C298.27,60.94,313.33,82.66,313.33,82.66Z"/><path d="M379.45,83.2s-16.65-4.92-26.58-.55c0,0-9.93-28.13,16.38-24.58C394.51,61.49,379.45,83.2,379.45,83.2Z"/><rect class="cls-3" x="300.24" y="0.02" width="99.88" height="204.98"/><path d="M346.09,165.4l-20-11.61a222.51,222.51,0,0,0,17.49,49.52,2.77,2.77,0,0,0,5,0,224.12,224.12,0,0,0,17.54-49.52Z"/><path d="M490.15,25.45h1.38a68.72,68.72,0,0,0-1.39-10.11S486.91,1.41,470.26,0c0,0-22.82-2.18-28.73,24,0,0-.81,4.92-4.61,6.72-.1,0,17.49-.16,17.49-.16-4-2.46-3.89-5.3-4.3-7.37C446.64,5.51,466.24,4.41,466.24,4.41S480.47,3,486.11,14A48.65,48.65,0,0,1,490.15,25.45Z"/><path class="cls-1" d="M428.57,102.91a21,21,0,0,1,1.86-2.57A8.1,8.1,0,0,1,428.57,102.91Z"/><path d="M430.43,100.34a21,21,0,0,0-1.86,2.57,8.11,8.11,0,0,0,1.86-2.57Z"/><path class="cls-1" d="M461.77,100.34a21,21,0,0,1,1.86,2.57A8.1,8.1,0,0,1,461.77,100.34Z"/><path d="M461.77,100.34a8.1,8.1,0,0,0,1.86,2.57,21,21,0,0,0-1.86-2.57Z"/><path d="M466,150.25,446,161.85l-20-11.61s-3.4,25.54,11.63,54.48l3.58-19.34a4.7,4.7,0,0,1,4.59-3.88h.42a4.7,4.7,0,0,1,4.59,3.88l3.58,19.34C469.44,175.78,466,150.25,466,150.25Z"/><path d="M462.57,142.3h.13s-27.07-25.66-4.51-46.2c0,0-3.76-3.42-12.08-3.21S434,96.1,434,96.1s21.58,22.24-4.51,46.2h.13a14,14,0,0,0-3.81,9.41c0,8.92,9.08,16.15,20.27,16.15s20.27-7.23,20.27-16.15A14,14,0,0,0,462.57,142.3Z"/><path d="M400.85,80.59c0-1.61-.2-2.83-.4-2.83s-.4,1.53-.4,3.41.18,3.41.4,3.41.36-1.2.4-2.78a5.66,5.66,0,0,1,4.71.17l-.37-1.78S404,81.67,400.85,80.59Z"/><path d="M491.61,77.76c-.2,0-.36,1.23-.4,2.83-2.87,1-4.12-.17-4.31-.37a43.23,43.23,0,0,0,.81-8.36,42.17,42.17,0,0,0-33.46-41.52l-.29,0a53.73,53.73,0,0,0-16,0A42.32,42.32,0,0,0,404.48,72a42.75,42.75,0,0,0,4.13,18.28l.07.15a42.06,42.06,0,0,0,2.22,4.05l0,0q.9,1.45,1.92,2.82h0a42.27,42.27,0,0,0,4,4.69,7.89,7.89,0,0,0,1.59,1.52h0a8,8,0,0,0,4.65,1.51,7.7,7.7,0,0,0,1.36-.12h0a8,8,0,0,0,4.06-2l.32-.31,0,0,.27-.3q.22-.25.43-.54l.12-.16.47-.66a21.64,21.64,0,0,1,1.57-1.9,17,17,0,0,1,1.93-1.78l.35-.27,0,0,.32-.23.31-.22a20.34,20.34,0,0,1,7.9-3.17h0A20.56,20.56,0,0,1,446.1,93a20.92,20.92,0,0,1,2.2.12h.07a20.33,20.33,0,0,1,9.73,3.78,17.45,17.45,0,0,1,3.12,3l.29.37.07.09c.31.39.61.79.89,1.21a8.07,8.07,0,0,0,1.15,1.33,8,8,0,0,0,5.43,2.14A8.19,8.19,0,0,0,470,105h0a7.92,7.92,0,0,0,3.71-1.45h0a7.9,7.9,0,0,0,1.43-1.32l.16-.19c.31-.31.62-.63.92-1h0l0,0c.25-.27.5-.54.74-.81a42.14,42.14,0,0,0,4.9-6.76c.3-.52.6-1,.88-1.58l0,0,.4-.78,0,0h0l.16-.32.07-.13A42.45,42.45,0,0,0,486.52,82a5.67,5.67,0,0,1,4.69-.16c0,1.58.2,2.78.4,2.78s.4-1.53.4-3.41S491.83,77.76,491.61,77.76Z"/><path class="cls-2" d="M458.35,86.83c-4.85.8-6.75-7.53-6.75-12.91a15.31,15.31,0,1,1,20.86,14.51S468.72,85.12,458.35,86.83Z"/><path class="cls-2" d="M434.39,86.83c4.84.86,6.75-7.53,6.75-12.91a15.31,15.31,0,1,0-20.86,14.51S424.82,85.12,434.39,86.83Z"/><ellipse cx="425.69" cy="79.79" rx="9.26" ry="9.42"/><ellipse cx="466.51" cy="79.79" rx="9.26" ry="9.42"/><path d="M439.45,94.1s5.84,7.54,13.15,0A19.37,19.37,0,0,0,439.45,94.1Z"/><path d="M431.55,140.33a38.25,38.25,0,0,0-5.2,18.24,60,60,0,0,1-2.77,16.33l-.28.89-.08.26H423l-.48,0c0-.08,0-.16,0-.23C419.28,150.34,431.55,140.33,431.55,140.33Z"/><path d="M422.5,176.05s-.31,1.56-.07,1.65.49-1.65.49-1.65Z"/><path d="M423.3,176.05s.31,1.56.07,1.65-.49-1.65-.49-1.65Z"/><path d="M460.62,140.33a38.25,38.25,0,0,1,5.2,18.24,60,60,0,0,0,2.77,16.33l.28.89.08.26h.21l.48,0c0-.08,0-.16,0-.23C472.9,150.34,460.62,140.33,460.62,140.33Z"/><path d="M469.67,176.05s.31,1.57.07,1.66-.49-1.65-.49-1.65Z"/><path d="M468.87,176.05s-.31,1.57-.07,1.66.49-1.65.49-1.65Z"/><ellipse class="cls-1" cx="425.43" cy="83.89" rx="2.86" ry="2.91"/><path d="M425.43,81.47a2.41,2.41,0,1,1-2.36,2.41,2.39,2.39,0,0,1,2.36-2.41m0-1a3.41,3.41,0,1,0,3.36,3.41,3.39,3.39,0,0,0-3.36-3.41Z"/><ellipse class="cls-1" cx="466.24" cy="83.89" rx="2.86" ry="2.91"/><path d="M466.24,81.47a2.41,2.41,0,1,1-2.36,2.41,2.39,2.39,0,0,1,2.36-2.41m0-1a3.41,3.41,0,1,0,3.36,3.41,3.39,3.39,0,0,0-3.36-3.41Z"/><path d="M483.38,90.69c0,.11-.1.22-.16.32h0l0,0-.4.78,0,0c-.28.54-.58,1.06-.88,1.58-1.55,2.43-3.76,5.3-4.9,6.76l-.74.93,0,0h0q-.55.56-1.08,1A10.85,10.85,0,0,1,470,105h0a6.66,6.66,0,0,1-4.85-1,10.36,10.36,0,0,1-2.74-2.59c-.27-.36-.54-.71-.83-1.06l-.1-.13c-.32-.39-.64-.76-1-1.14l-.1-.11a21,21,0,0,0-12-5.83h-.07a14.26,14.26,0,0,0-2.2-.13,19.36,19.36,0,0,0-3.43.3h0l-.65.13a20.6,20.6,0,0,0-7.25,3.16l-.31.22-.32.23,0,0-.35.27,0,0a17.1,17.1,0,0,0-2.79,2.71l-.69.84-.47.66-.12.16q-.21.29-.43.54l-.27.3,0,0-.32.31a8,8,0,0,1-4.06,2h0a7.7,7.7,0,0,1-1.36.12,8,8,0,0,1-4.65-1.51h0a7.89,7.89,0,0,1-1.59-1.52,42.27,42.27,0,0,1-4-4.69h0q-1-1.36-1.92-2.82l0,0a42.06,42.06,0,0,1-2.22-4.05c2.6,1.08,6.58.08,9-.72a14.53,14.53,0,0,0,3-1.48c6.18-3.86,16.33-.94,18.48-.25.31.1.62.19.94.26a31.55,31.55,0,0,0,12.72,0c.31-.07.63-.16.94-.26,2.15-.69,12.3-3.61,18.47.25a14.59,14.59,0,0,0,3,1.48C477.41,90.42,480.82,91.29,483.38,90.69Z"/><path d="M458.35,86.83c-4.85.8-6.75-7.53-6.75-12.91a15.31,15.31,0,1,1,20.86,14.51S468.72,85.12,458.35,86.83Z"/><path d="M434.39,86.83c4.84.86,6.75-7.53,6.75-12.91a15.31,15.31,0,1,0-20.86,14.51S424.82,85.12,434.39,86.83Z"/><rect class="cls-3" x="400.12" y="0.02" width="99.88" height="204.98"/><path d="M446,165.4,426,153.8a222.51,222.51,0,0,0,17.49,49.52,2.77,2.77,0,0,0,5,0A224.12,224.12,0,0,0,466,153.8Z"/><path d="M90.09,25.45h1.38a68.72,68.72,0,0,0-1.39-10.11S86.86,1.41,70.21,0c0,0-22.82-2.18-28.73,24,0,0-.81,4.92-4.61,6.72-.1,0,17.49-.16,17.49-.16-4-2.46-3.89-5.3-4.3-7.37C46.58,5.51,66.18,4.41,66.18,4.41S80.41,3,86.05,14A48.65,48.65,0,0,1,90.09,25.45Z"/><path class="cls-1" d="M28.52,102.91a21,21,0,0,1,1.86-2.57A8.1,8.1,0,0,1,28.52,102.91Z"/><path d="M30.38,100.34a21,21,0,0,0-1.86,2.57,8.1,8.1,0,0,0,1.86-2.57Z"/><path class="cls-1" d="M61.71,100.34a21,21,0,0,1,1.86,2.57A8.1,8.1,0,0,1,61.71,100.34Z"/><path d="M61.71,100.34a8.1,8.1,0,0,0,1.86,2.57,21,21,0,0,0-1.86-2.57Z"/><path d="M66,150.25,45.91,161.85,26,150.25s-3.4,25.54,11.63,54.48l3.58-19.34a4.7,4.7,0,0,1,4.59-3.88h.42a4.7,4.7,0,0,1,4.59,3.88l3.58,19.34C69.39,175.78,66,150.25,66,150.25Z"/><path d="M62.51,142.3h.13s-27.07-25.66-4.51-46.2c0,0-3.76-3.42-12.08-3.21S34,96.1,34,96.1s21.58,22.24-4.51,46.2h.13a14,14,0,0,0-3.81,9.41c0,8.92,9.08,16.15,20.27,16.15s20.27-7.23,20.27-16.15A14,14,0,0,0,62.51,142.3Z"/><path d="M.8,80.59c0-1.61-.2-2.83-.4-2.83S0,79.29,0,81.17s.18,3.41.4,3.41.36-1.2.4-2.78A5.66,5.66,0,0,1,5.5,82L5.14,80.2S3.92,81.67.8,80.59Z"/><path d="M91.56,77.76c-.2,0-.36,1.23-.4,2.83-2.87,1-4.12-.17-4.31-.37a43.23,43.23,0,0,0,.81-8.36A42.17,42.17,0,0,0,54.2,30.35l-.29,0a53.73,53.73,0,0,0-16,0A42.32,42.32,0,0,0,4.43,72,42.75,42.75,0,0,0,8.56,90.27l.07.15a42.06,42.06,0,0,0,2.22,4.05l0,0q.9,1.45,1.92,2.82h0a42.27,42.27,0,0,0,4,4.69,7.89,7.89,0,0,0,1.59,1.52h0a8,8,0,0,0,4.65,1.51,7.7,7.7,0,0,0,1.36-.12h0a8,8,0,0,0,4.06-2l.32-.31,0,0,.27-.3q.22-.25.43-.54l.12-.16.47-.66A21.66,21.66,0,0,1,31.71,99a17,17,0,0,1,1.93-1.78L34,97l0,0,.32-.23.31-.22a20.34,20.34,0,0,1,7.9-3.17h0A20.56,20.56,0,0,1,46,93a20.92,20.92,0,0,1,2.2.12h.07A20.33,20.33,0,0,1,58,96.94a17.45,17.45,0,0,1,3.12,3l.29.37.07.09c.31.39.61.79.89,1.21a8.07,8.07,0,0,0,1.15,1.33A8,8,0,0,0,69,105.05a8.18,8.18,0,0,0,.94-.05h0a7.92,7.92,0,0,0,3.71-1.45h0a7.9,7.9,0,0,0,1.43-1.32l.16-.19c.31-.31.62-.63.92-1h0l0,0c.25-.27.5-.54.74-.81a42.13,42.13,0,0,0,4.9-6.76c.3-.52.6-1,.88-1.58l0,0,.4-.78,0,0h0c.06-.11.11-.22.16-.32l.07-.13A42.45,42.45,0,0,0,86.47,82a5.67,5.67,0,0,1,4.69-.16c0,1.58.2,2.78.4,2.78s.4-1.53.4-3.41S91.78,77.76,91.56,77.76Z"/><path class="cls-2" d="M58.3,86.83c-4.85.8-6.75-7.53-6.75-12.91A15.31,15.31,0,1,1,72.41,88.43S68.67,85.12,58.3,86.83Z"/><path class="cls-2" d="M34.33,86.83c4.84.86,6.75-7.53,6.75-12.91a15.44,15.44,0,0,0-15.3-15.57,15.61,15.61,0,0,0-5.55,30.08S24.77,85.12,34.33,86.83Z"/><ellipse cx="25.64" cy="79.79" rx="9.26" ry="9.42"/><ellipse cx="66.45" cy="79.79" rx="9.26" ry="9.42"/><path d="M39.4,94.1s5.84,7.54,13.15,0A19.37,19.37,0,0,0,39.4,94.1Z"/><path d="M31.49,140.33a38.25,38.25,0,0,0-5.2,18.24,60,60,0,0,1-2.77,16.33l-.28.89-.08.26H23l-.48,0c0-.08,0-.16,0-.23C19.22,150.34,31.49,140.33,31.49,140.33Z"/><path d="M22.45,176.05s-.31,1.56-.07,1.65.49-1.65.49-1.65Z"/><path d="M23.25,176.05s.31,1.56.07,1.65-.49-1.65-.49-1.65Z"/><path d="M60.57,140.33a38.25,38.25,0,0,1,5.2,18.24,60,60,0,0,0,2.77,16.33l.28.89.08.26h.21l.48,0c0-.08,0-.16,0-.23C72.84,150.34,60.57,140.33,60.57,140.33Z"/><path d="M69.62,176.05s.31,1.57.07,1.66-.49-1.65-.49-1.65Z"/><path d="M68.81,176.05s-.31,1.57-.07,1.66.49-1.65.49-1.65Z"/><ellipse class="cls-1" cx="25.37" cy="83.89" rx="2.86" ry="2.91"/><path d="M25.37,81.47A2.41,2.41,0,1,1,23,83.89a2.39,2.39,0,0,1,2.36-2.41m0-1a3.41,3.41,0,1,0,3.36,3.41,3.39,3.39,0,0,0-3.36-3.41Z"/><ellipse class="cls-1" cx="66.18" cy="83.89" rx="2.86" ry="2.91"/><path d="M66.18,81.47a2.41,2.41,0,1,1-2.36,2.41,2.39,2.39,0,0,1,2.36-2.41m0-1a3.41,3.41,0,1,0,3.36,3.41,3.39,3.39,0,0,0-3.36-3.41Z"/><path d="M83.33,90.69c0,.11-.1.22-.16.32h0l0,0-.4.78,0,0c-.28.54-.58,1.06-.88,1.58-1.55,2.43-3.76,5.3-4.9,6.76l-.74.93,0,0h0q-.55.56-1.08,1A10.85,10.85,0,0,1,69.94,105h0a6.66,6.66,0,0,1-4.85-1,10.36,10.36,0,0,1-2.74-2.59c-.27-.36-.54-.71-.83-1.06l-.1-.13c-.32-.39-.64-.76-1-1.14l-.1-.11a21,21,0,0,0-12-5.83h-.07A14.26,14.26,0,0,0,46,93a19.36,19.36,0,0,0-3.43.3h0l-.65.13a20.6,20.6,0,0,0-7.25,3.16l-.31.22-.32.23,0,0-.35.27,0,0a17.1,17.1,0,0,0-2.79,2.71l-.69.84-.47.66-.12.16q-.21.29-.43.54l-.27.3,0,0-.32.31a8,8,0,0,1-4.06,2h0a7.7,7.7,0,0,1-1.36.12,8,8,0,0,1-4.65-1.51h0A7.89,7.89,0,0,1,16.84,102a42.27,42.27,0,0,1-4-4.69h0q-1-1.36-1.92-2.82l0,0a42.06,42.06,0,0,1-2.22-4.05c2.6,1.08,6.58.08,9-.72a14.53,14.53,0,0,0,3-1.48C26.81,84.36,37,87.28,39.11,88c.31.1.62.19.94.26a25.08,25.08,0,0,0,6.36.65,25.08,25.08,0,0,0,6.36-.65c.31-.07.63-.16.94-.26,2.15-.69,12.3-3.61,18.47.25a14.59,14.59,0,0,0,3,1.48C77.36,90.42,80.77,91.29,83.33,90.69Z"/><rect class="cls-3" x="0.07" y="0.02" width="99.88" height="204.98"/><path d="M45.91,165.4,26,153.8a222.51,222.51,0,0,0,17.49,49.52,2.77,2.77,0,0,0,5,0A224.12,224.12,0,0,0,66,153.8Z"/></g></g></svg>