<svg xmlns="http://www.w3.org/2000/svg" viewBox="0 0 90.04 202.41"><title>elmus-side_1</title><g id="Calque_2" data-name="Calque 2"><g id="Personnage_forme" data-name="Personnage forme"><path d="M39.64,202.41l2.15-11.34,1.47-7.75a4.72,4.72,0,0,1,4.64-3.83h.42A4.71,4.71,0,0,1,53,183.32l1.49,7.85a246.42,246.42,0,0,0,14.11-39.5c0-.59-.06-1.1-.09-1.52-.08-1-.15-1.52-.15-1.52L48.16,160.09,27.89,148.63S24.46,173.84,39.64,202.41Z"/><path d="M27.56,147.55c0,8.8,9.16,15.94,20.46,15.94s20.46-7.14,20.46-15.94a13.66,13.66,0,0,0-3.84-9.29h.13c-22.29-20-10.12-38.81-5.85-44.12.78-1,1.29-1.48,1.29-1.48s-3.76-2.93-12.09-3.16H48c-.82,0-1.6,0-2.33,0-5.61.32-8.69,2.25-9.59,2.91h0l.25.27.56.63.23.26.11.13.1.11.09.11,0,.06c1.51,1.75,2.41,3,2.62,3.25l0,0v0c14.49,19.29-8.88,41-8.88,41h.13A13.66,13.66,0,0,0,27.56,147.55Z"/><path d="M6,70.18c0,.5,0,1,0,1.51,0,.12,0,.24,0,.36a1,1,0,0,0,.39.74,1,1,0,0,0,.38.16l.23.05C17.7,75.58,27.66,84.49,27.66,84.49l0,0,.23.19.35.28.32.26.54.46.11.1.29.25.56.49.9.81.14.13.53.49.12.11.46.43.19.18.39.38.25.25.31.3.52.52,0,0,.56.57.1.1.43.45.12.12.4.42.11.12.38.42,0,.05.11.12.3.34.11.12.53.59.09.11.1.11.09.11,0,.06a21.88,21.88,0,0,1,8.24-2.8h.13A21.28,21.28,0,0,1,48,91.08h.1a21.2,21.2,0,0,1,3.36.28h0l.67.13a21.1,21.1,0,0,1,7.31,3.12l.32.21.32.22,0,0,.36.26,0,0A17.08,17.08,0,0,1,63.38,98l.7.83c.17.21.32.43.47.65l.06.08.06.08q.21.28.43.53l.27.29,0,0,.32.3a8.08,8.08,0,0,0,4.1,2h0a8,8,0,0,0,1.37.12,8.17,8.17,0,0,0,4.7-1.49h0A8,8,0,0,0,77.48,100l.06-.07q.81-.8,1.57-1.63.52-.57,1-1.16l.49-.59c.33-.4.65-.8,1-1.21h0l.51-.68q.5-.68,1-1.39l.46-.71,0,0a40.67,40.67,0,0,0,2.24-4l.07-.15a41.39,41.39,0,0,0,2.49-6.46l.13-.46c.17-.61.33-1.22.47-1.84q.33-1.42.56-2.88A42.26,42.26,0,0,0,90,71.62c0-.25,0-.51,0-.76s0-.37,0-.56a41.31,41.31,0,0,0-3.26-16.2A42.23,42.23,0,0,0,56.23,29.2a55.46,55.46,0,0,0-16.14,0l-.29,0A41.86,41.86,0,0,0,6,70.18Z"/><path d="M27.89,150.25s3.61,18,13.89,40.83q1.77,3.94,3.82,8.06a2.83,2.83,0,0,0,5,0c1.34-2.7,2.61-5.35,3.79-8a256.75,256.75,0,0,0,12.1-32.25c1-3.22,1.62-5.7,2-7.25v0c0-.54.08-1.08.11-1.62l-.21.12-6.11,3.48-14.19,8.08Z"/><path d="M6.14,66.92S1.78,93.5,36.47,93L42,92Z"/><path d="M68.26,145.14s1.27,6-.75,10.46l-3.92-7.37Z"/><path d="M1.39,25.12H0a66.44,66.44,0,0,1,1.4-10S4.66,1.39,21.46,0c0,0,23-2.16,29,23.72,0,0,.81,4.85,4.65,6.63.11,0-17.66-.16-17.66-.16C41.52,27.81,41.38,25,41.79,23,45.31,5.44,25.53,4.36,25.53,4.36S11.16,3,5.47,13.79A47.32,47.32,0,0,0,1.39,25.12Z"/></g></g></svg>