<svg xmlns="http://www.w3.org/2000/svg" viewBox="0 0 100 20"><defs><style>.cls-1{fill:#f2eee9;}.cls-2{fill:#fff;}</style></defs><title>min-eye_2</title><g id="Calque_2" data-name="Calque 2"><g id="Calque_9" data-name="Calque 9"><ellipse class="cls-1" cx="10.04" cy="10" rx="10.04" ry="10"/><ellipse cx="10.24" cy="11.18" rx="6.09" ry="6.07"/><ellipse class="cls-2" cx="10.32" cy="12.7" rx="2.3" ry="2.3"/><path class="cls-1" d="M39.7,10a10,10,0,1,1-4.43-8.3l0,0A10,10,0,0,1,39.7,10Z"/><ellipse cx="29.85" cy="11.18" rx="6.09" ry="6.07"/><ellipse class="cls-2" cx="30.05" cy="12.58" rx="2.3" ry="2.3"/><path d="M35.3,1.72C26.44-.65,20.12,6.87,20.12,6.87v0A10.07,10.07,0,0,1,35.27,1.7Z"/><path class="cls-1" d="M59.82,10a10,10,0,0,1-19.34,3.79v0A9.86,9.86,0,0,1,39.73,10a10,10,0,0,1,20.09,0Z"/><ellipse cx="49.97" cy="11.18" rx="6.09" ry="6.07"/><ellipse class="cls-2" cx="50.17" cy="12.7" rx="2.3" ry="2.3"/><path d="M59.62,8c-8.84-2.35-19.07,5.91-19.07,5.91l-.07-.14v0A9.86,9.86,0,0,1,39.73,10,10,10,0,0,1,59.62,8Z"/><path class="cls-1" d="M80,10A9.9,9.9,0,0,1,78,16.08,10.05,10.05,0,0,1,60.7,13.79v0l-.1-.27-.09-.25c0-.14-.1-.28-.13-.41A9.91,9.91,0,0,1,59.95,10,10,10,0,0,1,70,0h.45A10,10,0,0,1,80,10Z"/><ellipse cx="70.19" cy="11.18" rx="6.09" ry="6.07"/><ellipse class="cls-2" cx="70.38" cy="12.7" rx="2.3" ry="2.3"/><path d="M80,10A9.9,9.9,0,0,1,78,16.08a33,33,0,0,0-15.83.14h0a11.36,11.36,0,0,1-1.39-2.44v0l-.1-.27-.09-.25c0-.14-.1-.28-.13-.41A8.79,8.79,0,0,1,59.95,10,10,10,0,0,1,70,0h.45A10,10,0,0,1,80,10Z"/><path d="M100,10a9.9,9.9,0,0,1-2.07,6.08,10.05,10.05,0,0,1-17.26-2.29v0l-.1-.27-.09-.25c0-.14-.1-.28-.13-.41A9.91,9.91,0,0,1,79.91,10,10,10,0,0,1,90,0h.45A10,10,0,0,1,100,10Z"/></g></g></svg>