<svg xmlns="http://www.w3.org/2000/svg" viewBox="0 0 4880 770"><defs><style>.cls-1{fill:#0e1419;}</style></defs><title>ocean-black</title><g id="Calque_2" data-name="Calque 2"><g id="Calque_1-2" data-name="Calque 1"><path d="M4396.13,0l0,1.19-.53,29.27h33.19l2.18,6h25.23v63h8.41v9.83h3.83l.68,3.06h4.76v9.51H4480v5.77h5.44v10.86h7.14v8.84l13.26.67-.34,32.58h5.45v-6.79h9.17l-.68,93.34h6.12l.34-70.26H4534v12.21h4.42v11.55h11.89l1.71,35H4565l.34,38h4.42l.68,36,2.72,13.58,2.38-14.26h4.76l-.68-58.37,1.36-8.83h13.26v-9.84l7.82-1.36v-6.11h8.16V219.27l53-1,.68,111h4.42l.68-110.64h10.54l1.36,126.94h3.06V330.25l5.4-1.33,2-171.87,5.41-10.1,9.45-5.39,3.37,80.21,9.45-80.21,1.35,117.27L4726.47,155l32.4-1.35,2.7-6.75H4769l8.77,15.5,5.41,11.46V341.35a38,38,0,0,0-4.06.37c-15.52,3.37-27.67,27.64-27.67,27.64-31.05,52.56,8.1,120.64,8.1,120.64,29,60,13.49,134.12,13.49,134.12l-2.7,8.1-1,9-.34,3.09-2.7,14.83-12.15,6.05c-2.65,6.13-5.55,9.61-8.4,11.38a10.42,10.42,0,0,1-3,1.27c-6.09,1.49-11.54-3.59-13.49-5.7-.5-.53-.77-.87-.77-.87L4724.44,550,4715,678.05l-8.77-.68-9.45-43.13s2,36.4-4.06,46.55-18.23,0-18.23,0l-1.35-7.46-7.42-2.69h-20.93L4627.92,672c-.42,4.83-1.57,7.5-2.94,8.9a26.9,26.9,0,0,0-7.11-4.75c-.93-.43-1.89-.83-2.9-1.21l-5.28-11-6.08-10.1-2-21.56h-49.27a82.11,82.11,0,0,1-8.52,32.32,31.68,31.68,0,0,0-.21-3.69c-2.88-1.83-4-.13-4.51,2.45q-4.12-1.3-8.15-2.16c-.74-.15-1.47-.3-2.2-.43a15.18,15.18,0,0,0-1.19-6.58c-2.52,0-3.33,2.81-3.52,5.86-1.06-.12-2.11-.24-3.16-.33a84.84,84.84,0,0,0-18.09.42c-1.3.14-2.6.33-3.89.55a124.53,124.53,0,0,0-16.24,3.92c1.42-4.28,2.8-9.43.39-12.3-2.29,1.76-1.75,7.81-2.56,10.77-.21.77-.4,1.58-.59,2.39-7.9,2.49-16.47,3.32-23.22,8.43-14.61,11.08-18.13,16.61-8.8,23,.43.3.89.59,1.37.88a20.39,20.39,0,0,0-.57,2.86c-.09.75-.16,1.51-.23,2.26l-.79-.09-2.46-.32c-2.57-.33-5.1-.68-7.61-1.06.27-1.7.55-3.37.84-5,.77-4.3,1.67-8.69,2.49-13.08.76-4.11,1.43-8.27,1.83-12.37.53-6.47,2.16-14.28,1.35-20.74-5.94-3.77-4.58,7.41-4.87,10.5-.53,5.12-.26,11.45-3,15.88-4-3.91-7.55-10-7.81-15.62-.27-5.92,2.16-11.71-.41-17.5-4.59,0-3.51,9.28-3.37,12.38.4,7.14,0,10.1,4.45,15.89,2,2.69,5.26,5.4,5.66,9,.06.6.09,1.23.1,1.88,0,5.52-1.66,12.74-2.38,17.91-.56-.09-1.12-.17-1.68-.27a55.27,55.27,0,0,1-5.71-1.34c1.24-6.11,2.1-14.1-1.39-15.61-1.75,2.82-1.07,6.88-1.48,10.1-.19,1.42-.41,2.93-.68,4.44l-3.34-1q-1.74-.54-3.48-1a45.93,45.93,0,0,0-6.87-1.35c2.24-4.71,4.81-9.53,6.25-14.72.21-.76.4-1.54.56-2.33,1.35-6.47-1.07-8.49-4-1.89a39.7,39.7,0,0,0-1.49,4c-1.63,4.92-2.7,10.21-5,14.8h-.1c-.38,0-.77,0-1.15.05a88.64,88.64,0,0,1-6-13.69c-.87-2.47-1.69-5-2.54-7.68-1.75-5.25,3-16-1.07-19.65-7,4.05-3.65,16.16-2.16,22.36.52,2,.85,4.17,1.19,6.33a54.54,54.54,0,0,0,1.37,6.74c.68,2.23,2.13,4,3.29,6-.41,0-.83,0-1.24,0a8.09,8.09,0,0,0-3.53-4.56,5.77,5.77,0,0,0-1.65,3.89,21.77,21.77,0,0,1-4.4-1.6l-.18-.08c-.78-.37-1.56-.69-2.35-1-.09-.71-.21-1.41-.34-2.07l-4.44-54.47s0,30.79-1.67,55.13a17.88,17.88,0,0,0-2.94.08,16.9,16.9,0,0,0-7.61,2.88,17.5,17.5,0,0,0-1.46,1.08,12.73,12.73,0,0,1-2.61,1.6c-.59.27-1.19.5-1.8.72.05-1.11.09-2.29.16-3.63.09-2.19.66-7.49-.65-10.39a2.9,2.9,0,0,0-2.73-2,13.22,13.22,0,0,0-.75,2.31c-1.07,4.56.24,9,.35,13.71a5.25,5.25,0,0,0-1.14.1l-6.86-61.6-1.35,59.31c.14,2,.2,3.89.18,5.68-.38.08-.76.15-1.14.2l-.41.06c-.06-.86-.12-1.72-.21-2.53-.27-2.55.68-10.64-2.42-11.18a2.84,2.84,0,0,0-1.62-2c-6.38-1.85-6.86,12.26-9,15.75-1-.11-2-.23-3-.36-4.12-.56-8.24-1.31-12.36-1.86a55.9,55.9,0,0,0,.29-7.72c-.14-2.82.62-6.31,1.15-9.76.55-3.66.84-7.27-.48-9.91-3.08.93-4.33,4.78-4.86,9.43-.69,6-.19,13.42-1,17.43-1.25-.11-2.5-.18-3.74-.2-1,0-2,0-3.06,0a17.18,17.18,0,0,0-2-4.48,6.12,6.12,0,0,0-1.62-3.5c-1.72,2.07-1.56,5.23-.79,8.42-.27,0-.54.07-.8.12l-.89-13.88c.71-1.5,1.65-2.87,2.49-4.27a14.06,14.06,0,0,0,1.47-3.06c1.21-4,1.48-8.89,2.56-13.06,1.49-6.18,4.87-18.31-2.16-22.37-4,3.64.54,14.42-1.07,19.66-2.41,7.22-4.39,13.47-7.86,20.09-.4.79-.84,1.6-1.31,2.41-.36-.66-.71-1.36-1-2.06-2.59-5.64-3.61-12.24-6.13-17.87-3-6.75-5.4-4.57-4,1.89,1.21,5.92,4,11.32,6.53,16.59,2.79,5.89,5.15,11.61,4.28,17.67a1.64,1.64,0,0,0-.31-.17c-4.58-2.24-9.13-2.25-13.69-1.65a27.43,27.43,0,0,1-1.67-3.75,34,34,0,0,1-1.66-6.06c-.44-2.24-.76-4.52-1-6.6-.54-3.24.27-7.27-1.48-10.1-4,1.67-2.16,12.51-.7,18.64.32,1.33.61,2.43.83,3.19a54.05,54.05,0,0,0,1.88,5.31c-1.93.34-3.87.72-5.8,1-.31.08-.63.15-.93.21a9,9,0,0,1-2.84.26h0c-.13-2.38-.3-4.75-.54-7.12-.13-1.43-.29-2.84-.5-4.24-.81-5.8-2.84-14-2.29-19.8.41-3.49,3.64-6.32,5.67-9,4.45-5.78,4-8.76,4.45-15.88.13-3.11,1.21-12.39-3.38-12.39-2.55,5.79-.13,11.58-.4,17.51-.27,5.65-3.78,11.58-7.82,15.61-2.69-4.43-2.42-10.76-3-15.88-.4-3.09,1.08-14.28-4.87-10.5-.81,6.45.82,14.27,1.36,20.75.78,8.15,2.67,16.43,4.14,24.48a5.13,5.13,0,0,0-1.55-.08c-1.67.14-2.26.79-2.43,1.65.38-2.2,1.4-4.66-2-4.87a5.71,5.71,0,0,0-.72,0h0a3.31,3.31,0,0,0-1,.23h0c-2.37.94-1.81,4.45-2.56,6.71a.19.19,0,0,1,0,.07c-.81-4.19-2.56-6-4.76-9.75-2.69-4.73-.13-12.55-5.8-15.36-.53,11.9,6.75,21.28,8,32.34a29.43,29.43,0,0,1,.15,3.77l-.56.3c-1.47-.12-2.95-.35-4.44-.44a28.54,28.54,0,0,1-4.54.17l-5.27-17.3-1.1,4.88c-.47-1.54-1-3-1.38-4.32-1.35-4.17-3.11-8.21-4.32-12.53-1.07-3.91-2.7-5.12-4.59-8.62-1.48-2.81-1.88-6.18-2.83-9.3-.81-3-.27-9-2.56-10.77-3.38,4,.67,12.51,1.88,16.83,2,6.88,5.13,12.39,6.75,19.13,1.45,6.36,4.23,11.67,5.24,17.53l-.83,3.69a31.22,31.22,0,0,0-5.9.06c-.7.09-1.41.21-2.12.37-1.19.26-2.42.47-3.66.67l-1.91.29c-1,.15-2,.31-3,.49a23.71,23.71,0,0,0-6.58,2.05l-1.37-1.32c-1.83-1.83-3.76-3.46-5.51-5.26a24.49,24.49,0,0,1-3-3.64c-1.61-2.42-4.58-5.51-5.53-8.21-4.52.27.93,9.06,2.65,11.36a.48.48,0,0,0,.06.09c2.71,3.72,6.11,6.43,9.63,9.11-.35.26-.69.51-1,.75a24.58,24.58,0,0,1-2.63,1.58A27.94,27.94,0,0,1,4192,708a36.33,36.33,0,0,1-4.07.78,66.18,66.18,0,0,1-9.23.52l-2.65,0-1.48,0q-4.92-.09-9.84-.09h-2.95q-7.7,0-15.43.11c-3.29.11-6.58.39-9.87.33a33.56,33.56,0,0,1-4.8-.4c-.57-.08-1.13-.18-1.7-.31-1-.25-2-.49-3.07-.67-4.39-1-10.66-1.32-6.8-7.06,4-6,1.2-10.82-2.07-15.84-4.46-4.53-11.62-5.08-17.18-8-10.41-4-19.37-10.8-31.64-11.16a73.44,73.44,0,0,0-19.77,2.31c-1.59.4-3.17.82-4.74,1.29-4,1.17-7.94,2.5-11.87,3.87s-7.91,2.77-11.91,4.06c-3.31,1-6.56,3.7-7,6.56-1.1,6.7-4.86,9.37-9.87,10.32a11,11,0,0,0-3.8-5.09c-5.79-4.43-13.75-4.71-20.62-6.88,5.81-.39,13.89-2.82,19-4.57a12.89,12.89,0,0,1-.37-1.52c-.54-2.83-.27-5.28-2.33-7.91s-11.32-5.93-14.29-6.45c-7.15-1.37-8,2.81-13.89,5.24-3.52,1.42-7.65-.44-10.1,2.69a7,7,0,0,0-1,1.76c3.64,3.9,9.16,4.3,10.79,10.24-4.59-.27-7.82-1.63-12.41-1.37-3.78.27-7.41,1.37-11.19,1.5-.83,2.6-1.16,5.47-2,7.83l-1.86-.53c-3.39-1-6.78-1.81-10.19-2.42-.14-.28-.26-.56-.4-.83-3.1-.41-6.86.26-8.49-2.42-2.29-3.65.94-4.32,1.49-7.15.81-3.5.95-7.14,3.1-9.83a4,4,0,0,1,.41-.42c2.44-2.28,7.9-3.4,9.29-6.31,4.74-9.42-4.59-18.58-7.67-24.51-1.49-2.84-.14-3.37-2.7-6.06-1.89-2-5.53-3.37-8.09-4.45-6.33-2.81-12-7.94-18.47-10.36-5.8-2.17-9.16,1.21-14.69.67-5.95-.54-9.57-4.85-15.92-4.7-5.93,0-11.18,2.13-17.13.66-8.72-2.15-16.49-8.22-23.12-14.46v-1.17l-.61.59c-.64-.59-1.26-1.21-1.89-1.81v3.6c-6.62,6.24-14.4,12.31-23.12,14.45-5.94,1.49-11.19-.66-17.13-.66-6.33-.14-10,4.16-15.91,4.7-5.54.54-8.89-2.82-14.7-.67-6.46,2.42-12.13,7.55-18.47,10.36-2.55,1.09-6.2,2.43-8.09,4.45-2.55,2.69-1.21,3.24-2.69,6.06-3.1,5.93-12.4,15.09-7.68,24.51,1.48,3.1,7.55,4.18,9.7,6.74s2.3,6.33,3.11,9.83c.54,2.82,3.78,3.51,1.48,7.15-1.62,2.69-5.4,2-8.49,2.42a34.36,34.36,0,0,0-2.29,5.69A26.41,26.41,0,0,0,3720,696c-10,1.67-9.5-5.59-11.24-11.76-.07-.25-.14-.51-.23-.76-3.78-.13-7.41-1.22-11.18-1.49-4.59-.27-7.82,1.09-12.41,1.36,1.62-5.93,7.14-6.33,10.78-10.24-2.15-5.52-7-2.82-11.05-4.44-5.94-2.43-6.74-6.6-13.88-5.25-3,.54-12.14,3.78-14.31,6.45-2.42,3.1-1.61,5.93-2.69,9.43,5.13,1.75,13.22,4.18,19,4.59-5.66,1.76-12,2.26-17.32,4.85a18.49,18.49,0,0,0-3.32,2,11,11,0,0,0-3.83,5.15,40.28,40.28,0,0,0-6.06,1.56c-11.28,3.15-23.12,3.46-34.79,4.56a21.62,21.62,0,0,1-.09-2.94,12.81,12.81,0,0,0-2.7,3.17c-3.53.16-7-.49-8.83-3.78-4.75-8.26-13.92-12.93-22.18-18.21-10-6.42-16.17-6.52-26.85-1-9.71,5.06-20.68,6.78-31.56,8.9a44.87,44.87,0,0,1-4.95-.55c-.94-.16-1.88-.36-2.8-.6l-1.16-.32a23.19,23.19,0,0,0-6.5-2.8c-5.77-2.41-11.87-4.23-17.51-6.8l-1-.46a26.41,26.41,0,0,0-2.53-1,15.13,15.13,0,0,0-8.41-.76,13.32,13.32,0,0,0-2.72.91,16.27,16.27,0,0,0-3,1.82c-1.95,1.43-3.67,3.06-5.72,4.37a13.74,13.74,0,0,1-1.54.9c-.24.12-.47.24-.7.34-3,1.43-5.58,1.78-6.37-2-1.38-6.34-4.11-7.49-7.78-5.39a20.9,20.9,0,0,0-3.92,3,1.72,1.72,0,0,0-.19.19c-.77.81-1.12,1.64-3,.79-5.7-2.61-6.78,1-7.49,4.33-.49,2.32-.39,4.85-3,5.31,1.26-3.92,2.91-7.82,3.92-12.21a68,68,0,0,1,3.2-9.48c1.24-3.11,2.52-6.21,3.54-9.66,1.22-4.3,5.27-12.79,1.89-16.83-2.3,1.76-1.76,7.8-2.57,10.79s-1.34,6.46-2.82,9.28c-1.32,2.45-2.51,3.78-3.46,5.68a14.83,14.83,0,0,0-1.13,2.95c-1.22,4.31-3,8.35-4.32,12.53-.65,2-1.46,4.44-2.12,6.89-1.24.1-2.46.32-3.67.52a37.48,37.48,0,0,1-10.64,1.54c2.19-9.4,7.73-17.9,7.25-28.34-5.67,2.81-3.1,10.64-5.8,15.36-2.43,4.17-4.32,5.91-5,11.17-.07.57-.12,1.15-.17,1.73-.65,0-1.29-.08-1.94-.14-3.06-.09-6.08-.06-9.09.05.29-2,.62-3.94.95-5.81,1.49-8.35,3.52-17,4.32-25.45.14-1.64.35-3.36.55-5.12.65-5.22,1.4-10.81.8-15.63-5.93-3.76-4.45,7.42-4.86,10.5-.11,1-.18,2.15-.25,3.28-.3,4.37-.57,9.08-2.72,12.62-3.56-3.55-6.67-8.54-7.57-13.55a16.24,16.24,0,0,1-.25-2.07c-.27-5.93,2.17-11.72-.4-17.51-4.59,0-3.5,9.29-3.37,12.39a59.62,59.62,0,0,0,.69,8.31,17.56,17.56,0,0,0,3.77,7.57c2,2.7,5.26,5.54,5.66,9,.54,5.81-1.48,14-2.3,19.8-.09.63-.17,1.28-.25,1.92q-4,.3-8,.78c1.47-5.74,3.93-18.15-.38-19.94-1.75,2.83-.94,6.87-1.48,10.1a72.46,72.46,0,0,1-1.92,10.34c-1.34.19-2.67.4-4,.62-1.14.18-2.28.38-3.41.58-3,.56-6.08,1.2-9.08,1.87,1.08-9.62,8.67-18.7,10.85-29.44.6-2.88.46-4.9-.14-5.67s-1.58-.33-2.74,1.53a18.88,18.88,0,0,0-1.17,2.25c-2.82,6.33-3.76,13.88-7.13,19.93-4.32-7.54-6.47-14.41-9.17-22.5-.69-2.23-.25-5.47.16-8.73.57-4.4,1.09-8.86-1.23-10.94-4.74,2.73-4.75,9.13-3.79,14.9.46,2.78,1.13,5.45,1.62,7.46,1.08,4.18,1.35,9,2.57,13.06.94,3,3.37,5.4,4.45,8.5,1.13,3.38,1.2,7,1.5,10.6l-2.73.65-.71.18c.54-2.78.48-5.44-1-7.25a6,6,0,0,0-1.61,3.49,17.31,17.31,0,0,0-2.16,5c-2,.52-4,1-6.08,1.59-.09-.26-.18-.52-.26-.78-2.17-6.06,1.34-25.72-6.21-28-2.56,5.11.94,13.86.67,19.66a56.8,56.8,0,0,0,.66,10.52l-.54.14c-1.36.37-2.69.81-4,1.24a33.88,33.88,0,0,1-8.55,1.91c-.85-1.22-1.68-2.44-2.51-3.72-2.15-3.23-2.57-17.77-9-15.89a2.77,2.77,0,0,0-1.61,2,2.22,2.22,0,0,0-1.58,1.45A22,22,0,0,0,3296.28,677c-.36-.2-.73-.39-1.1-.57a52.9,52.9,0,0,0-13.63-4.19c-6.21-.76-12.51-1.24-18.81-1.67,1.12-6,1.44-13.09-3.6-16-3.19,2.86-.93,10.16-.69,15.69-10.71-.74-21.39-1.6-31.62-3.87.7-2.59.68-5.28.9-9.26.14-3.1,1.23-12.39-3.36-12.39-2.57,5.8-.13,11.58-.42,17.51a17.62,17.62,0,0,1-.5,3.34c-2.09-.54-4.17-1.13-6.2-1.81-1.35-.45-2.69-.85-4-1.23,0-.19,0-.38-.05-.57-.27-3.09,1.07-14.27-4.86-10.5a44.88,44.88,0,0,0,.12,9.87l-.76-.17c-1.62-.34-3.22-.64-4.83-.87l-.62-.1c-1.55-.21-3.09-.38-4.63-.51a84.76,84.76,0,0,0-18.08.42c-1.3.14-2.6.33-3.9.55s-2.77.49-4.15.78c-.22-2.31-.36-5-1.19-6.69a3.31,3.31,0,0,0-.95-1.26,3.05,3.05,0,0,0-.39.55c-1.3,2.07-1,5-.32,8-3.84.89-7.67,2-11.54,3.22-8,2.6-16.79,3.36-23.68,8.57-2.76,2.09-5.1,4-7.05,5.71,1.71-3.54,1.57-6.53,1.87-11.81.13-3.1,1.21-12.38-3.38-12.38-2.57,5.78-.13,11.59-.4,17.5-.27,5.67-3.78,11.72-7.82,15.63-2.69-4.44-2.42-10.79-3-15.9-.27-3.1,1.08-14.27-4.86-10.5-.81,6.47.82,14.28,1.36,20.75.58,6.11,1.79,12.28,3,18.39-1.87-.29-3.72-.58-5.58-.9a74.73,74.73,0,0,1-9.56-2.5c-.84-4.53-.11-9.88-4.7-12a34.2,34.2,0,0,0,1.47,11c-4.77-1.47-9.57-2.71-14.68-2.48-.14-.5-.28-1-.41-1.53-1.08-3.9-2.7-5.12-4.59-8.62-1.49-2.82-2-6.33-2.84-9.28s-.26-9-2.55-10.78c-3.38,4,.67,12.53,1.88,16.83,1.45,4.95,3.46,9.19,5.08,13.69-5,.45-9.22.14-13.79-2.1l-.19-.08c-.71-.34-1.42-.65-2.13-.92a18.9,18.9,0,0,0-12.55-.77h0a17.09,17.09,0,0,0-4.48,2.15,18.74,18.74,0,0,0-1.61,1.18,19.17,19.17,0,0,1-7.53,3.24l-.19.05c-1.65.41-3.33.8-4.93,1.35-8.19,2.77-16.43,2-24.65.75l-2.64-.4c-10.31-1.64-20.61-3.48-30.79.58a1.64,1.64,0,0,0-.43.21c0-.08,0-.24-.52-.46-7.79-3.83-15.55-1.17-23.32,0-3,.73-5.9,1.2-6.26-2.51-.26-2.68.06-5.39-.56-8a16.54,16.54,0,0,0-.51-1.75,8.38,8.38,0,0,0-.81-1.71,4.32,4.32,0,0,0-4.35-2.11c-1.67.14-2.26.79-2.43,1.65.38-2.2,1.4-4.66-2-4.87a5.71,5.71,0,0,0-.72,0h0a3.31,3.31,0,0,0-1,.23h0c-2.38.94-1.82,4.45-2.57,6.71-.95,2.88,1.2,6.33-.38,9.09-1.55-2-4.75-.4-6.44.75a12.15,12.15,0,0,0-1.39,1.16,54.68,54.68,0,0,1-10.56-.49c.32-2.08,1.15-8.34-2.19-8.6,0,.06-3.11.8-3.25.93a15.45,15.45,0,0,0-1.63,7.45c-.52,0-1,.1-1.58.17-.58-3.2-1.81-5.77-5-4.93-2.29.54-1.89,2-1.62,4.05.1.66.23,1.33.38,2-4.65.71-9.36,1.4-12.57,4.07-8.15,6.81-17.86,6.85-28.1,6.65-.73,0-1.46,0-2.19,0a52.56,52.56,0,0,0-4.31-7.84c-2.57-3.51-4.59-5.65-7-7.15.94-.53,1.9-1.08,2.7-1.48,8.5-4.17,17.94-8.21,25.89-13.06,4.73-2.69,11.19-4,15.37-7l.26-.2c1.81-1.36,3.59-3.64-.53-5.31-2.16-.82-5.53.52-7.55,1.2a52.24,52.24,0,0,0-7.27,3.17h0c-1.81.89-3.61,1.82-5.48,2.63-.54.23-1.09.45-1.64.66a64,64,0,0,0-9.55,4.73l-.43.24.2-.18,1-1c6.19-7.14,13.88-12.81,20.09-19.93,2-2.29,4.18-4.59,2.15-7.28-3.11-3.91-5.26,1.61-7.82,4.05-4.32,4.3-10.11,7.54-15.23,10.76-6.88,4.33-12.41,10-18.87,15-.69.53-1.9,1.23-3.11,2a3.67,3.67,0,0,1,.54-.67c4.18-5,8.76-10.1,12.54-15.48,4.86-6.74,10.24-13.48,14.56-20.34,1.35-2,4.45-5.94,1.35-8-2.42-1.62-6.6,3-8.21,4.58-11.33,11.58-21,24.91-32.5,36.36-.59.59-1.55,1.45-2.67,2.52-.65.61-1.36,1.3-2,2.05a13.14,13.14,0,0,1-1.48-.66c-.27-.14-.41-.27-.68-.41.33-.48.65-1,1-1.47,1.79-2.77,3.49-5.56,5.09-8a127.49,127.49,0,0,1,13.48-17.1c5.8-6.33,11.6-12.4,16.06-19.8,1.48-2.57,7-8.76,6.32-11.72-1.48-6.74-10.37,6.75-12.13,8.62a260.17,260.17,0,0,0-17.4,20.74c-5.93,7.81-12.26,15.35-18.6,22.9v-.13c2.16-2.83,4.32-5.52,6.08-8.09,4.45-6.87,8.22-14,12.53-20.87,6.2-10.11,12.54-20.34,18.08-31,.81-1.61,4.45-8.22,1.08-9.16s-6.21,8.76-7.55,10.79c-9.57,15.2-22.25,28.29-30.48,44.44-1.08,2.15-2.29,4.44-3.65,6.87-.4-1.09-.94-2.29-1.34-3.5,4.72-11,12.41-21.42,17.67-31.93,4.58-9.16,10.51-17.77,12.81-27.87.53-2.3,1.75-5.94-2-5.67-3.38.27-5.81,8.62-7,10.93-6.75,12.65-12.55,25.84-18.07,39.05-1.35,3.09-3.25,6.86-5,10.64-.13-.54-.26-.94-.4-1.48,3.77-9,7.27-18.05,10.51-27.34,3.65-10.51,8.09-22,9.17-33,.13-1.35,1.61-9-.41-9.83-2.7-.94-5,6.74-5.53,8.07-4.18,11.32-7.28,22.9-10.65,34.49-1.75,6.33-3.92,12.53-6.07,18.73a59,59,0,0,0-3-6.6,25,25,0,0,0-3.78-4.57c4.31-10.38,9-20.48,12.67-31,2.44-6.88,4.45-13.6,4-20.87-7.4-5.94-15.9,26-17.26,30.31-1.48,4.85-3.23,9.69-4.86,14.54,1.49-7.14,3.24-14.26,4.32-21.13,1.49-10.66,5.94-22.78,5.26-33.55-.14-2.28-.14-7.27-4-6.06-3.23.94-4.17,12-4.59,14.7-1.88,13.06-3.36,26.26-5.39,39.31a63.28,63.28,0,0,0-10.65-11,174.44,174.44,0,0,0-19.28-13.48,4.85,4.85,0,0,1-.67-1.22c-.41-1.08-2.29-3.1-2.16-4.17.81-.54,1.62-1.61,2.56-1.89,1.22-.54,2.43,0,3.65-.14,1.62-.13,4.45-1.21,3.37-3.49-.94-2-3.24-1.36-3.51-4.45-.13-2.68,1.35-2,3.51-2,3.78.14,8.76-1.07,11.87-3.5,1.88-1.48,3-3.64,4.45-5.39,1.75-2,5.13-4.57,4.59-7.67-.27-1.76-1.09-2.17-2.7-2.3-4-.26-6.2,6.07-8.23,8.61-2.42,3.24-2.82,3.38-6.19,2.44-1.34-.41-4-.41-2.57-2.7.41-.53,2.17-1.62,2.57-2.14,1.08-1.49,2.15-3,3.11-4.45,2-3.24,4.59-5.79,6.86-8.76,4.32-5.79,15.1-12.26,12.41-20.75-3.11-.66-4.32.54-6.61,2.57-3.63,3.24-6.32,7.27-10,10.35-1.88,1.49-4.45,2.7-5.93,4.46-1.36,1.61-1.5,2.95-1.9,5-.54,2.69-4.45,8.89-7.81,8.08a6.25,6.25,0,0,1,0-3.51c.54-1.34,2-2,2.56-3.5.67-1.75.81-3.64,1.76-5.39s2.56-2.82,1.21-4.57c-1.07-1.63-4.45-1.49-5.53.13-.82,1.08-.26,3-1.22,4.3s-2.56,1.75-3.23,3.51a14.51,14.51,0,0,1-.27,2.56,14.71,14.71,0,0,1-1.76,2.15c-1.08,2-.67,3.5-1.08,5.65a11.63,11.63,0,0,1-1.61,4.31c-.55,1-2,3.64-3,4.17-.68.41-2.57.27-3.38.14-1.75-.27-1.61.13-1.75-1.75s.94-2,1.62-3.5.4-4.85,0-6.33c-2.84-1-3.52,3.37-5.94,2.42-2.84-1.21.81-5.38-2.84-6.19-2.56-.55-4.45,1.35-6.73,1.08-3.78-.39-1.35-4.85-3.1-7.27a24,24,0,0,0-6.34-5.39,38.12,38.12,0,0,1-8.76-5.81,37.53,37.53,0,0,0-5.13-4c-2.15-1.21-4.72-2-7-3.24-3.11-1.74-5.27-4.17-8-6.45-1.48-1.23-3.11-3.1-4.59-3.77l-.28,8.82-.27-8.82c-1.49.67-3.11,2.54-4.59,3.77-2.7,2.28-4.85,4.71-8,6.45-2.3,1.23-4.86,2-7,3.24a38.17,38.17,0,0,0-5.13,4,37.9,37.9,0,0,1-8.76,5.81,24.11,24.11,0,0,0-6.33,5.39c-1.76,2.42.68,6.88-3.1,7.27-2.3.27-4.19-1.63-6.75-1.08-3.63.81,0,5-2.82,6.19-2.06.79-2.86-2.14-4.77-2.51A273.47,273.47,0,0,1,2636,505.73s42-73.09,31-146.59a140.05,140.05,0,0,0-17.75-50.84s-19.89-39.72-45.28-45.23a61.4,61.4,0,0,0-6.64-.6V180.33l0-.18h6.26V164h13.77V60.92h41.28l3.57-9.78h33.36l4.47,76.26.88-76.26h15l1.84,15.6,2.73-64.93h-4.81V1.28h-954V2.38H1202.95V116.52l27.51,28.23,39.15,45.6h21.75V388l21.75-145.5,42.32,47.78-11.87,139,21.75-80.35,13,26.13L1387,509.57l13-123.78,41.33-26.06V325l54.37-13,39.15-6.51L1572.59,256l42.83,27.75L1648,301.09l67.42,17.37,21.74-4.33L1776.35,256h23.93l2.49-5c10.34,28.06,29.25,53.67,63.8,56.13,0,0,28.25,25.37,28.25,95.85V671.16c-18.32-1.52-37-1.73-54-7.41a86.38,86.38,0,0,0-9.56-2.6c-1.62-.34-3.22-.64-4.82-.87l-.63-.1q-2.32-.32-4.62-.51a84.84,84.84,0,0,0-18.09.42c-1.3.14-2.6.33-3.89.55a126.62,126.62,0,0,0-18.54,4.63c-8,2.6-16.79,3.36-23.67,8.57-16.49,12.5-18.82,18-4.51,25.56,0,1.28,0,2.58,0,3.9-4.12-.47-8.09-1-12-1.53a12.77,12.77,0,0,0-2.38-2.65c0,.8,0,1.56,0,2.3-2.34-.35-4.66-.71-7-1.12-9.88-1.7-18.87-7-29.23-5.85a45.66,45.66,0,0,1-5.22.34,10.5,10.5,0,0,0-3.32-4c-5.8-4.45-13.75-4.73-20.63-6.88,5.81-.41,13.9-2.84,19-4.59-1.08-3.5-.27-6.33-2.71-9.43-2.15-2.67-11.31-5.91-14.29-6.45-7.14-1.36-8,2.81-13.88,5.25-4,1.62-8.9-1.08-11.06,4.44,3.64,3.91,9.16,4.31,10.79,10.24-4.59-.27-7.82-1.63-12.41-1.36-3.78.27-7.41,1.36-11.19,1.49-2,6.32-1.08,14.26-11.46,12.53a31.49,31.49,0,0,0-3-8.48c-3.11-.4-6.86.27-8.49-2.42-2.29-3.64.94-4.32,1.49-7.15.81-3.5.94-7.14,3.1-9.83s8.22-3.64,9.7-6.74c4.73-9.42-4.59-18.58-7.67-24.51-1.5-2.82-.14-3.37-2.71-6.06-1.88-2-5.53-3.37-8.08-4.45-6.34-2.81-12-7.94-18.48-10.36-5.8-2.15-9.16,1.22-14.69.67-5.95-.54-9.57-4.85-15.92-4.7-5.93,0-11.18,2.15-17.13.66-9.84-2.42-18.46-9.83-25.62-16.84V698.15c-5.41.94-11.32,1.32-15.11,4.48-8.16,6.81-17.87,6.85-28.11,6.65-9.39-.17-18.79-.09-28.22,0-5.47.19-11,.83-16.37-.38-1-.25-2-.49-3.07-.67-4.39-1-10.65-1.32-6.8-7.06,4-6,1.2-10.82-2.07-15.84-4.45-4.53-11.61-5.08-17.18-8-10.41-4-19.37-10.8-31.64-11.16a73.49,73.49,0,0,0-19.77,2.31c-1.59.4-3.17.82-4.74,1.29-4,1.17-7.94,2.5-11.87,3.87s-7.91,2.77-11.91,4.06c-3.3,1-6.55,3.7-7,6.56-1.85,11.28-11.23,11.12-21.44,10.66-7.21-.33-14.58-.73-21.68.11-10.54,1.25-20-.16-28.82-4.95-11-3.2-22.06-5.73-33.77-2.26-4,1.2-6.84.65-7.43-3.62a5.08,5.08,0,0,0-5.61-4.57c-3.25.18-4.61,2.63-5.76,4.84a21.7,21.7,0,0,0-2.76,11.33c.28,4.61-2.5,5.8-7.66,6.62-19.25,3.11-39,.05-58.13,3.41a31.15,31.15,0,0,0-6.7.65,97.45,97.45,0,0,1-16.78,2.56c-4-1-6.22-3.87-9.13-6-10-7.35-12.52-6.8-16.21,3.28a20,20,0,0,1-4.73,4.33c-10.39,4-19.48,1.53-24.86-6.54-1.23-1.84-2.5-3.79-5.76-3.12-2.28,1.68-2.47,4.14-3.46,6.32-.75,1.62-1.25,3.39-3.68,3.9-4.19.38-8.34.37-12.29-1.07-1-.25-1.93-.49-2.91-.66-3.88-.75-7.56-2.09-11.43-2.9-8.64-1.77-18.18-1.86-22.89-10.09-1.31-2.29-5.29-2.69-7.83-1.32-.37.2-.75.38-1.12.56-6.32,3.06-12.48,3.07-19.29.49-3-1.12-6.36.36-9.48,1.23-11.73,3.28-24.08,3.48-36.21,4.69-4,.39-8.07,0-10.2-3.68-4.74-8.26-13.92-12.93-22.18-18.21-10-6.42-16.17-6.52-26.85-1-8.39,4.36-17.76,6.25-27.17,8l-14.64-6h-19l-6.9-15H698.39l-3.45,15H648.35l5.18,22.94,1.73,15.51-20.71,6.9,6.89,24.12-19,5.17L600,738.81l-1.66-28.46-6.08,24.94h-7.42l-4.73-53.88-3.38,53.21-19.57-2.69s-27.68,1.35-25-37.07l-1.35-59.31-9.45,84.92s-9.44,10.78-14.84-3.37-5.42-81.55-5.42-81.55l-6.74,82.9s-160,18.19-166.73-85.59H278.41l-2,21.56-6.08,10.1-8.1,16.9s-8.77,6.69-10.13-8.81l-16.87-1.35H214.27L206.85,674l-1.35,7.46s-12.15,10.15-18.23,0-4-46.55-4-46.55L173.78,678l-8.78.68-9.44-128.07L151.5,671.93s-.27.34-.77.87c-1.95,2.11-7.4,7.19-13.48,5.7a10.41,10.41,0,0,1-3-1.27c-2.86-1.77-5.76-5.25-8.4-11.38l-12.16-6.05L111,645l-.34-3.09-1-9-2.7-8.1s-15.53-74.14,13.49-134.12c0,0,39.16-68.07,8.11-120.64,0,0-12.16-24.28-27.68-27.64a38,38,0,0,0-4.06-.37V174.53l5.41-11.46,8.77-15.5h7.42l2.7,6.75,32.4,1.35,6.08,103.79,1.35-117.27,9.45,80.21,3.38-80.21,9.45,5.39,5.4,10.1,2,171.87,5.4,1.33v15.28h3.06l1.36-126.94H211l.68,110.64h4.42l.68-111,53,1V245H278v6.11l7.81,1.36v9.84h13.26l1.36,8.83-.68,58.37h4.76l2.38,14.26,2.72-13.58.68-36h4.43l.34-38H328l1.7-35h11.89V209.7H346V197.49h8.16l.34,70.27h6.11l-.67-93.35h9.17v6.79h5.45l-.34-32.58,13.25-.67V139.1h7.14V128.25H400v-5.77h6.12V113h4.77l.68-3.06h3.83v-9.83h8.41v-63H449l2.18-6H484.4l-.53-29.27,0-1.19H0V770H4880V0ZM40.8,374.71l2-169.85,38.48,1.36,3.2,136.4C71,344.59,52.3,351.75,40.8,374.71ZM1759.15,704c-.32-.63-.67-1.27-1.06-1.9,1.66.74,3.43,1.52,5.36,2.32Zm231.43-90.55,3.32-278,63,2.22,5.23,223.21C2040,564.19,2009.4,575.89,1990.58,613.47Zm419.29-11.74a199.39,199.39,0,0,1-7.06,21.2l0,.05a283.32,283.32,0,0,1-15.07,32.61l-21.65,46.89-.51,1.11-.51-.19a15.65,15.65,0,0,1-8.27-6.87c-1.15-2-4.32-2.56-6.79-1.75a5.84,5.84,0,0,0-1,.43c-.37.2-.75.38-1.12.56-.77.37-1.54.7-2.31,1a21.42,21.42,0,0,1-9.45,1.29,24,24,0,0,1-4.84-.89c-.89-.24-1.79-.54-2.7-.88a6.46,6.46,0,0,0-1.79-.38,11.23,11.23,0,0,0-3.39.36c-1.45.34-2.91.85-4.31,1.25q-2.7.75-5.45,1.31c-1,.2-2,.38-2.94.55-2,.35-4.07.63-6.12.87q-2.11.26-4.23.45c-3.07.3-6.14.54-9.22.78l-3.38.27q-2.44.21-4.89.45a15,15,0,0,1-6.29-.46,7,7,0,0,1-3.91-3.22c-.31-.53-.63-1.06-1-1.56a27.67,27.67,0,0,0-2.49-3.13c1.57-4.2,3.43-8.24,4.8-12.89,1.21-4.3,5.26-12.8,1.88-16.83-2.3,1.74-1.75,7.81-2.57,10.78s-1.34,6.45-2.82,9.28-3,4.29-4,7c-4.71-4.14-10.53-7.36-16-10.84s-9.71-5.09-14.2-5c.55-4.5,1-9.15.5-13.26-5.93-3.77-4.59,7.41-4.86,10.5-.11,1.11-.19,2.27-.27,3.46a40,40,0,0,0-8,3.3l-.77.38a19.74,19.74,0,0,1-1.73-6.87c-.27-5.91,2.16-11.72-.41-17.5-4.59,0-3.5,9.29-3.37,12.38.34,6,.12,9,2.68,13.31a78.15,78.15,0,0,1-12.36,4c-.35-2.16-1.75-2.2-3.47.8-4,.86-8.08,1.6-12.14,2.39-1.4-.08-2.77-.22-4.14-.43L2187,685c-1.76-5.25,3-16-1.08-19.66-6.72,3.87-3.9,15.17-2.35,21.55l-.43-.11c-4.13-2.62-8.73-3.52-13.46-4,1.53-4.07,3.32-8,4.65-12.5,1.21-4.32,5.26-12.81,1.88-16.84-2.29,1.76-1.75,7.81-2.56,10.77s-1.34,6.48-2.84,9.3c-1.88,3.51-3.51,4.71-4.58,8.62l-.11.38a100.23,100.23,0,0,1-10.19-.9l-.59-.23c-.52-.2-1-.39-1.57-.55a170.5,170.5,0,0,0-1.84-24.26,140.09,140.09,0,0,0-17.75-50.85s-12.55-25.06-30.46-38.14a39.8,39.8,0,0,0-14.83-7.09,61.42,61.42,0,0,0-6.64-.6v-274l8.85-18.75,14.35-25.37h12.15l4.43,11,53,2.2L2185,424.84l2.21-191.91,15.47,131.26,5.51-131.26,15.48,8.83,8.83,16.55,3.32,281.26,8.83,2.16v25h5l.08-7.79L2251.87,359h17.27l1.1,179.47v1.59h7.22l.05-8.87,1.07-172.76,86.78,1.67v41.1h13.36v10l12.79,2.22v16.1h18.35ZM2527.8,286.28a95.23,95.23,0,0,0-14.88,17.24l0-7.3-.08-10.54h15Zm8.73-7-.07-6.64-.3-29.19,21.69-1.11V227.9h11.69V210.14h6.34l1.25,53.35A94.59,94.59,0,0,0,2536.53,279.3Zm79.22,297.53c-.13,1.88,0,1.48-1.76,1.75-.26,0-.62.08-1,.11q.49-2.82,1-5.64c0,.09.06.2.09.28C2614.81,574.8,2616,574.94,2615.75,576.83ZM2931.83,689.5a8.64,8.64,0,0,0,.14-2.67,4.13,4.13,0,0,1,0-1.72C2931.81,686.48,2932.55,688.3,2931.83,689.5Zm194.9,13.55q-4.09-.5-8-1a40.76,40.76,0,0,1-.56-9.36,8.71,8.71,0,0,1,1.41-3.7c-.45,3.31,2,6.2,7.54,9.41A17.09,17.09,0,0,0,3126.73,703.05Zm3.79.42c0-1.08,0-2.2-.1-3.31,2.66,1.34,5.79,2.74,9.45,4.27C3136.64,704.13,3133.54,703.82,3130.52,703.47Zm1124.54-14a8.64,8.64,0,0,0,.14-2.67,4.13,4.13,0,0,1,0-1.72C4255,686.48,4255.78,688.3,4255.06,689.5Zm43.24,8.89-.57.16c.63-4.36.41-8.88,1.7-13Zm41.38,2.21c.3-.53.59-1.07.86-1.61.13-.27.26-.54.4-.81l.3,2.41ZM4452,703.28c.25-1.18.55-2.34.89-3.49,2.8,1.45,6.19,3,10.19,4.64C4459.26,704.07,4455.6,703.69,4452,703.28ZM4795.5,342l3.2-136.4,38.48-1.36,2,169.85C4827.69,351.12,4809,344,4795.5,342Z"/><polygon points="2755.99 242.47 2755.99 267.48 2761 267.48 2761.08 259.68 2763.22 59.74 2780.48 59.74 2781.58 239.22 2781.59 240.8 2788.81 240.8 2788.86 231.94 2789.93 59.18 2876.71 60.85 2876.71 101.95 2890.07 101.95 2890.07 111.95 2902.86 114.17 2902.86 130.27 2924.56 130.27 2926.79 144.72 2925.68 240.25 2933.45 240.25 2937.35 263.58 2941.8 241.36 2942.91 182.5 2950.14 182.5 2950.7 120.27 2971.84 120.27 2974.63 63.07 2994.09 63.07 2994.09 44.17 3001.31 44.17 3001.31 24.19 3014.68 24.19 3015.24 139.17 3025.24 139.17 3024.23 0 3024.23 0 3021.16 0 2744.32 0 2747.16 240.3 2755.99 242.47"/><path d="M4366.47,767.83V730.69a11.54,11.54,0,0,0-22.76-2.75,3.83,3.83,0,0,0-.1,1v38.94H4271.9V730.69a11.53,11.53,0,0,0-22.63-3.2v40.34h-71.94V730.69a11.41,11.41,0,0,0-22.53-2.75,4.36,4.36,0,0,0-.1,1v38.94h-71.94V728.38a11.53,11.53,0,0,0-22.53-.44,4.36,4.36,0,0,0-.1,1v38.94h-23.86c7.3-17.1,13.78-33.83,19.54-50.22,26.8-76.11,38.61-145.05,49.45-210.72a35.42,35.42,0,0,1,13.35-2.6h.24a36,36,0,0,1,35.85,36.07v6.29a4.27,4.27,0,0,0,.1.94,11.41,11.41,0,0,0,22.53-2.75v-4.48a36.08,36.08,0,0,1,10.5-25.5,35.65,35.65,0,0,1,25.35-10.56h.24a36,36,0,0,1,35.85,36.07V548a11.53,11.53,0,0,0,22.63-3.21v-4.48a36.08,36.08,0,0,1,10.5-25.5,35.72,35.72,0,0,1,34.6-9.35c10.89,66.09,22.68,135.47,49.67,212.11,5.77,16.4,12.23,33.12,19.54,50.22Z"/><path class="cls-1" d="M4309.89,462.89a684.51,684.51,0,0,1-197.29,0c-12.58,72.93-22.36,149-49.7,233.71a35.82,35.82,0,0,0,42.46-35.45V592.1a4,4,0,0,1,.1-.95,11.53,11.53,0,0,1,22.53.43v69.57a36,36,0,0,0,35.85,36.07h.23a36,36,0,0,0,35.85-36.07V592.1a4,4,0,0,1,.1-.95,11.41,11.41,0,0,1,22.53,2.75v67.25a36,36,0,0,0,35.85,36.07h.23a36,36,0,0,0,35.85-36.07V590.7a11.53,11.53,0,0,1,22.64,3.2v67.25A36,36,0,0,0,4353,697.22h0a35.8,35.8,0,0,0,6.6-.62C4332.25,611.86,4322.46,535.82,4309.89,462.89Z"/></g></g></svg>