<svg xmlns="http://www.w3.org/2000/svg" viewBox="0 0 232.34 353.54"><defs><style>.cls-1{fill:#50464c;}.cls-2{stroke:#1e2123;stroke-width:4px;}.cls-2,.cls-3{stroke-miterlimit:10;}.cls-3{fill:none;stroke:#000;stroke-width:3px;}</style></defs><title>Fichier 1</title><g id="Calque_2" data-name="Calque 2"><g id="Calque_1-2" data-name="Calque 1"><path d="M.17,317.62c2-41.73,20.27-72.58,31.16-88-1-7.23-1.58-14.1-1.89-20.57-.24-5.15-.3-10-.22-14.64-.08,4.58,0,9.43.22,14.54.06,1.29.14,2.61.23,3.94,4.95-7,19.26-29.14,25.47-57.85,6.27-29,2.32-55.59.77-63.92A209.42,209.42,0,0,1,74,62.94l91.47,1.27c30.5,42.28,37.88,86.47,40,106.7A229.23,229.23,0,0,1,203.61,232c10.45,15.69,27.88,47,28.7,88.81a157.64,157.64,0,0,1-2.79,32.71c-2.59-10.39-9.28-31.16-27.17-49.22a97.51,97.51,0,0,0-25.77-18.64l-16.49,6.59-8.61,19.8-6.27,1.55,0,3.28c-1.52,3.6-2.86,6.77-4.37,10.37l-7.33,7.2L116,334,98.6,334l-7.12-7.4L87.39,316.1l0-3.28-6.22-1.72-8.06-20L56.86,284a97.35,97.35,0,0,0-26.27,17.92C12.2,319.5,4.93,340.08,2.06,350.39A158.61,158.61,0,0,1,.17,317.62Z"/><path d="M88.71,55.23l.35-.52c16.61-24.73,45.75-24.33,61.67.85l.33.53q2.5,4,4.76,8l-72.09-1Q86.11,59.14,88.71,55.23Z"/><ellipse class="cls-1" cx="118.89" cy="128.23" rx="28.69" ry="27.36" transform="translate(-10.98 245.33) rotate(-89.21)"/><path d="M98,149.55a31.62,31.62,0,0,1,.59-43.21,28.2,28.2,0,0,1,41.22.57,31.62,31.62,0,0,1-.59,43.21A28.2,28.2,0,0,1,98,149.55Zm-4.67-21.67c-.2,14.78,11.1,27,25.2,27.16s25.74-11.67,26-26.46-11.1-27-25.2-27.16S93.52,113.09,93.31,127.88Z"/><polygon points="145.74 127.66 146.78 127.68 147.28 128.62 146.75 129.55 145.72 129.54 145.21 128.59 145.74 127.66"/><polygon points="117.98 155.97 119.02 155.99 119.52 156.93 118.99 157.86 117.96 157.85 117.46 156.9 117.98 155.97"/><polygon points="118.78 98.6 119.81 98.62 120.31 99.56 119.78 100.49 118.75 100.48 118.25 99.53 118.78 98.6"/><polygon points="91.02 126.91 92.05 126.92 92.56 127.87 92.03 128.8 91 128.78 90.49 127.84 91.02 126.91"/><polygon points="138.24 147.74 138.96 148.52 138.67 149.56 137.67 149.82 136.95 149.05 137.23 148.01 138.24 147.74"/><polygon points="99.54 147.21 100.26 147.98 99.98 149.02 98.98 149.29 98.26 148.51 98.54 147.47 99.54 147.21"/><polygon points="138.79 107.17 139.51 107.95 139.23 108.99 138.23 109.26 137.51 108.48 137.79 107.44 138.79 107.17"/><polygon points="100.1 106.64 100.82 107.41 100.54 108.46 99.54 108.72 98.82 107.95 99.1 106.91 100.1 106.64"/><path d="M115.79,352a126.68,126.68,0,0,1,3.6-21.8c1.74-6.8,2.65-7.92,4.16-14.6a120.49,120.49,0,0,0,2.66-21.26c.35-12.63-2.14-20.9-7.09-51.86-.73-4.62-1.31-8.39-1.67-10.77"/><path d="M115.79,352a128.35,128.35,0,0,0-3-21.89c-1.56-6.85-2.43-8-3.75-14.71A120.16,120.16,0,0,1,107,294c0-12.63,2.72-20.83,8.52-51.64.86-4.6,1.54-8.35,2-10.72"/><line class="cls-2" x1="120.48" y1="12.82" x2="120.16" y2="36.29"/><ellipse cx="120.57" cy="6.41" rx="6.41" ry="6.12" transform="translate(112.49 126.88) rotate(-89.21)"/><path d="M30.27,220.5q-.57-5.91-.83-11.44-.29-6.06-.25-11.63c27,2.88,56.28,4.84,87.62,5.28,32.15.44,62.2-.78,89.83-3-.17,7.09-.68,14.79-1.7,23-27.25,2.17-56.83,3.34-88.44,2.91C85.7,225.2,56.87,223.3,30.27,220.5Z"/><path d="M29.88,180.37c.33-4.24.76-8.12,1.22-11.6,30.71,2.76,59.85,4.14,87.16,4.52,30.81.43,60-.41,87.26-2.11.36,3.5.68,7.39.89,11.63-31.17,2-60.68,2.56-88.31,2.18C86.9,184.56,57.43,182.88,29.88,180.37Z"/><path d="M175.4,79.27c1.47,2.45,2.86,4.9,4.18,7.33-20.89-.88-41-1.41-60.1-1.68q-31.37-.44-60.12,0,2.09-3.6,4.38-7.22,29.07-.36,55.84,0Q148.62,78.16,175.4,79.27Z"/><path class="cls-3" d="M58.22,91.15S25.52,141.7,31.57,210.79C31.57,210.79,68.09,173.29,58.22,91.15Z"/></g></g></svg>