<svg xmlns="http://www.w3.org/2000/svg" viewBox="0 0 748.3 397.63"><defs><style>.cls-1{opacity:0.8;}.cls-2{fill:#b45c7a;}</style></defs><title>Fichier 1</title><g id="Calque_2" data-name="Calque 2"><g id="BACKGROUND_2" data-name="BACKGROUND 2"><g class="cls-1"><path class="cls-2" d="M202.05,209.09a2.27,2.27,0,1,1,2.27,2.4,2.36,2.36,0,0,1-2.27-2.4Z"/><path class="cls-2" d="M180.28,265.65a.51.51,0,0,1,.5-.53.54.54,0,1,1-.5.53Z"/><path class="cls-2" d="M273.84,276a.71.71,0,1,1,1.41,0,.71.71,0,1,1-1.41,0Z"/><path class="cls-2" d="M169.55,278.72a.8.8,0,0,1,.76-.8.8.8,0,1,1-.76.8Z"/><path class="cls-2" d="M229.34,281.28a1.41,1.41,0,1,1,1.4,1.49,1.46,1.46,0,0,1-1.4-1.49Z"/><path class="cls-2" d="M401.38,141.48a.35.35,0,1,1,.35.37.37.37,0,0,1-.35-.37Z"/><path class="cls-2" d="M483.33,139.93a.53.53,0,1,1,1.06,0,.53.53,0,1,1-1.06,0Z"/><path class="cls-2" d="M468.93,144.85a.37.37,0,0,1,.14-.3.36.36,0,0,1,0-.1.36.36,0,1,1,.71,0,.41.41,0,0,1-.14.3.31.31,0,0,1,0,.1.35.35,0,1,1-.7,0Z"/><path class="cls-2" d="M418.52,158a.88.88,0,1,1,.88.94.92.92,0,0,1-.88-.94Z"/><path class="cls-2" d="M467.93,160.56a.35.35,0,1,1,.35.37.37.37,0,0,1-.35-.37Z"/><path class="cls-2" d="M459.26,163.13a.35.35,0,1,1,.35.38.37.37,0,0,1-.35-.38Z"/><path class="cls-2" d="M478.36,165a.53.53,0,1,1,1.06,0,.53.53,0,1,1-1.06,0Z"/><path class="cls-2" d="M332.1,4.17a.36.36,0,1,1,.36.38.37.37,0,0,1-.36-.38Z"/><path class="cls-2" d="M328.24,148.8h0v0Z"/><path class="cls-2" d="M333,140.36a.18.18,0,1,1,.18.19.19.19,0,0,1-.18-.19Z"/><path class="cls-2" d="M320.73,222.85a.88.88,0,1,1,.88.93.92.92,0,0,1-.88-.93Z"/><path class="cls-2" d="M289.09,159.79a.71.71,0,1,1,.7.75.73.73,0,0,1-.7-.75Z"/><path class="cls-2" d="M335.19,190.51a.35.35,0,1,1,.35.37.37.37,0,0,1-.35-.37Z"/><path class="cls-2" d="M298.86,195.38a1.41,1.41,0,1,1,1.4,1.49,1.47,1.47,0,0,1-1.4-1.49Z"/><path class="cls-2" d="M322.22,203a.35.35,0,1,1,.7,0,.35.35,0,1,1-.7,0Z"/><path class="cls-2" d="M288.76,248.19a.23.23,0,1,1,.23.24.23.23,0,0,1-.23-.24Z"/><path class="cls-2" d="M326.66,250.3a.35.35,0,1,1,.35.37.37.37,0,0,1-.35-.37Z"/><path class="cls-2" d="M305.32,238.59a.35.35,0,1,1,.35.38.37.37,0,0,1-.35-.38Z"/><path class="cls-2" d="M113.64,3.69a1.81,1.81,0,1,1,3.62,0,1.81,1.81,0,1,1-3.62,0Z"/><path class="cls-2" d="M53,3.11a1,1,0,1,1,2,0,1,1,0,1,1-2,0Z"/><path class="cls-2" d="M59.64,15.82a1,1,0,1,1,1,1.06,1,1,0,0,1-1-1.06Z"/><path class="cls-2" d="M112.65,21.65a.78.78,0,0,1,.75-.8.8.8,0,1,1-.75.8Z"/><path class="cls-2" d="M115,35.64a1.45,1.45,0,1,1,1.45,1.53A1.51,1.51,0,0,1,115,35.64Z"/><path class="cls-2" d="M270.15,22.28a.49.49,0,1,1,.49.51.5.5,0,0,1-.49-.51Z"/><path class="cls-2" d="M259.83,23.08a.5.5,0,0,1,.48-.51.49.49,0,0,1,.48.51.5.5,0,0,1-.48.52.51.51,0,0,1-.48-.52Z"/><path class="cls-2" d="M332,32.06a.23.23,0,1,1,.23.24.23.23,0,0,1-.23-.24Z"/><path class="cls-2" d="M220.21,26.24a.33.33,0,1,1,.32.34.33.33,0,0,1-.32-.34Z"/><path class="cls-2" d="M202.29,30.55a.5.5,0,0,1,.48-.51.51.51,0,0,1,0,1,.5.5,0,0,1-.48-.51Z"/><path class="cls-2" d="M216.45,32.18a.49.49,0,1,1,1,0,.49.49,0,1,1-1,0Z"/><path class="cls-2" d="M266.46,38.48a1.29,1.29,0,1,1,1.29,1.37,1.34,1.34,0,0,1-1.29-1.37Z"/><path class="cls-2" d="M214.27,37.9a.48.48,0,1,1,1,0,.48.48,0,1,1-1,0Z"/><path class="cls-2" d="M319.58,44.44a.23.23,0,1,1,.23.24.23.23,0,0,1-.23-.24Z"/><path class="cls-2" d="M218.67,48.51a.49.49,0,1,1,1,0,.49.49,0,1,1-1,0Z"/><path class="cls-2" d="M315.2,51.32a.35.35,0,0,1,.34-.36.36.36,0,0,1,0,.72.35.35,0,0,1-.34-.36Z"/><path class="cls-2" d="M209.44,51.9a.49.49,0,1,1,.49.51.5.5,0,0,1-.49-.51Z"/><path class="cls-2" d="M308.27,52a.23.23,0,1,1,.22.24.23.23,0,0,1-.22-.24Z"/><path class="cls-2" d="M332.08,118.2a.23.23,0,1,1,.23.24.23.23,0,0,1-.23-.24Z"/><path class="cls-2" d="M207.79,55.4a.49.49,0,1,1,.48.51.5.5,0,0,1-.48-.51Z"/><path class="cls-2" d="M370,120.31a.36.36,0,1,1,.71,0,.36.36,0,1,1-.71,0Z"/><path class="cls-2" d="M229.24,59.23a.49.49,0,1,1,1,0,.49.49,0,1,1-1,0Z"/><path class="cls-2" d="M339.37,127.54a.23.23,0,1,1,.45,0,.23.23,0,1,1-.45,0Z"/><path class="cls-2" d="M382.67,89.48a.89.89,0,1,1,.88.94.93.93,0,0,1-.88-.94Z"/><path class="cls-2" d="M227.76,84.46a.49.49,0,1,1,1,0,.49.49,0,1,1-1,0Z"/><path class="cls-2" d="M432.09,92a.35.35,0,1,1,.7,0,.35.35,0,1,1-.7,0Z"/><path class="cls-2" d="M423.42,94.61a.35.35,0,1,1,.35.38.37.37,0,0,1-.35-.38Z"/><path class="cls-2" d="M294.82,70.56a.47.47,0,0,1,.45-.48.48.48,0,0,1,0,1,.47.47,0,0,1-.45-.48Z"/><path class="cls-2" d="M266.26,71.36a.64.64,0,1,1,.64.69.67.67,0,0,1-.64-.69Z"/><path class="cls-2" d="M327,72.89a.23.23,0,1,1,.22.24.23.23,0,0,1-.22-.24Z"/><path class="cls-2" d="M214,94.17a.48.48,0,0,1,.91-.24.53.53,0,0,1,.3-.09.69.69,0,1,1-.63.83h-.1a.5.5,0,0,1-.48-.51Z"/><path class="cls-2" d="M333.17,141.41a.23.23,0,1,1,.22.24.23.23,0,0,1-.22-.24Z"/><path class="cls-2" d="M388.83,142.94a.36.36,0,1,1,.71,0,.36.36,0,1,1-.71,0Z"/><path class="cls-2" d="M353.63,145a.56.56,0,1,1,.56.6.58.58,0,0,1-.56-.6Z"/><path class="cls-2" d="M425.36,106.39a.36.36,0,1,1,.71,0,.36.36,0,1,1-.71,0Z"/><path class="cls-2" d="M348.64,108.61a.35.35,0,1,1,.35.37.37.37,0,0,1-.35-.37Z"/><path class="cls-2" d="M409.39,109.55a.37.37,0,0,1,.35-.37.37.37,0,0,1,0,.74.37.37,0,0,1-.35-.37Z"/><path class="cls-2" d="M309.83,85a.33.33,0,0,1,.32-.34.34.34,0,0,1,0,.68.33.33,0,0,1-.32-.34Z"/><path class="cls-2" d="M202.41,115.47a1.45,1.45,0,1,1,1.45,1.53,1.51,1.51,0,0,1-1.45-1.53Z"/><path class="cls-2" d="M264.64,102a1.45,1.45,0,1,1,1.45,1.54,1.51,1.51,0,0,1-1.45-1.54Z"/><path class="cls-2" d="M322.79,103.09a.33.33,0,1,1,.65,0,.33.33,0,1,1-.65,0Z"/><path class="cls-2" d="M296.45,106.48a.49.49,0,1,1,.48.51.5.5,0,0,1-.48-.51Z"/><path class="cls-2" d="M301.7,108.34a.48.48,0,1,1,1,0,.48.48,0,1,1-1,0Z"/><path class="cls-2" d="M409.36,72.56h0a.52.52,0,0,1,.19-.69.48.48,0,0,1,.66.2.55.55,0,0,1-.19.7.48.48,0,0,1-.66-.21Z"/><path class="cls-2" d="M399.86,76.08h0a.53.53,0,0,1,.19-.7.47.47,0,0,1,.65.21.52.52,0,0,1-.19.69.46.46,0,0,1-.65-.2Z"/><path class="cls-2" d="M458,38.7h0a.24.24,0,0,1,.09-.32.21.21,0,0,1,.3.09.25.25,0,0,1-.09.33.22.22,0,0,1-.3-.1Z"/><path class="cls-2" d="M363.35,89.5h0a.36.36,0,0,1,.13-.47.32.32,0,0,1,.44.14.36.36,0,0,1-.13.46.32.32,0,0,1-.44-.13Z"/><path class="cls-2" d="M345.2,93.06h0a.52.52,0,0,1,.19-.69.46.46,0,0,1,.65.2.53.53,0,0,1-.19.7.47.47,0,0,1-.65-.21Z"/><path class="cls-2" d="M356.68,85.84h0a.52.52,0,0,1,.19-.69.46.46,0,0,1,.65.2.51.51,0,0,1-.19.69.46.46,0,0,1-.65-.2Z"/><path class="cls-2" d="M396.92,60h0a1.43,1.43,0,0,1,.5-1.86,1.26,1.26,0,0,1,1.75.54,1.42,1.42,0,0,1-.5,1.85,1.26,1.26,0,0,1-1.75-.53Z"/><path class="cls-2" d="M351.51,81.72h0a.53.53,0,0,1,.2-.69.46.46,0,0,1,.65.2.52.52,0,0,1-.19.69.47.47,0,0,1-.66-.2Z"/><path class="cls-2" d="M440.08,32.91h0a.25.25,0,0,1,.08-.32.23.23,0,0,1,.31.09.25.25,0,0,1-.09.33.21.21,0,0,1-.3-.1Z"/><path class="cls-2" d="M349.34,70.62h0a.53.53,0,0,1,.19-.69.47.47,0,0,1,.66.2.54.54,0,0,1-.19.7.48.48,0,0,1-.66-.21Z"/><path class="cls-2" d="M432.33,28.69h0a.37.37,0,0,1,.13-.49.34.34,0,0,1,.46.14.38.38,0,0,1-.13.49.33.33,0,0,1-.46-.14Z"/><path class="cls-2" d="M339.33,71.43h0a.55.55,0,0,1,.19-.7.48.48,0,0,1,.66.21.52.52,0,0,1-.19.69.48.48,0,0,1-.66-.2Z"/><path class="cls-2" d="M425.86,30.9h0a.25.25,0,0,1,.09-.33.22.22,0,0,1,.3.1.24.24,0,0,1-.09.32.22.22,0,0,1-.3-.09Z"/><path class="cls-2" d="M460.74,13.17h0a.24.24,0,0,1,.09-.32.21.21,0,0,1,.3.09.25.25,0,0,1-.09.33.22.22,0,0,1-.3-.1Z"/><path class="cls-2" d="M335.9,69h0a.52.52,0,0,1,.19-.69.46.46,0,0,1,.65.2.51.51,0,0,1-.19.69.46.46,0,0,1-.65-.2Z"/><path class="cls-2" d="M352.52,56.91h0a.54.54,0,0,1,.19-.7.47.47,0,0,1,.65.21.52.52,0,0,1-.19.69.46.46,0,0,1-.65-.2Z"/><path class="cls-2" d="M461.82,2h0a.24.24,0,0,1,.09-.32.23.23,0,0,1,.31.09.25.25,0,0,1-.09.33.22.22,0,0,1-.31-.1Z"/><path class="cls-2" d="M521.39,17.72h0a1,1,0,0,1,.34-1.27.86.86,0,0,1,1.2.37,1,1,0,0,1-.35,1.26.85.85,0,0,1-1.19-.36Z"/><path class="cls-2" d="M336.89,35.42h0a.53.53,0,0,1,.19-.7.46.46,0,0,1,.65.2.53.53,0,0,1-.19.7.47.47,0,0,1-.65-.2Z"/><path class="cls-2" d="M403.54,20.17h0a.48.48,0,0,1,.18-.64.43.43,0,0,1,.61.18.49.49,0,0,1-.18.65.44.44,0,0,1-.61-.19Z"/><path class="cls-2" d="M378.05,31.17h0a.71.71,0,0,1,.26-.93.62.62,0,0,1,.87.27.7.7,0,0,1-.25.92.64.64,0,0,1-.88-.26Z"/><path class="cls-2" d="M430.42,4.94h0a.26.26,0,0,1,.09-.32.23.23,0,0,1,.31.09.25.25,0,0,1-.09.33.22.22,0,0,1-.31-.1Z"/><path class="cls-2" d="M523.06,121.5h0a.53.53,0,0,1,.19-.69.47.47,0,0,1,.66.2.52.52,0,0,1-.19.69.47.47,0,0,1-.66-.2Z"/><path class="cls-2" d="M517.9,117.38h0a.52.52,0,0,1,.19-.69.47.47,0,0,1,.66.2.53.53,0,0,1-.19.69.47.47,0,0,1-.66-.2Z"/><path class="cls-2" d="M515.73,106.28h0a.52.52,0,0,1,.19-.69.47.47,0,0,1,.66.2.55.55,0,0,1-.19.7.48.48,0,0,1-.66-.21Z"/><path class="cls-2" d="M505.72,107.09h0a.54.54,0,0,1,.19-.7.48.48,0,0,1,.66.21.53.53,0,0,1-.19.69.47.47,0,0,1-.66-.2Z"/><path class="cls-2" d="M502.28,104.7h0a.53.53,0,0,1,.19-.69.47.47,0,0,1,.66.2.52.52,0,0,1-.19.69.47.47,0,0,1-.66-.2Z"/><path class="cls-2" d="M442.92,116h0a.52.52,0,0,1,.19-.69.48.48,0,0,1,.66.2.54.54,0,0,1-.19.7.48.48,0,0,1-.66-.21Z"/><path class="cls-2" d="M553.48,162.89h0a.52.52,0,0,1,.19-.69.48.48,0,0,1,.66.2.55.55,0,0,1-.19.7.48.48,0,0,1-.66-.21Z"/><path class="cls-2" d="M518.9,92.57h0a.55.55,0,0,1,.19-.7.48.48,0,0,1,.66.21.52.52,0,0,1-.19.69.48.48,0,0,1-.66-.2Z"/><path class="cls-2" d="M503.27,71.08h0a.54.54,0,0,1,.19-.7.47.47,0,0,1,.66.2.54.54,0,0,1-.19.7.49.49,0,0,1-.66-.2Z"/><path class="cls-2" d="M485.72,68.23h0a.52.52,0,0,1,.19-.69.18.18,0,0,1,.09,0,.72.72,0,0,1,.31-.8.63.63,0,0,1,.87.27.71.71,0,0,1-.25.93.58.58,0,0,1-.31.08.53.53,0,0,1-.24.45.47.47,0,0,1-.66-.2Z"/><path class="cls-2" d="M480.7,14.83h0a.38.38,0,0,1,.14-.51.34.34,0,0,1,.47.15.37.37,0,0,1-.14.5.34.34,0,0,1-.47-.14Z"/><path class="cls-2" d="M408.47,1.35h0a.34.34,0,0,1,.13-.46A.3.3,0,0,1,409,1a.35.35,0,0,1-.12.46.31.31,0,0,1-.44-.14Z"/><path class="cls-2" d="M678.62,144.47h0s0,0,0,0,0,0,0,0Z"/><path class="cls-2" d="M669.64,139.06a.2.2,0,0,1-.15-.22.18.18,0,0,1,.21-.15.19.19,0,0,1,.14.22.18.18,0,0,1-.2.15Z"/><path class="cls-2" d="M629.07,226.58a1.52,1.52,0,0,1-1.15-1.73,1.45,1.45,0,0,1,1.63-1.22,1.51,1.51,0,0,1,1.15,1.73,1.43,1.43,0,0,1-1.63,1.22Z"/><path class="cls-2" d="M645.2,242.43a.53.53,0,0,1-.41-.61.51.51,0,0,1,.58-.44.54.54,0,0,1,.41.62.51.51,0,0,1-.58.43Z"/><path class="cls-2" d="M666.81,222.66a.37.37,0,0,1-.28-.43.36.36,0,0,1,.4-.31.38.38,0,0,1,.29.43.36.36,0,0,1-.41.31Z"/><path class="cls-2" d="M675.36,206.8a.56.56,0,0,1-.43-.64.54.54,0,0,1,.61-.46.56.56,0,0,1,.43.65.52.52,0,0,1-.61.45Z"/><path class="cls-2" d="M684.74,179.21a.75.75,0,0,1-.58-.86.72.72,0,0,1,.82-.61.75.75,0,0,1,.57.87.71.71,0,0,1-.81.6Z"/><path class="cls-2" d="M670.82,258.24h0Z"/><path class="cls-2" d="M687.36,190.93a.39.39,0,0,1-.29-.44.35.35,0,0,1,.41-.3.38.38,0,0,1-.12.74Z"/><path class="cls-2" d="M728.26,145.83a.38.38,0,0,1,.12-.74.39.39,0,0,1,.29.44.36.36,0,0,1-.41.3Z"/><path class="cls-2" d="M688.11,236.76a.8.8,0,0,1-.62-.92.76.76,0,0,1,.87-.65.8.8,0,0,1,.62.92.76.76,0,0,1-.87.65Z"/><path class="cls-2" d="M708.24,202.78a.36.36,0,0,1-.28-.43.34.34,0,0,1,.4-.3.38.38,0,0,1,.29.43.35.35,0,0,1-.41.3Z"/><path class="cls-2" d="M708.7,247.91a.54.54,0,0,1-.41-.62.51.51,0,0,1,.58-.43.52.52,0,0,1,.41.61.51.51,0,0,1-.58.44Z"/><path class="cls-2" d="M727.74,177.25a1.5,1.5,0,0,1-1.15-1.73,1.43,1.43,0,0,1,1.63-1.21,1.49,1.49,0,0,1,1.14,1.72,1.43,1.43,0,0,1-1.62,1.22Z"/><path class="cls-2" d="M729,211.39a1.68,1.68,0,0,1-1.29-1.94,1.62,1.62,0,0,1,1.83-1.37,1.69,1.69,0,0,1,1.29,1.94,1.6,1.6,0,0,1-1.83,1.37Z"/><path class="cls-2" d="M740.51,158.79a.38.38,0,0,1-.29-.43.37.37,0,0,1,.41-.31.37.37,0,0,1,.28.44.35.35,0,0,1-.4.3Z"/><path class="cls-2" d="M722.52,257.55a.53.53,0,0,1-.41-.62.51.51,0,0,1,.58-.44.54.54,0,0,1,.41.62.52.52,0,0,1-.58.44Z"/><path class="cls-2" d="M739.79,217.79a.24.24,0,0,1-.18-.27.23.23,0,0,1,.26-.2.24.24,0,0,1,.18.28.23.23,0,0,1-.26.19Z"/><path class="cls-2" d="M744.87,256a.51.51,0,0,1-.39-.59A.49.49,0,0,1,745,255a.51.51,0,0,1,.39.59.49.49,0,0,1-.56.42Z"/><path class="cls-2" d="M744.05,264.81a.52.52,0,0,1-.39-.6.49.49,0,0,1,.56-.41.51.51,0,0,1-.17,1Z"/><path class="cls-2" d="M745,278.87a.34.34,0,0,1-.26-.4.31.31,0,0,1,.37-.27.34.34,0,0,1,.26.39.33.33,0,0,1-.37.28Z"/><path class="cls-2" d="M359.21,5h0A1.6,1.6,0,0,1,359.78,3a1.42,1.42,0,0,1,2,.61,1.6,1.6,0,0,1-.57,2.08,1.42,1.42,0,0,1-2-.6Z"/><path class="cls-2" d="M32.89,66.81a.83.83,0,0,1-.12-1.12.74.74,0,0,1,1.07-.12A.83.83,0,0,1,34,66.69a.73.73,0,0,1-1.06.12Z"/><path class="cls-2" d="M69.92,45.44a.4.4,0,0,1-.06-.53.35.35,0,0,1,.5-.06.4.4,0,0,1,0,.53.34.34,0,0,1-.49.06Z"/><path class="cls-2" d="M44.46,85.05a.57.57,0,0,1-.07-.75.49.49,0,0,1,.71-.08.57.57,0,0,1,.07.75.49.49,0,0,1-.71.08Z"/><path class="cls-2" d="M101.71,31.15a1.58,1.58,0,0,1-.21-2.1,1.36,1.36,0,0,1,2-.23,1.56,1.56,0,0,1,.21,2.1,1.37,1.37,0,0,1-2,.23Z"/><path class="cls-2" d="M26.21,113.7a.57.57,0,0,1-.07-.75.49.49,0,0,1,.71-.08.57.57,0,0,1,.07.75.49.49,0,0,1-.71.08Z"/><path class="cls-2" d="M23.92,117.1A.85.85,0,0,1,23.8,116a.73.73,0,0,1,1.06-.12A.83.83,0,0,1,25,117a.73.73,0,0,1-1.06.12Z"/><path class="cls-2" d="M83.29,61.51a1.77,1.77,0,0,1-.24-2.36,1.54,1.54,0,0,1,2.23-.25,1.77,1.77,0,0,1,.24,2.36,1.54,1.54,0,0,1-2.23.25Z"/><path class="cls-2" d="M123.33,20.3a.38.38,0,0,1,0-.52.33.33,0,0,1,.49-.06.4.4,0,0,1,0,.53.34.34,0,0,1-.49.05Z"/><path class="cls-2" d="M51,99.17a.56.56,0,0,1-.08-.75.49.49,0,0,1,.71-.08.57.57,0,0,1,.08.75.49.49,0,0,1-.71.08Z"/><path class="cls-2" d="M32.45,127.23a.66.66,0,0,1-.09-.9.59.59,0,0,1,.85-.09.69.69,0,0,1,.09.9.59.59,0,0,1-.85.09Z"/><path class="cls-2" d="M88.86,71.56a.25.25,0,0,1,0-.33.21.21,0,0,1,.31,0,.25.25,0,0,1,0,.34.22.22,0,0,1-.32,0Z"/><path class="cls-2" d="M71.4,107.07a.55.55,0,0,1-.07-.72.47.47,0,0,1,.68-.07.53.53,0,0,1,.07.72.46.46,0,0,1-.68.07Z"/><path class="cls-2" d="M65.66,114.4a.54.54,0,0,1-.07-.72.46.46,0,0,1,.68-.08.54.54,0,0,1,.07.72.47.47,0,0,1-.68.08Z"/><path class="cls-2" d="M113.72,68.63a.25.25,0,0,1,0-.33.23.23,0,0,1,.32,0,.25.25,0,0,1,0,.34.21.21,0,0,1-.31,0Z"/><path class="cls-2" d="M58.37,127.06a.36.36,0,0,1,0-.48.32.32,0,0,1,.46,0,.37.37,0,0,1,0,.48.3.3,0,0,1-.45,0Z"/><path class="cls-2" d="M84,119.82a1.43,1.43,0,0,1-.2-1.92,1.26,1.26,0,0,1,1.81-.21,1.43,1.43,0,0,1,.2,1.92,1.25,1.25,0,0,1-1.81.21Z"/><path class="cls-2" d="M117.31,84.57a.25.25,0,0,1,0-.33.23.23,0,0,1,.32,0,.25.25,0,0,1,0,.34.21.21,0,0,1-.31,0Z"/><path class="cls-2" d="M120.87,91.81a.4.4,0,0,1-.05-.51.33.33,0,0,1,.48,0,.38.38,0,0,1,0,.5.34.34,0,0,1-.48.06Z"/><path class="cls-2" d="M117.16,96.8a.25.25,0,0,1,0-.33.21.21,0,0,1,.31,0,.25.25,0,0,1,0,.34.22.22,0,0,1-.32,0Z"/><path class="cls-2" d="M143.84,70.77a.24.24,0,0,1,0-.33.21.21,0,0,1,.31,0,.26.26,0,0,1,0,.34.22.22,0,0,1-.32,0Z"/><path class="cls-2" d="M169.56,47.1a.41.41,0,0,1-.05-.53.34.34,0,0,1,.5,0,.38.38,0,0,1,.05.52.34.34,0,0,1-.5.06Z"/><path class="cls-2" d="M157,71.82a.25.25,0,0,1,0-.34.21.21,0,0,1,.31,0,.25.25,0,0,1,0,.33.23.23,0,0,1-.32,0Z"/><path class="cls-2" d="M149.25,19.45a1,1,0,0,1-.13-1.32.86.86,0,0,1,1.24-.14,1,1,0,0,1,.13,1.31.86.86,0,0,1-1.24.15Z"/><path class="cls-2" d="M125.73,117.36a.51.51,0,0,1-.07-.67.44.44,0,0,1,.64-.08.51.51,0,0,1,.06.68.44.44,0,0,1-.63.07Z"/><path class="cls-2" d="M148.09,97.53a.25.25,0,0,1,0-.34.22.22,0,0,1,.32,0,.25.25,0,0,1,0,.33.21.21,0,0,1-.31,0Z"/><path class="cls-2" d="M165.82,84.62a.24.24,0,0,1,0-.33.23.23,0,0,1,.32,0,.26.26,0,0,1,0,.34.21.21,0,0,1-.31,0Z"/><path class="cls-2" d="M182,73.45a.63.63,0,0,1-.09-.84.55.55,0,0,1,.79-.09.63.63,0,0,1,.09.84.54.54,0,0,1-.79.09Z"/><path class="cls-2" d="M145.43,53.84a.4.4,0,0,1-.06-.53.34.34,0,0,1,.5-.05.38.38,0,0,1,0,.52.34.34,0,0,1-.49.06Z"/><path class="cls-2" d="M148.42,116.51a.37.37,0,0,1,0-.48.32.32,0,0,1,.46,0,.35.35,0,0,1,0,.48.31.31,0,0,1-.45.05Z"/><path class="cls-2" d="M173.14,119.29a.35.35,0,0,1,0-.48.32.32,0,0,1,.46,0,.37.37,0,0,1,0,.48.3.3,0,0,1-.45.05Z"/><path class="cls-2" d="M581.21,26.82a.48.48,0,1,1,1,0,.48.48,0,1,1-1,0Z"/><path class="cls-2" d="M570.88,27.63a.49.49,0,1,1,.48.51.5.5,0,0,1-.48-.51Z"/><path class="cls-2" d="M643,36.61a.23.23,0,0,1,.22-.24.24.24,0,0,1,0,.47.22.22,0,0,1-.22-.23Z"/><path class="cls-2" d="M577.51,43a1.29,1.29,0,1,1,1.29,1.37A1.34,1.34,0,0,1,577.51,43Z"/><path class="cls-2" d="M630.63,49a.24.24,0,0,1,.23-.24.24.24,0,0,1,0,.48.24.24,0,0,1-.23-.24Z"/><path class="cls-2" d="M626.25,55.87a.35.35,0,0,1,.34-.36.36.36,0,0,1,0,.71.35.35,0,0,1-.34-.35Z"/><path class="cls-2" d="M619.32,56.56a.23.23,0,1,1,.23.24.23.23,0,0,1-.23-.24Z"/><path class="cls-2" d="M660,57.83a.22.22,0,0,1,.22-.23.24.24,0,0,1,0,.47.23.23,0,0,1-.22-.24Z"/><path class="cls-2" d="M540.3,63.78a.48.48,0,1,1,.48.51.5.5,0,0,1-.48-.51Z"/><path class="cls-2" d="M667.25,67.17a.23.23,0,1,1,.22.24.23.23,0,0,1-.22-.24Z"/><path class="cls-2" d="M577.31,75.91a.65.65,0,1,1,.64.68.67.67,0,0,1-.64-.68Z"/><path class="cls-2" d="M638.07,77.44a.23.23,0,1,1,.23.24.23.23,0,0,1-.23-.24Z"/><path class="cls-2" d="M661,81a.24.24,0,0,1,.23-.24.24.24,0,0,1,0,.48A.24.24,0,0,1,661,81Z"/><path class="cls-2" d="M676.51,48.24a.36.36,0,1,1,.35.37.37.37,0,0,1-.35-.37Z"/><path class="cls-2" d="M663.77,8.67h0A.53.53,0,0,1,664,8a.47.47,0,0,1,.66.2.54.54,0,0,1-.19.7.48.48,0,0,1-.66-.21Z"/><path class="cls-2" d="M6,329.41H6a.23.23,0,1,1,.23.24.24.24,0,0,1-.23-.24Z"/><path class="cls-2" d="M13.34,320.08h0a.23.23,0,1,1,.22.24.23.23,0,0,1-.22-.24Z"/><path class="cls-2" d="M132.07,167.37h0a.36.36,0,1,1,.71,0,.36.36,0,1,1-.71,0Z"/><path class="cls-2" d="M149.21,150.85h0a.88.88,0,1,1,.88.93.91.91,0,0,1-.88-.93Z"/><path class="cls-2" d="M7.13,306.21h0a.23.23,0,1,1,.23.24.23.23,0,0,1-.23-.24Z"/><path class="cls-2" d="M45.83,211.88h0a.23.23,0,0,1,.22-.24.24.24,0,0,1,0,.48.23.23,0,0,1-.22-.24Z"/><path class="cls-2" d="M26.43,167.75h0a.23.23,0,1,1,.23.24.24.24,0,0,1-.23-.24Z"/><path class="cls-2" d="M22.06,160.87h0a.34.34,0,1,1,.33.36.35.35,0,0,1-.33-.36Z"/><path class="cls-2" d="M15.12,160.17h0a.24.24,0,0,1,.23-.24.24.24,0,0,1,0,.48.24.24,0,0,1-.23-.24Z"/><path class="cls-2" d="M62.78,190.65h0a.23.23,0,0,1,.22-.24.24.24,0,0,1,0,.48.23.23,0,0,1-.22-.24Z"/><path class="cls-2" d="M100.67,188.54h0a.35.35,0,1,1,.35.38.37.37,0,0,1-.35-.38Z"/><path class="cls-2" d="M70.07,181.32h0a.23.23,0,1,1,.22.24.23.23,0,0,1-.22-.24Z"/><path class="cls-2" d="M113.37,219.37h0a.88.88,0,1,1,.88.93.91.91,0,0,1-.88-.93Z"/><path class="cls-2" d="M162.78,216.81h0a.36.36,0,1,1,.36.38.37.37,0,0,1-.36-.38Z"/><path class="cls-2" d="M154.11,214.24h0a.36.36,0,1,1,.71,0,.36.36,0,1,1-.71,0Z"/><path class="cls-2" d="M1.68,141.63h0a.47.47,0,0,1,.45-.48.48.48,0,0,1,0,1,.47.47,0,0,1-.45-.48Z"/><path class="cls-2" d="M33.87,139.3h0a.24.24,0,0,1,.23-.24.24.24,0,0,1,0,.48.24.24,0,0,1-.23-.24Z"/><path class="cls-2" d="M63.86,167.44h0a.23.23,0,1,1,.45,0,.23.23,0,1,1-.45,0Z"/><path class="cls-2" d="M119.53,165.92h0a.35.35,0,1,1,.35.37.37.37,0,0,1-.35-.37Z"/><path class="cls-2" d="M84.32,163.81h0a.57.57,0,1,1,.56.6.59.59,0,0,1-.56-.6Z"/><path class="cls-2" d="M156.06,202.46h0a.35.35,0,1,1,.35.38.37.37,0,0,1-.35-.38Z"/><path class="cls-2" d="M79.33,200.25h0a.36.36,0,0,1,.35-.37.35.35,0,0,1,.35.37.36.36,0,0,1-.35.37.37.37,0,0,1-.35-.37Z"/><path class="cls-2" d="M140.09,199.3h0a.35.35,0,1,1,.35.38.37.37,0,0,1-.35-.38Z"/><path class="cls-2" d="M16.68,127.17h0a.33.33,0,0,1,.32-.34.34.34,0,0,1,0,.68.33.33,0,0,1-.32-.34Z"/><path class="cls-2" d="M6.25,87.27h0a.33.33,0,1,1,.65,0,.33.33,0,1,1-.65,0Z"/><path class="cls-2" d="M140.05,236.29a.47.47,0,0,1,.66-.2.52.52,0,0,1,.19.69.46.46,0,0,1-.65.2.53.53,0,0,1-.2-.69Z"/><path class="cls-2" d="M130.55,232.77a.48.48,0,0,1,.66-.2.55.55,0,0,1,.19.7.49.49,0,0,1-.66.2.54.54,0,0,1-.19-.7Z"/><path class="cls-2" d="M94.05,219.36a.3.3,0,0,1,.43-.14.35.35,0,0,1,.13.47.32.32,0,0,1-.44.13.35.35,0,0,1-.12-.46Z"/><path class="cls-2" d="M75.89,215.79a.47.47,0,0,1,.66-.2.52.52,0,0,1,.19.69.47.47,0,0,1-.66.2.53.53,0,0,1-.19-.69Z"/><path class="cls-2" d="M87.37,223a.49.49,0,0,1,.66-.2.54.54,0,0,1,.19.7.48.48,0,0,1-.66.2.55.55,0,0,1-.19-.7Z"/><path class="cls-2" d="M127.61,248.9a1.26,1.26,0,0,1,1.75-.54,1.42,1.42,0,0,1,.51,1.85,1.26,1.26,0,0,1-1.75.54,1.41,1.41,0,0,1-.51-1.85Z"/><path class="cls-2" d="M82.21,227.13a.47.47,0,0,1,.66-.2.54.54,0,0,1,.19.7.49.49,0,0,1-.66.2.54.54,0,0,1-.19-.7Z"/><path class="cls-2" d="M170.77,275.94a.22.22,0,0,1,.31-.1.26.26,0,0,1,.08.33.21.21,0,0,1-.3.09.24.24,0,0,1-.09-.32Z"/><path class="cls-2" d="M80,238.23a.47.47,0,0,1,.66-.2.53.53,0,0,1,.19.69.47.47,0,0,1-.66.2.52.52,0,0,1-.19-.69Z"/><path class="cls-2" d="M163,280.17a.33.33,0,0,1,.46-.14.36.36,0,0,1,.13.48.33.33,0,0,1-.46.14.36.36,0,0,1-.13-.48Z"/><path class="cls-2" d="M70,237.42a.47.47,0,0,1,.65-.2.53.53,0,0,1,.19.7.47.47,0,0,1-.65.2.54.54,0,0,1-.19-.7Z"/><path class="cls-2" d="M156.55,278a.22.22,0,0,1,.31-.1.25.25,0,0,1,.09.33.23.23,0,0,1-.31.09.24.24,0,0,1-.09-.32Z"/><path class="cls-2" d="M66.59,239.81a.48.48,0,0,1,.66-.2.52.52,0,0,1,.19.69.48.48,0,0,1-.66.21.55.55,0,0,1-.19-.7Z"/><path class="cls-2" d="M83.21,251.94a.49.49,0,0,1,.66-.2.54.54,0,0,1,.19.7.49.49,0,0,1-.66.2.54.54,0,0,1-.19-.7Z"/><path class="cls-2" d="M67.58,273.44a.47.47,0,0,1,.66-.2.52.52,0,0,1,.19.69.47.47,0,0,1-.66.2.53.53,0,0,1-.19-.69Z"/><path class="cls-2" d="M134.23,288.68a.45.45,0,0,1,.62-.19.5.5,0,0,1,.17.65.44.44,0,0,1-.61.19.52.52,0,0,1-.18-.65Z"/><path class="cls-2" d="M108.75,277.69a.62.62,0,0,1,.87-.27.71.71,0,0,1,.26.93.64.64,0,0,1-.88.26.7.7,0,0,1-.25-.92Z"/><path class="cls-2" d="M161.12,303.91a.22.22,0,0,1,.31-.09.25.25,0,0,1,.08.32.21.21,0,0,1-.3.09.24.24,0,0,1-.09-.32Z"/><path class="cls-2" d="M50,276.28a.48.48,0,0,1,.66-.2.53.53,0,0,1,.24.45.68.68,0,0,1,.31.08.71.71,0,0,1,.25.93.62.62,0,0,1-.87.27.71.71,0,0,1-.31-.79l-.09,0a.54.54,0,0,1-.19-.7Z"/><path class="cls-2" d="M173.62,192.84a.46.46,0,0,1,.65-.2.52.52,0,0,1,.19.69.46.46,0,0,1-.65.2.52.52,0,0,1-.19-.69Z"/><path class="cls-2" d="M139.16,307.5a.33.33,0,0,1,.44-.14.37.37,0,0,1,.13.47.32.32,0,0,1-.44.13.36.36,0,0,1-.13-.46Z"/><path class="cls-2" d="M20.73,258.4a1.42,1.42,0,0,1,2-.61,1.6,1.6,0,0,1,.57,2.09,1.42,1.42,0,0,1-2,.6,1.6,1.6,0,0,1-.57-2.08Z"/><path class="cls-2" d="M268.86,197.3a.47.47,0,0,1,.66-.2.53.53,0,0,1,.19.69.48.48,0,0,1-.66.21.54.54,0,0,1-.19-.7Z"/><path class="cls-2" d="M269.85,230.93a.47.47,0,0,1,.66-.2.53.53,0,0,1,.19.69.47.47,0,0,1-.66.2.52.52,0,0,1-.19-.69Z"/><path class="cls-2" d="M252.3,233.77a.46.46,0,0,1,.65-.2.52.52,0,0,1,.25.45.68.68,0,0,1,.31.08.72.72,0,0,1,.25.93.62.62,0,0,1-.87.27.71.71,0,0,1-.31-.79l-.09,0a.54.54,0,0,1-.19-.7Z"/><path class="cls-2" d="M230,247.63a1.41,1.41,0,0,1,2-.6,1.59,1.59,0,0,1,.57,2.08,1.41,1.41,0,0,1-2,.61,1.58,1.58,0,0,1-.57-2.09Z"/><path class="cls-2" d="M545.23,322.51a.35.35,0,1,1-.7,0,.35.35,0,1,1,.7,0Z"/><path class="cls-2" d="M525.31,318.07a.54.54,0,0,1-.52.56.56.56,0,0,1,0-1.12.54.54,0,0,1,.52.56Z"/><path class="cls-2" d="M443.17,316.79a.89.89,0,1,1-.89-.93.92.92,0,0,1,.89.93Z"/><path class="cls-2" d="M491.63,314.93a.71.71,0,1,1-.71-.75.73.73,0,0,1,.71.75Z"/><path class="cls-2" d="M504.87,310.74a.35.35,0,1,1-.35-.38.37.37,0,0,1,.35.38Z"/><path class="cls-2" d="M557.9,302.33a.76.76,0,1,1-.76-.8.78.78,0,0,1,.76.8Z"/><path class="cls-2" d="M325,334.09a.35.35,0,1,1-.35-.38.37.37,0,0,1,.35.38Z"/><path class="cls-2" d="M407.92,329.64a.4.4,0,0,1,.1.26l-.15,1.29a.42.42,0,0,1-.1.26.36.36,0,0,1-.25.11.33.33,0,0,1-.25-.11.35.35,0,0,1-.1-.26c.05-.43.1-.86.14-1.29a.43.43,0,0,1,.11-.26.33.33,0,0,1,.25-.11.36.36,0,0,1,.25.11Z"/><path class="cls-2" d="M343.45,328.39a1.59,1.59,0,1,1-1.58-1.68,1.65,1.65,0,0,1,1.58,1.68Z"/><path class="cls-2" d="M515.1,291.26a.36.36,0,1,1-.36-.37.37.37,0,0,1,.36.37Z"/><path class="cls-2" d="M355.06,324.68c.1.37.19.75.28,1.13a.39.39,0,0,1-.25.46H355a.36.36,0,0,1-.34-.27c-.09-.38-.18-.76-.28-1.14a.37.37,0,0,1,.25-.45l.09,0a.35.35,0,0,1,.34.28Z"/><path class="cls-2" d="M424.29,324.53a.35.35,0,1,1-.7,0,.35.35,0,1,1,.7,0Z"/><path class="cls-2" d="M567.4,283.21a.51.51,0,0,1-.5.53.52.52,0,0,1-.5-.53.53.53,0,0,1,.5-.54.52.52,0,0,1,.5.54Z"/><path class="cls-2" d="M481.86,279.35a1.41,1.41,0,1,1-1.41-1.5,1.47,1.47,0,0,1,1.41,1.5Z"/><path class="cls-2" d="M378.87,320.68a.55.55,0,0,1-.53.56.55.55,0,0,1-.52-.56.54.54,0,0,1,.52-.56.55.55,0,0,1,.53.56Z"/><path class="cls-2" d="M352.9,318.93a.71.71,0,1,1-.71-.75.73.73,0,0,1,.71.75Z"/><path class="cls-2" d="M370.38,318.7a.71.71,0,1,1-.71-.75.73.73,0,0,1,.71.75Z"/><path class="cls-2" d="M383.49,317.54a.71.71,0,1,1-1.41,0,.71.71,0,1,1,1.41,0Z"/><path class="cls-2" d="M521.26,272.46a1.59,1.59,0,1,1-1.58-1.68,1.65,1.65,0,0,1,1.58,1.68Z"/><path class="cls-2" d="M415,314.26a.7.7,0,1,1-.7-.75.73.73,0,0,1,.7.75Z"/><path class="cls-2" d="M317.16,311.82a.36.36,0,1,1-.36-.38.37.37,0,0,1,.36.38Z"/><path class="cls-2" d="M458.5,271.77a.37.37,0,0,1-.35.38.38.38,0,0,1,0-.75.37.37,0,0,1,.35.37Z"/><path class="cls-2" d="M576.25,270a.51.51,0,1,1-1,0,.51.51,0,1,1,1,0Z"/><path class="cls-2" d="M394.7,309.24a.36.36,0,1,1-.71,0,.36.36,0,1,1,.71,0Z"/><path class="cls-2" d="M346.84,307.62a.71.71,0,1,1-.71-.74.73.73,0,0,1,.71.74Z"/><path class="cls-2" d="M360,307.62a.35.35,0,1,1-.35-.37.37.37,0,0,1,.35.37Z"/><path class="cls-2" d="M366.58,305.29a.73.73,0,0,1-.7.75.7.7,0,0,1-.62-.39.58.58,0,0,1-.16-.41.56.56,0,0,1,.33-.52.67.67,0,0,1,.45-.18.73.73,0,0,1,.7.75Z"/><path class="cls-2" d="M527.2,262.33a.24.24,0,0,1-.23.24.23.23,0,0,1-.22-.24.22.22,0,0,1,.22-.23.23.23,0,0,1,.23.23Z"/><path class="cls-2" d="M351.49,299.69a.53.53,0,1,1-1.06,0,.53.53,0,1,1,1.06,0Z"/><path class="cls-2" d="M355.57,296.31a.36.36,0,1,1-.71,0,.36.36,0,1,1,.71,0Z"/><path class="cls-2" d="M386.73,293.28a.53.53,0,1,1-1.06,0,.53.53,0,1,1,1.06,0Z"/><path class="cls-2" d="M570.7,251.59a.5.5,0,0,1-.48.51.51.51,0,0,1,0-1,.5.5,0,0,1,.48.51Z"/><path class="cls-2" d="M340.56,291.75a.36.36,0,1,1-.36-.37.37.37,0,0,1,.36.37Z"/><path class="cls-2" d="M581,250.79a.49.49,0,1,1-1,0,.49.49,0,1,1,1,0Z"/><path class="cls-2" d="M365.27,288.26a.53.53,0,1,1-1.06,0,.53.53,0,1,1,1.06,0Z"/><path class="cls-2" d="M417.14,288a.36.36,0,1,1-.36-.37.37.37,0,0,1,.36.37Z"/><path class="cls-2" d="M508.9,247.76a.23.23,0,1,1-.22-.24.23.23,0,0,1,.22.24Z"/><path class="cls-2" d="M396.88,286.5a.37.37,0,0,1-.35.38.38.38,0,0,1,0-.75.37.37,0,0,1,.35.37Z"/><path class="cls-2" d="M327.06,285.34a.35.35,0,1,1-.7,0,.35.35,0,1,1,.7,0Z"/><path class="cls-2" d="M353,282.65a.53.53,0,1,1-.52-.56.55.55,0,0,1,.52.56Z"/><path class="cls-2" d="M364.7,282.53a.53.53,0,1,1-.53-.56.56.56,0,0,1,.53.56Z"/><path class="cls-2" d="M358.18,281.26a.35.35,0,1,1-.35-.37.37.37,0,0,1,.35.37Z"/><path class="cls-2" d="M574.39,235.38a1.29,1.29,0,1,1-1.28-1.36,1.34,1.34,0,0,1,1.28,1.36Z"/><path class="cls-2" d="M521.27,235.38a.23.23,0,0,1-.22.24.24.24,0,0,1-.23-.24.23.23,0,0,1,.23-.23.22.22,0,0,1,.22.23Z"/><path class="cls-2" d="M376.54,273.33a.55.55,0,0,1-.53.56.55.55,0,0,1-.52-.56.54.54,0,0,1,.52-.56.55.55,0,0,1,.53.56Z"/><path class="cls-2" d="M363.61,271.23a.53.53,0,1,1-.53-.56.55.55,0,0,1,.53.56Z"/><path class="cls-2" d="M391,268.41a.41.41,0,0,1-.14.3.31.31,0,0,1,0,.1.35.35,0,1,1-.7,0,.37.37,0,0,1,.14-.3.36.36,0,0,1,0-.1.36.36,0,1,1,.71,0Z"/><path class="cls-2" d="M525.65,228.5a.34.34,0,1,1-.67,0,.34.34,0,1,1,.67,0Z"/><path class="cls-2" d="M373.06,263.74a.56.56,0,0,1,.37.68c-.12.53-.23,1.05-.34,1.58a.54.54,0,0,1-.52.41l-.14,0a.57.57,0,0,1-.36-.69c.11-.52.23-1.05.35-1.57a.53.53,0,0,1,.51-.42.28.28,0,0,1,.13,0Z"/><path class="cls-2" d="M532.59,227.8a.23.23,0,1,1-.23-.24.23.23,0,0,1,.23.24Z"/><path class="cls-2" d="M492,226.53a.23.23,0,1,1-.22-.24.23.23,0,0,1,.22.24Z"/><path class="cls-2" d="M352.88,264.08a.37.37,0,0,1-.35.37.35.35,0,0,1-.33-.24.31.31,0,0,1-.2.07.37.37,0,0,1,0-.74.35.35,0,0,1,.32.24.31.31,0,0,1,.21-.07.37.37,0,0,1,.35.37Z"/><path class="cls-2" d="M454.06,224.42a.36.36,0,1,1-.35-.37.37.37,0,0,1,.35.37Z"/><path class="cls-2" d="M484.66,217.2a.23.23,0,1,1-.22-.24.23.23,0,0,1,.22.24Z"/><path class="cls-2" d="M441.36,255.25a.88.88,0,1,1-.88-.93.92.92,0,0,1,.88.93Z"/><path class="cls-2" d="M392,252.69a.36.36,0,1,1-.71,0,.36.36,0,1,1,.71,0Z"/><path class="cls-2" d="M400.62,250.12a.36.36,0,1,1-.71,0,.36.36,0,1,1,.71,0Z"/><path class="cls-2" d="M546,209.26a.46.46,0,0,1-.45.48.48.48,0,0,1,0-1,.46.46,0,0,1,.45.47Z"/><path class="cls-2" d="M574.6,208.46a.65.65,0,1,1-.64-.68.67.67,0,0,1,.64.68Z"/><path class="cls-2" d="M381.51,248.25a.53.53,0,1,1-.53-.56.55.55,0,0,1,.53.56Z"/><path class="cls-2" d="M513.84,206.93a.24.24,0,0,1-.23.24.24.24,0,0,1,0-.48.24.24,0,0,1,.23.24Z"/><path class="cls-2" d="M490.87,203.33a.23.23,0,1,1-.23-.24.24.24,0,0,1,.23.24Z"/><path class="cls-2" d="M435.2,201.8a.36.36,0,1,1-.35-.37.37.37,0,0,1,.35.37Z"/><path class="cls-2" d="M470.41,199.69a.57.57,0,1,1-.57-.6.6.6,0,0,1,.57.6Z"/><path class="cls-2" d="M383.31,238a.53.53,0,1,1-.53-.56.55.55,0,0,1,.53.56Z"/><path class="cls-2" d="M398.67,238.35a.35.35,0,1,1-.35-.38.37.37,0,0,1,.35.38Z"/><path class="cls-2" d="M375.55,236.82a.35.35,0,1,1-.35-.37.37.37,0,0,1,.35.37Z"/><path class="cls-2" d="M475.4,236.13a.36.36,0,1,1-.71,0,.36.36,0,1,1,.71,0Z"/><path class="cls-2" d="M414.64,235.19a.35.35,0,1,1-.35-.38.37.37,0,0,1,.35.38Z"/><path class="cls-2" d="M531,194.8a.33.33,0,0,1-.32.34.34.34,0,0,1,0-.68.33.33,0,0,1,.32.34Z"/><path class="cls-2" d="M286,226.8h0a.25.25,0,0,1-.09.33.21.21,0,0,1-.3-.1.25.25,0,0,1,.08-.32.23.23,0,0,1,.31.09Z"/><path class="cls-2" d="M283.17,252.33h0a.25.25,0,0,1-.09.33.22.22,0,0,1-.3-.1.24.24,0,0,1,.09-.32.22.22,0,0,1,.3.09Z"/><path class="cls-2" d="M251.17,269.66h0a.39.39,0,0,1-.14.51.34.34,0,0,1-.48-.15.39.39,0,0,1,.14-.51.34.34,0,0,1,.48.15Z"/><path class="cls-2" d="M282.09,263.49h0a.26.26,0,0,1-.09.33.22.22,0,0,1-.31-.1.24.24,0,0,1,.09-.32.22.22,0,0,1,.31.09Z"/><path class="cls-2" d="M222.52,247.79h0a1,1,0,0,1-.34,1.27.88.88,0,0,1-1.2-.37,1,1,0,0,1,.35-1.27.85.85,0,0,1,1.19.37Z"/><path class="cls-2" d="M363.76,185.8h0a.5.5,0,0,1-.17.65.45.45,0,0,1-.62-.19.49.49,0,0,1,.18-.65.44.44,0,0,1,.61.19Z"/><path class="cls-2" d="M336.88,201h0a.24.24,0,0,1-.09.32.21.21,0,0,1-.31-.09.24.24,0,0,1,.09-.32.22.22,0,0,1,.31.09Z"/><path class="cls-2" d="M240.64,194.43h0a.53.53,0,0,1-.19.69.47.47,0,0,1-.66-.2.52.52,0,0,1,.19-.69.47.47,0,0,1,.66.2Z"/><path class="cls-2" d="M258.19,197.27h0a.54.54,0,0,1-.19.7l-.09,0a.71.71,0,0,1-.31.79.62.62,0,0,1-.87-.27.71.71,0,0,1,.25-.93.67.67,0,0,1,.3-.08.54.54,0,0,1,.25-.45.48.48,0,0,1,.66.2Z"/><path class="cls-2" d="M318.8,213.58h0a.24.24,0,0,1-.09.32.22.22,0,0,1-.31-.09.24.24,0,0,1,.09-.32.22.22,0,0,1,.31.09Z"/><path class="cls-2" d="M247.5,297.19h0a.39.39,0,0,1-.14.51.34.34,0,0,1-.48-.15.38.38,0,0,1,.14-.5.34.34,0,0,1,.48.14Z"/><path class="cls-2" d="M279.54,284.62h0a.63.63,0,0,1-.22.82.55.55,0,0,1-.76-.24.62.62,0,0,1,.22-.81.54.54,0,0,1,.76.23Z"/><path class="cls-2" d="M263.21,250.68h0a.38.38,0,0,1-.14.51.34.34,0,0,1-.47-.15.39.39,0,0,1,.13-.51.34.34,0,0,1,.48.15Z"/><path class="cls-2" d="M210.52,276.35h0a.38.38,0,0,1-.14.5.34.34,0,0,1-.48-.14.39.39,0,0,1,.14-.51.35.35,0,0,1,.48.15Z"/><path class="cls-2" d="M358.83,204.62h0a.35.35,0,0,1-.12.46.32.32,0,0,1-.44-.13.35.35,0,0,1,.13-.46.31.31,0,0,1,.43.13Z"/><path class="cls-2" d="M470.25,187.27h0a1.6,1.6,0,0,1-.57,2.08,1.42,1.42,0,0,1-2-.6,1.6,1.6,0,0,1,.57-2.09,1.42,1.42,0,0,1,2,.61Z"/><path class="cls-2" d="M408.09,200.94h0a1.6,1.6,0,0,1-.57,2.08,1.41,1.41,0,0,1-2-.6,1.58,1.58,0,0,1,.57-2.09,1.41,1.41,0,0,1,2,.61Z"/><path class="cls-2" d="M357.74,225.75h0a.35.35,0,0,1-.13.46.31.31,0,0,1-.43-.13.35.35,0,0,1,.12-.46.32.32,0,0,1,.44.13Z"/><path class="cls-2" d="M382.74,217.93h0a.54.54,0,0,1-.19.7.47.47,0,0,1-.65-.2.54.54,0,0,1,.19-.7.47.47,0,0,1,.65.2Z"/><path class="cls-2" d="M379.2,221.71h0a.51.51,0,0,1-.19.69.46.46,0,0,1-.65-.2.52.52,0,0,1,.19-.69.46.46,0,0,1,.65.2Z"/><path class="cls-2" d="M437.64,226h0a.67.67,0,0,1-.24.87.59.59,0,0,1-.82-.25.66.66,0,0,1,.24-.87.6.6,0,0,1,.82.25Z"/><path class="cls-2" d="M240.24,381a.47.47,0,0,1,.66-.2.52.52,0,0,1,.19.69.47.47,0,0,1-.66.2.52.52,0,0,1-.19-.69Z"/><path class="cls-2" d="M235.08,385.16a.47.47,0,0,1,.65-.21.53.53,0,0,1,.19.7.46.46,0,0,1-.65.2.52.52,0,0,1-.19-.69Z"/><path class="cls-2" d="M270.66,339.64a.47.47,0,0,1,.65-.2.54.54,0,0,1,.2.7.49.49,0,0,1-.66.2.54.54,0,0,1-.19-.7Z"/><path class="cls-2" d="M478,361.06a.36.36,0,1,1-.71,0,.36.36,0,1,1,.71,0Z"/><path class="cls-2" d="M460.88,344.54a.88.88,0,1,1-.88-.94.92.92,0,0,1,.88.94Z"/><path class="cls-2" d="M377.64,397.07a.53.53,0,1,1-1.06,0,.53.53,0,1,1,1.06,0Z"/><path class="cls-2" d="M490.56,359.6a.37.37,0,0,1-.35.38.38.38,0,0,1,0-.75.37.37,0,0,1,.35.37Z"/><path class="cls-2" d="M436.47,386.52h0a.54.54,0,0,1-.19.7.47.47,0,0,1-.65-.2.53.53,0,0,1,.19-.7.47.47,0,0,1,.65.2Z"/><path class="cls-2" d="M678.88,139.93h0a.55.55,0,0,1-.53.56.55.55,0,0,1-.52-.56.54.54,0,0,1,.52-.56.55.55,0,0,1,.53.56Z"/><path class="cls-2" d="M693.29,144.85h0a.36.36,0,1,1-.71,0,.3.3,0,0,1,0-.1.37.37,0,0,1-.14-.3.35.35,0,1,1,.7,0,.34.34,0,0,1,0,.1.41.41,0,0,1,.14.3Z"/><path class="cls-2" d="M743.7,158h0a.88.88,0,1,1-.88-.93.92.92,0,0,1,.88.93Z"/><path class="cls-2" d="M694.29,160.56h0a.36.36,0,1,1-.36-.37.37.37,0,0,1,.36.37Z"/><path class="cls-2" d="M703,163.13h0a.36.36,0,1,1-.71,0,.36.36,0,1,1,.71,0Z"/><path class="cls-2" d="M683.85,165h0a.53.53,0,1,1-.53-.56.55.55,0,0,1,.53.56Z"/><path class="cls-2" d="M730.13,92h0a.36.36,0,1,1-.71,0,.36.36,0,1,1,.71,0Z"/><path class="cls-2" d="M738.8,94.61h0a.36.36,0,1,1-.35-.37.37.37,0,0,1,.35.37Z"/><path class="cls-2" d="M736.85,106.39h0a.35.35,0,1,1-.7,0,.35.35,0,1,1,.7,0Z"/><path class="cls-2" d="M704.27,38.7a.22.22,0,0,1-.31.1.25.25,0,0,1-.09-.33.22.22,0,0,1,.31-.09.24.24,0,0,1,.09.32Z"/><path class="cls-2" d="M722.14,32.91a.22.22,0,0,1-.31.1.26.26,0,0,1-.08-.33.22.22,0,0,1,.3-.09.24.24,0,0,1,.09.32Z"/><path class="cls-2" d="M729.89,28.69a.34.34,0,0,1-.46.14.38.38,0,0,1-.13-.49.33.33,0,0,1,.46-.14.37.37,0,0,1,.13.49Z"/><path class="cls-2" d="M736.36,30.9a.23.23,0,0,1-.31.09.25.25,0,0,1-.09-.32.22.22,0,0,1,.31-.1.25.25,0,0,1,.09.33Z"/><path class="cls-2" d="M701.48,13.17a.22.22,0,0,1-.31.1.25.25,0,0,1-.09-.33.22.22,0,0,1,.31-.09.24.24,0,0,1,.09.32Z"/><path class="cls-2" d="M700.39,2a.22.22,0,0,1-.3.1.25.25,0,0,1-.09-.33.22.22,0,0,1,.3-.09.24.24,0,0,1,.09.32Z"/><path class="cls-2" d="M640.83,17.72a.87.87,0,0,1-1.2.36,1,1,0,0,1-.34-1.26.85.85,0,0,1,1.19-.37,1,1,0,0,1,.35,1.27Z"/><path class="cls-2" d="M731.79,4.94a.22.22,0,0,1-.31.1.26.26,0,0,1-.08-.33.22.22,0,0,1,.3-.09.24.24,0,0,1,.09.32Z"/><path class="cls-2" d="M656.5,107.09a.48.48,0,0,1-.66.2.52.52,0,0,1-.19-.69.48.48,0,0,1,.66-.21.55.55,0,0,1,.19.7Z"/><path class="cls-2" d="M659.93,104.7a.46.46,0,0,1-.65.2.51.51,0,0,1-.19-.69.46.46,0,0,1,.65-.2.52.52,0,0,1,.19.69Z"/><path class="cls-2" d="M719.29,116a.47.47,0,0,1-.65.21.54.54,0,0,1-.19-.7.46.46,0,0,1,.65-.2.52.52,0,0,1,.19.69Z"/><path class="cls-2" d="M608.73,162.89a.47.47,0,0,1-.65.21.54.54,0,0,1-.19-.7.47.47,0,0,1,.65-.2.51.51,0,0,1,.19.69Z"/><path class="cls-2" d="M658.94,71.08a.47.47,0,0,1-.65.2.53.53,0,0,1-.19-.7.46.46,0,0,1,.65-.2.53.53,0,0,1,.19.7Z"/><path class="cls-2" d="M676.5,68.23a.47.47,0,0,1-.66.2.52.52,0,0,1-.25-.45.54.54,0,0,1-.3-.08A.71.71,0,0,1,675,67a.64.64,0,0,1,.88-.27.72.72,0,0,1,.3.8.18.18,0,0,1,.1,0,.53.53,0,0,1,.19.69Z"/><path class="cls-2" d="M681.52,14.83A.35.35,0,0,1,681,15a.38.38,0,0,1-.14-.5.34.34,0,0,1,.48-.15.39.39,0,0,1,.14.51Z"/><path class="cls-2" d="M581,26.82h0a.49.49,0,1,1-1,0,.49.49,0,1,1,1,0Z"/><path class="cls-2" d="M591.33,27.63h0a.48.48,0,1,1-.48-.51.5.5,0,0,1,.48.51Z"/><path class="cls-2" d="M519.21,36.61h0a.23.23,0,1,1-.23-.24.23.23,0,0,1,.23.24Z"/><path class="cls-2" d="M531.58,49h0a.23.23,0,1,1-.22-.24.23.23,0,0,1,.22.24Z"/><path class="cls-2" d="M536,55.87h0a.34.34,0,1,1-.34-.36.35.35,0,0,1,.34.36Z"/><path class="cls-2" d="M542.89,56.56h0a.23.23,0,0,1-.22.24.24.24,0,0,1,0-.48.23.23,0,0,1,.22.24Z"/><path class="cls-2" d="M502.26,57.83h0a.23.23,0,1,1-.45,0,.23.23,0,1,1,.45,0Z"/><path class="cls-2" d="M495,67.17h0a.23.23,0,1,1-.23-.24.23.23,0,0,1,.23.24Z"/><path class="cls-2" d="M524.14,77.44h0a.23.23,0,0,1-.22.24.24.24,0,0,1,0-.48.23.23,0,0,1,.22.24Z"/><path class="cls-2" d="M501.17,81h0a.23.23,0,1,1-.22-.24.23.23,0,0,1,.22.24Z"/><path class="cls-2" d="M485.7,48.24h0a.35.35,0,1,1-.35-.38.37.37,0,0,1,.35.38Z"/><path class="cls-2" d="M498.44,8.67a.47.47,0,0,1-.65.21.53.53,0,0,1-.19-.7.46.46,0,0,1,.65-.2.52.52,0,0,1,.19.69Z"/><path class="cls-2" d="M430,248.86a2.21,2.21,0,0,1-3.21,0,2.54,2.54,0,0,1,0-3.4,2.21,2.21,0,0,1,3.21,0,2.54,2.54,0,0,1,0,3.4Z"/><path class="cls-2" d="M492.52,221.66a.5.5,0,0,1-.71,0,.56.56,0,0,1,0-.76.5.5,0,0,1,.71,0,.58.58,0,0,1,0,.76Z"/><path class="cls-2" d="M435,158.23a.68.68,0,0,1-1,0,.79.79,0,0,1,0-1.06.68.68,0,0,1,1,0,.79.79,0,0,1,0,1.06Z"/><path class="cls-2" d="M511,218.89a.72.72,0,0,1-1.06,0,.83.83,0,0,1,0-1.14.74.74,0,0,1,1.06,0,.83.83,0,0,1,0,1.14Z"/><path class="cls-2" d="M470.85,181.32a1.37,1.37,0,0,1-2,0,1.58,1.58,0,0,1,0-2.11,1.36,1.36,0,0,1,2,0,1.56,1.56,0,0,1,0,2.11Z"/><path class="cls-2" d="M232.66,176.82a.32.32,0,0,1-.49,0,.37.37,0,0,1,0-.52.33.33,0,0,1,.49,0,.39.39,0,0,1,0,.53Z"/><path class="cls-2" d="M173.42,128.79a.51.51,0,0,1-.75,0,.6.6,0,0,1,0-.79.51.51,0,0,1,.75,0,.6.6,0,0,1,0,.79Z"/><path class="cls-2" d="M187.67,133.94a.37.37,0,0,1-.3.1.22.22,0,0,1-.05.08.33.33,0,0,1-.5,0,.39.39,0,0,1,0-.53.34.34,0,0,1,.3-.1.22.22,0,0,1,0-.08.33.33,0,0,1,.5,0,.39.39,0,0,1,0,.53Z"/><path class="cls-2" d="M178.73,119.89a.57.57,0,0,1-.2.76l-1.29.86a.52.52,0,0,1-.64-.1.5.5,0,0,1-.08-.12.58.58,0,0,1,.19-.76l1.3-.85a.51.51,0,0,1,.64.09.83.83,0,0,1,.08.12Z"/><path class="cls-2" d="M234.32,154.94a.86.86,0,0,1-1.25,0,1,1,0,0,1,0-1.32.86.86,0,0,1,1.25,0,1,1,0,0,1,0,1.32Z"/><path class="cls-2" d="M201.51,123.41a.33.33,0,0,1-.5,0,.39.39,0,0,1,0-.53.35.35,0,0,1,.5,0,.4.4,0,0,1,0,.53Z"/><path class="cls-2" d="M209.79,126.79a.33.33,0,0,1-.5,0,.37.37,0,0,1,0-.52.33.33,0,0,1,.5,0,.4.4,0,0,1,0,.52Z"/><path class="cls-2" d="M197.83,114a.5.5,0,0,1-.74,0,.57.57,0,0,1,0-.79.5.5,0,0,1,.74,0,.57.57,0,0,1,0,.79Z"/><path class="cls-2" d="M167.19,315.46a.33.33,0,0,1-.5,0,.37.37,0,0,1,0-.52.33.33,0,0,1,.5,0,.4.4,0,0,1,0,.52Z"/><path class="cls-2" d="M290.48,215.46h0Z"/><path class="cls-2" d="M280.05,218.58a.18.18,0,0,1-.25,0,.2.2,0,0,1,0-.27.18.18,0,0,1,.25,0,.2.2,0,0,1,0,.27Z"/><path class="cls-2" d="M357.52,167.74a.86.86,0,0,1-1.25,0,1,1,0,0,1,0-1.32.86.86,0,0,1,1.25,0,1,1,0,0,1,0,1.32Z"/><path class="cls-2" d="M327.33,231.28a.68.68,0,0,1-1,0,.79.79,0,0,1,0-1.06.68.68,0,0,1,1,0,.79.79,0,0,1,0,1.06Z"/><path class="cls-2" d="M320.33,181.86a.34.34,0,0,1-.49,0,.39.39,0,0,1,0-.53.32.32,0,0,1,.49,0,.39.39,0,0,1,0,.53Z"/><path class="cls-2" d="M350.08,200.36a1.36,1.36,0,0,1-2,0,1.58,1.58,0,0,1,0-2.11,1.37,1.37,0,0,1,2,0,1.56,1.56,0,0,1,0,2.11Z"/><path class="cls-2" d="M339.88,180.84a.35.35,0,0,1-.5,0,.39.39,0,0,1,0-.53.35.35,0,0,1,.5,0,.41.41,0,0,1,0,.53Z"/><path class="cls-2" d="M401.25,168.89a.21.21,0,0,1-.32,0,.24.24,0,0,1,0-.33.21.21,0,0,1,.32,0,.26.26,0,0,1,0,.33Z"/><path class="cls-2" d="M376.21,144.69a.33.33,0,0,1-.5,0,.4.4,0,0,1,0-.52.33.33,0,0,1,.5,0,.37.37,0,0,1,0,.52Z"/><path class="cls-2" d="M381.54,165.77a.33.33,0,0,1-.5,0,.41.41,0,0,1,0-.53.35.35,0,0,1,.5,0,.39.39,0,0,1,0,.53Z"/><path class="cls-2" d="M226.08,339.84a.46.46,0,0,1-.68,0,.54.54,0,0,1,0-.73.48.48,0,0,1,.68,0,.54.54,0,0,1,0,.73Z"/><path class="cls-2" d="M234.06,345.46a.47.47,0,0,1-.69,0,.55.55,0,0,1,0-.72.47.47,0,0,1,.69,0,.55.55,0,0,1,0,.72Z"/><path class="cls-2" d="M190.54,295.82a.22.22,0,0,1-.32,0,.25.25,0,0,1,0-.34.22.22,0,0,1,.32,0,.25.25,0,0,1,0,.34Z"/><path class="cls-2" d="M264.7,367a.32.32,0,0,1-.46,0,.37.37,0,0,1,0-.48.3.3,0,0,1,.46,0,.36.36,0,0,1,0,.48Z"/><path class="cls-2" d="M281,374.7a.49.49,0,0,1-.69,0,.56.56,0,0,1,0-.73.47.47,0,0,1,.69,0,.56.56,0,0,1,0,.73Z"/><path class="cls-2" d="M272.31,365.05a.48.48,0,0,1-.68,0,.54.54,0,0,1,0-.73.46.46,0,0,1,.68,0,.54.54,0,0,1,0,.73Z"/><path class="cls-2" d="M242.2,330.71a1.24,1.24,0,0,1-1.82,0,1.45,1.45,0,0,1,0-1.93,1.26,1.26,0,0,1,1.82,0,1.43,1.43,0,0,1,0,1.93Z"/><path class="cls-2" d="M278.63,362.31a.47.47,0,0,1-.69,0,.55.55,0,0,1,0-.72.47.47,0,0,1,.69,0,.55.55,0,0,1,0,.72Z"/><path class="cls-2" d="M209.61,294.49a.22.22,0,0,1-.32,0,.25.25,0,0,1,0-.34.21.21,0,0,1,.32,0,.27.27,0,0,1,0,.34Z"/><path class="cls-2" d="M284.36,352.17a.48.48,0,0,1-.68,0,.54.54,0,0,1,0-.73.46.46,0,0,1,.68,0,.56.56,0,0,1,0,.73Z"/><path class="cls-2" d="M218.44,292.26a.33.33,0,0,1-.48,0,.37.37,0,0,1,0-.5.33.33,0,0,1,.48,0,.37.37,0,0,1,0,.5Z"/><path class="cls-2" d="M293.71,355.31a.49.49,0,0,1-.69,0,.56.56,0,0,1,0-.73.47.47,0,0,1,.69,0,.56.56,0,0,1,0,.73Z"/><path class="cls-2" d="M223.92,295.91a.21.21,0,0,1-.31,0,.25.25,0,0,1,0-.34.21.21,0,0,1,.31,0,.25.25,0,0,1,0,.34Z"/><path class="cls-2" d="M262.26,234.83a.22.22,0,0,1-.32,0,.25.25,0,0,1,0-.34.22.22,0,0,1,.32,0,.25.25,0,0,1,0,.34Z"/><path class="cls-2" d="M297.79,353.83a.48.48,0,0,1-.68,0,.54.54,0,0,1,0-.73.46.46,0,0,1,.68,0,.54.54,0,0,1,0,.73Z"/><path class="cls-2" d="M237.22,210.63a.35.35,0,0,1-.5,0,.41.41,0,0,1,0-.53.33.33,0,0,1,.5,0,.39.39,0,0,1,0,.53Z"/><path class="cls-2" d="M285.82,338.24a.46.46,0,0,1-.68,0,.53.53,0,0,1,0-.72.46.46,0,0,1,.68,0,.55.55,0,0,1,0,.72Z"/><path class="cls-2" d="M264.88,223.86a.22.22,0,0,1-.32,0,.26.26,0,0,1,0-.33.21.21,0,0,1,.32,0,.25.25,0,0,1,0,.34Z"/><path class="cls-2" d="M202.54,224.89a.85.85,0,0,1-1.24,0,1,1,0,0,1,0-1.32.85.85,0,0,1,1.24,0,1,1,0,0,1,0,1.32Z"/><path class="cls-2" d="M307.89,321.3a.46.46,0,0,1-.68,0,.54.54,0,0,1,0-.73.48.48,0,0,1,.68,0,.54.54,0,0,1,0,.73Z"/><path class="cls-2" d="M169.74,193.36a.33.33,0,0,1-.5,0,.39.39,0,0,1,0-.53.35.35,0,0,1,.5,0,.41.41,0,0,1,0,.53Z"/><path class="cls-2" d="M178,196.74a.33.33,0,0,1-.5,0,.41.41,0,0,1,0-.53.35.35,0,0,1,.5,0,.39.39,0,0,1,0,.53Z"/><path class="cls-2" d="M248.89,290.9a.45.45,0,0,1-.64,0,.52.52,0,0,1,0-.68.45.45,0,0,1,.64,0,.52.52,0,0,1,0,.68Z"/><path class="cls-2" d="M269.76,307.49a.61.61,0,0,1-.91,0,.71.71,0,0,1,0-1,.61.61,0,0,1,.91,0,.71.71,0,0,1,0,1Z"/><path class="cls-2" d="M228.07,269.9a.21.21,0,0,1-.32,0,.24.24,0,0,1,0-.33.21.21,0,0,1,.32,0,.26.26,0,0,1,0,.33Z"/><path class="cls-2" d="M325.67,322.75a.46.46,0,0,1-.68,0,.51.51,0,0,1-.12-.5.59.59,0,0,1-.27-.17.72.72,0,0,1,0-1,.63.63,0,0,1,.91,0,.72.72,0,0,1,.08.85.27.27,0,0,1,.08.07.53.53,0,0,1,0,.72Z"/><path class="cls-2" d="M280.84,217.77a.22.22,0,0,1-.32,0,.25.25,0,0,1,0-.34.22.22,0,0,1,.32,0,.27.27,0,0,1,0,.34Z"/><path class="cls-2" d="M242.75,183.32a.35.35,0,0,1-.5,0,.39.39,0,0,1,0-.53.33.33,0,0,1,.5,0,.41.41,0,0,1,0,.53Z"/><path class="cls-2" d="M269.4,203a.53.53,0,0,1-.8,0,.62.62,0,0,1,0-.84.55.55,0,0,1,.8,0,.62.62,0,0,1,0,.84Z"/><path class="cls-2" d="M186.45,187.25a.35.35,0,0,1-.5,0,.41.41,0,0,1,0-.53.35.35,0,0,1,.5,0,.39.39,0,0,1,0,.53Z"/><path class="cls-2" d="M242.55,231.7a.33.33,0,0,1-.5,0,.4.4,0,0,1,0-.52.33.33,0,0,1,.5,0,.37.37,0,0,1,0,.52Z"/><path class="cls-2" d="M200.38,194.59a.33.33,0,0,1-.5,0,.4.4,0,0,1,0-.52.33.33,0,0,1,.5,0,.37.37,0,0,1,0,.52Z"/><path class="cls-2" d="M250.34,271.65a.3.3,0,0,1-.46,0,.34.34,0,0,1,0-.48.32.32,0,0,1,.46,0,.37.37,0,0,1,0,.48Z"/><path class="cls-2" d="M351.67,314.72a1.41,1.41,0,0,1-2.05,0,1.61,1.61,0,0,1,0-2.17,1.41,1.41,0,0,1,2.05,0,1.61,1.61,0,0,1,0,2.17Z"/><path class="cls-2" d="M296.47,286.9a1.41,1.41,0,0,1-2.05,0,1.62,1.62,0,0,1,0-2.18,1.41,1.41,0,0,1,2.05,0,1.62,1.62,0,0,1,0,2.18Z"/><path class="cls-2" d="M256.23,251.1a.32.32,0,0,1-.46,0,.36.36,0,0,1,0-.48.32.32,0,0,1,.46,0,.36.36,0,0,1,0,.48Z"/><path class="cls-2" d="M277.68,264.53a.47.47,0,0,1-.69,0,.56.56,0,0,1,0-.73.49.49,0,0,1,.69,0,.56.56,0,0,1,0,.73Z"/><path class="cls-2" d="M275.52,260.07a.47.47,0,0,1-.69,0,.55.55,0,0,1,0-.73.48.48,0,0,1,.68,0,.56.56,0,0,1,0,.73Z"/><path class="cls-2" d="M169.53,220.78h0a.49.49,0,0,1-.6.34.52.52,0,0,1-.33-.63.48.48,0,0,1,.6-.35.53.53,0,0,1,.33.64Z"/><path class="cls-2" d="M179.18,224h0a.48.48,0,0,1-.6.35.53.53,0,0,1-.33-.63.49.49,0,0,1,.6-.35.52.52,0,0,1,.33.63Z"/><path class="cls-2" d="M107,215.54h0a.24.24,0,0,1-.28.17.25.25,0,0,1-.16-.3.22.22,0,0,1,.28-.16.24.24,0,0,1,.16.29Z"/><path class="cls-2" d="M216.19,236.38h0a.32.32,0,0,1-.4.23.34.34,0,0,1-.22-.42.32.32,0,0,1,.4-.23.34.34,0,0,1,.22.42Z"/><path class="cls-2" d="M232,244.76h0a.49.49,0,0,1-.6.35.51.51,0,0,1-.33-.63.48.48,0,0,1,.6-.35.53.53,0,0,1,.33.63Z"/><path class="cls-2" d="M217.85,243h0a.49.49,0,0,1-.6.35.53.53,0,0,1-.33-.64.48.48,0,0,1,.6-.35.53.53,0,0,1,.33.64Z"/><path class="cls-2" d="M167.75,237.26h0a1.29,1.29,0,0,1-1.6.93,1.39,1.39,0,0,1-.87-1.69,1.29,1.29,0,0,1,1.59-.93,1.4,1.4,0,0,1,.88,1.69Z"/><path class="cls-2" d="M218.06,249h0a.49.49,0,0,1-.59.35.52.52,0,0,1-.33-.64.48.48,0,0,1,.6-.35.52.52,0,0,1,.32.64Z"/><path class="cls-2" d="M114.78,230.36h0a.24.24,0,0,1-.28.16.24.24,0,0,1-.15-.3.22.22,0,0,1,.28-.16.26.26,0,0,1,.15.3Z"/><path class="cls-2" d="M210.35,258.15h0a.49.49,0,0,1-.6.34.52.52,0,0,1-.33-.63.48.48,0,0,1,.6-.35.53.53,0,0,1,.33.64Z"/><path class="cls-2" d="M116.72,238h0a.33.33,0,0,1-.42.24.36.36,0,0,1-.23-.44.35.35,0,0,1,.42-.25.36.36,0,0,1,.23.45Z"/><path class="cls-2" d="M218.1,263.58h0a.49.49,0,0,1-.6.35.53.53,0,0,1-.33-.63.48.48,0,0,1,.6-.35.52.52,0,0,1,.33.63Z"/><path class="cls-2" d="M123.15,240.31h0a.22.22,0,0,1-.28.16A.24.24,0,0,1,123,240a.24.24,0,0,1,.15.3Z"/><path class="cls-2" d="M83.71,231.92h0a.23.23,0,0,1-.28.17.24.24,0,0,1-.15-.3.22.22,0,0,1,.28-.16.24.24,0,0,1,.15.29Z"/><path class="cls-2" d="M218.54,267.33h0a.49.49,0,0,1-.6.35.53.53,0,0,1-.33-.64.49.49,0,0,1,.6-.35.53.53,0,0,1,.33.64Z"/><path class="cls-2" d="M46.63,225h0a.36.36,0,0,1-.44.25.38.38,0,0,1-.24-.46.36.36,0,0,1,.44-.26.4.4,0,0,1,.24.47Z"/><path class="cls-2" d="M196.67,265.94h0a.48.48,0,0,1-.6.35.52.52,0,0,1-.32-.64.47.47,0,0,1,.59-.34.5.5,0,0,1,.33.63Z"/><path class="cls-2" d="M73.64,239.16h0a.22.22,0,0,1-.28.16.23.23,0,0,1-.15-.29.22.22,0,0,1,.28-.16.23.23,0,0,1,.15.29Z"/><path class="cls-2" d="M44.56,192.42h0a.87.87,0,0,1-1.09.63.94.94,0,0,1-.6-1.15.88.88,0,0,1,1.09-.64,1,1,0,0,1,.6,1.16Z"/><path class="cls-2" d="M189.81,290.51h0a.49.49,0,0,1-.6.35.51.51,0,0,1-.33-.63.48.48,0,0,1,.6-.35.52.52,0,0,1,.33.63Z"/><path class="cls-2" d="M3.75,187.68h0a.37.37,0,0,1-.44.26.39.39,0,0,1-.24-.47.35.35,0,0,1,.44-.25.39.39,0,0,1,.24.46Z"/><path class="cls-2" d="M130,261.31h0a.43.43,0,0,1-.55.32.48.48,0,0,1-.31-.59.44.44,0,0,1,.56-.32.48.48,0,0,1,.3.59Z"/><path class="cls-2" d="M157.14,268.85h0a.64.64,0,0,1-.8.46.7.7,0,0,1-.44-.84.65.65,0,0,1,.8-.47.7.7,0,0,1,.44.85Z"/><path class="cls-2" d="M98.29,255.92h0a.23.23,0,0,1-.28.17.26.26,0,0,1-.16-.3.22.22,0,0,1,.28-.16.24.24,0,0,1,.16.29Z"/><path class="cls-2" d="M129.92,118h0a.48.48,0,0,1-.6.35.52.52,0,0,1-.33-.63.49.49,0,0,1,.6-.35.51.51,0,0,1,.33.63Z"/><path class="cls-2" d="M130.14,124h0a.48.48,0,0,1-.6.35.52.52,0,0,1-.33-.63.49.49,0,0,1,.6-.35.52.52,0,0,1,.33.63Z"/><path class="cls-2" d="M122.42,133.13h0a.48.48,0,0,1-.6.35.52.52,0,0,1-.33-.63.49.49,0,0,1,.6-.35.51.51,0,0,1,.33.63Z"/><path class="cls-2" d="M130.17,138.57h0a.49.49,0,0,1-.6.35.53.53,0,0,1-.33-.64.49.49,0,0,1,.6-.35.52.52,0,0,1,.33.64Z"/><path class="cls-2" d="M130.61,142.31h0a.48.48,0,0,1-.6.35.52.52,0,0,1-.33-.63.49.49,0,0,1,.6-.35.51.51,0,0,1,.33.63Z"/><path class="cls-2" d="M182,169.92h0a.49.49,0,0,1-.6.35.53.53,0,0,1-.33-.63.48.48,0,0,1,.6-.35.52.52,0,0,1,.33.63Z"/><path class="cls-2" d="M142.92,70.46h0a.48.48,0,0,1-.6.35.53.53,0,0,1-.33-.64.49.49,0,0,1,.6-.35.53.53,0,0,1,.33.64Z"/><path class="cls-2" d="M108.75,140.93h0a.49.49,0,0,1-.6.35.53.53,0,0,1-.33-.64.48.48,0,0,1,.6-.35.53.53,0,0,1,.33.64Z"/><path class="cls-2" d="M101.88,165.5h0a.48.48,0,0,1-.6.35.53.53,0,0,1-.33-.64.49.49,0,0,1,.6-.35.53.53,0,0,1,.33.64Z"/><path class="cls-2" d="M111.88,178.12h0a.48.48,0,0,1-.6.35l-.09,0a.63.63,0,0,1-.74.33.69.69,0,0,1-.44-.84.63.63,0,0,1,1.07-.3.44.44,0,0,1,.47-.13.51.51,0,0,1,.33.63Z"/><path class="cls-2" d="M75,254h0a.23.23,0,0,1-.28.17.24.24,0,0,1-.15-.3.22.22,0,0,1,.28-.16A.24.24,0,0,1,75,254Z"/><path class="cls-2" d="M21.08,242.26h0a.35.35,0,0,1-.44.26.39.39,0,0,1-.24-.46.35.35,0,0,1,.44-.26.39.39,0,0,1,.24.46Z"/><path class="cls-2" d="M71,218.8h0a.36.36,0,0,1-.44.25.37.37,0,0,1-.24-.46.34.34,0,0,1,.44-.25.38.38,0,0,1,.24.46Z"/><path class="cls-2" d="M12.31,205.34h0a.36.36,0,0,1-.44.26.4.4,0,0,1-.24-.47.35.35,0,0,1,.44-.25.39.39,0,0,1,.24.46Z"/><path class="cls-2" d="M110.81,271.64h0a.33.33,0,0,1-.4.24.36.36,0,0,1-.22-.43.32.32,0,0,1,.4-.23.34.34,0,0,1,.22.42Z"/><path class="cls-2" d="M39.11,8.37h0v0Z"/><path class="cls-2" d="M40.92,17.58a.19.19,0,0,1,0,.26.16.16,0,0,1-.24,0,.19.19,0,0,1,0-.26.16.16,0,0,1,.24,0Z"/><path class="cls-2" d="M148.62,298.73h0a1.46,1.46,0,0,1-1.8,1,1.56,1.56,0,0,1-1-1.9,1.46,1.46,0,0,1,1.8-1.05,1.56,1.56,0,0,1,1,1.9Z"/><path class="cls-2" d="M438.88,382.6a1.37,1.37,0,0,1-1.14,1.5,1.32,1.32,0,0,1-1.42-1.21,1.36,1.36,0,0,1,1.14-1.51,1.33,1.33,0,0,1,1.42,1.22Z"/><path class="cls-2" d="M386.06,387.42a.23.23,0,1,1-.45.05.25.25,0,0,1,.2-.27.23.23,0,0,1,.25.22Z"/><path class="cls-2" d="M389.55,380.17a.34.34,0,1,1-.37-.31.33.33,0,0,1,.37.31Z"/><path class="cls-2" d="M396.36,378.86a.24.24,0,0,1-.2.26.23.23,0,0,1-.25-.21.25.25,0,0,1,.2-.27.24.24,0,0,1,.25.22Z"/><path class="cls-2" d="M355.8,381.26a.24.24,0,0,1-.2.26.22.22,0,0,1-.25-.21.23.23,0,0,1,.2-.26.23.23,0,0,1,.25.21Z"/><path class="cls-2" d="M317.85,382.58a.36.36,0,0,1-.31.41.35.35,0,0,1-.39-.33.37.37,0,0,1,.32-.41.36.36,0,0,1,.38.33Z"/><path class="cls-2" d="M347.38,372.64a.24.24,0,0,1-.21.26.22.22,0,0,1-.24-.21.22.22,0,0,1,.2-.26.23.23,0,0,1,.25.21Z"/><path class="cls-2" d="M407.4,359.2a.47.47,0,0,1-.4.53.46.46,0,0,1-.49-.43.46.46,0,0,1,.4-.52.45.45,0,0,1,.49.42Z"/><path class="cls-2" d="M375.1,359.79a.25.25,0,0,1-.2.27.23.23,0,0,1-.25-.21.25.25,0,0,1,.2-.27.24.24,0,0,1,.25.21Z"/><path class="cls-2" d="M351.8,358.28a.23.23,0,1,1-.45.06.25.25,0,0,1,.21-.27.22.22,0,0,1,.24.21Z"/><path class="cls-2" d="M331,356.51a.56.56,0,1,1-.62-.53.57.57,0,0,1,.62.53Z"/><path class="cls-2" d="M340.54,392.3a.37.37,0,0,1-.31.41.37.37,0,0,1-.39-.33.38.38,0,0,1,.31-.42.37.37,0,0,1,.39.34Z"/><path class="cls-2" d="M390.67,346.18a.33.33,0,0,1-.29.37.32.32,0,0,1-.35-.3.34.34,0,0,1,.29-.37.32.32,0,0,1,.35.3Z"/><path class="cls-2" d="M375.51,329.39a.34.34,0,0,1-.29.37.33.33,0,0,1-.35-.3.34.34,0,0,1,.29-.38.33.33,0,0,1,.35.31Z"/><path class="cls-2" d="M9.93,150.05a.47.47,0,0,1-.69,0,.55.55,0,0,1,0-.72.47.47,0,0,1,.69,0,.55.55,0,0,1,0,.72Z"/><path class="cls-2" d="M17.9,155.68a.46.46,0,0,1-.68,0,.54.54,0,0,1,0-.73.48.48,0,0,1,.68,0,.56.56,0,0,1,0,.73Z"/><path class="cls-2" d="M26.05,140.93a1.24,1.24,0,0,1-1.82,0,1.43,1.43,0,0,1,0-1.93,1.24,1.24,0,0,1,1.82,0,1.45,1.45,0,0,1,0,1.93Z"/><path class="cls-2" d="M2.28,102.48a.33.33,0,0,1-.48,0,.38.38,0,0,1,0-.51.33.33,0,0,1,.48,0,.38.38,0,0,1,0,.51Z"/><path class="cls-2" d="M7.77,106.13a.22.22,0,0,1-.32,0,.25.25,0,0,1,0-.34.22.22,0,0,1,.32,0,.27.27,0,0,1,0,.34Z"/><path class="cls-2" d="M69.66,148.46a.46.46,0,0,1-.68,0,.53.53,0,0,1,0-.72.46.46,0,0,1,.68,0,.53.53,0,0,1,0,.72Z"/><path class="cls-2" d="M53.6,117.71a.63.63,0,0,1-.91,0,.72.72,0,0,1,0-1,.63.63,0,0,1,.91,0,.72.72,0,0,1,0,1Z"/><path class="cls-2" d="M11.91,80.12a.22.22,0,0,1-.32,0,.25.25,0,0,1,0-.34.22.22,0,0,1,.32,0,.25.25,0,0,1,0,.34Z"/><path class="cls-2" d="M712.74,73.57h0a.85.85,0,0,1-1.24,0,1,1,0,0,1,0-1.32.86.86,0,0,1,1.24,0,1,1,0,0,1,0,1.32Z"/><path class="cls-2" d="M712.17,74.47h0a.34.34,0,0,1-.49,0,.39.39,0,0,1,0-.53.32.32,0,0,1,.49,0,.39.39,0,0,1,0,.53Z"/><path class="cls-2" d="M695.54,82.78h0a.35.35,0,0,1-.5,0,.41.41,0,0,1,0-.53.33.33,0,0,1,.5,0,.39.39,0,0,1,0,.53Z"/><path class="cls-2" d="M724.36,113h0a.35.35,0,0,1-.5,0,.39.39,0,0,1,0-.53.33.33,0,0,1,.5,0,.39.39,0,0,1,0,.53Z"/><path class="cls-2" d="M699.25,94h0a.33.33,0,0,1-.5,0,.41.41,0,0,1,0-.53.35.35,0,0,1,.5,0,.39.39,0,0,1,0,.53Z"/><path class="cls-2" d="M714,106.48h0a.35.35,0,0,1-.5,0,.41.41,0,0,1,0-.53.35.35,0,0,1,.5,0,.39.39,0,0,1,0,.53Z"/><path class="cls-2" d="M681.15,82.93h0a.32.32,0,0,1-.49,0,.37.37,0,0,1,0-.52.32.32,0,0,1,.49,0,.37.37,0,0,1,0,.52Z"/><path class="cls-2" d="M675.64,92.36h0a.68.68,0,0,1-1,0,.78.78,0,0,1,0-1,.68.68,0,0,1,1,0,.78.78,0,0,1,0,1Z"/><path class="cls-2" d="M714.54,131.89h0a.33.33,0,0,1-.5,0,.37.37,0,0,1,0-.52.33.33,0,0,1,.5,0,.4.4,0,0,1,0,.52Z"/><path class="cls-2" d="M709.61,188.05h0a.86.86,0,0,1-1.25,0,1,1,0,0,1,0-1.32.86.86,0,0,1,1.25,0,1,1,0,0,1,0,1.32Z"/><path class="cls-2" d="M742.33,218.41h0a.68.68,0,0,1-1,0,.79.79,0,0,1,0-1.06.68.68,0,0,1,1,0,.79.79,0,0,1,0,1.06Z"/><path class="cls-2" d="M706.23,135.62h0a.67.67,0,0,1-1,0,.77.77,0,0,1,0-1.06.69.69,0,0,1,1,0,.79.79,0,0,1,0,1.06Z"/><path class="cls-2" d="M654.86,91.84h0a.35.35,0,0,1-.5,0,.39.39,0,0,1,0-.53.33.33,0,0,1,.5,0,.41.41,0,0,1,0,.53Z"/><path class="cls-2" d="M748.2,229.26h0a.33.33,0,0,1-.5,0,.39.39,0,0,1,0-.53.35.35,0,0,1,.5,0,.41.41,0,0,1,0,.53Z"/><path class="cls-2" d="M726.34,156.43h0a.35.35,0,0,1-.5,0,.41.41,0,0,1,0-.53.35.35,0,0,1,.5,0,.39.39,0,0,1,0,.53Z"/><path class="cls-2" d="M640.48,104.87h0a.33.33,0,0,1-.5,0,.4.4,0,0,1,0-.52.33.33,0,0,1,.5,0,.37.37,0,0,1,0,.52Z"/><path class="cls-2" d="M695.55,157.74h0a.33.33,0,0,1-.25-.11.33.33,0,0,1-.1-.26.38.38,0,0,1,.1-.27l.75-1a.29.29,0,0,1,.25-.1.31.31,0,0,1,.25.1.43.43,0,0,1,.1.27.46.46,0,0,1-.1.26l-.76,1a.32.32,0,0,1-.24.11Z"/><path class="cls-2" d="M648.77,120.15h0a1.55,1.55,0,0,1-2.24,0,1.78,1.78,0,0,1,0-2.38,1.53,1.53,0,0,1,2.24,0,1.78,1.78,0,0,1,0,2.38Z"/><path class="cls-2" d="M739.19,249.17h0a.35.35,0,0,1-.5,0,.41.41,0,0,1,0-.53.35.35,0,0,1,.5,0,.39.39,0,0,1,0,.53Z"/><path class="cls-2" d="M702.71,171.18h0a.34.34,0,0,1-.49,0,.39.39,0,0,1,0-.53.34.34,0,0,1,.49,0,.39.39,0,0,1,0,.53Z"/><path class="cls-2" d="M705.76,237.82h0a1.37,1.37,0,0,1-2,0,1.57,1.57,0,0,1,0-2.12,1.37,1.37,0,0,1,2,0,1.59,1.59,0,0,1,0,2.12Z"/><path class="cls-2" d="M667.39,146.69h0a.53.53,0,0,1-.75,0,.59.59,0,0,1,0-.8.53.53,0,0,1,.75,0,.61.61,0,0,1,0,.8Z"/><path class="cls-2" d="M647.56,132.37h0a.68.68,0,0,1-1,0,.79.79,0,0,1,0-1.06.7.7,0,0,1,1,0,.79.79,0,0,1,0,1.06Z"/><path class="cls-2" d="M659.73,143h0a.67.67,0,0,1-1,0,.76.76,0,0,1,0-1,.67.67,0,0,1,1,0,.78.78,0,0,1,0,1Z"/><path class="cls-2" d="M668,151.7h0a.67.67,0,0,1-1,0,.78.78,0,0,1,0-1,.67.67,0,0,1,1,0,.76.76,0,0,1,0,1Z"/><path class="cls-2" d="M727.88,266.34h0a1.53,1.53,0,0,1-2.24,0,1.76,1.76,0,0,1,0-2.37,1.53,1.53,0,0,1,2.24,0,1.76,1.76,0,0,1,0,2.37Z"/><path class="cls-2" d="M687.58,172.92h0a.68.68,0,0,1-1,0,.79.79,0,0,1,0-1.06.68.68,0,0,1,1,0,.79.79,0,0,1,0,1.06Z"/><path class="cls-2" d="M682.93,229h0a.35.35,0,0,1-.5,0,.39.39,0,0,1,0-.53.35.35,0,0,1,.5,0,.41.41,0,0,1,0,.53Z"/><path class="cls-2" d="M669.05,164.23h0a.33.33,0,0,1-.5,0,.37.37,0,0,1,0-.52.33.33,0,0,1,.5,0,.4.4,0,0,1,0,.52Z"/><path class="cls-2" d="M633.85,136.73h0a.67.67,0,0,1-1,0,.79.79,0,0,1,0-1.06.67.67,0,0,1,1,0,.77.77,0,0,1,0,1.06Z"/><path class="cls-2" d="M643.15,144.56h0a.35.35,0,0,1-.5,0,.39.39,0,0,1,0-.53.35.35,0,0,1,.5,0,.39.39,0,0,1,0,.53Z"/><path class="cls-2" d="M645.88,150.24h0a.68.68,0,0,1-1,0,.8.8,0,0,1-.2-.46.61.61,0,0,1,.11-.62.54.54,0,0,1,.39-.16.69.69,0,0,1,.7.19.78.78,0,0,1,0,1.05Z"/><path class="cls-2" d="M723.63,276.86h0a.22.22,0,0,1-.32,0,.27.27,0,0,1,0-.34.22.22,0,0,1,.32,0,.25.25,0,0,1,0,.34Z"/><path class="cls-2" d="M630.53,145.1h0a.51.51,0,0,1-.75,0,.57.57,0,0,1,0-.79.51.51,0,0,1,.75,0,.6.6,0,0,1,0,.79Z"/><path class="cls-2" d="M630.59,149.91h0a.32.32,0,0,1-.49,0,.37.37,0,0,1,0-.52.32.32,0,0,1,.49,0,.37.37,0,0,1,0,.52Z"/><path class="cls-2" d="M650.1,170.77h0a.5.5,0,0,1-.74,0,.57.57,0,0,1,0-.79.5.5,0,0,1,.74,0,.57.57,0,0,1,0,.79Z"/><path class="cls-2" d="M616.18,144.13h0a.33.33,0,0,1-.5,0,.41.41,0,0,1,0-.53.35.35,0,0,1,.5,0,.39.39,0,0,1,0,.53Z"/><path class="cls-2" d="M630.74,161.45h0a.51.51,0,0,1-.75,0,.6.6,0,0,1,0-.79.51.51,0,0,1,.75,0,.6.6,0,0,1,0,.79Z"/><path class="cls-2" d="M667.23,192.7h0a.35.35,0,0,1-.5,0,.41.41,0,0,1,0-.53.33.33,0,0,1,.5,0,.39.39,0,0,1,0,.53Z"/><path class="cls-2" d="M651.63,181.62h0a.33.33,0,0,1-.5,0,.4.4,0,0,1,0-.52.33.33,0,0,1,.5,0,.37.37,0,0,1,0,.52Z"/><path class="cls-2" d="M601.29,140.57h0a.34.34,0,0,1-.49,0,.39.39,0,0,1,0-.53.34.34,0,0,1,.49,0,.39.39,0,0,1,0,.53Z"/><path class="cls-2" d="M617.4,158.06h0a.52.52,0,0,1-.75,0,.58.58,0,0,1,0-.79.51.51,0,0,1,.75,0,.6.6,0,0,1,0,.79Z"/><path class="cls-2" d="M625.57,165.16h0a.53.53,0,0,1-.75,0,.61.61,0,0,1,0-.8.53.53,0,0,1,.75,0,.61.61,0,0,1,0,.8Z"/><path class="cls-2" d="M619.9,162.12h0a.35.35,0,0,1-.5,0,.41.41,0,0,1,0-.53.35.35,0,0,1,.5,0,.39.39,0,0,1,0,.53Z"/><path class="cls-2" d="M626.27,178.77h0a.51.51,0,0,1-.75,0,.6.6,0,0,1,0-.79.51.51,0,0,1,.75,0,.6.6,0,0,1,0,.79Z"/><path class="cls-2" d="M615.38,172.49h0a.51.51,0,0,1-.75,0,.6.6,0,0,1,0-.79.53.53,0,0,1,.75,0,.6.6,0,0,1,0,.79Z"/><path class="cls-2" d="M632.39,190.87h0a.33.33,0,0,1-.5,0,.39.39,0,0,1,0-.53l.08-.06a.35.35,0,0,1,.09-.31.33.33,0,0,1,.5,0,.39.39,0,0,1,0,.53l-.07.06a.39.39,0,0,1-.1.31Z"/><path class="cls-2" d="M616,183.43h0l-.1-.08a.57.57,0,0,1-.09-.68c.26-.46.53-.92.8-1.38a.53.53,0,0,1,.72-.21l.11.09a.59.59,0,0,1,.09.68l-.81,1.37a.51.51,0,0,1-.72.21Z"/><path class="cls-2" d="M601.81,171.13h0a.35.35,0,0,1-.5,0,.4.4,0,0,1-.09-.2.34.34,0,0,1-.39-.08.39.39,0,0,1,0-.53.34.34,0,0,1,.49,0,.35.35,0,0,1,.1.2.34.34,0,0,1,.39.08.39.39,0,0,1,0,.53Z"/><path class="cls-2" d="M640.31,259.82h0a.34.34,0,0,1-.49,0,.39.39,0,0,1,0-.53.34.34,0,0,1,.49,0,.39.39,0,0,1,0,.53Z"/><path class="cls-2" d="M657,230.48h0a.85.85,0,0,1-1.24,0,1,1,0,0,1,0-1.32.85.85,0,0,1,1.24,0,1,1,0,0,1,0,1.32Z"/><path class="cls-2" d="M620,202.57h0a.33.33,0,0,1-.5,0,.41.41,0,0,1,0-.53.35.35,0,0,1,.5,0,.39.39,0,0,1,0,.53Z"/><path class="cls-2" d="M624,209.59h0a.33.33,0,0,1-.5,0,.39.39,0,0,1,0-.53.35.35,0,0,1,.5,0,.41.41,0,0,1,0,.53Z"/><path class="cls-2" d="M608.88,199.48h0a.51.51,0,0,1-.75,0,.6.6,0,0,1,0-.79.51.51,0,0,1,.75,0,.6.6,0,0,1,0,.79Z"/><path class="cls-2" d="M444.68,320h0a.33.33,0,0,1-.5,0,.37.37,0,0,1,0-.52.33.33,0,0,1,.5,0,.4.4,0,0,1,0,.52Z"/><path class="cls-2" d="M418.78,321.53h0a.86.86,0,0,1-1.24,0,1,1,0,0,1,0-1.32.85.85,0,0,1,1.24,0,1,1,0,0,1,0,1.32Z"/><path class="cls-2" d="M608.12,264.5h0a.33.33,0,0,1-.5,0,.37.37,0,0,1,0-.52.33.33,0,0,1,.5,0,.4.4,0,0,1,0,.52Z"/><path class="cls-2" d="M631.26,287.14h0a.55.55,0,0,1-.8,0,.62.62,0,0,1,0-.84.55.55,0,0,1,.8,0,.64.64,0,0,1,0,.84Z"/><path class="cls-2" d="M601.6,207.82h0a.53.53,0,0,1-.75,0,.6.6,0,0,1,0-.79.51.51,0,0,1,.75,0,.6.6,0,0,1,0,.79Z"/><path class="cls-2" d="M612.76,216.75h0a.35.35,0,0,1-.5,0,.39.39,0,0,1,0-.53.35.35,0,0,1,.5,0,.41.41,0,0,1,0,.53Z"/><path class="cls-2" d="M595.14,204h0a.33.33,0,0,1-.5,0,.37.37,0,0,1,0-.52.33.33,0,0,1,.5,0,.4.4,0,0,1,0,.52Z"/><path class="cls-2" d="M665.16,264.34h0a.35.35,0,0,1-.5,0,.41.41,0,0,1,0-.53.35.35,0,0,1,.5,0,.39.39,0,0,1,0,.53Z"/><path class="cls-2" d="M621.41,228.57h0a.34.34,0,0,1-.49,0,.39.39,0,0,1,0-.53.32.32,0,0,1,.49,0,.39.39,0,0,1,0,.53Z"/><path class="cls-2" d="M519.69,383.12h0a.22.22,0,0,1-.32,0,.25.25,0,0,1,0-.34.22.22,0,0,1,.32,0,.25.25,0,0,1,0,.34Z"/><path class="cls-2" d="M513.08,345.13h0a.22.22,0,0,1-.32,0,.25.25,0,0,1,0-.34.22.22,0,0,1,.32,0,.25.25,0,0,1,0,.34Z"/><path class="cls-2" d="M484.53,323.91h0a.35.35,0,0,1-.5,0,.39.39,0,0,1,0-.53.35.35,0,0,1,.5,0,.41.41,0,0,1,0,.53Z"/><path class="cls-2" d="M500.14,347.35h0a.2.2,0,0,1-.31,0,.24.24,0,0,1,0-.33.2.2,0,0,1,.31,0,.24.24,0,0,1,0,.33Z"/><path class="cls-2" d="M501.24,294.57h0a.85.85,0,0,1-1.24,0,1,1,0,0,1,0-1.32.85.85,0,0,1,1.24,0,1,1,0,0,1,0,1.32Z"/><path class="cls-2" d="M464.17,266.66h0a.33.33,0,0,1-.5,0,.4.4,0,0,1,0-.52.33.33,0,0,1,.5,0,.37.37,0,0,1,0,.52Z"/><path class="cls-2" d="M468.16,273.69h0a.35.35,0,0,1-.5,0,.39.39,0,0,1,0-.53.33.33,0,0,1,.5,0,.41.41,0,0,1,0,.53Z"/><path class="cls-2" d="M493,360.89h0a.22.22,0,0,1-.32,0,.25.25,0,0,1,0-.34.22.22,0,0,1,.32,0,.27.27,0,0,1,0,.34Z"/><path class="cls-2" d="M452.33,328.6h0a.35.35,0,0,1-.5,0,.41.41,0,0,1,0-.53.33.33,0,0,1,.5,0,.39.39,0,0,1,0,.53Z"/><path class="cls-2" d="M475.47,351.24h0a.55.55,0,0,1-.8,0,.63.63,0,0,1,0-.85.55.55,0,0,1,.8,0,.63.63,0,0,1,0,.85Z"/><path class="cls-2" d="M457,280.84h0a.33.33,0,0,1-.5,0,.39.39,0,0,1,0-.53.35.35,0,0,1,.5,0,.41.41,0,0,1,0,.53Z"/><path class="cls-2" d="M509.37,328.43h0a.32.32,0,0,1-.49,0,.39.39,0,0,1,0-.53.34.34,0,0,1,.49,0,.39.39,0,0,1,0,.53Z"/><path class="cls-2" d="M465.63,292.66h0a.35.35,0,0,1-.5,0,.39.39,0,0,1,0-.53.35.35,0,0,1,.5,0,.41.41,0,0,1,0,.53Z"/><path class="cls-2" d="M496.52,266.53a.49.49,0,0,1-.6-.34.53.53,0,0,1,.33-.64.48.48,0,0,1,.6.35.52.52,0,0,1-.33.63Z"/><path class="cls-2" d="M500.31,274.72a.49.49,0,0,1-.6-.35.52.52,0,0,1,.33-.63.48.48,0,0,1,.6.35.52.52,0,0,1-.33.63Z"/><path class="cls-2" d="M514.93,306.08a.32.32,0,0,1-.4-.23.34.34,0,0,1,.22-.42.32.32,0,0,1,.4.23.36.36,0,0,1-.22.42Z"/><path class="cls-2" d="M524.8,319.51a.49.49,0,0,1-.6-.34.53.53,0,0,1,.33-.64.48.48,0,0,1,.6.35.52.52,0,0,1-.33.63Z"/><path class="cls-2" d="M522.7,307.52a.47.47,0,0,1-.59-.35.51.51,0,0,1,.33-.63.47.47,0,0,1,.59.35.51.51,0,0,1-.33.63Z"/><path class="cls-2" d="M515.9,265.19a1.3,1.3,0,0,1-1.6-.93,1.39,1.39,0,0,1,.88-1.69,1.29,1.29,0,0,1,1.6.93,1.4,1.4,0,0,1-.88,1.69Z"/><path class="cls-2" d="M529.79,307.71a.49.49,0,0,1-.6-.35.53.53,0,0,1,.33-.64.49.49,0,0,1,.6.35.53.53,0,0,1-.33.64Z"/><path class="cls-2" d="M507.83,220a.23.23,0,0,1-.28-.16.25.25,0,0,1,.16-.3.24.24,0,0,1,.28.17.25.25,0,0,1-.16.29Z"/><path class="cls-2" d="M540.58,301.16a.48.48,0,0,1-.6-.35.5.5,0,0,1,.33-.63.47.47,0,0,1,.59.35.51.51,0,0,1-.32.63Z"/><path class="cls-2" d="M516.85,221.71a.33.33,0,0,1-.42-.24.36.36,0,0,1,.23-.44.34.34,0,0,1,.42.24.36.36,0,0,1-.23.44Z"/><path class="cls-2" d="M547,307.73a.49.49,0,0,1-.6-.35.53.53,0,0,1,.33-.63.48.48,0,0,1,.6.35.5.5,0,0,1-.33.63Z"/><path class="cls-2" d="M519.57,227.14a.22.22,0,0,1-.28-.16.24.24,0,0,1,.15-.3.24.24,0,0,1,.13.46Z"/><path class="cls-2" d="M551.4,308.11a.49.49,0,0,1-.6-.35.53.53,0,0,1,.33-.64.49.49,0,0,1,.6.35.53.53,0,0,1-.33.64Z"/><path class="cls-2" d="M549.76,289.56a.47.47,0,0,1-.59-.35.5.5,0,0,1,.33-.63.47.47,0,0,1,.59.35.51.51,0,0,1-.33.63Z"/><path class="cls-2" d="M578.73,283.74a.49.49,0,0,1-.59-.35.52.52,0,0,1,.32-.64.48.48,0,0,1,.6.35.52.52,0,0,1-.33.64Z"/><path class="cls-2" d="M544.31,233a.46.46,0,0,1-.56-.33.48.48,0,0,1,.31-.59.44.44,0,0,1,.55.32.5.5,0,0,1-.3.6Z"/><path class="cls-2" d="M553.18,256.06a.65.65,0,0,1-.8-.47.7.7,0,0,1,.44-.84.65.65,0,0,1,.8.46.69.69,0,0,1-.44.85Z"/><path class="cls-2" d="M538,206.05a.23.23,0,0,1-.28-.16.25.25,0,0,1,.16-.3.23.23,0,0,1,.28.17.25.25,0,0,1-.16.29Z"/><path class="cls-2" d="M593.64,292.32a.47.47,0,0,1-.59-.35.53.53,0,0,1,.12-.5.75.75,0,0,1-.16-.29.7.7,0,0,1,.44-.85.65.65,0,0,1,.8.47.72.72,0,0,1-.31.79l0,.1a.51.51,0,0,1-.33.63Z"/><path class="cls-2" d="M436.57,277.13a.48.48,0,0,1-.6-.35.53.53,0,0,1,.33-.64.49.49,0,0,1,.6.35.53.53,0,0,1-.33.64Z"/><path class="cls-2" d="M556.5,216.7a.33.33,0,0,1-.4-.24.34.34,0,0,1,.22-.42.32.32,0,0,1,.4.23.36.36,0,0,1-.22.43Z"/><path class="cls-2" d="M588.36,249a1.45,1.45,0,0,1-1.8-1,1.57,1.57,0,0,1,1-1.91,1.45,1.45,0,0,1,1.79,1.05,1.56,1.56,0,0,1-1,1.9Z"/><path class="cls-2" d="M573.34,201.1a.33.33,0,0,1-.4-.24.34.34,0,0,1,.22-.42.32.32,0,0,1,.4.23.36.36,0,0,1-.22.43Z"/><path class="cls-2" d="M584.52,221.64a.48.48,0,0,1-.6-.35.51.51,0,0,1,.33-.63.49.49,0,0,1,.6.35.52.52,0,0,1-.33.63Z"/><path class="cls-2" d="M585.16,216.85a.49.49,0,0,1-.6-.35.52.52,0,0,1,.33-.63.48.48,0,0,1,.6.35.52.52,0,0,1-.33.63Z"/><path class="cls-2" d="M630.05,248.89a.6.6,0,0,1-.74-.44.64.64,0,0,1,.41-.79.61.61,0,0,1,.75.44.66.66,0,0,1-.42.79Z"/><path class="cls-2" d="M372.94,216.85a.49.49,0,0,1-.6-.35.53.53,0,0,1,.33-.64.49.49,0,0,1,.6.35.53.53,0,0,1-.33.64Z"/><path class="cls-2" d="M400.27,192.47a.49.49,0,0,1-.6-.34.53.53,0,0,1,.33-.64.48.48,0,0,1,.6.35.52.52,0,0,1-.33.63Z"/><path class="cls-2" d="M415.18,201.06a.49.49,0,0,1-.6-.35.53.53,0,0,1,.13-.5.64.64,0,0,1-.16-.29.7.7,0,0,1,.44-.85.64.64,0,0,1,.79.47.7.7,0,0,1-.31.79.3.3,0,0,1,0,.1.52.52,0,0,1-.33.63Z"/><path class="cls-2" d="M442.45,204.68a1.46,1.46,0,0,1-1.8-1.05,1.56,1.56,0,0,1,1-1.9,1.46,1.46,0,0,1,1.8,1.05,1.56,1.56,0,0,1-1,1.9Z"/><path class="cls-2" d="M349.26,27.61a.85.85,0,0,1,1.24,0,1,1,0,0,1,0,1.32.85.85,0,0,1-1.24,0,1,1,0,0,1,0-1.32Z"/><path class="cls-2" d="M447.22,86.33a.33.33,0,0,1,.5,0,.41.41,0,0,1,0,.53.35.35,0,0,1-.5,0,.39.39,0,0,1,0-.53Z"/><path class="cls-2" d="M385,39.75a.38.38,0,0,1,.1-.26l1-.8a.41.41,0,0,1,.25-.11.34.34,0,0,1,.25.11.37.37,0,0,1,.1.26.38.38,0,0,1-.1.27l-1,.8a.37.37,0,0,1-.25.1.35.35,0,0,1-.25-.1.43.43,0,0,1-.1-.27Z"/><path class="cls-2" d="M429.43,79.11a1.53,1.53,0,0,1,2.24,0,1.78,1.78,0,0,1,0,2.38,1.53,1.53,0,0,1-2.24,0,1.78,1.78,0,0,1,0-2.38Z"/><path class="cls-2" d="M277.11,2.6a.33.33,0,0,1,.5,0,.41.41,0,0,1,0,.53.35.35,0,0,1-.5,0,.39.39,0,0,1,0-.53Z"/><path class="cls-2" d="M369.05,33.54a.33.33,0,0,1,.5,0,.39.39,0,0,1,0,.53.35.35,0,0,1-.5,0,.41.41,0,0,1,0-.53Z"/><path class="cls-2" d="M290.68,30.8a1.36,1.36,0,0,1,2,0,1.58,1.58,0,0,1,0,2.11,1.36,1.36,0,0,1-2,0,1.58,1.58,0,0,1,0-2.11Z"/><path class="cls-2" d="M398,63.48a.5.5,0,0,1,.74,0,.57.57,0,0,1,0,.79.5.5,0,0,1-.74,0,.57.57,0,0,1,0-.79Z"/><path class="cls-2" d="M414.86,80.27a.68.68,0,0,1,1,0,.79.79,0,0,1,0,1.06.68.68,0,0,1-1,0,.79.79,0,0,1,0-1.06Z"/><path class="cls-2" d="M402.32,69.94a.69.69,0,0,1,1,0,.79.79,0,0,1,0,1.06.67.67,0,0,1-1,0,.77.77,0,0,1,0-1.06Z"/><path class="cls-2" d="M392.08,62.9a.67.67,0,0,1,1,0,.79.79,0,0,1,0,1.06.67.67,0,0,1-1,0,.77.77,0,0,1,0-1.06Z"/><path class="cls-2" d="M257.08,12a1.55,1.55,0,0,1,2.24,0,1.78,1.78,0,0,1,0,2.38,1.53,1.53,0,0,1-2.24,0,1.78,1.78,0,0,1,0-2.38Z"/><path class="cls-2" d="M367.06,46.32a.68.68,0,0,1,1,0,.79.79,0,0,1,0,1.06.68.68,0,0,1-1,0,.79.79,0,0,1,0-1.06Z"/><path class="cls-2" d="M434.21,106.79a.33.33,0,0,1,.5,0,.37.37,0,0,1,0,.52.33.33,0,0,1-.5,0,.4.4,0,0,1,0-.52Z"/><path class="cls-2" d="M300.89,50.32a.34.34,0,0,1,.49,0,.39.39,0,0,1,0,.53.32.32,0,0,1-.49,0,.39.39,0,0,1,0-.53Z"/><path class="cls-2" d="M377.24,62.1a.33.33,0,0,1,.5,0,.41.41,0,0,1,0,.53.35.35,0,0,1-.5,0,.39.39,0,0,1,0-.53Z"/><path class="cls-2" d="M409.73,91.89a.69.69,0,0,1,1,0,.77.77,0,0,1,0,1.06.67.67,0,0,1-1,0,.78.78,0,0,1,0-1.06Z"/><path class="cls-2" d="M400.43,84.06a.35.35,0,0,1,.5,0,.39.39,0,0,1,0,.53.33.33,0,0,1-.5,0,.41.41,0,0,1,0-.53Z"/><path class="cls-2" d="M393.79,81.69a.68.68,0,0,1,1,0,.78.78,0,0,1,.18.74.57.57,0,0,1-.16.41.49.49,0,0,1-.58.12.68.68,0,0,1-.44-.21.79.79,0,0,1,0-1.06Z"/><path class="cls-2" d="M244.44,15.81a.22.22,0,0,1,.32,0,.25.25,0,0,1,0,.34.22.22,0,0,1-.32,0,.25.25,0,0,1,0-.34Z"/><path class="cls-2" d="M399.82,94.75a.51.51,0,0,1,.75,0,.57.57,0,0,1,0,.79.53.53,0,0,1-.75,0,.6.6,0,0,1,0-.79Z"/><path class="cls-2" d="M394.12,94.71a.35.35,0,0,1,.5,0,.41.41,0,0,1,0,.53.33.33,0,0,1-.5,0,.39.39,0,0,1,0-.53Z"/><path class="cls-2" d="M369.56,78.14a.51.51,0,0,1,.75,0,.6.6,0,0,1,0,.79.51.51,0,0,1-.75,0,.6.6,0,0,1,0-.79Z"/><path class="cls-2" d="M400.94,106.94a.35.35,0,0,1,.5,0,.41.41,0,0,1,0,.53.35.35,0,0,1-.5,0,.39.39,0,0,1,0-.53Z"/><path class="cls-2" d="M380.55,94.56a.53.53,0,0,1,.75,0,.61.61,0,0,1,0,.8.53.53,0,0,1-.75,0,.61.61,0,0,1,0-.8Z"/><path class="cls-2" d="M343.68,63.64a.33.33,0,0,1,.5,0,.39.39,0,0,1,0,.53.35.35,0,0,1-.5,0,.41.41,0,0,1,0-.53Z"/><path class="cls-2" d="M245.23,37.09a.22.22,0,0,1,.32,0,.27.27,0,0,1,0,.34.22.22,0,0,1-.32,0,.25.25,0,0,1,0-.34Z"/><path class="cls-2" d="M356.74,76.87a.32.32,0,0,1,.49,0,.39.39,0,0,1,0,.53.34.34,0,0,1-.49,0,.39.39,0,0,1,0-.53Z"/><path class="cls-2" d="M405.14,119.57a.33.33,0,0,1,.5,0,.41.41,0,0,1,0,.53.35.35,0,0,1-.5,0,.39.39,0,0,1,0-.53Z"/><path class="cls-2" d="M384.55,105.88a.53.53,0,0,1,.75,0,.6.6,0,0,1,0,.79.51.51,0,0,1-.75,0,.6.6,0,0,1,0-.79Z"/><path class="cls-2" d="M376.18,99a.51.51,0,0,1,.75,0,.6.6,0,0,1,0,.79.51.51,0,0,1-.75,0,.6.6,0,0,1,0-.79Z"/><path class="cls-2" d="M379.73,103.78a.35.35,0,0,1,.5,0,.39.39,0,0,1,0,.53.33.33,0,0,1-.5,0,.41.41,0,0,1,0-.53Z"/><path class="cls-2" d="M188.6,6.4a1.26,1.26,0,0,1,1.82,0,1.43,1.43,0,0,1,0,1.93,1.24,1.24,0,0,1-1.82,0,1.45,1.45,0,0,1,0-1.93Z"/><path class="cls-2" d="M226.16,38.42a.22.22,0,0,1,.32,0,.25.25,0,0,1,0,.34.22.22,0,0,1-.32,0,.25.25,0,0,1,0-.34Z"/><path class="cls-2" d="M360.13,98.36a.51.51,0,0,1,.75,0,.6.6,0,0,1,0,.79.51.51,0,0,1-.75,0,.6.6,0,0,1,0-.79Z"/><path class="cls-2" d="M367.53,107.59a.53.53,0,0,1,.75,0,.6.6,0,0,1,0,.79.51.51,0,0,1-.75,0,.6.6,0,0,1,0-.79Z"/><path class="cls-2" d="M345.88,93.21a.34.34,0,0,1,.3-.1.22.22,0,0,1,.05-.08.33.33,0,0,1,.5,0,.37.37,0,0,1,0,.52.35.35,0,0,1-.3.11.33.33,0,0,1-.55.08.39.39,0,0,1,0-.53Z"/><path class="cls-2" d="M217.33,40.64a.34.34,0,0,1,.48,0,.38.38,0,0,1,0,.51.33.33,0,0,1-.48,0,.38.38,0,0,1,0-.51Z"/><path class="cls-2" d="M354.82,107.26a.58.58,0,0,1,.2-.77l1.29-.85a.52.52,0,0,1,.64.1.44.44,0,0,1,.08.11.6.6,0,0,1-.19.77l-1.3.85a.5.5,0,0,1-.64-.1.44.44,0,0,1-.08-.11Z"/><path class="cls-2" d="M211.84,37a.21.21,0,0,1,.32,0,.24.24,0,0,1,0,.33.21.21,0,0,1-.32,0,.26.26,0,0,1,0-.33Z"/><path class="cls-2" d="M239.52,62.27a.21.21,0,0,1,.32,0,.27.27,0,0,1,0,.34.22.22,0,0,1-.32,0,.25.25,0,0,1,0-.34Z"/><path class="cls-2" d="M369.14,119.08a.33.33,0,0,1,.5,0,.37.37,0,0,1,.07.41.35.35,0,0,1,.19.1.39.39,0,0,1,0,.53.32.32,0,0,1-.49,0,.39.39,0,0,1-.08-.41.41.41,0,0,1-.19-.11.4.4,0,0,1,0-.52Z"/><path class="cls-2" d="M264.55,86.47a.33.33,0,0,1,.5,0,.39.39,0,0,1,0,.53.35.35,0,0,1-.5,0,.41.41,0,0,1,0-.53Z"/><path class="cls-2" d="M236.89,73.24a.22.22,0,0,1,.32,0,.25.25,0,0,1,0,.34.22.22,0,0,1-.32,0,.27.27,0,0,1,0-.34Z"/><path class="cls-2" d="M299.23,72.21a.86.86,0,0,1,1.25,0,1,1,0,0,1,0,1.32.86.86,0,0,1-1.25,0,1,1,0,0,1,0-1.32Z"/><path class="cls-2" d="M332,103.73a.35.35,0,0,1,.5,0,.39.39,0,0,1,0,.53.33.33,0,0,1-.5,0,.41.41,0,0,1,0-.53Z"/><path class="cls-2" d="M323.77,100.35a.34.34,0,0,1,.49,0,.39.39,0,0,1,0,.53.35.35,0,0,1-.5,0,.4.4,0,0,1,0-.53Z"/><path class="cls-2" d="M186.88,42a.43.43,0,0,1,.64,0,.5.5,0,0,1,0,.67.43.43,0,0,1-.64,0,.5.5,0,0,1,0-.67Z"/><path class="cls-2" d="M166,25.41a.63.63,0,0,1,.91,0,.72.72,0,0,1,0,1,.63.63,0,0,1-.91,0,.72.72,0,0,1,0-1Z"/><path class="cls-2" d="M335.72,113.11a.5.5,0,0,1,.74,0,.57.57,0,0,1,0,.79.51.51,0,0,1-.74,0,.57.57,0,0,1,0-.79Z"/><path class="cls-2" d="M207.7,63a.22.22,0,0,1,.32,0,.25.25,0,0,1,0,.34.22.22,0,0,1-.32,0,.27.27,0,0,1,0-.34Z"/><path class="cls-2" d="M220.94,79.33a.22.22,0,0,1,.32,0,.25.25,0,0,1,0,.34.22.22,0,0,1-.32,0,.25.25,0,0,1,0-.34Z"/><path class="cls-2" d="M259,113.78a.33.33,0,0,1,.5,0,.41.41,0,0,1,0,.53.35.35,0,0,1-.5,0,.39.39,0,0,1,0-.53Z"/><path class="cls-2" d="M232.38,94.12a.54.54,0,0,1,.79,0,.62.62,0,0,1,0,.84.52.52,0,0,1-.79,0,.62.62,0,0,1,0-.84Z"/><path class="cls-2" d="M325.89,119.28a.53.53,0,0,1,.75,0,.6.6,0,0,1,0,.79.51.51,0,0,1-.75,0,.57.57,0,0,1,0-.79Z"/><path class="cls-2" d="M315.33,109.85a.32.32,0,0,1,.49,0,.37.37,0,0,1,0,.52.32.32,0,0,1-.49,0,.37.37,0,0,1,0-.52Z"/><path class="cls-2" d="M330.4,124.79a.35.35,0,0,1,.5,0,.41.41,0,0,1,0,.53.35.35,0,0,1-.5,0,.39.39,0,0,1,0-.53Z"/><path class="cls-2" d="M259.22,65.39a.35.35,0,0,1,.5,0,.39.39,0,0,1,0,.53.35.35,0,0,1-.5,0,.41.41,0,0,1,0-.53Z"/><path class="cls-2" d="M301.4,102.5a.34.34,0,0,1,.49,0,.39.39,0,0,1,0,.53.34.34,0,0,1-.49,0,.39.39,0,0,1,0-.53Z"/><path class="cls-2" d="M185.43,61.25a.32.32,0,0,1,.46,0,.37.37,0,0,1,0,.48.3.3,0,0,1-.46,0,.36.36,0,0,1,0-.48Z"/><path class="cls-2" d="M385.42,185.64h0a.23.23,0,0,1,.28-.17.24.24,0,0,1,.15.3.22.22,0,0,1-.28.16.24.24,0,0,1-.15-.29Z"/><path class="cls-2" d="M408.67,169.26h0a.23.23,0,0,1,.28-.17.25.25,0,0,1,.16.3.23.23,0,0,1-.28.16.25.25,0,0,1-.16-.29Z"/><path class="cls-2" d="M445.76,176.18h0a.35.35,0,0,1,.44-.25.37.37,0,0,1,.23.46.35.35,0,0,1-.43.26.39.39,0,0,1-.24-.47Z"/><path class="cls-2" d="M418.74,162h0a.23.23,0,0,1,.28-.17.25.25,0,0,1,.16.3.22.22,0,0,1-.28.16.24.24,0,0,1-.16-.29Z"/><path class="cls-2" d="M447.83,208.76h0a.88.88,0,0,1,1.09-.64,1,1,0,0,1,.6,1.16.89.89,0,0,1-1.09.64,1,1,0,0,1-.6-1.16Z"/><path class="cls-2" d="M296.24,167.93h0a.45.45,0,0,1,.56-.32.48.48,0,0,1,.31.59.44.44,0,0,1-.56.32.49.49,0,0,1-.31-.59Z"/><path class="cls-2" d="M327.93,173.32h0a.22.22,0,0,1,.28-.16.23.23,0,0,1,.15.29.21.21,0,0,1-.27.16.24.24,0,0,1-.16-.29Z"/><path class="cls-2" d="M390.5,235.68h0a.49.49,0,0,1,.6-.35.51.51,0,0,1,.33.63.48.48,0,0,1-.6.35.52.52,0,0,1-.33-.63Z"/><path class="cls-2" d="M380.5,223.06h0a.49.49,0,0,1,.6-.35l.09,0a.63.63,0,0,1,.75-.33.71.71,0,0,1,.44.84.65.65,0,0,1-.8.47.55.55,0,0,1-.27-.17.48.48,0,0,1-.48.13.53.53,0,0,1-.33-.63Z"/><path class="cls-2" d="M351.18,175.29h0a.22.22,0,0,1,.28-.16.24.24,0,0,1,.15.29.22.22,0,0,1-.28.16.23.23,0,0,1-.15-.29Z"/><path class="cls-2" d="M471.31,158.91h0a.35.35,0,0,1,.43-.25.37.37,0,0,1,.24.46.35.35,0,0,1-.43.26.38.38,0,0,1-.24-.47Z"/><path class="cls-2" d="M438.19,148.55h0a.55.55,0,0,1,.69-.4.61.61,0,0,1,.39.74.56.56,0,0,1-.7.4.59.59,0,0,1-.38-.74Z"/><path class="cls-2" d="M421.42,182.38h0a.34.34,0,0,1,.44-.25.38.38,0,0,1,.24.46.36.36,0,0,1-.44.25.37.37,0,0,1-.24-.46Z"/><path class="cls-2" d="M480.08,195.84h0a.35.35,0,0,1,.43-.26.37.37,0,0,1,.24.46.34.34,0,0,1-.43.26.37.37,0,0,1-.24-.46Z"/><path class="cls-2" d="M315.41,157.6h0a.32.32,0,0,1,.4-.23.36.36,0,0,1,.22.42.33.33,0,0,1-.4.23.34.34,0,0,1-.22-.42Z"/><path class="cls-2" d="M222.25,102.89h0a1.45,1.45,0,0,1,1.8-1,1.56,1.56,0,0,1,1,1.9,1.46,1.46,0,0,1-1.8,1,1.57,1.57,0,0,1-1-1.91Z"/><path class="cls-2" d="M277.6,130.51h0a1.46,1.46,0,0,1,1.8-1,1.58,1.58,0,0,1,1,1.91,1.44,1.44,0,0,1-1.79,1,1.56,1.56,0,0,1-1-1.9Z"/><path class="cls-2" d="M333.8,143.31h0a.32.32,0,0,1,.39-.23.34.34,0,0,1,.22.42.32.32,0,0,1-.39.24.36.36,0,0,1-.22-.43Z"/><path class="cls-2" d="M309.61,133.82h0a.49.49,0,0,1,.6-.35.53.53,0,0,1,.33.64.48.48,0,0,1-.6.35.53.53,0,0,1-.33-.64Z"/><path class="cls-2" d="M315.26,133.28h0a.49.49,0,0,1,.6-.35.52.52,0,0,1,.33.63.48.48,0,0,1-.6.35.52.52,0,0,1-.33-.63Z"/><path class="cls-2" d="M277.52,95.19h0a.6.6,0,0,1,.75-.44.67.67,0,0,1,.41.8.6.6,0,0,1-.75.43.65.65,0,0,1-.41-.79Z"/><path class="cls-2" d="M559,141h0a.51.51,0,0,1-.74,0,.59.59,0,0,1,0-.8.51.51,0,0,1,.74,0,.59.59,0,0,1,0,.8Z"/><path class="cls-2" d="M565.15,153.07h0a.35.35,0,0,1-.5,0,.4.4,0,0,1,0-.53l.07-.06a.42.42,0,0,1,.1-.32.35.35,0,0,1,.5,0,.41.41,0,0,1,0,.53.21.21,0,0,1-.08.06.38.38,0,0,1-.1.32Z"/><path class="cls-2" d="M552.72,164.77h0a.34.34,0,0,1-.49,0,.39.39,0,0,1,0-.53.35.35,0,0,1,.5,0,.4.4,0,0,1,0,.53Z"/><path class="cls-2" d="M556.71,171.79h0a.35.35,0,0,1-.5,0,.41.41,0,0,1,0-.53.35.35,0,0,1,.5,0,.39.39,0,0,1,0,.53Z"/><path class="cls-2" d="M541.65,161.68h0a.53.53,0,0,1-.75,0,.57.57,0,0,1,0-.79.51.51,0,0,1,.75,0,.6.6,0,0,1,0,.79Z"/><path class="cls-2" d="M661.38,84.56a.21.21,0,0,1-.27-.16.23.23,0,0,1,.15-.29.22.22,0,0,1,.28.16.24.24,0,0,1-.16.29Z"/><path class="cls-2" d="M680.7,64.84a.22.22,0,0,1-.28-.16.24.24,0,0,1,.15-.3.22.22,0,0,1,.28.16.26.26,0,0,1-.15.3Z"/><path class="cls-2" d="M672.52,33.41a.36.36,0,0,1-.44-.26.39.39,0,0,1,.24-.46.35.35,0,0,1,.44.25.4.4,0,0,1-.24.47Z"/><path class="cls-2" d="M689.23,56.3a.23.23,0,0,1-.28-.17.24.24,0,0,1,.15-.29.22.22,0,0,1,.28.16.24.24,0,0,1-.15.3Z"/><path class="cls-2" d="M634.08,31.76a.88.88,0,0,1-1.09-.63,1,1,0,0,1,.6-1.16.89.89,0,0,1,1.09.64,1,1,0,0,1-.6,1.15Z"/><path class="cls-2" d="M546.34,104.09a.49.49,0,0,1-.6-.35.52.52,0,0,1,.33-.63.48.48,0,0,1,.6.34.53.53,0,0,1-.33.64Z"/><path class="cls-2" d="M553.43,104.27a.48.48,0,0,1-.6-.34.52.52,0,0,1,.33-.64.49.49,0,0,1,.6.35.52.52,0,0,1-.33.63Z"/><path class="cls-2" d="M564.21,97.73a.49.49,0,0,1-.6-.35.53.53,0,0,1,.33-.64.49.49,0,0,1,.6.35.53.53,0,0,1-.33.64Z"/><path class="cls-2" d="M570.62,104.3a.48.48,0,0,1-.6-.35.52.52,0,0,1,.33-.63.48.48,0,0,1,.6.35.52.52,0,0,1-.33.63Z"/><path class="cls-2" d="M575,104.68a.49.49,0,0,1-.6-.35.53.53,0,0,1,.33-.64.49.49,0,0,1,.6.35.53.53,0,0,1-.33.64Z"/><path class="cls-2" d="M490.33,115.12a.49.49,0,0,1-.6-.35.53.53,0,0,1,.33-.64.49.49,0,0,1,.6.35.53.53,0,0,1-.33.64Z"/><path class="cls-2" d="M573.4,86.13a.49.49,0,0,1-.6-.35.52.52,0,0,1,.33-.63.48.48,0,0,1,.6.34.53.53,0,0,1-.33.64Z"/><path class="cls-2" d="M602.37,80.3a.49.49,0,0,1-.6-.35.53.53,0,0,1,.33-.63.48.48,0,0,1,.6.35.52.52,0,0,1-.33.63Z"/><path class="cls-2" d="M706.67,57.48a.22.22,0,0,1-.28-.16.23.23,0,0,1,.15-.29.22.22,0,0,1,.28.16.25.25,0,0,1-.15.29Z"/><path class="cls-2" d="M692.88,11.74a.36.36,0,0,1-.44-.26.39.39,0,0,1,.24-.46.36.36,0,0,1,.44.25.4.4,0,0,1-.24.47Z"/><path class="cls-2" d="M705.08,39.87a.56.56,0,0,1-.7-.4.6.6,0,0,1,.38-.74.56.56,0,0,1,.7.4.6.6,0,0,1-.38.74Z"/><path class="cls-2" d="M14.09,258.14h0a.85.85,0,0,1-1.24,0,1,1,0,0,1,0-1.32.85.85,0,0,1,1.24,0,1,1,0,0,1,0,1.32Z"/><path class="cls-2" d="M13.52,259h0a.33.33,0,0,1-.5,0,.4.4,0,0,1,0-.52.33.33,0,0,1,.5,0,.37.37,0,0,1,0,.52Z"/><path class="cls-2" d="M25.71,297.56h0a.33.33,0,0,1-.5,0,.39.39,0,0,1,0-.53.35.35,0,0,1,.5,0,.41.41,0,0,1,0,.53Z"/><path class="cls-2" d="M.6,278.58h0a.35.35,0,0,1-.5,0,.41.41,0,0,1,0-.53.35.35,0,0,1,.5,0,.39.39,0,0,1,0,.53Z"/><path class="cls-2" d="M15.3,291.05h0a.35.35,0,0,1-.5,0,.41.41,0,0,1,0-.53.33.33,0,0,1,.5,0,.39.39,0,0,1,0,.53Z"/><path class="cls-2" d="M15.89,316.46h0a.35.35,0,0,1-.5,0,.39.39,0,0,1,0-.53.35.35,0,0,1,.5,0,.41.41,0,0,1,0,.53Z"/><path class="cls-2" d="M7.58,320.19h0a.67.67,0,0,1-1,0,.77.77,0,0,1,0-1.06.67.67,0,0,1,1,0,.79.79,0,0,1,0,1.06Z"/><path class="cls-2" d="M8,242.05a.22.22,0,0,1-.27-.16.24.24,0,0,1,.15-.3.23.23,0,0,1,.28.17.25.25,0,0,1-.16.29Z"/><path class="cls-2" d="M6.43,224.44a.56.56,0,0,1-.7-.41.61.61,0,0,1,.38-.74.57.57,0,0,1,.7.41.61.61,0,0,1-.38.74Z"/><path class="cls-2" d="M665.21,54.05a.34.34,0,0,1-.43-.25.36.36,0,0,1,.24-.46.34.34,0,0,1,.43.25.36.36,0,0,1-.24.46Z"/><path class="cls-2" d="M649.35,4.3a.36.36,0,0,1-.44-.26.39.39,0,0,1,.24-.46.35.35,0,0,1,.44.25.4.4,0,0,1-.24.47Z"/><path class="cls-2" d="M584.11,2.28h0a.46.46,0,0,1-.68,0,.54.54,0,0,1,0-.73.48.48,0,0,1,.68,0,.54.54,0,0,1,0,.73Z"/><path class="cls-2" d="M590.74,9h0a.46.46,0,0,1-.68,0,.53.53,0,0,1,0-.72.46.46,0,0,1,.68,0,.53.53,0,0,1,0,.72Z"/><path class="cls-2" d="M573.21,16.07h0a1.24,1.24,0,0,1-1.82,0,1.43,1.43,0,0,1,0-1.93,1.26,1.26,0,0,1,1.82,0,1.43,1.43,0,0,1,0,1.93Z"/><path class="cls-2" d="M532.37.41h0a.22.22,0,0,1-.32,0,.25.25,0,0,1,0-.34.22.22,0,0,1,.32,0,.25.25,0,0,1,0,.34Z"/><path class="cls-2" d="M582.23,53h0a.48.48,0,0,1-.68,0,.54.54,0,0,1,0-.73.46.46,0,0,1,.68,0,.54.54,0,0,1,0,.73Z"/><path class="cls-2" d="M546,39.35h0a.63.63,0,0,1-.91,0,.72.72,0,0,1,0-1,.63.63,0,0,1,.91,0,.72.72,0,0,1,0,1Z"/><path class="cls-2" d="M501.71,3.92h0a.22.22,0,0,1-.32,0,.25.25,0,0,1,0-.34.22.22,0,0,1,.32,0,.25.25,0,0,1,0,.34Z"/><path class="cls-2" d="M481.61,4.35a.57.57,0,0,1,.2-.76l1.3-.85a.48.48,0,0,1,.63.1l.09.11a.59.59,0,0,1-.2.76l-1.3.85a.5.5,0,0,1-.72-.21Z"/><path class="cls-2" d="M458.83.83a.35.35,0,0,1,.5,0,.39.39,0,0,1,0,.53.35.35,0,0,1-.5,0,.41.41,0,0,1,0-.53Z"/><path class="cls-2" d="M462.51,10.2a.53.53,0,0,1,.75,0,.6.6,0,0,1,0,.79.51.51,0,0,1-.75,0,.57.57,0,0,1,0-.79Z"/><path class="cls-2" d="M530.42,6.27h0a.48.48,0,0,1,.6-.35.53.53,0,0,1,.33.64.49.49,0,0,1-.6.35.53.53,0,0,1-.33-.64Z"/><path class="cls-2" d="M517.42,53.78h0a.49.49,0,0,1,.6-.34.51.51,0,0,1,.33.63.48.48,0,0,1-.6.35.53.53,0,0,1-.33-.64Z"/><path class="cls-2" d="M35.14,11.34h0a.51.51,0,0,1,.75,0,.58.58,0,0,1,0,.79.51.51,0,0,1-.75,0,.6.6,0,0,1,0-.79Z"/><path class="cls-2" d="M45.38,6.68h0l.11.08a.61.61,0,0,1,.09.68l-.81,1.38a.53.53,0,0,1-.72.21l-.11-.09a.59.59,0,0,1-.09-.68l.81-1.37a.51.51,0,0,1,.72-.21Z"/><path class="cls-2" d="M23.56,48a.49.49,0,0,1,.6.35.53.53,0,0,1-.33.64.48.48,0,0,1-.6-.35.52.52,0,0,1,.33-.64Z"/><path class="cls-2" d="M19.14,47.63a.49.49,0,0,1,.6.35.52.52,0,0,1-.33.63.48.48,0,0,1-.6-.34.53.53,0,0,1,.33-.64Z"/><path class="cls-2" d="M103.85,37.19a.49.49,0,0,1,.6.35.52.52,0,0,1-.33.63.48.48,0,0,1-.6-.34.53.53,0,0,1,.33-.64Z"/><path class="cls-2" d="M10.07,150h0a.46.46,0,0,1,.68,0,.53.53,0,0,1,0,.72.46.46,0,0,1-.68,0,.53.53,0,0,1,0-.72Z"/><path class="cls-2" d="M3.44,143.27h0a.46.46,0,0,1,.68,0,.53.53,0,0,1,0,.72.46.46,0,0,1-.68,0,.53.53,0,0,1,0-.72Z"/><path class="cls-2" d="M61.92,180.22h0a.22.22,0,0,1,.32,0,.27.27,0,0,1,0,.34.22.22,0,0,1-.32,0,.25.25,0,0,1,0-.34Z"/><path class="cls-2" d="M63.49,164h0a.22.22,0,0,1,.32,0,.27.27,0,0,1,0,.34.22.22,0,0,1-.32,0,.25.25,0,0,1,0-.34Z"/><path class="cls-2" d="M66.13,156.53h0a.33.33,0,0,1,.48,0,.38.38,0,0,1,0,.51.33.33,0,0,1-.48,0,.38.38,0,0,1,0-.51Z"/><path class="cls-2" d="M61.81,151.9h0a.22.22,0,0,1,.32,0,.27.27,0,0,1,0,.34.22.22,0,0,1-.32,0,.25.25,0,0,1,0-.34Z"/><path class="cls-2" d="M91.6,175.37h0a.22.22,0,0,1,.32,0,.25.25,0,0,1,0,.34.22.22,0,0,1-.32,0,.25.25,0,0,1,0-.34Z"/><path class="cls-2" d="M104.54,173.15h0a.21.21,0,0,1,.31,0,.25.25,0,0,1,0,.34.21.21,0,0,1-.31,0,.25.25,0,0,1,0-.34Z"/><path class="cls-2" d="M92.47,148.39h0a.21.21,0,0,1,.32,0,.26.26,0,0,1,0,.33.21.21,0,0,1-.32,0,.24.24,0,0,1,0-.33Z"/><path class="cls-2" d="M111.71,159.62h0a.21.21,0,0,1,.32,0,.24.24,0,0,1,0,.33.21.21,0,0,1-.32,0,.26.26,0,0,1,0-.33Z"/><path class="cls-2" d="M95.31,192.07h0a.34.34,0,0,1,.49,0,.39.39,0,0,1,0,.53.34.34,0,0,1-.49,0,.39.39,0,0,1,0-.53Z"/><path class="cls-2" d="M53.28,212.39a.49.49,0,0,1,.6.35.53.53,0,0,1-.33.64A.48.48,0,0,1,53,213a.53.53,0,0,1,.33-.64Z"/><path class="cls-2" d="M26,236.77a.47.47,0,0,1,.59.35.51.51,0,0,1-.32.63.48.48,0,0,1-.6-.35.5.5,0,0,1,.33-.63Z"/><path class="cls-2" d="M11,228.18a.47.47,0,0,1,.59.35.52.52,0,0,1-.12.5.75.75,0,0,1,.16.29.7.7,0,0,1-.44.85.65.65,0,0,1-.8-.47.72.72,0,0,1,.31-.79l0-.09a.52.52,0,0,1,.33-.64Z"/></g></g></g></svg>