<svg xmlns="http://www.w3.org/2000/svg" viewBox="0 0 1920 1010.53"><defs><style>.cls-1{fill:#333;}</style></defs><title>cadran-base</title><g id="Calque_2" data-name="Calque 2"><g id="Cockpit"><g id="Start"><g id="Cadran"><g id="cadran-base"><g id="Gauche_tableau_de_bord" data-name="Gauche tableau de bord"><path class="cls-1" d="M960,1010.53H0V910.71c128-16.36,256,19.64,384,3.27,71.41-9,152.93-28.67,241-67.09a996.35,996.35,0,0,0,103-52.36,596.47,596.47,0,0,1,113-49.09,526.68,526.68,0,0,1,119-22.91"/></g><path id="Droite_tableau_de_bord" data-name="Droite tableau de bord" class="cls-1" d="M960,1010.53h960V910.71c-128-16.36-256,19.64-384,3.27-71.41-9-152.93-28.67-241-67.09a996.35,996.35,0,0,1-103-52.36,596.47,596.47,0,0,0-113-49.09,526.68,526.68,0,0,0-119-22.91"/><path class="cls-1" d="M1920,379.35c-91.55-82.41-197.8-156.42-308.63-214.86-93.75-49.44-191.59-88.34-290.8-115.64A1361,1361,0,0,0,959.66,0H955A1361.94,1361.94,0,0,0,593.76,50.22a1449.31,1449.31,0,0,0-287.41,115.1C196.48,223.44,91,297,0,378.86v68L17,431C139.66,317,476.56,51.68,955.12,50h4.55c481.16,0,819.81,266.63,943.3,381.54l17,15.84Z"/></g></g></g></g></g></svg>