<svg xmlns="http://www.w3.org/2000/svg" xmlns:xlink="http://www.w3.org/1999/xlink" viewBox="0 0 1920 1080"><defs><style>.cls-1{fill:url(#Dégradé_sans_nom_14);}.cls-2{fill:url(#Dégradé_sans_nom_130);}.cls-3{fill:url(#Dégradé_sans_nom_130-2);}.cls-4{fill:url(#Dégradé_sans_nom_130-3);}.cls-5{fill:url(#Dégradé_sans_nom_130-4);}.cls-6{fill:url(#Dégradé_sans_nom_130-5);}.cls-7{fill:url(#Dégradé_sans_nom_130-6);}.cls-8{fill:url(#Dégradé_sans_nom_130-7);}.cls-9{fill:url(#Dégradé_sans_nom_130-8);}.cls-10{fill:url(#Dégradé_sans_nom_130-9);}.cls-11{fill:url(#Dégradé_sans_nom_130-10);}.cls-12{fill:url(#Dégradé_sans_nom_130-11);}.cls-13{fill:url(#Dégradé_sans_nom_130-12);}.cls-14{fill:url(#Dégradé_sans_nom_130-13);}.cls-15{fill:url(#Dégradé_sans_nom_130-14);}.cls-16{fill:url(#Dégradé_sans_nom_130-15);}.cls-17{fill:url(#Dégradé_sans_nom_130-16);}.cls-18{fill:url(#Dégradé_sans_nom_130-17);}.cls-19{fill:url(#Dégradé_sans_nom_130-18);}.cls-20{fill:url(#Dégradé_sans_nom_130-19);}.cls-21{fill:url(#Dégradé_sans_nom_130-20);}.cls-22{fill:url(#Dégradé_sans_nom_130-21);}.cls-23{fill:url(#Dégradé_sans_nom_130-22);}.cls-24{fill:url(#Dégradé_sans_nom_130-23);}.cls-25{fill:url(#Dégradé_sans_nom_130-24);}.cls-26{fill:url(#Dégradé_sans_nom_130-25);}.cls-27{fill:url(#Dégradé_sans_nom_130-26);}.cls-28{fill:url(#Dégradé_sans_nom_130-27);}.cls-29{fill:url(#Dégradé_sans_nom_130-28);}.cls-30{fill:url(#Dégradé_sans_nom_130-29);}.cls-31{fill:url(#Dégradé_sans_nom_130-30);}.cls-32{fill:url(#Dégradé_sans_nom_130-31);}.cls-33{fill:url(#Dégradé_sans_nom_130-32);}.cls-34{fill:url(#Dégradé_sans_nom_130-33);}.cls-35{fill:url(#Dégradé_sans_nom_130-34);}.cls-36{fill:url(#Dégradé_sans_nom_130-35);}.cls-37{fill:url(#Dégradé_sans_nom_130-36);}.cls-38{fill:url(#Dégradé_sans_nom_130-37);}.cls-39{fill:url(#Dégradé_sans_nom_130-38);}.cls-40{fill:url(#Dégradé_sans_nom_130-39);}</style><linearGradient id="Dégradé_sans_nom_14" x1="210" y1="1290" x2="1710" y2="-210" gradientUnits="userSpaceOnUse"><stop offset="0" stop-color="#6d3862"/><stop offset="1"/></linearGradient><radialGradient id="Dégradé_sans_nom_130" cx="-1102.35" cy="2582.81" r="6.01" gradientTransform="translate(3198.73 422.35) rotate(71.76)" gradientUnits="userSpaceOnUse"><stop offset="0" stop-color="#fff"/><stop offset="1" stop-color="#f9f8f8" stop-opacity="0.6"/></radialGradient><radialGradient id="Dégradé_sans_nom_130-2" cx="-1044.11" cy="2404.85" r="6.01" xlink:href="#Dégradé_sans_nom_130"/><radialGradient id="Dégradé_sans_nom_130-3" cx="-928.87" cy="2534.42" r="4.82" xlink:href="#Dégradé_sans_nom_130"/><radialGradient id="Dégradé_sans_nom_130-4" cx="-901.64" cy="2451.79" r="3.86" xlink:href="#Dégradé_sans_nom_130"/><radialGradient id="Dégradé_sans_nom_130-5" cx="-847.73" cy="2495.88" r="6.75" xlink:href="#Dégradé_sans_nom_130"/><radialGradient id="Dégradé_sans_nom_130-6" cx="-827.37" cy="1887.7" r="6.27" xlink:href="#Dégradé_sans_nom_130"/><radialGradient id="Dégradé_sans_nom_130-7" cx="-926.09" cy="2056.27" r="2.89" xlink:href="#Dégradé_sans_nom_130"/><radialGradient id="Dégradé_sans_nom_130-8" cx="-1100.59" cy="2765.57" r="9.65" xlink:href="#Dégradé_sans_nom_130"/><radialGradient id="Dégradé_sans_nom_130-9" cx="-1221.1" cy="2850.1" r="6.01" xlink:href="#Dégradé_sans_nom_130"/><radialGradient id="Dégradé_sans_nom_130-10" cx="-808.66" cy="2774.15" r="6.27" xlink:href="#Dégradé_sans_nom_130"/><radialGradient id="Dégradé_sans_nom_130-11" cx="-787.39" cy="1501.46" r="9.65" xlink:href="#Dégradé_sans_nom_130"/><radialGradient id="Dégradé_sans_nom_130-12" cx="-536.75" cy="1648.28" r="4.82" xlink:href="#Dégradé_sans_nom_130"/><radialGradient id="Dégradé_sans_nom_130-13" cx="-586.91" cy="1496.98" r="2.41" xlink:href="#Dégradé_sans_nom_130"/><radialGradient id="Dégradé_sans_nom_130-14" cx="-605.33" cy="1290.86" r="4.82" xlink:href="#Dégradé_sans_nom_130"/><radialGradient id="Dégradé_sans_nom_130-15" cx="-791.01" cy="1368.66" r="12.06" xlink:href="#Dégradé_sans_nom_130"/><radialGradient id="Dégradé_sans_nom_130-16" cx="-547.87" cy="1448.78" r="3.38" xlink:href="#Dégradé_sans_nom_130"/><radialGradient id="Dégradé_sans_nom_130-17" cx="-130.1" cy="1548.53" r="6.27" xlink:href="#Dégradé_sans_nom_130"/><radialGradient id="Dégradé_sans_nom_130-18" cx="-25.97" cy="1481.77" r="5.31" xlink:href="#Dégradé_sans_nom_130"/><radialGradient id="Dégradé_sans_nom_130-19" cx="-410.52" cy="1661.44" r="1.93" xlink:href="#Dégradé_sans_nom_130"/><radialGradient id="Dégradé_sans_nom_130-20" cx="-219.11" cy="1598.17" r="3.86" xlink:href="#Dégradé_sans_nom_130"/><radialGradient id="Dégradé_sans_nom_130-21" cx="-1158.94" cy="2627.5" r="6.01" xlink:href="#Dégradé_sans_nom_130"/><radialGradient id="Dégradé_sans_nom_130-22" cx="-831.62" cy="2634.28" r="6.01" gradientTransform="translate(1767.01 440.28) rotate(71.76) scale(0.48)" xlink:href="#Dégradé_sans_nom_130"/><radialGradient id="Dégradé_sans_nom_130-23" cx="-430.84" cy="2760.03" r="9.65" xlink:href="#Dégradé_sans_nom_130"/><radialGradient id="Dégradé_sans_nom_130-24" cx="-595" cy="1459.31" r="3.86" xlink:href="#Dégradé_sans_nom_130"/><radialGradient id="Dégradé_sans_nom_130-25" cx="-942.05" cy="1969.31" r="4.82" xlink:href="#Dégradé_sans_nom_130"/><radialGradient id="Dégradé_sans_nom_130-26" cx="-783.65" cy="2974.38" r="6.01" gradientTransform="translate(3086.22 429.19) rotate(71.76) scale(0.96)" xlink:href="#Dégradé_sans_nom_130"/><radialGradient id="Dégradé_sans_nom_130-27" cx="-718.58" cy="2995.82" r="5.01" gradientTransform="translate(3086.22 429.19) rotate(71.76) scale(0.96)" xlink:href="#Dégradé_sans_nom_130"/><radialGradient id="Dégradé_sans_nom_130-28" cx="469" cy="155" r="6.01" gradientTransform="matrix(1, 0, 0, 1, 0, 0)" xlink:href="#Dégradé_sans_nom_130"/><radialGradient id="Dégradé_sans_nom_130-29" cx="1185" cy="48" r="6.91" gradientTransform="matrix(1, 0, 0, 1, 0, 0)" xlink:href="#Dégradé_sans_nom_130"/><radialGradient id="Dégradé_sans_nom_130-30" cx="904" cy="60" r="7.9" gradientTransform="matrix(1, 0, 0, 1, 0, 0)" xlink:href="#Dégradé_sans_nom_130"/><radialGradient id="Dégradé_sans_nom_130-31" cx="1808" cy="570" r="2.96" gradientTransform="matrix(1, 0, 0, 1, 0, 0)" xlink:href="#Dégradé_sans_nom_130"/><radialGradient id="Dégradé_sans_nom_130-32" cx="1687" cy="668" r="3.95" gradientTransform="matrix(1, 0, 0, 1, 0, 0)" xlink:href="#Dégradé_sans_nom_130"/><radialGradient id="Dégradé_sans_nom_130-33" cx="1720" cy="288" r="3.95" gradientTransform="matrix(1, 0, 0, 1, 0, 0)" xlink:href="#Dégradé_sans_nom_130"/><radialGradient id="Dégradé_sans_nom_130-34" cx="1593" cy="599" r="4.94" gradientTransform="matrix(1, 0, 0, 1, 0, 0)" xlink:href="#Dégradé_sans_nom_130"/><radialGradient id="Dégradé_sans_nom_130-35" cx="195" cy="384" r="4.94" gradientTransform="matrix(1, 0, 0, 1, 0, 0)" xlink:href="#Dégradé_sans_nom_130"/><radialGradient id="Dégradé_sans_nom_130-36" cx="83" cy="787" r="1.97" gradientTransform="matrix(1, 0, 0, 1, 0, 0)" xlink:href="#Dégradé_sans_nom_130"/><radialGradient id="Dégradé_sans_nom_130-37" cx="166" cy="759" r="2.96" gradientTransform="matrix(1, 0, 0, 1, 0, 0)" xlink:href="#Dégradé_sans_nom_130"/><radialGradient id="Dégradé_sans_nom_130-38" cx="389" cy="927" r="1.97" gradientTransform="matrix(1, 0, 0, 1, 0, 0)" xlink:href="#Dégradé_sans_nom_130"/><radialGradient id="Dégradé_sans_nom_130-39" cx="228" cy="318" r="1.97" gradientTransform="matrix(1, 0, 0, 1, 0, 0)" xlink:href="#Dégradé_sans_nom_130"/></defs><title>fond-galactique</title><g id="Calque_2" data-name="Calque 2"><g id="Cockpit"><g id="Start"><g id="fond-galactique"><rect id="Fond_Galactique" data-name="Fond Galactique" class="cls-1" width="1920" height="1080"/><g id="Etoile"><polygon class="cls-2" points="394.44 183.76 397.51 178.34 403.74 178.29 406.9 183.65 403.83 189.07 397.61 189.13 394.44 183.76"/><polygon class="cls-3" points="581.69 183.38 584.76 177.96 590.99 177.91 594.15 183.27 591.08 188.69 584.85 188.75 581.69 183.38"/><polygon class="cls-4" points="495.92 333.37 498.38 329.02 503.38 328.98 505.92 333.28 503.46 337.63 498.46 337.68 495.92 333.37"/><polygon class="cls-5" points="583.92 333.36 585.89 329.88 589.89 329.85 591.92 333.29 589.95 336.77 585.95 336.81 583.92 333.36"/><polygon class="cls-6" points="555.92 398.39 559.37 392.3 566.37 392.23 569.92 398.26 566.47 404.36 559.47 404.42 555.92 398.39"/><polygon class="cls-7" points="1140.42 227.38 1143.62 221.73 1150.12 221.67 1153.42 227.27 1150.22 232.93 1143.72 232.99 1140.42 227.38"/><polygon class="cls-8" points="952.92 186.35 954.4 183.74 957.4 183.72 958.92 186.3 957.44 188.91 954.44 188.94 952.92 186.35"/><polygon class="cls-9" points="217.64 242.67 222.56 233.96 232.56 233.88 237.64 242.49 232.71 251.19 222.71 251.28 217.64 242.67"/><polygon class="cls-10" points="103.41 154.63 106.47 149.21 112.7 149.16 115.86 154.52 112.8 159.95 106.57 160 103.41 154.63"/><polygon class="cls-11" points="304.35 522.58 307.55 516.92 314.05 516.86 317.35 522.47 314.15 528.12 307.65 528.18 304.35 522.58"/><polygon class="cls-12" points="1516.27 144.51 1521.19 135.81 1531.19 135.72 1536.27 144.33 1531.34 153.04 1521.34 153.13 1516.27 144.51"/><polygon class="cls-13" points="1460.27 428.47 1462.73 424.11 1467.73 424.07 1470.27 428.38 1467.81 432.73 1462.81 432.77 1460.27 428.47"/><polygon class="cls-14" points="1590.77 333.44 1592 331.27 1594.5 331.25 1595.77 333.4 1594.54 335.58 1592.04 335.6 1590.77 333.44"/><polygon class="cls-15" points="1778.27 251.47 1780.73 247.11 1785.73 247.07 1788.27 251.38 1785.81 255.73 1780.81 255.78 1778.27 251.47"/><polygon class="cls-16" points="1638.77 99.53 1644.92 88.65 1657.42 88.54 1663.77 99.31 1657.61 110.19 1645.11 110.3 1638.77 99.53"/><polygon class="cls-17" points="1647.77 355.45 1649.49 352.41 1652.99 352.38 1654.77 355.39 1653.04 358.44 1649.54 358.47 1647.77 355.45"/><polygon class="cls-18" points="1680.77 783.48 1683.97 777.82 1690.47 777.76 1693.77 783.37 1690.57 789.02 1684.07 789.08 1680.77 783.48"/><polygon class="cls-19" points="1777.77 861.47 1780.47 856.68 1785.97 856.63 1788.77 861.37 1786.06 866.16 1780.56 866.21 1777.77 861.47"/><polygon class="cls-20" points="1490.27 552.44 1491.25 550.7 1493.25 550.68 1494.27 552.4 1493.28 554.14 1491.28 554.16 1490.27 552.44"/><polygon class="cls-21" points="1608.27 714.46 1610.24 710.98 1614.24 710.94 1616.27 714.39 1614.3 717.87 1610.3 717.9 1608.27 714.46"/><polygon class="cls-22" points="334.28 144 337.35 138.58 343.58 138.53 346.74 143.89 343.67 149.31 337.45 149.37 334.28 144"/><polygon class="cls-23" points="433.51 456.98 434.99 454.36 437.99 454.34 439.51 456.92 438.04 459.53 435.04 459.56 433.51 456.98"/><polygon class="cls-24" points="432.51 877.04 437.44 868.33 447.44 868.24 452.51 876.86 447.59 885.57 437.59 885.65 432.51 877.04"/><polygon class="cls-25" points="1622.51 313.99 1624.48 310.5 1628.48 310.47 1630.51 313.91 1628.54 317.39 1624.54 317.43 1622.51 313.99"/><polygon class="cls-26" points="1028.51 143.99 1030.97 139.64 1035.97 139.6 1038.51 143.91 1036.05 148.26 1031.05 148.3 1028.51 143.99"/><polygon class="cls-27" points="122.51 609 125.47 603.78 131.47 603.73 134.51 608.9 131.56 614.12 125.56 614.17 122.51 609"/><polygon class="cls-28" points="123.51 674.99 125.97 670.64 130.97 670.6 133.51 674.9 131.05 679.26 126.05 679.3 123.51 674.99"/><polygon class="cls-29" points="467.1 160.93 462.91 156.32 464.81 150.39 470.9 149.07 475.09 153.68 473.19 159.61 467.1 160.93"/><polygon class="cls-30" points="1182.82 54.82 1178 49.52 1180.18 42.7 1187.18 41.18 1192 46.48 1189.82 53.3 1182.82 54.82"/><polygon class="cls-31" points="901.51 67.8 896 61.74 898.49 53.94 906.49 52.2 912 58.26 909.51 66.06 901.51 67.8"/><polygon class="cls-32" points="1807.07 572.92 1805 570.65 1805.93 567.73 1808.93 567.08 1811 569.35 1810.07 572.27 1807.07 572.92"/><polygon class="cls-33" points="1685.75 671.9 1683 668.87 1684.25 664.97 1688.25 664.1 1691 667.13 1689.75 671.03 1685.75 671.9"/><polygon class="cls-34" points="1718.75 291.9 1716 288.87 1717.25 284.97 1721.25 284.1 1724 287.13 1722.75 291.03 1718.75 291.9"/><polygon class="cls-35" points="1591.44 603.87 1588 600.09 1589.56 595.21 1594.56 594.13 1598 597.91 1596.44 602.79 1591.44 603.87"/><polygon class="cls-36" points="193.44 388.87 190 385.09 191.56 380.21 196.56 379.13 200 382.91 198.44 387.79 193.44 388.87"/><polygon class="cls-37" points="82.38 788.95 81 787.43 81.62 785.49 83.62 785.05 85 786.57 84.38 788.51 82.38 788.95"/><polygon class="cls-38" points="165.06 761.92 163 759.65 163.94 756.73 166.94 756.08 169 758.35 168.06 761.27 165.06 761.92"/><polygon class="cls-39" points="388.38 928.95 387 927.43 387.62 925.49 389.62 925.05 391 926.57 390.38 928.51 388.38 928.95"/><polygon class="cls-40" points="227.38 319.95 226 318.44 226.62 316.49 228.62 316.05 230 317.56 229.38 319.51 227.38 319.95"/></g></g></g></g></g></svg>