<svg xmlns="http://www.w3.org/2000/svg" xmlns:xlink="http://www.w3.org/1999/xlink" viewBox="0 0 1920 1080"><defs><style>.cls-1{fill:url(#Dégradé_sans_nom_14);}.cls-2{fill:url(#Dégradé_sans_nom_130);}.cls-3{fill:url(#Dégradé_sans_nom_130-2);}.cls-4{fill:url(#Dégradé_sans_nom_130-3);}.cls-5{fill:url(#Dégradé_sans_nom_130-4);}.cls-6{fill:url(#Dégradé_sans_nom_130-5);}.cls-7{fill:url(#Dégradé_sans_nom_130-6);}.cls-8{fill:url(#Dégradé_sans_nom_130-7);}.cls-9{fill:url(#Dégradé_sans_nom_130-8);}.cls-10{fill:url(#Dégradé_sans_nom_130-9);}.cls-11{fill:url(#Dégradé_sans_nom_130-10);}.cls-12{fill:url(#Dégradé_sans_nom_130-11);}.cls-13{fill:url(#Dégradé_sans_nom_130-12);}.cls-14{fill:url(#Dégradé_sans_nom_130-13);}.cls-15{fill:url(#Dégradé_sans_nom_130-14);}.cls-16{fill:url(#Dégradé_sans_nom_130-15);}.cls-17{fill:url(#Dégradé_sans_nom_130-16);}.cls-18{fill:url(#Dégradé_sans_nom_130-17);}.cls-19{fill:url(#Dégradé_sans_nom_130-18);}.cls-20{fill:url(#Dégradé_sans_nom_130-19);}.cls-21{fill:url(#Dégradé_sans_nom_130-20);}.cls-22{fill:url(#Dégradé_sans_nom_130-21);}.cls-23{fill:url(#Dégradé_sans_nom_130-22);}.cls-24{fill:url(#Dégradé_sans_nom_130-23);}.cls-25{fill:url(#Dégradé_sans_nom_130-24);}.cls-26{fill:url(#Dégradé_sans_nom_130-25);}.cls-27{fill:url(#Dégradé_sans_nom_130-26);}.cls-28{fill:url(#Dégradé_sans_nom_130-27);}.cls-29{fill:url(#Dégradé_sans_nom_130-28);}.cls-30{fill:url(#Dégradé_sans_nom_130-29);}.cls-31{fill:url(#Dégradé_sans_nom_130-30);}.cls-32{fill:url(#Dégradé_sans_nom_130-31);}.cls-33{fill:url(#Dégradé_sans_nom_130-32);}.cls-34{fill:url(#Dégradé_sans_nom_130-33);}.cls-35{fill:url(#Dégradé_sans_nom_130-34);}.cls-36{fill:url(#Dégradé_sans_nom_130-35);}.cls-37{fill:url(#Dégradé_sans_nom_130-36);}.cls-38{fill:url(#Dégradé_sans_nom_130-37);}</style><linearGradient id="Dégradé_sans_nom_14" x1="210" y1="1290" x2="1710" y2="-210" gradientUnits="userSpaceOnUse"><stop offset="0" stop-color="#6d3862"/><stop offset="1"/></linearGradient><radialGradient id="Dégradé_sans_nom_130" cx="-1102.35" cy="2582.81" r="6.01" gradientTransform="translate(3198.73 422.35) rotate(71.76)" gradientUnits="userSpaceOnUse"><stop offset="0" stop-color="#fff"/><stop offset="1" stop-color="#f9f8f8" stop-opacity="0.6"/></radialGradient><radialGradient id="Dégradé_sans_nom_130-2" cx="-1044.11" cy="2404.85" r="6.01" xlink:href="#Dégradé_sans_nom_130"/><radialGradient id="Dégradé_sans_nom_130-3" cx="-928.87" cy="2534.42" r="6.01" xlink:href="#Dégradé_sans_nom_130"/><radialGradient id="Dégradé_sans_nom_130-4" cx="-901.64" cy="2451.79" r="6.01" xlink:href="#Dégradé_sans_nom_130"/><radialGradient id="Dégradé_sans_nom_130-5" cx="-847.73" cy="2495.88" r="6.01" xlink:href="#Dégradé_sans_nom_130"/><radialGradient id="Dégradé_sans_nom_130-6" cx="-827.37" cy="1887.7" r="6.01" xlink:href="#Dégradé_sans_nom_130"/><radialGradient id="Dégradé_sans_nom_130-7" cx="-926.09" cy="2056.27" r="6.01" xlink:href="#Dégradé_sans_nom_130"/><radialGradient id="Dégradé_sans_nom_130-8" cx="-1100.59" cy="2765.57" r="6.01" xlink:href="#Dégradé_sans_nom_130"/><radialGradient id="Dégradé_sans_nom_130-9" cx="-1221.1" cy="2850.1" r="6.01" xlink:href="#Dégradé_sans_nom_130"/><radialGradient id="Dégradé_sans_nom_130-10" cx="-808.66" cy="2774.15" r="6.01" xlink:href="#Dégradé_sans_nom_130"/><radialGradient id="Dégradé_sans_nom_130-11" cx="-787.39" cy="1501.46" r="6.01" xlink:href="#Dégradé_sans_nom_130"/><radialGradient id="Dégradé_sans_nom_130-12" cx="-536.75" cy="1648.28" r="6.01" xlink:href="#Dégradé_sans_nom_130"/><radialGradient id="Dégradé_sans_nom_130-13" cx="-586.91" cy="1496.98" r="6.01" xlink:href="#Dégradé_sans_nom_130"/><radialGradient id="Dégradé_sans_nom_130-14" cx="-605.33" cy="1290.86" r="6.01" xlink:href="#Dégradé_sans_nom_130"/><radialGradient id="Dégradé_sans_nom_130-15" cx="-791.01" cy="1368.66" r="6.01" xlink:href="#Dégradé_sans_nom_130"/><radialGradient id="Dégradé_sans_nom_130-16" cx="-547.87" cy="1448.78" r="6.01" xlink:href="#Dégradé_sans_nom_130"/><radialGradient id="Dégradé_sans_nom_130-17" cx="-130.1" cy="1548.53" r="6.01" xlink:href="#Dégradé_sans_nom_130"/><radialGradient id="Dégradé_sans_nom_130-18" cx="-25.97" cy="1481.77" r="6.01" xlink:href="#Dégradé_sans_nom_130"/><radialGradient id="Dégradé_sans_nom_130-19" cx="-410.52" cy="1661.44" r="6.01" xlink:href="#Dégradé_sans_nom_130"/><radialGradient id="Dégradé_sans_nom_130-20" cx="-219.11" cy="1598.17" r="6.01" xlink:href="#Dégradé_sans_nom_130"/><radialGradient id="Dégradé_sans_nom_130-21" cx="-1158.94" cy="2627.5" r="6.01" xlink:href="#Dégradé_sans_nom_130"/><radialGradient id="Dégradé_sans_nom_130-22" cx="-831.62" cy="2634.28" r="6.01" xlink:href="#Dégradé_sans_nom_130"/><radialGradient id="Dégradé_sans_nom_130-23" cx="-430.84" cy="2760.03" r="6.01" xlink:href="#Dégradé_sans_nom_130"/><radialGradient id="Dégradé_sans_nom_130-24" cx="-595" cy="1459.31" r="6.01" xlink:href="#Dégradé_sans_nom_130"/><radialGradient id="Dégradé_sans_nom_130-25" cx="-942.05" cy="1969.31" r="6.01" xlink:href="#Dégradé_sans_nom_130"/><radialGradient id="Dégradé_sans_nom_130-26" cx="-783.65" cy="2974.38" r="6.01" xlink:href="#Dégradé_sans_nom_130"/><radialGradient id="Dégradé_sans_nom_130-27" cx="469" cy="155" r="6.01" gradientTransform="matrix(1, 0, 0, 1, 0, 0)" xlink:href="#Dégradé_sans_nom_130"/><radialGradient id="Dégradé_sans_nom_130-28" cx="1185" cy="48" r="6.01" gradientTransform="matrix(1, 0, 0, 1, 0, 0)" xlink:href="#Dégradé_sans_nom_130"/><radialGradient id="Dégradé_sans_nom_130-29" cx="904" cy="60" r="6.01" gradientTransform="matrix(1, 0, 0, 1, 0, 0)" xlink:href="#Dégradé_sans_nom_130"/><radialGradient id="Dégradé_sans_nom_130-30" cx="1808" cy="570" r="6.01" gradientTransform="matrix(1, 0, 0, 1, 0, 0)" xlink:href="#Dégradé_sans_nom_130"/><radialGradient id="Dégradé_sans_nom_130-31" cx="1687" cy="668" r="6.01" gradientTransform="matrix(1, 0, 0, 1, 0, 0)" xlink:href="#Dégradé_sans_nom_130"/><radialGradient id="Dégradé_sans_nom_130-32" cx="1720" cy="288" r="6.01" gradientTransform="matrix(1, 0, 0, 1, 0, 0)" xlink:href="#Dégradé_sans_nom_130"/><radialGradient id="Dégradé_sans_nom_130-33" cx="1593" cy="599" r="6.01" gradientTransform="matrix(1, 0, 0, 1, 0, 0)" xlink:href="#Dégradé_sans_nom_130"/><radialGradient id="Dégradé_sans_nom_130-34" cx="195" cy="384" r="6.01" gradientTransform="matrix(1, 0, 0, 1, 0, 0)" xlink:href="#Dégradé_sans_nom_130"/><radialGradient id="Dégradé_sans_nom_130-35" cx="83" cy="787" r="6.01" gradientTransform="matrix(1, 0, 0, 1, 0, 0)" xlink:href="#Dégradé_sans_nom_130"/><radialGradient id="Dégradé_sans_nom_130-36" cx="389" cy="927" r="6.01" gradientTransform="matrix(1, 0, 0, 1, 0, 0)" xlink:href="#Dégradé_sans_nom_130"/><radialGradient id="Dégradé_sans_nom_130-37" cx="228" cy="318" r="6.01" gradientTransform="matrix(1, 0, 0, 1, 0, 0)" xlink:href="#Dégradé_sans_nom_130"/></defs><title>fond-galactique</title><g id="Calque_2" data-name="Calque 2"><g id="Cockpit"><g id="Start"><g id="fond-galactique"><rect id="Fond_Galactique" data-name="Fond Galactique" class="cls-1" width="1920" height="1080"/><g id="Etoile"><polygon class="cls-2" points="394.44 183.76 397.51 178.34 403.74 178.29 406.9 183.65 403.83 189.07 397.61 189.13 394.44 183.76"/><polygon class="cls-3" points="581.69 183.38 584.76 177.96 590.99 177.91 594.15 183.27 591.08 188.69 584.85 188.75 581.69 183.38"/><polygon class="cls-4" points="494.69 333.38 497.76 327.96 503.99 327.9 507.15 333.27 504.08 338.69 497.85 338.75 494.69 333.38"/><polygon class="cls-5" points="581.69 333.38 584.76 327.96 590.99 327.9 594.15 333.27 591.08 338.69 584.85 338.75 581.69 333.38"/><polygon class="cls-6" points="556.69 398.38 559.76 392.96 565.99 392.9 569.15 398.27 566.08 403.69 559.85 403.75 556.69 398.38"/><polygon class="cls-7" points="1140.69 227.38 1143.76 221.96 1149.99 221.91 1153.15 227.27 1150.08 232.69 1143.85 232.75 1140.69 227.38"/><polygon class="cls-8" points="949.69 186.38 952.76 180.96 958.99 180.91 962.15 186.27 959.08 191.69 952.85 191.75 949.69 186.38"/><polygon class="cls-9" points="221.41 242.63 224.47 237.21 230.7 237.16 233.87 242.52 230.8 247.95 224.57 248 221.41 242.63"/><polygon class="cls-10" points="103.41 154.63 106.47 149.21 112.7 149.16 115.86 154.52 112.8 159.95 106.57 160 103.41 154.63"/><polygon class="cls-11" points="304.63 522.58 307.69 517.16 313.92 517.1 317.08 522.47 314.01 527.89 307.79 527.94 304.63 522.58"/><polygon class="cls-12" points="1520.04 144.48 1523.11 139.06 1529.33 139 1532.49 144.37 1529.43 149.79 1523.2 149.84 1520.04 144.48"/><polygon class="cls-13" points="1459.04 428.48 1462.11 423.06 1468.33 423 1471.49 428.37 1468.43 433.79 1462.2 433.84 1459.04 428.48"/><polygon class="cls-14" points="1587.04 333.48 1590.11 328.06 1596.33 328 1599.49 333.37 1596.43 338.79 1590.2 338.84 1587.04 333.48"/><polygon class="cls-15" points="1777.04 251.48 1780.11 246.06 1786.33 246 1789.49 251.37 1786.43 256.79 1780.2 256.84 1777.04 251.48"/><polygon class="cls-16" points="1645.04 99.48 1648.11 94.06 1654.33 94 1657.49 99.37 1654.43 104.79 1648.2 104.84 1645.04 99.48"/><polygon class="cls-17" points="1645.04 355.48 1648.11 350.06 1654.33 350 1657.49 355.37 1654.43 360.79 1648.2 360.84 1645.04 355.48"/><polygon class="cls-18" points="1681.04 783.48 1684.11 778.06 1690.33 778 1693.49 783.37 1690.43 788.79 1684.2 788.84 1681.04 783.48"/><polygon class="cls-19" points="1777.04 861.48 1780.11 856.06 1786.33 856 1789.49 861.37 1786.43 866.79 1780.2 866.84 1777.04 861.48"/><polygon class="cls-20" points="1486.04 552.48 1489.11 547.06 1495.33 547 1498.49 552.37 1495.43 557.79 1489.2 557.84 1486.04 552.48"/><polygon class="cls-21" points="1606.04 714.48 1609.11 709.06 1615.33 709 1618.49 714.37 1615.43 719.79 1609.2 719.84 1606.04 714.48"/><polygon class="cls-22" points="334.28 144 337.35 138.58 343.58 138.53 346.74 143.89 343.67 149.31 337.45 149.37 334.28 144"/><polygon class="cls-23" points="430.28 457 433.35 451.58 439.58 451.53 442.74 456.89 439.67 462.31 433.45 462.37 430.28 457"/><polygon class="cls-24" points="436.28 877 439.35 871.58 445.58 871.53 448.74 876.89 445.67 882.32 439.45 882.37 436.28 877"/><polygon class="cls-25" points="1620.28 314 1623.35 308.58 1629.58 308.53 1632.74 313.89 1629.67 319.31 1623.45 319.37 1620.28 314"/><polygon class="cls-26" points="1027.28 144 1030.35 138.58 1036.58 138.53 1039.74 143.89 1036.67 149.31 1030.45 149.37 1027.28 144"/><polygon class="cls-27" points="122.28 609 125.35 603.58 131.58 603.53 134.74 608.89 131.67 614.32 125.45 614.37 122.28 609"/><polygon class="cls-28" points="467.1 160.93 462.91 156.32 464.81 150.39 470.9 149.07 475.09 153.68 473.19 159.61 467.1 160.93"/><polygon class="cls-29" points="1183.1 53.93 1178.91 49.32 1180.81 43.39 1186.9 42.07 1191.09 46.68 1189.19 52.61 1183.1 53.93"/><polygon class="cls-30" points="902.1 65.93 897.91 61.32 899.81 55.39 905.9 54.07 910.09 58.68 908.19 64.61 902.1 65.93"/><polygon class="cls-31" points="1806.1 575.93 1801.91 571.32 1803.81 565.39 1809.9 564.07 1814.09 568.68 1812.19 574.61 1806.1 575.93"/><polygon class="cls-32" points="1685.1 673.93 1680.91 669.32 1682.81 663.39 1688.9 662.07 1693.09 666.68 1691.19 672.61 1685.1 673.93"/><polygon class="cls-33" points="1718.1 293.93 1713.91 289.32 1715.81 283.39 1721.9 282.07 1726.09 286.68 1724.19 292.61 1718.1 293.93"/><polygon class="cls-34" points="1591.1 604.93 1586.91 600.32 1588.81 594.39 1594.9 593.07 1599.09 597.68 1597.19 603.61 1591.1 604.93"/><polygon class="cls-35" points="193.1 389.93 188.91 385.32 190.81 379.39 196.9 378.07 201.09 382.68 199.19 388.61 193.1 389.93"/><polygon class="cls-36" points="81.1 792.93 76.91 788.32 78.81 782.39 84.9 781.07 89.09 785.68 87.19 791.61 81.1 792.93"/><polygon class="cls-37" points="387.1 932.93 382.91 928.32 384.81 922.39 390.9 921.07 395.09 925.68 393.19 931.61 387.1 932.93"/><polygon class="cls-38" points="226.1 323.93 221.91 319.32 223.81 313.39 229.9 312.07 234.09 316.68 232.19 322.61 226.1 323.93"/></g></g></g></g></g></svg>